G04 #@! TF.GenerationSoftware,KiCad,Pcbnew,9.0.0*
G04 #@! TF.CreationDate,2025-03-15T13:02:57+01:00*
G04 #@! TF.ProjectId,snowpixel,736e6f77-7069-4786-956c-2e6b69636164,rev?*
G04 #@! TF.SameCoordinates,Original*
G04 #@! TF.FileFunction,Soldermask,Bot*
G04 #@! TF.FilePolarity,Negative*
%FSLAX46Y46*%
G04 Gerber Fmt 4.6, Leading zero omitted, Abs format (unit mm)*
G04 Created by KiCad (PCBNEW 9.0.0) date 2025-03-15 13:02:57*
%MOMM*%
%LPD*%
G01*
G04 APERTURE LIST*
G04 Aperture macros list*
%AMRoundRect*
0 Rectangle with rounded corners*
0 $1 Rounding radius*
0 $2 $3 $4 $5 $6 $7 $8 $9 X,Y pos of 4 corners*
0 Add a 4 corners polygon primitive as box body*
4,1,4,$2,$3,$4,$5,$6,$7,$8,$9,$2,$3,0*
0 Add four circle primitives for the rounded corners*
1,1,$1+$1,$2,$3*
1,1,$1+$1,$4,$5*
1,1,$1+$1,$6,$7*
1,1,$1+$1,$8,$9*
0 Add four rect primitives between the rounded corners*
20,1,$1+$1,$2,$3,$4,$5,0*
20,1,$1+$1,$4,$5,$6,$7,0*
20,1,$1+$1,$6,$7,$8,$9,0*
20,1,$1+$1,$8,$9,$2,$3,0*%
%AMFreePoly0*
4,1,21,0.530354,0.450354,0.530500,0.450000,0.530500,-0.450000,0.530354,-0.450354,0.530000,-0.450500,0.440000,-0.450500,0.439646,-0.450354,0.439500,-0.450000,0.439500,-0.050500,0.350000,-0.050500,0.350000,-0.450000,-0.350000,-0.450000,-0.350000,0.450000,0.350000,0.450000,0.350000,0.050500,0.439500,0.050500,0.439500,0.450000,0.439646,0.450354,0.440000,0.450500,0.530000,0.450500,
0.530354,0.450354,0.530354,0.450354,$1*%
%AMFreePoly1*
4,1,13,0.040354,0.250354,0.040500,0.250000,0.040500,-0.300000,0.040354,-0.300354,0.040000,-0.300500,-0.050000,-0.300500,-0.050354,-0.300354,-0.050500,-0.300000,-0.050500,0.250000,-0.050354,0.250354,-0.050000,0.250500,0.040000,0.250500,0.040354,0.250354,0.040354,0.250354,$1*%
%AMFreePoly2*
4,1,13,0.050354,0.160354,0.050500,0.160000,0.050500,-0.140000,0.050354,-0.140354,0.050000,-0.140500,-0.040000,-0.140500,-0.040354,-0.140354,-0.040500,-0.140000,-0.040500,0.160000,-0.040354,0.160354,-0.040000,0.160500,0.050000,0.160500,0.050354,0.160354,0.050354,0.160354,$1*%
%AMFreePoly3*
4,1,23,0.350000,0.100060,0.649972,0.300042,0.650010,0.300049,0.650042,0.300028,0.650050,0.300000,0.650050,0.000050,0.950000,0.000050,0.950035,0.000035,0.950050,0.000000,0.950035,-0.000035,0.950028,-0.000042,0.500028,-0.300042,0.499990,-0.300049,0.499958,-0.300028,0.499950,-0.300000,0.499950,-0.050094,0.350028,-0.150042,0.350000,-0.150047,0.350000,-0.450000,-0.350000,-0.450000,
-0.350000,0.450000,0.350000,0.450000,0.350000,0.100060,0.350000,0.100060,$1*%
%AMFreePoly4*
4,1,18,0.750354,0.450354,0.750500,0.450000,0.750354,0.449646,0.300708,0.000000,0.750354,-0.449646,0.750500,-0.450000,0.750354,-0.450354,0.750000,-0.450500,0.000000,-0.450500,-0.000354,-0.450354,-0.000500,-0.450000,-0.300000,-0.450000,-0.300000,0.450000,-0.000500,0.450000,-0.000354,0.450354,0.000000,0.450500,0.750000,0.450500,0.750354,0.450354,0.750354,0.450354,$1*%
%AMFreePoly5*
4,1,17,0.550355,0.450146,0.550708,0.449999,0.550854,0.449645,0.550708,0.449292,0.101416,0.000000,0.550708,-0.449292,0.550854,-0.449646,0.550708,-0.450000,0.550355,-0.450146,0.350001,-0.450500,0.349646,-0.450354,-0.100354,-0.000354,-0.100500,0.000000,-0.100354,0.000354,0.349646,0.450354,0.350001,0.450500,0.550355,0.450146,0.550355,0.450146,$1*%
%AMFreePoly6*
4,1,16,0.275354,0.450354,0.725354,0.000354,0.725500,0.000000,0.725354,-0.000354,0.275354,-0.450354,0.275000,-0.450500,-0.125000,-0.450500,-0.125354,-0.450354,-0.125500,-0.450000,-0.275000,-0.450000,-0.275000,0.450000,-0.125500,0.450000,-0.125354,0.450354,-0.125000,0.450500,0.275000,0.450500,0.275354,0.450354,0.275354,0.450354,$1*%
%AMFreePoly7*
4,1,17,-0.299646,0.450354,0.150354,0.000354,0.150500,0.000000,0.150354,-0.000354,-0.299646,-0.450354,-0.300000,-0.450500,-0.500000,-0.450500,-0.500354,-0.450354,-0.500500,-0.450000,-0.500354,-0.449646,-0.050708,0.000000,-0.500354,0.449646,-0.500500,0.450000,-0.500354,0.450354,-0.500000,0.450500,-0.300000,0.450500,-0.299646,0.450354,-0.299646,0.450354,$1*%
G04 Aperture macros list end*
%ADD10RoundRect,0.140000X0.170000X-0.140000X0.170000X0.140000X-0.170000X0.140000X-0.170000X-0.140000X0*%
%ADD11C,0.900000*%
%ADD12FreePoly0,0.000000*%
%ADD13FreePoly1,0.000000*%
%ADD14FreePoly2,0.000000*%
%ADD15FreePoly0,270.000000*%
%ADD16FreePoly1,270.000000*%
%ADD17FreePoly2,270.000000*%
%ADD18FreePoly3,270.000000*%
%ADD19FreePoly4,90.000000*%
%ADD20FreePoly5,90.000000*%
%ADD21FreePoly0,90.000000*%
%ADD22FreePoly1,90.000000*%
%ADD23FreePoly2,90.000000*%
%ADD24FreePoly3,90.000000*%
%ADD25FreePoly3,0.000000*%
%ADD26FreePoly3,180.000000*%
%ADD27FreePoly6,270.000000*%
%ADD28FreePoly7,270.000000*%
%ADD29FreePoly6,0.000000*%
%ADD30FreePoly7,0.000000*%
%ADD31FreePoly4,180.000000*%
%ADD32FreePoly5,180.000000*%
%ADD33FreePoly0,180.000000*%
%ADD34FreePoly1,180.000000*%
%ADD35FreePoly2,180.000000*%
G04 APERTURE END LIST*
D10*
X123350000Y-59970000D03*
X123350000Y-60930000D03*
X123350000Y-63530000D03*
X123350000Y-62570000D03*
D11*
X108400000Y-65200000D03*
D12*
X108750000Y-65200000D03*
D13*
X109420000Y-65200000D03*
D14*
X109590000Y-65200000D03*
D11*
X123350000Y-50250000D03*
D15*
X123350000Y-50600000D03*
D16*
X123350000Y-51270000D03*
D17*
X123350000Y-51440000D03*
D11*
X120850000Y-50250000D03*
D18*
X120850000Y-50600000D03*
D11*
X118350000Y-70175000D03*
D19*
X118350000Y-69875000D03*
D20*
X118350000Y-69375000D03*
D10*
X118300000Y-63410000D03*
X118300000Y-62450000D03*
D11*
X113350000Y-70150000D03*
D21*
X113350000Y-69800000D03*
D22*
X113350000Y-69130000D03*
D23*
X113350000Y-68960000D03*
D11*
X125850000Y-50250000D03*
D15*
X125850000Y-50600000D03*
D16*
X125850000Y-51270000D03*
D17*
X125850000Y-51440000D03*
D11*
X108400000Y-55200000D03*
D12*
X108750000Y-55200000D03*
D13*
X109420000Y-55200000D03*
D14*
X109590000Y-55200000D03*
D11*
X110850000Y-50250000D03*
D15*
X110850000Y-50600000D03*
D16*
X110850000Y-51270000D03*
D17*
X110850000Y-51440000D03*
D11*
X115850000Y-50250000D03*
D18*
X115850000Y-50600000D03*
D11*
X110850000Y-70150000D03*
D21*
X110850000Y-69800000D03*
D22*
X110850000Y-69130000D03*
D23*
X110850000Y-68960000D03*
D11*
X115850000Y-70150000D03*
D24*
X115850000Y-69800000D03*
D11*
X108400000Y-67700000D03*
D12*
X108750000Y-67700000D03*
D13*
X109420000Y-67700000D03*
D14*
X109590000Y-67700000D03*
D11*
X108400000Y-62700000D03*
D25*
X108750000Y-62700000D03*
D10*
X113350000Y-61050000D03*
X113350000Y-60090000D03*
D11*
X125850000Y-70150000D03*
D21*
X125850000Y-69800000D03*
D22*
X125850000Y-69130000D03*
D23*
X125850000Y-68960000D03*
D11*
X108400000Y-52700000D03*
D12*
X108750000Y-52700000D03*
D13*
X109420000Y-52700000D03*
D14*
X109590000Y-52700000D03*
D11*
X128300000Y-62700000D03*
D26*
X127950000Y-62700000D03*
D11*
X118350000Y-50250000D03*
D27*
X118350000Y-50525000D03*
D28*
X118350000Y-51450000D03*
D11*
X113350000Y-50250000D03*
D15*
X113350000Y-50600000D03*
D16*
X113350000Y-51270000D03*
D17*
X113350000Y-51440000D03*
D11*
X108400000Y-57700000D03*
D25*
X108750000Y-57700000D03*
D11*
X108395000Y-60200000D03*
D29*
X108670000Y-60200000D03*
D30*
X109595000Y-60200000D03*
D11*
X128300000Y-60200000D03*
D31*
X128000000Y-60200000D03*
D32*
X127500000Y-60200000D03*
D11*
X120850000Y-70179775D03*
D24*
X120850000Y-69829775D03*
D10*
X118350000Y-58480000D03*
X118350000Y-57520000D03*
D11*
X128300000Y-52700000D03*
D33*
X127950000Y-52700000D03*
D34*
X127280000Y-52700000D03*
D35*
X127110000Y-52700000D03*
D11*
X128300000Y-55200000D03*
D33*
X127950000Y-55200000D03*
D34*
X127280000Y-55200000D03*
D35*
X127110000Y-55200000D03*
D11*
X128300000Y-67700000D03*
D33*
X127950000Y-67700000D03*
D34*
X127280000Y-67700000D03*
D35*
X127110000Y-67700000D03*
D10*
X123350000Y-58530000D03*
X123350000Y-57570000D03*
D11*
X128300000Y-57700000D03*
D26*
X127950000Y-57700000D03*
D10*
X113350000Y-58450000D03*
X113350000Y-57490000D03*
D11*
X123350000Y-70150000D03*
D21*
X123350000Y-69800000D03*
D22*
X123350000Y-69130000D03*
D23*
X123350000Y-68960000D03*
D10*
X118350000Y-60980000D03*
X118350000Y-60020000D03*
D11*
X128300000Y-65200000D03*
D33*
X127950000Y-65200000D03*
D34*
X127280000Y-65200000D03*
D35*
X127110000Y-65200000D03*
D10*
X113350000Y-63450000D03*
X113350000Y-62490000D03*
M02*
