%TF.GenerationSoftware,KiCad,Pcbnew,9.0.0*%
%TF.CreationDate,2025-03-15T13:03:48+01:00*%
%TF.ProjectId,snowpixel,736e6f77-7069-4786-956c-2e6b69636164,rev?*%
%TF.SameCoordinates,Original*%
%TF.FileFunction,Drillmap*%
%TF.FilePolarity,Positive*%
%FSLAX45Y45*%
G04 Gerber Fmt 4.5, Leading zero omitted, Abs format (unit mm)*
G04 Created by KiCad (PCBNEW 9.0.0) date 2025-03-15 13:03:48*
%MOMM*%
%LPD*%
G01*
G04 APERTURE LIST*
%ADD10C,0.100000*%
%ADD11C,0.200000*%
G04 APERTURE END LIST*
D10*
X10840000Y-5025000D02*
X12830000Y-5025000D01*
X12830000Y-7015000D01*
X10840000Y-7015000D01*
X10840000Y-5025000D01*
D11*
X11095777Y-7331484D02*
X11095777Y-7131484D01*
X11095777Y-7131484D02*
X11143396Y-7131484D01*
X11143396Y-7131484D02*
X11171967Y-7141008D01*
X11171967Y-7141008D02*
X11191015Y-7160055D01*
X11191015Y-7160055D02*
X11200539Y-7179103D01*
X11200539Y-7179103D02*
X11210062Y-7217198D01*
X11210062Y-7217198D02*
X11210062Y-7245769D01*
X11210062Y-7245769D02*
X11200539Y-7283865D01*
X11200539Y-7283865D02*
X11191015Y-7302912D01*
X11191015Y-7302912D02*
X11171967Y-7321960D01*
X11171967Y-7321960D02*
X11143396Y-7331484D01*
X11143396Y-7331484D02*
X11095777Y-7331484D01*
X11295777Y-7331484D02*
X11295777Y-7198150D01*
X11295777Y-7236246D02*
X11305301Y-7217198D01*
X11305301Y-7217198D02*
X11314824Y-7207674D01*
X11314824Y-7207674D02*
X11333872Y-7198150D01*
X11333872Y-7198150D02*
X11352920Y-7198150D01*
X11419586Y-7331484D02*
X11419586Y-7198150D01*
X11419586Y-7131484D02*
X11410062Y-7141008D01*
X11410062Y-7141008D02*
X11419586Y-7150531D01*
X11419586Y-7150531D02*
X11429110Y-7141008D01*
X11429110Y-7141008D02*
X11419586Y-7131484D01*
X11419586Y-7131484D02*
X11419586Y-7150531D01*
X11543396Y-7331484D02*
X11524348Y-7321960D01*
X11524348Y-7321960D02*
X11514824Y-7302912D01*
X11514824Y-7302912D02*
X11514824Y-7131484D01*
X11648158Y-7331484D02*
X11629110Y-7321960D01*
X11629110Y-7321960D02*
X11619586Y-7302912D01*
X11619586Y-7302912D02*
X11619586Y-7131484D01*
X11876729Y-7331484D02*
X11876729Y-7131484D01*
X11876729Y-7131484D02*
X11943396Y-7274341D01*
X11943396Y-7274341D02*
X12010062Y-7131484D01*
X12010062Y-7131484D02*
X12010062Y-7331484D01*
X12191015Y-7331484D02*
X12191015Y-7226722D01*
X12191015Y-7226722D02*
X12181491Y-7207674D01*
X12181491Y-7207674D02*
X12162443Y-7198150D01*
X12162443Y-7198150D02*
X12124348Y-7198150D01*
X12124348Y-7198150D02*
X12105301Y-7207674D01*
X12191015Y-7321960D02*
X12171967Y-7331484D01*
X12171967Y-7331484D02*
X12124348Y-7331484D01*
X12124348Y-7331484D02*
X12105301Y-7321960D01*
X12105301Y-7321960D02*
X12095777Y-7302912D01*
X12095777Y-7302912D02*
X12095777Y-7283865D01*
X12095777Y-7283865D02*
X12105301Y-7264817D01*
X12105301Y-7264817D02*
X12124348Y-7255293D01*
X12124348Y-7255293D02*
X12171967Y-7255293D01*
X12171967Y-7255293D02*
X12191015Y-7245769D01*
X12286253Y-7198150D02*
X12286253Y-7398150D01*
X12286253Y-7207674D02*
X12305301Y-7198150D01*
X12305301Y-7198150D02*
X12343396Y-7198150D01*
X12343396Y-7198150D02*
X12362443Y-7207674D01*
X12362443Y-7207674D02*
X12371967Y-7217198D01*
X12371967Y-7217198D02*
X12381491Y-7236246D01*
X12381491Y-7236246D02*
X12381491Y-7293388D01*
X12381491Y-7293388D02*
X12371967Y-7312436D01*
X12371967Y-7312436D02*
X12362443Y-7321960D01*
X12362443Y-7321960D02*
X12343396Y-7331484D01*
X12343396Y-7331484D02*
X12305301Y-7331484D01*
X12305301Y-7331484D02*
X12286253Y-7321960D01*
X12467205Y-7312436D02*
X12476729Y-7321960D01*
X12476729Y-7321960D02*
X12467205Y-7331484D01*
X12467205Y-7331484D02*
X12457682Y-7321960D01*
X12457682Y-7321960D02*
X12467205Y-7312436D01*
X12467205Y-7312436D02*
X12467205Y-7331484D01*
X12467205Y-7207674D02*
X12476729Y-7217198D01*
X12476729Y-7217198D02*
X12467205Y-7226722D01*
X12467205Y-7226722D02*
X12457682Y-7217198D01*
X12457682Y-7217198D02*
X12467205Y-7207674D01*
X12467205Y-7207674D02*
X12467205Y-7226722D01*
M02*
