G04 #@! TF.GenerationSoftware,KiCad,Pcbnew,9.0.0*
G04 #@! TF.CreationDate,2025-03-15T13:02:56+01:00*
G04 #@! TF.ProjectId,snowpixel,736e6f77-7069-4786-956c-2e6b69636164,rev?*
G04 #@! TF.SameCoordinates,Original*
G04 #@! TF.FileFunction,Copper,L1,Top*
G04 #@! TF.FilePolarity,Positive*
%FSLAX46Y46*%
G04 Gerber Fmt 4.6, Leading zero omitted, Abs format (unit mm)*
G04 Created by KiCad (PCBNEW 9.0.0) date 2025-03-15 13:02:56*
%MOMM*%
%LPD*%
G01*
G04 APERTURE LIST*
G04 #@! TA.AperFunction,SMDPad,CuDef*
%ADD10R,0.450000X0.450000*%
G04 #@! TD*
G04 #@! TA.AperFunction,ComponentPad*
%ADD11C,0.900000*%
G04 #@! TD*
G04 #@! TA.AperFunction,ViaPad*
%ADD12C,0.400000*%
G04 #@! TD*
G04 #@! TA.AperFunction,Conductor*
%ADD13C,0.200000*%
G04 #@! TD*
G04 #@! TA.AperFunction,Conductor*
%ADD14C,0.400000*%
G04 #@! TD*
G04 APERTURE END LIST*
D10*
X120025000Y-69375000D03*
X119175000Y-69375000D03*
X120025000Y-68525000D03*
X119175000Y-68525000D03*
X111675000Y-64375000D03*
X111675000Y-63525000D03*
X112525000Y-64375000D03*
X112525000Y-63525000D03*
X117525000Y-69375000D03*
X116675000Y-69375000D03*
X117525000Y-68525000D03*
X116675000Y-68525000D03*
X121675000Y-56875000D03*
X121675000Y-56025000D03*
X122525000Y-56875000D03*
X122525000Y-56025000D03*
X111675000Y-54375000D03*
X111675000Y-53525000D03*
X112525000Y-54375000D03*
X112525000Y-53525000D03*
X110025000Y-69375000D03*
X109175000Y-69375000D03*
X110025000Y-68525000D03*
X109175000Y-68525000D03*
X119175000Y-54375000D03*
X119175000Y-53525000D03*
X120025000Y-54375000D03*
X120025000Y-53525000D03*
X109175000Y-66875000D03*
X109175000Y-66025000D03*
X110025000Y-66875000D03*
X110025000Y-66025000D03*
X111675000Y-59375000D03*
X111675000Y-58525000D03*
X112525000Y-59375000D03*
X112525000Y-58525000D03*
X114175000Y-59375000D03*
X114175000Y-58525000D03*
X115025000Y-59375000D03*
X115025000Y-58525000D03*
X116675000Y-66875000D03*
X116675000Y-66025000D03*
X117525000Y-66875000D03*
X117525000Y-66025000D03*
X124175000Y-54375000D03*
X124175000Y-53525000D03*
X125025000Y-54375000D03*
X125025000Y-53525000D03*
X125025000Y-69375000D03*
X124175000Y-69375000D03*
X125025000Y-68525000D03*
X124175000Y-68525000D03*
X116675000Y-56875000D03*
X116675000Y-56025000D03*
X117525000Y-56875000D03*
X117525000Y-56025000D03*
X121675000Y-59375000D03*
X121675000Y-58525000D03*
X122525000Y-59375000D03*
X122525000Y-58525000D03*
X119175000Y-66875000D03*
X119175000Y-66025000D03*
X120025000Y-66875000D03*
X120025000Y-66025000D03*
X117525000Y-51875000D03*
X116675000Y-51875000D03*
X117525000Y-51025000D03*
X116675000Y-51025000D03*
X112525000Y-51875000D03*
X111675000Y-51875000D03*
X112525000Y-51025000D03*
X111675000Y-51025000D03*
X111675000Y-66875000D03*
X111675000Y-66025000D03*
X112525000Y-66875000D03*
X112525000Y-66025000D03*
X120025000Y-51875000D03*
X119175000Y-51875000D03*
X120025000Y-51025000D03*
X119175000Y-51025000D03*
X114175000Y-56875000D03*
X114175000Y-56025000D03*
X115025000Y-56875000D03*
X115025000Y-56025000D03*
X119175000Y-56875000D03*
X119175000Y-56025000D03*
X120025000Y-56875000D03*
X120025000Y-56025000D03*
X119175000Y-61875000D03*
X119175000Y-61025000D03*
X120025000Y-61875000D03*
X120025000Y-61025000D03*
X124175000Y-61875000D03*
X124175000Y-61025000D03*
X125025000Y-61875000D03*
X125025000Y-61025000D03*
X110025000Y-51875000D03*
X109175000Y-51875000D03*
X110025000Y-51025000D03*
X109175000Y-51025000D03*
X126675000Y-56875000D03*
X126675000Y-56025000D03*
X127525000Y-56875000D03*
X127525000Y-56025000D03*
X119175000Y-59375000D03*
X119175000Y-58525000D03*
X120025000Y-59375000D03*
X120025000Y-58525000D03*
X127525000Y-69375000D03*
X126675000Y-69375000D03*
X127525000Y-68525000D03*
X126675000Y-68525000D03*
X111675000Y-61875000D03*
X111675000Y-61025000D03*
X112525000Y-61875000D03*
X112525000Y-61025000D03*
X122525000Y-51875000D03*
X121675000Y-51875000D03*
X122525000Y-51025000D03*
X121675000Y-51025000D03*
X121675000Y-66875000D03*
X121675000Y-66025000D03*
X122525000Y-66875000D03*
X122525000Y-66025000D03*
X119175000Y-64375000D03*
X119175000Y-63525000D03*
X120025000Y-64375000D03*
X120025000Y-63525000D03*
X116675000Y-64375000D03*
X116675000Y-63525000D03*
X117525000Y-64375000D03*
X117525000Y-63525000D03*
X111675000Y-56875000D03*
X111675000Y-56025000D03*
X112525000Y-56875000D03*
X112525000Y-56025000D03*
X126675000Y-66875000D03*
X126675000Y-66025000D03*
X127525000Y-66875000D03*
X127525000Y-66025000D03*
X109175000Y-61875000D03*
X109175000Y-61025000D03*
X110025000Y-61875000D03*
X110025000Y-61025000D03*
X114175000Y-64375000D03*
X114175000Y-63525000D03*
X115025000Y-64375000D03*
X115025000Y-63525000D03*
X124175000Y-56875000D03*
X124175000Y-56025000D03*
X125025000Y-56875000D03*
X125025000Y-56025000D03*
X126675000Y-61875000D03*
X126675000Y-61025000D03*
X127525000Y-61875000D03*
X127525000Y-61025000D03*
X116675000Y-61875000D03*
X116675000Y-61025000D03*
X117525000Y-61875000D03*
X117525000Y-61025000D03*
X124175000Y-59375000D03*
X124175000Y-58525000D03*
X125025000Y-59375000D03*
X125025000Y-58525000D03*
X114175000Y-61875000D03*
X114175000Y-61025000D03*
X115025000Y-61875000D03*
X115025000Y-61025000D03*
X124175000Y-66875000D03*
X124175000Y-66025000D03*
X125025000Y-66875000D03*
X125025000Y-66025000D03*
X124175000Y-64375000D03*
X124175000Y-63525000D03*
X125025000Y-64375000D03*
X125025000Y-63525000D03*
X109175000Y-54375000D03*
X109175000Y-53525000D03*
X110025000Y-54375000D03*
X110025000Y-53525000D03*
X116675000Y-54375000D03*
X116675000Y-53525000D03*
X117525000Y-54375000D03*
X117525000Y-53525000D03*
X125025000Y-51875000D03*
X124175000Y-51875000D03*
X125025000Y-51025000D03*
X124175000Y-51025000D03*
X109175000Y-59375000D03*
X109175000Y-58525000D03*
X110025000Y-59375000D03*
X110025000Y-58525000D03*
X126675000Y-64375000D03*
X126675000Y-63525000D03*
X127525000Y-64375000D03*
X127525000Y-63525000D03*
X109175000Y-56875000D03*
X109175000Y-56025000D03*
X110025000Y-56875000D03*
X110025000Y-56025000D03*
X121675000Y-54375000D03*
X121675000Y-53525000D03*
X122525000Y-54375000D03*
X122525000Y-53525000D03*
X127525000Y-51875000D03*
X126675000Y-51875000D03*
X127525000Y-51025000D03*
X126675000Y-51025000D03*
X112525000Y-69375000D03*
X111675000Y-69375000D03*
X112525000Y-68525000D03*
X111675000Y-68525000D03*
X122525000Y-69375000D03*
X121675000Y-69375000D03*
X122525000Y-68525000D03*
X121675000Y-68525000D03*
X115025000Y-69375000D03*
X114175000Y-69375000D03*
X115025000Y-68525000D03*
X114175000Y-68525000D03*
X116675000Y-59375000D03*
X116675000Y-58525000D03*
X117525000Y-59375000D03*
X117525000Y-58525000D03*
X121675000Y-64375000D03*
X121675000Y-63525000D03*
X122525000Y-64375000D03*
X122525000Y-63525000D03*
X115025000Y-51875000D03*
X114175000Y-51875000D03*
X115025000Y-51025000D03*
X114175000Y-51025000D03*
X121675000Y-61875000D03*
X121675000Y-61025000D03*
X122525000Y-61875000D03*
X122525000Y-61025000D03*
X114175000Y-66875000D03*
X114175000Y-66025000D03*
X115025000Y-66875000D03*
X115025000Y-66025000D03*
X114175000Y-54375000D03*
X114175000Y-53525000D03*
X115025000Y-54375000D03*
X115025000Y-53525000D03*
X126675000Y-54375000D03*
X126675000Y-53525000D03*
X127525000Y-54375000D03*
X127525000Y-53525000D03*
X109175000Y-64375000D03*
X109175000Y-63525000D03*
X110025000Y-64375000D03*
X110025000Y-63525000D03*
X126675000Y-59375000D03*
X126675000Y-58525000D03*
X127525000Y-59375000D03*
X127525000Y-58525000D03*
D11*
X108400000Y-65200000D03*
X123350000Y-50250000D03*
X120850000Y-50250000D03*
X118350000Y-70175000D03*
X113350000Y-70150000D03*
X125850000Y-50250000D03*
X108400000Y-55200000D03*
X110850000Y-50250000D03*
X115850000Y-50250000D03*
X110850000Y-70150000D03*
X115850000Y-70150000D03*
X108400000Y-67700000D03*
X108400000Y-62700000D03*
X125850000Y-70150000D03*
X108400000Y-52700000D03*
X128300000Y-62700000D03*
X118350000Y-50250000D03*
X113350000Y-50250000D03*
X108400000Y-57700000D03*
X108395000Y-60200000D03*
X128300000Y-60200000D03*
X120850000Y-70179775D03*
X128300000Y-52700000D03*
X128300000Y-55200000D03*
X128300000Y-67700000D03*
X128300000Y-57700000D03*
X123350000Y-70150000D03*
X128300000Y-65200000D03*
D12*
X123150000Y-65940000D03*
X119399998Y-69150001D03*
X119399998Y-53750000D03*
X111899999Y-66249998D03*
X109399998Y-66250000D03*
X126650000Y-60325000D03*
X119399999Y-63749998D03*
X121695093Y-65547307D03*
X114399999Y-56249998D03*
X114399998Y-69150002D03*
X109399999Y-58749998D03*
X126899998Y-69150001D03*
X124399999Y-63749998D03*
X114399999Y-61249998D03*
X109399999Y-56249998D03*
X109399999Y-63749998D03*
X114399999Y-63749998D03*
X114399998Y-58749999D03*
X111899998Y-56249999D03*
X124399998Y-56250000D03*
X111899998Y-53750000D03*
X123150000Y-68220000D03*
X124399998Y-69150001D03*
X116899999Y-58749998D03*
X121900000Y-69150002D03*
X126650000Y-52850000D03*
X126650000Y-55450000D03*
X120650000Y-68290000D03*
X126650000Y-57700000D03*
X116899998Y-56249999D03*
X111899999Y-61249998D03*
X109399998Y-53749999D03*
X124149999Y-65513013D03*
X119399998Y-56250000D03*
X115650000Y-51975000D03*
X121899999Y-56249998D03*
X116899999Y-53749998D03*
X116900000Y-69150002D03*
X116899998Y-63750000D03*
X124399998Y-53749999D03*
X121899998Y-58749999D03*
X121899998Y-61249999D03*
X109399999Y-61249998D03*
X116649999Y-65531413D03*
X126669400Y-62884400D03*
X124399999Y-58749998D03*
X114399998Y-53749999D03*
X119149999Y-65516813D03*
X121900000Y-63749998D03*
X116899999Y-61250001D03*
X120650000Y-66000000D03*
X111899998Y-69150001D03*
X114150000Y-65520613D03*
X126650000Y-65449800D03*
X119399999Y-61249998D03*
X124399999Y-61249998D03*
X119399999Y-58749998D03*
X115609687Y-53125000D03*
X111899999Y-58749998D03*
X109399998Y-69150001D03*
X121899998Y-53750000D03*
X111899999Y-63749998D03*
X108800000Y-50650000D03*
X110650000Y-53149999D03*
X110384994Y-60423466D03*
X115036200Y-54985000D03*
X117525400Y-57448800D03*
X120014600Y-57448800D03*
X125043800Y-59963400D03*
X117525400Y-59938000D03*
X119800001Y-51249998D03*
X122503800Y-62427200D03*
X127300002Y-64150001D03*
X119800002Y-66650001D03*
X122529200Y-64967200D03*
X127300002Y-66650001D03*
X117525400Y-62478000D03*
X120040000Y-62478000D03*
X115036200Y-64992600D03*
X112521600Y-57499600D03*
X127300002Y-56650001D03*
X117300001Y-51249998D03*
X109800001Y-51249998D03*
X122529200Y-59938000D03*
X125650000Y-68819200D03*
X110150000Y-57400000D03*
X127300002Y-61650001D03*
X115036200Y-57474200D03*
X125018400Y-54959600D03*
X110050000Y-62478000D03*
X110025000Y-59875000D03*
X127300001Y-51249998D03*
X120040000Y-54959600D03*
X125018400Y-62452600D03*
X110032400Y-64941800D03*
X112521600Y-59963400D03*
X124800002Y-66650001D03*
X122529200Y-54959600D03*
X125043800Y-57448800D03*
X122529200Y-57448800D03*
X117300001Y-66650002D03*
X124800001Y-51249998D03*
X122300001Y-51249998D03*
X120014600Y-59938000D03*
X110025000Y-55061200D03*
X112300001Y-51249998D03*
X112521600Y-55035800D03*
X114800002Y-66650001D03*
X115036200Y-62478000D03*
X112521600Y-62452600D03*
X122300002Y-66650001D03*
X127334600Y-54150002D03*
X112521600Y-64967200D03*
X117525400Y-54959600D03*
X117525400Y-64992600D03*
X114800001Y-51249998D03*
X120014600Y-64967200D03*
X127300002Y-59150001D03*
X115036200Y-59988800D03*
X125018400Y-64967200D03*
X127900000Y-69750000D03*
X125650000Y-60500000D03*
X125650000Y-67329400D03*
D13*
X110025000Y-51875000D02*
X110025000Y-53525000D01*
D14*
X115650000Y-53084687D02*
X115650000Y-51975000D01*
D13*
X119175000Y-63525000D02*
X119175001Y-63525000D01*
X111675000Y-69375000D02*
X111675000Y-69374999D01*
X114150000Y-65520613D02*
X114175000Y-65545613D01*
X111675000Y-58525000D02*
X111675001Y-58525000D01*
X111675000Y-61025000D02*
X111675001Y-61025000D01*
X119175000Y-56025000D02*
X119175000Y-56025002D01*
X119175000Y-56025002D02*
X119399998Y-56250000D01*
X111675000Y-69374999D02*
X111899998Y-69150001D01*
X116675000Y-56025000D02*
X116675000Y-56025001D01*
X124175001Y-61025000D02*
X124399999Y-61249998D01*
X111675001Y-58525000D02*
X111899999Y-58749998D01*
X119175000Y-58525000D02*
X119175001Y-58525000D01*
X114175001Y-63525000D02*
X114399999Y-63749998D01*
X109175000Y-63525000D02*
X109175001Y-63525000D01*
X126650000Y-55450000D02*
X126650000Y-56000000D01*
X109175000Y-66025002D02*
X109399998Y-66250000D01*
X121675000Y-53525002D02*
X121899998Y-53750000D01*
X126675000Y-52875000D02*
X126675000Y-53525000D01*
X124149999Y-65513013D02*
X124149999Y-65999999D01*
X124175000Y-58525000D02*
X124175001Y-58525000D01*
X116675000Y-58525000D02*
X116675001Y-58525000D01*
X119149999Y-65516813D02*
X119149999Y-65999999D01*
X126650000Y-65449800D02*
X126650000Y-66000000D01*
X109175000Y-61025000D02*
X109175001Y-61025000D01*
X119175000Y-69375000D02*
X119175000Y-69374999D01*
X116675002Y-69375000D02*
X116900000Y-69150002D01*
X124175001Y-58525000D02*
X124399999Y-58749998D01*
X126675000Y-52825000D02*
X126675000Y-51875000D01*
X124175000Y-53525001D02*
X124399998Y-53749999D01*
X116675000Y-56025001D02*
X116899998Y-56249999D01*
X124175000Y-63525000D02*
X124175001Y-63525000D01*
X119175000Y-51875000D02*
X119175000Y-53525002D01*
X116649999Y-65999999D02*
X116675000Y-66025000D01*
X126669400Y-63519400D02*
X126675000Y-63525000D01*
X126650000Y-52850000D02*
X126675000Y-52825000D01*
X124175000Y-69375000D02*
X124175000Y-69374999D01*
X124175001Y-63525000D02*
X124399999Y-63749998D01*
X109175000Y-69375000D02*
X109175000Y-69374999D01*
X116675001Y-58525000D02*
X116899999Y-58749998D01*
D14*
X120650000Y-66000000D02*
X120650000Y-68290000D01*
D13*
X121675001Y-56025000D02*
X121899999Y-56249998D01*
X111675001Y-61025000D02*
X111899999Y-61249998D01*
X116675000Y-63525000D02*
X116675000Y-63525002D01*
X126650000Y-66000000D02*
X126675000Y-66025000D01*
X114175000Y-69375000D02*
X114399998Y-69150002D01*
X111675000Y-63525000D02*
X111675001Y-63525000D01*
X121675000Y-58525000D02*
X121675000Y-58525001D01*
X119175000Y-53525002D02*
X119399998Y-53750000D01*
X126650000Y-60325000D02*
X126650000Y-61000000D01*
X114175001Y-61025000D02*
X114399999Y-61249998D01*
X126675000Y-69374999D02*
X126899998Y-69150001D01*
X121695093Y-65547307D02*
X121695093Y-66004907D01*
X109175000Y-51875000D02*
X109175000Y-53525001D01*
X116675000Y-63525002D02*
X116899998Y-63750000D01*
X121675000Y-61025000D02*
X121675000Y-61025001D01*
X114175000Y-53525001D02*
X114399998Y-53749999D01*
X119175001Y-58525000D02*
X119399999Y-58749998D01*
X124175000Y-56025002D02*
X124399998Y-56250000D01*
X109175000Y-69374999D02*
X109399998Y-69150001D01*
X116675001Y-53525000D02*
X116899999Y-53749998D01*
X114175000Y-58525001D02*
X114399998Y-58749999D01*
X111675001Y-63525000D02*
X111899999Y-63749998D01*
X109175001Y-61025000D02*
X109399999Y-61249998D01*
X126669400Y-62884400D02*
X126669400Y-63519400D01*
X124175000Y-61025000D02*
X124175001Y-61025000D01*
X111675000Y-66025000D02*
X111675001Y-66025000D01*
X116675000Y-61025000D02*
X116675000Y-61025002D01*
X121675000Y-61025001D02*
X121899998Y-61249999D01*
X111675001Y-66025000D02*
X111899999Y-66249998D01*
X121675000Y-51875000D02*
X121675000Y-53525002D01*
D14*
X115609687Y-53125000D02*
X115650000Y-53084687D01*
D13*
X116649999Y-65531413D02*
X116649999Y-65999999D01*
X124175000Y-69374999D02*
X124399998Y-69150001D01*
X126650000Y-56000000D02*
X126675000Y-56025000D01*
X119175001Y-61025000D02*
X119399999Y-61249998D01*
X114175001Y-56025000D02*
X114399999Y-56249998D01*
X124149999Y-65999999D02*
X124175000Y-66025000D01*
X121695093Y-66004907D02*
X121675000Y-66025000D01*
X111675000Y-56025000D02*
X111675000Y-56025001D01*
X126675000Y-69375000D02*
X126675000Y-69374999D01*
X109175000Y-56025000D02*
X109175001Y-56025000D01*
X126650000Y-61000000D02*
X126675000Y-61025000D01*
X114175000Y-56025000D02*
X114175001Y-56025000D01*
X121675000Y-58525001D02*
X121899998Y-58749999D01*
X111675000Y-56025001D02*
X111899998Y-56249999D01*
X124175000Y-51875000D02*
X124175000Y-53525001D01*
X114175000Y-63525000D02*
X114175001Y-63525000D01*
X111675000Y-51875000D02*
X111675000Y-53525002D01*
X116675000Y-69375000D02*
X116675002Y-69375000D01*
X114175000Y-61025000D02*
X114175001Y-61025000D01*
X126650000Y-57700000D02*
X126675000Y-57725000D01*
D14*
X123150000Y-68220000D02*
X123150000Y-65940000D01*
D13*
X119175001Y-63525000D02*
X119399999Y-63749998D01*
X109175001Y-58525000D02*
X109399999Y-58749998D01*
X121675002Y-63525000D02*
X121900000Y-63749998D01*
X121675000Y-56025000D02*
X121675001Y-56025000D01*
X119149999Y-65999999D02*
X119175000Y-66025000D01*
X114175000Y-58525000D02*
X114175000Y-58525001D01*
X119175000Y-69374999D02*
X119399998Y-69150001D01*
X109175000Y-53525001D02*
X109399998Y-53749999D01*
X109175000Y-66025000D02*
X109175000Y-66025002D01*
X126650000Y-52850000D02*
X126675000Y-52875000D01*
X111675000Y-53525002D02*
X111899998Y-53750000D01*
X116675000Y-53525000D02*
X116675001Y-53525000D01*
X116675000Y-61025002D02*
X116899999Y-61250001D01*
X114175000Y-51875000D02*
X114175000Y-53525001D01*
X116675000Y-51875000D02*
X116675000Y-53525000D01*
X121675000Y-63525000D02*
X121675002Y-63525000D01*
X109175001Y-56025000D02*
X109399999Y-56249998D01*
X121675000Y-69375000D02*
X121675002Y-69375000D01*
X109175001Y-63525000D02*
X109399999Y-63749998D01*
X109175000Y-58525000D02*
X109175001Y-58525000D01*
X126675000Y-57725000D02*
X126675000Y-58525000D01*
X114175000Y-65545613D02*
X114175000Y-66025000D01*
X121675002Y-69375000D02*
X121900000Y-69150002D01*
X119175000Y-61025000D02*
X119175001Y-61025000D01*
X124175000Y-56025000D02*
X124175000Y-56025002D01*
X110650000Y-60158460D02*
X110384994Y-60423466D01*
X110650000Y-56940800D02*
X110650000Y-60158460D01*
X110650000Y-53149999D02*
X110650000Y-56940800D01*
X108800000Y-50650000D02*
X109175000Y-51025000D01*
X125025000Y-67786600D02*
X125025000Y-68525000D01*
X117525000Y-56875000D02*
X117525000Y-57448400D01*
X115025000Y-64375000D02*
X115025000Y-64981400D01*
X115025000Y-56875000D02*
X115025000Y-57463000D01*
X127524999Y-51025000D02*
X127300001Y-51249998D01*
X120025000Y-64375000D02*
X120025000Y-64956800D01*
X110025000Y-68525000D02*
X110025000Y-66875000D01*
X112525000Y-56875000D02*
X112525000Y-57496200D01*
X117525000Y-61875000D02*
X117525000Y-62477600D01*
X127525000Y-66875000D02*
X127525000Y-66874999D01*
X112525000Y-64375000D02*
X112525000Y-64963800D01*
X115025000Y-64981400D02*
X115036200Y-64992600D01*
X125025000Y-54953000D02*
X125025000Y-54375000D01*
X127525000Y-54375000D02*
X127525000Y-54340402D01*
X117525000Y-64992200D02*
X117525400Y-64992600D01*
X122524999Y-51025000D02*
X122300001Y-51249998D01*
X110025000Y-64375000D02*
X110025000Y-64934400D01*
X115036200Y-59988800D02*
X115025000Y-59977600D01*
X112525000Y-51025000D02*
X112524999Y-51025000D01*
X110025000Y-57275000D02*
X110025000Y-56875000D01*
X125018400Y-54959600D02*
X125025000Y-54953000D01*
X127525000Y-64374999D02*
X127300002Y-64150001D01*
X127525000Y-61875000D02*
X127525000Y-61874999D01*
X112525000Y-59375000D02*
X112525000Y-59960000D01*
X112524999Y-51025000D02*
X112300001Y-51249998D01*
X110025000Y-62453000D02*
X110025000Y-61875000D01*
X125650000Y-68819200D02*
X125025000Y-68194200D01*
X122525000Y-56875000D02*
X122525000Y-57444600D01*
X112521600Y-55035800D02*
X112525000Y-55032400D01*
X125025000Y-62446000D02*
X125018400Y-62452600D01*
X124800002Y-66650001D02*
X125025000Y-66874999D01*
X110025000Y-64934400D02*
X110032400Y-64941800D01*
X122525000Y-59933800D02*
X122529200Y-59938000D01*
X120025000Y-54375000D02*
X120025000Y-54944600D01*
X122525000Y-59375000D02*
X122525000Y-59933800D01*
X112525000Y-59960000D02*
X112521600Y-59963400D01*
X117525000Y-59937600D02*
X117525400Y-59938000D01*
X125025000Y-64960600D02*
X125018400Y-64967200D01*
X117525000Y-66875000D02*
X117524999Y-66875000D01*
X122525000Y-64963000D02*
X122529200Y-64967200D01*
X117525000Y-62477600D02*
X117525400Y-62478000D01*
X115025000Y-66874999D02*
X114800002Y-66650001D01*
X127525000Y-56874999D02*
X127300002Y-56650001D01*
X127525000Y-54340402D02*
X127334600Y-54150002D01*
X125025000Y-57430000D02*
X125043800Y-57448800D01*
X120025000Y-64956800D02*
X120014600Y-64967200D01*
X117525000Y-54959200D02*
X117525400Y-54959600D01*
X120025000Y-59375000D02*
X120025000Y-59927600D01*
X120025000Y-54944600D02*
X120040000Y-54959600D01*
X127525000Y-59375000D02*
X127525000Y-59374999D01*
X120025000Y-57438400D02*
X120025000Y-56875000D01*
X127525000Y-56875000D02*
X127525000Y-56874999D01*
X125025000Y-51025000D02*
X125024999Y-51025000D01*
X112525000Y-64963800D02*
X112521600Y-64967200D01*
X115025000Y-61875000D02*
X115025000Y-62466800D01*
X125024999Y-51025000D02*
X124800001Y-51249998D01*
X120025000Y-66875000D02*
X120025000Y-68525000D01*
X125025000Y-64375000D02*
X125025000Y-64960600D01*
X115025000Y-51025000D02*
X115024999Y-51025000D01*
X112525000Y-62449200D02*
X112521600Y-62452600D01*
X125025000Y-59944600D02*
X125043800Y-59963400D01*
X127525000Y-66874999D02*
X127300002Y-66650001D01*
X117525000Y-66875000D02*
X117525000Y-68525000D01*
X125025000Y-59375000D02*
X125025000Y-59944600D01*
X120025000Y-66875000D02*
X120025000Y-66874999D01*
X112525000Y-57496200D02*
X112521600Y-57499600D01*
X110025000Y-51025000D02*
X110024999Y-51025000D01*
X120024999Y-51025000D02*
X119800001Y-51249998D01*
X125025000Y-61875000D02*
X125025000Y-62446000D01*
X127525000Y-61874999D02*
X127300002Y-61650001D01*
X110025000Y-55061200D02*
X110025000Y-54375000D01*
X115025000Y-59977600D02*
X115025000Y-59375000D01*
X120025000Y-62463000D02*
X120040000Y-62478000D01*
X120025000Y-66874999D02*
X119800002Y-66650001D01*
X122525000Y-64375000D02*
X122525000Y-64963000D01*
X122525000Y-51025000D02*
X122524999Y-51025000D01*
X117525000Y-64375000D02*
X117525000Y-64992200D01*
X110024999Y-51025000D02*
X109800001Y-51249998D01*
X125025000Y-66874999D02*
X125025000Y-66875000D01*
X120025000Y-61875000D02*
X120025000Y-62463000D01*
X120014600Y-57448800D02*
X120025000Y-57438400D01*
X117525000Y-51025000D02*
X117524999Y-51025000D01*
X117525000Y-57448400D02*
X117525400Y-57448800D01*
X110050000Y-62478000D02*
X110025000Y-62453000D01*
X127525000Y-59374999D02*
X127300002Y-59150001D01*
X120025000Y-59927600D02*
X120014600Y-59938000D01*
X122525000Y-54955400D02*
X122529200Y-54959600D01*
X125025000Y-56875000D02*
X125025000Y-57430000D01*
X112525000Y-61875000D02*
X112525000Y-62449200D01*
X127525000Y-64375000D02*
X127525000Y-64374999D01*
X122525000Y-66875000D02*
X122525000Y-66874999D01*
X115025000Y-66875000D02*
X115025000Y-66874999D01*
X122525000Y-57444600D02*
X122529200Y-57448800D01*
X122525000Y-54375000D02*
X122525000Y-54955400D01*
X127525000Y-66875000D02*
X127525000Y-68525000D01*
X117525000Y-59375000D02*
X117525000Y-59937600D01*
X110025000Y-59875000D02*
X110025000Y-59375000D01*
X112525000Y-66875000D02*
X112525000Y-68525000D01*
X117524999Y-51025000D02*
X117300001Y-51249998D01*
X115024999Y-51025000D02*
X114800001Y-51249998D01*
X125025000Y-68194200D02*
X125025000Y-67786600D01*
X115025000Y-54375000D02*
X115025000Y-54973800D01*
X122525000Y-66874999D02*
X122300002Y-66650001D01*
X115025000Y-54973800D02*
X115036200Y-54985000D01*
X125025000Y-66875000D02*
X125025000Y-67786600D01*
X110150000Y-57400000D02*
X110025000Y-57275000D01*
X115025000Y-62466800D02*
X115036200Y-62478000D01*
X122525000Y-66875000D02*
X122525000Y-68525000D01*
X120025000Y-51025000D02*
X120024999Y-51025000D01*
X117524999Y-66875000D02*
X117300001Y-66650002D01*
X127525000Y-51025000D02*
X127524999Y-51025000D01*
X112525000Y-55032400D02*
X112525000Y-54375000D01*
X117525000Y-54375000D02*
X117525000Y-54959200D01*
X122525000Y-61875000D02*
X122525000Y-62406000D01*
X115025000Y-57463000D02*
X115036200Y-57474200D01*
X115025000Y-66875000D02*
X115025000Y-68525000D01*
X122525000Y-62406000D02*
X122503800Y-62427200D01*
X110025000Y-55993600D02*
X110025000Y-56025000D01*
X109175000Y-55143600D02*
X110025000Y-55993600D01*
X109175000Y-54375000D02*
X109175000Y-55143600D01*
X110025000Y-58482800D02*
X110025000Y-58525000D01*
X109175000Y-57632800D02*
X110025000Y-58482800D01*
X109175000Y-56875000D02*
X109175000Y-57632800D01*
X110025000Y-60825000D02*
X110025000Y-61025000D01*
X109175000Y-59375000D02*
X109175000Y-59975000D01*
X109175000Y-59975000D02*
X110025000Y-60825000D01*
X110025000Y-63325000D02*
X110025000Y-63525000D01*
X109175000Y-61875000D02*
X109175000Y-62475000D01*
X109175000Y-62475000D02*
X110025000Y-63325000D01*
X109175000Y-64791507D02*
X110025000Y-65641507D01*
X109175000Y-64375000D02*
X109175000Y-64791507D01*
X110025000Y-65641507D02*
X110025000Y-66025000D01*
X109175000Y-66875000D02*
X109175000Y-68525000D01*
X110025000Y-69375000D02*
X110450000Y-69375000D01*
X111475000Y-51025000D02*
X111675000Y-51025000D01*
X110450000Y-69375000D02*
X111150000Y-68675000D01*
X111150000Y-68675000D02*
X111150000Y-51350000D01*
X111150000Y-51350000D02*
X111475000Y-51025000D01*
X112525000Y-51875000D02*
X112525000Y-53525000D01*
X111675000Y-54375000D02*
X111675000Y-55129000D01*
X112525000Y-55979000D02*
X112525000Y-56025000D01*
X111675000Y-55129000D02*
X112525000Y-55979000D01*
X111675000Y-57635500D02*
X112525000Y-58485500D01*
X111675000Y-56875000D02*
X111675000Y-57635500D01*
X112525000Y-58485500D02*
X112525000Y-58525000D01*
X111675000Y-59375000D02*
X111675000Y-59975000D01*
X112525000Y-60825000D02*
X112525000Y-61025000D01*
X111675000Y-59975000D02*
X112525000Y-60825000D01*
X111675000Y-62475000D02*
X112525000Y-63325000D01*
X112525000Y-63325000D02*
X112525000Y-63525000D01*
X111675000Y-61875000D02*
X111675000Y-62475000D01*
X111675000Y-64827707D02*
X112525000Y-65677707D01*
X111675000Y-64375000D02*
X111675000Y-64827707D01*
X112525000Y-65677707D02*
X112525000Y-66025000D01*
X111675000Y-66875000D02*
X111675000Y-68525000D01*
X112525000Y-69375000D02*
X112950000Y-69375000D01*
X112950000Y-69375000D02*
X113650000Y-68675000D01*
X113650000Y-68675000D02*
X113650000Y-51403600D01*
X114028600Y-51025000D02*
X114175000Y-51025000D01*
X113650000Y-51403600D02*
X114028600Y-51025000D01*
X115025000Y-51875000D02*
X115025000Y-53525000D01*
X114175000Y-55114400D02*
X115025000Y-55964400D01*
X115025000Y-55964400D02*
X115025000Y-56025000D01*
X114175000Y-54375000D02*
X114175000Y-55114400D01*
X114175000Y-56875000D02*
X114175000Y-57629000D01*
X114175000Y-57629000D02*
X115025000Y-58479000D01*
X115025000Y-58479000D02*
X115025000Y-58525000D01*
X114175000Y-59375000D02*
X114175000Y-60143600D01*
X115025000Y-60993600D02*
X115025000Y-61025000D01*
X114175000Y-60143600D02*
X115025000Y-60993600D01*
X115025000Y-63482800D02*
X115025000Y-63525000D01*
X114175000Y-61875000D02*
X114175000Y-62632800D01*
X114175000Y-62632800D02*
X115025000Y-63482800D01*
X114175000Y-64838507D02*
X115025000Y-65688507D01*
X114175000Y-64375000D02*
X114175000Y-64838507D01*
X115025000Y-65688507D02*
X115025000Y-66025000D01*
X114175000Y-66875000D02*
X114175000Y-68525000D01*
X116150000Y-68675000D02*
X116150000Y-51350000D01*
X115025000Y-69375000D02*
X115450000Y-69375000D01*
X116475000Y-51025000D02*
X116675000Y-51025000D01*
X116150000Y-51350000D02*
X116475000Y-51025000D01*
X115450000Y-69375000D02*
X116150000Y-68675000D01*
X117525000Y-51875000D02*
X117525000Y-53525000D01*
X116675000Y-54375000D02*
X116675000Y-55150600D01*
X116675000Y-55150600D02*
X117525000Y-56000600D01*
X117525000Y-56000600D02*
X117525000Y-56025000D01*
X116675000Y-57639800D02*
X117525000Y-58489800D01*
X116675000Y-56875000D02*
X116675000Y-57639800D01*
X117525000Y-58489800D02*
X117525000Y-58525000D01*
X116675000Y-60129000D02*
X117525000Y-60979000D01*
X117525000Y-60979000D02*
X117525000Y-61025000D01*
X116675000Y-59375000D02*
X116675000Y-60129000D01*
X117525000Y-63493600D02*
X117525000Y-63525000D01*
X116675000Y-62643600D02*
X117525000Y-63493600D01*
X116675000Y-61875000D02*
X116675000Y-62643600D01*
X116675000Y-64849307D02*
X117525000Y-65699307D01*
X117525000Y-65699307D02*
X117525000Y-66025000D01*
X116675000Y-64375000D02*
X116675000Y-64849307D01*
X116675000Y-66875000D02*
X116675000Y-68525000D01*
X118650000Y-51125000D02*
X118750000Y-51025000D01*
X118350000Y-69375000D02*
X118650000Y-69075000D01*
X117525000Y-69375000D02*
X118350000Y-69375000D01*
X118650000Y-69075000D02*
X118650000Y-51125000D01*
X118750000Y-51025000D02*
X119175000Y-51025000D01*
X120025000Y-51875000D02*
X120025000Y-53525000D01*
X119175000Y-54375000D02*
X119175000Y-55136000D01*
X120025000Y-55986000D02*
X120025000Y-56025000D01*
X119175000Y-55136000D02*
X120025000Y-55986000D01*
X119175000Y-57650600D02*
X120025000Y-58500600D01*
X119175000Y-56875000D02*
X119175000Y-57650600D01*
X120025000Y-58500600D02*
X120025000Y-58525000D01*
X119175000Y-60139800D02*
X120025000Y-60989800D01*
X120025000Y-60989800D02*
X120025000Y-61025000D01*
X119175000Y-59375000D02*
X119175000Y-60139800D01*
X119175000Y-61875000D02*
X119175000Y-62629000D01*
X120025000Y-63479000D02*
X120025000Y-63525000D01*
X119175000Y-62629000D02*
X120025000Y-63479000D01*
X119175000Y-64834707D02*
X120025000Y-65684707D01*
X120025000Y-65684707D02*
X120025000Y-66025000D01*
X119175000Y-64375000D02*
X119175000Y-64834707D01*
X119175000Y-66875000D02*
X119175000Y-68525000D01*
X121150000Y-68675000D02*
X121150000Y-51403600D01*
X120025000Y-69375000D02*
X120450000Y-69375000D01*
X121150000Y-51403600D02*
X121528600Y-51025000D01*
X121528600Y-51025000D02*
X121675000Y-51025000D01*
X120450000Y-69375000D02*
X121150000Y-68675000D01*
X122525000Y-51875000D02*
X122525000Y-53525000D01*
X121675000Y-55146800D02*
X122525000Y-55996800D01*
X121675000Y-54375000D02*
X121675000Y-55146800D01*
X122525000Y-55996800D02*
X122525000Y-56025000D01*
X122525000Y-58486000D02*
X122525000Y-58525000D01*
X121675000Y-57636000D02*
X122525000Y-58486000D01*
X121675000Y-56875000D02*
X121675000Y-57636000D01*
X121675000Y-59375000D02*
X121675000Y-60150600D01*
X122525000Y-61000600D02*
X122525000Y-61025000D01*
X121675000Y-60150600D02*
X122525000Y-61000600D01*
X121675000Y-62639800D02*
X122525000Y-63489800D01*
X121675000Y-61875000D02*
X121675000Y-62639800D01*
X122525000Y-63489800D02*
X122525000Y-63525000D01*
X122525000Y-65670107D02*
X122525000Y-66025000D01*
X121675000Y-64820107D02*
X122525000Y-65670107D01*
X121675000Y-64375000D02*
X121675000Y-64820107D01*
X121675000Y-66875000D02*
X121675000Y-68525000D01*
X122525000Y-69375000D02*
X122725000Y-69375000D01*
X123650000Y-51517000D02*
X124142000Y-51025000D01*
X122725000Y-69375000D02*
X123650000Y-68450000D01*
X123650000Y-68450000D02*
X123650000Y-51517000D01*
X124142000Y-51025000D02*
X124175000Y-51025000D01*
X125025000Y-51875000D02*
X125025000Y-53525000D01*
X125025000Y-55982200D02*
X125025000Y-56025000D01*
X124175000Y-54375000D02*
X124175000Y-55132200D01*
X124175000Y-55132200D02*
X125025000Y-55982200D01*
X125025000Y-58496800D02*
X125025000Y-58525000D01*
X124175000Y-56875000D02*
X124175000Y-57646800D01*
X124175000Y-57646800D02*
X125025000Y-58496800D01*
X124175000Y-60136000D02*
X125025000Y-60986000D01*
X125025000Y-60986000D02*
X125025000Y-61025000D01*
X124175000Y-59375000D02*
X124175000Y-60136000D01*
X125025000Y-63475200D02*
X125025000Y-63525000D01*
X124175000Y-62625200D02*
X125025000Y-63475200D01*
X124175000Y-61875000D02*
X124175000Y-62625200D01*
X124175000Y-64830907D02*
X125025000Y-65680907D01*
X125025000Y-65680907D02*
X125025000Y-66025000D01*
X124175000Y-64375000D02*
X124175000Y-64830907D01*
X124175000Y-66875000D02*
X124175000Y-68525000D01*
X126150000Y-69118800D02*
X126150000Y-51125000D01*
X126250000Y-51025000D02*
X126675000Y-51025000D01*
X126150000Y-51125000D02*
X126250000Y-51025000D01*
X125025000Y-69375000D02*
X125893800Y-69375000D01*
X125893800Y-69375000D02*
X126150000Y-69118800D01*
X127525000Y-53525000D02*
X127525000Y-51875000D01*
X127525000Y-55256400D02*
X127525000Y-56025000D01*
X126675000Y-54375000D02*
X126675000Y-54406400D01*
X126675000Y-54406400D02*
X127525000Y-55256400D01*
X126675000Y-56921000D02*
X127525000Y-57771000D01*
X126675000Y-56875000D02*
X126675000Y-56921000D01*
X127525000Y-57771000D02*
X127525000Y-58525000D01*
X127525000Y-60260200D02*
X127525000Y-61025000D01*
X126675000Y-59375000D02*
X126675000Y-59410200D01*
X126675000Y-59410200D02*
X127525000Y-60260200D01*
X127525000Y-62749400D02*
X127525000Y-63525000D01*
X126675000Y-61899400D02*
X127525000Y-62749400D01*
X126675000Y-61875000D02*
X126675000Y-61899400D01*
X126675000Y-64414000D02*
X127525000Y-65264000D01*
X126675000Y-64375000D02*
X126675000Y-64414000D01*
X127525000Y-65264000D02*
X127525000Y-66025000D01*
X126675000Y-66875000D02*
X126675000Y-68525000D01*
X125650000Y-67329400D02*
X125650000Y-60500000D01*
X127525000Y-69375000D02*
X127900000Y-69750000D01*
G04 #@! TA.AperFunction,Conductor*
G36*
X111168833Y-69183650D02*
G01*
X111224767Y-69225521D01*
X111249184Y-69290986D01*
X111249500Y-69299832D01*
X111249500Y-69619752D01*
X111261131Y-69678229D01*
X111261132Y-69678230D01*
X111312233Y-69754707D01*
X111309084Y-69756810D01*
X111332199Y-69799142D01*
X111327215Y-69868834D01*
X111285343Y-69924767D01*
X111219879Y-69949184D01*
X111211033Y-69949500D01*
X110488967Y-69949500D01*
X110421928Y-69929815D01*
X110376173Y-69877011D01*
X110366229Y-69807853D01*
X110386965Y-69754990D01*
X110393861Y-69745013D01*
X110394552Y-69744552D01*
X110405316Y-69728441D01*
X110405864Y-69727650D01*
X110432312Y-69706246D01*
X110458376Y-69684464D01*
X110459674Y-69684103D01*
X110460177Y-69683697D01*
X110461768Y-69683522D01*
X110481807Y-69677961D01*
X110481712Y-69677603D01*
X110489560Y-69675500D01*
X110489562Y-69675500D01*
X110565989Y-69655021D01*
X110634511Y-69615460D01*
X110690460Y-69559511D01*
X110690461Y-69559510D01*
X111037820Y-69212150D01*
X111099142Y-69178666D01*
X111168833Y-69183650D01*
G37*
G04 #@! TD.AperFunction*
G04 #@! TA.AperFunction,Conductor*
G36*
X113668833Y-69183650D02*
G01*
X113724767Y-69225521D01*
X113749184Y-69290986D01*
X113749500Y-69299832D01*
X113749500Y-69619748D01*
X113761133Y-69678231D01*
X113805448Y-69744552D01*
X113813583Y-69749987D01*
X113825014Y-69776671D01*
X113826441Y-69788598D01*
X113832199Y-69799142D01*
X113830517Y-69822647D01*
X113833319Y-69846046D01*
X113828071Y-69856851D01*
X113827215Y-69868834D01*
X113813092Y-69887698D01*
X113802799Y-69908897D01*
X113792541Y-69915151D01*
X113785343Y-69924767D01*
X113763265Y-69933001D01*
X113743144Y-69945270D01*
X113731134Y-69944985D01*
X113719879Y-69949184D01*
X113711033Y-69949500D01*
X112988967Y-69949500D01*
X112921928Y-69929815D01*
X112876173Y-69877011D01*
X112866229Y-69807853D01*
X112889860Y-69756106D01*
X112887767Y-69754708D01*
X112904764Y-69729270D01*
X112958376Y-69684464D01*
X112981807Y-69677961D01*
X112981712Y-69677603D01*
X112989560Y-69675500D01*
X112989562Y-69675500D01*
X113065989Y-69655021D01*
X113134511Y-69615460D01*
X113190460Y-69559511D01*
X113190461Y-69559510D01*
X113537820Y-69212150D01*
X113599142Y-69178666D01*
X113668833Y-69183650D01*
G37*
G04 #@! TD.AperFunction*
G04 #@! TA.AperFunction,Conductor*
G36*
X123643638Y-68945353D02*
G01*
X123677477Y-68947166D01*
X123678411Y-68947839D01*
X123679560Y-68947922D01*
X123706674Y-68968219D01*
X123734150Y-68988031D01*
X123734571Y-68989102D01*
X123735494Y-68989793D01*
X123747334Y-69021537D01*
X123759733Y-69053049D01*
X123759651Y-69054563D01*
X123759911Y-69055258D01*
X123757845Y-69088293D01*
X123749500Y-69130250D01*
X123749500Y-69619752D01*
X123761131Y-69678229D01*
X123761132Y-69678230D01*
X123812233Y-69754707D01*
X123809084Y-69756810D01*
X123832199Y-69799142D01*
X123827215Y-69868834D01*
X123785343Y-69924767D01*
X123719879Y-69949184D01*
X123711033Y-69949500D01*
X122988967Y-69949500D01*
X122921928Y-69929815D01*
X122876173Y-69877011D01*
X122866229Y-69807853D01*
X122889860Y-69756106D01*
X122887767Y-69754707D01*
X122908735Y-69723324D01*
X122938867Y-69678231D01*
X122938867Y-69678229D01*
X122938868Y-69678229D01*
X122950499Y-69619752D01*
X122950500Y-69619748D01*
X122950500Y-69619741D01*
X122951097Y-69613688D01*
X122953982Y-69613972D01*
X122970185Y-69558793D01*
X122986814Y-69538156D01*
X123548548Y-68976421D01*
X123578267Y-68960193D01*
X123607708Y-68943428D01*
X123608858Y-68943489D01*
X123609869Y-68942938D01*
X123643638Y-68945353D01*
G37*
G04 #@! TD.AperFunction*
G04 #@! TA.AperFunction,Conductor*
G36*
X126156406Y-69598725D02*
G01*
X126162789Y-69597846D01*
X126189013Y-69610010D01*
X126216342Y-69619469D01*
X126220404Y-69624571D01*
X126226172Y-69627247D01*
X126249126Y-69654057D01*
X126259613Y-69670589D01*
X126261133Y-69678231D01*
X126305448Y-69744552D01*
X126307323Y-69745805D01*
X126315744Y-69759080D01*
X126335031Y-69826235D01*
X126314949Y-69893157D01*
X126261875Y-69938598D01*
X126211033Y-69949500D01*
X125488967Y-69949500D01*
X125421928Y-69929815D01*
X125376173Y-69877011D01*
X125366229Y-69807853D01*
X125389860Y-69756106D01*
X125387767Y-69754707D01*
X125403869Y-69730609D01*
X125457482Y-69685804D01*
X125506971Y-69675500D01*
X125933360Y-69675500D01*
X125933362Y-69675500D01*
X126009789Y-69655021D01*
X126078311Y-69615460D01*
X126078312Y-69615458D01*
X126082415Y-69613090D01*
X126088677Y-69611570D01*
X126093573Y-69607379D01*
X126122215Y-69603434D01*
X126150315Y-69596617D01*
X126156406Y-69598725D01*
G37*
G04 #@! TD.AperFunction*
G04 #@! TA.AperFunction,Conductor*
G36*
X117713139Y-50470185D02*
G01*
X117758894Y-50522989D01*
X117760661Y-50527047D01*
X117773533Y-50558123D01*
X117773538Y-50558133D01*
X117844723Y-50664668D01*
X117844726Y-50664672D01*
X117935327Y-50755273D01*
X117935331Y-50755276D01*
X118041866Y-50826461D01*
X118041872Y-50826464D01*
X118041873Y-50826465D01*
X118160256Y-50875501D01*
X118263480Y-50896034D01*
X118325391Y-50928419D01*
X118359965Y-50989134D01*
X118359064Y-51049744D01*
X118349500Y-51085437D01*
X118349500Y-68899167D01*
X118340855Y-68928607D01*
X118334332Y-68958594D01*
X118330577Y-68963609D01*
X118329815Y-68966206D01*
X118313181Y-68986848D01*
X118261848Y-69038181D01*
X118200525Y-69071666D01*
X118174167Y-69074500D01*
X118006971Y-69074500D01*
X117939932Y-69054815D01*
X117903869Y-69019391D01*
X117894552Y-69005447D01*
X117828230Y-68961132D01*
X117828229Y-68961131D01*
X117769752Y-68949500D01*
X117769748Y-68949500D01*
X117316475Y-68949500D01*
X117287034Y-68940855D01*
X117257048Y-68934332D01*
X117252990Y-68930858D01*
X117249436Y-68929815D01*
X117228794Y-68913181D01*
X117221542Y-68905929D01*
X117220480Y-68904089D01*
X117145913Y-68829522D01*
X117144072Y-68828459D01*
X117136819Y-68821206D01*
X117123809Y-68797380D01*
X117107805Y-68775456D01*
X117105915Y-68764610D01*
X117103334Y-68759883D01*
X117103845Y-68752728D01*
X117100500Y-68733525D01*
X117100500Y-68280249D01*
X117100499Y-68280247D01*
X117088868Y-68221770D01*
X117088867Y-68221769D01*
X117044552Y-68155447D01*
X117030609Y-68146131D01*
X116985804Y-68092518D01*
X116975500Y-68043029D01*
X116975500Y-67356970D01*
X116995185Y-67289931D01*
X117030610Y-67253867D01*
X117044552Y-67244552D01*
X117088867Y-67178231D01*
X117088867Y-67178229D01*
X117088868Y-67178229D01*
X117100499Y-67119752D01*
X117100500Y-67119750D01*
X117100500Y-66630249D01*
X117092072Y-66587881D01*
X117098299Y-66518289D01*
X117141161Y-66463112D01*
X117207051Y-66439867D01*
X117237881Y-66442072D01*
X117280249Y-66450500D01*
X117280252Y-66450500D01*
X117769750Y-66450500D01*
X117769751Y-66450499D01*
X117784568Y-66447552D01*
X117828229Y-66438868D01*
X117828229Y-66438867D01*
X117828231Y-66438867D01*
X117894552Y-66394552D01*
X117938867Y-66328231D01*
X117938867Y-66328229D01*
X117938868Y-66328229D01*
X117950499Y-66269752D01*
X117950500Y-66269750D01*
X117950500Y-65780249D01*
X117950499Y-65780247D01*
X117938868Y-65721770D01*
X117938867Y-65721769D01*
X117894553Y-65655448D01*
X117840627Y-65619416D01*
X117802132Y-65578314D01*
X117765460Y-65514796D01*
X117096749Y-64846085D01*
X117063264Y-64784762D01*
X117068248Y-64715070D01*
X117081330Y-64689510D01*
X117087082Y-64680903D01*
X117088867Y-64678231D01*
X117088867Y-64678230D01*
X117088868Y-64678229D01*
X117100499Y-64619752D01*
X117100500Y-64619750D01*
X117100500Y-64166474D01*
X117109144Y-64137033D01*
X117115668Y-64107047D01*
X117119140Y-64102991D01*
X117120185Y-64099435D01*
X117136819Y-64078793D01*
X117144067Y-64071544D01*
X117145911Y-64070480D01*
X117220478Y-63995913D01*
X117221542Y-63994069D01*
X117228793Y-63986819D01*
X117252607Y-63973815D01*
X117274521Y-63957813D01*
X117285379Y-63955920D01*
X117290116Y-63953334D01*
X117297277Y-63953846D01*
X117316474Y-63950500D01*
X117769750Y-63950500D01*
X117769751Y-63950499D01*
X117784568Y-63947552D01*
X117828229Y-63938868D01*
X117828229Y-63938867D01*
X117828231Y-63938867D01*
X117894552Y-63894552D01*
X117938867Y-63828231D01*
X117938867Y-63828229D01*
X117938868Y-63828229D01*
X117950499Y-63769752D01*
X117950500Y-63769750D01*
X117950500Y-63280249D01*
X117950499Y-63280247D01*
X117938868Y-63221770D01*
X117938867Y-63221769D01*
X117894552Y-63155447D01*
X117828230Y-63111132D01*
X117828229Y-63111131D01*
X117769752Y-63099500D01*
X117769748Y-63099500D01*
X117607233Y-63099500D01*
X117540194Y-63079815D01*
X117519552Y-63063181D01*
X117011819Y-62555448D01*
X116997115Y-62528520D01*
X116980523Y-62502702D01*
X116979631Y-62496501D01*
X116978334Y-62494125D01*
X116975500Y-62467767D01*
X116975500Y-62356970D01*
X116995185Y-62289931D01*
X117030610Y-62253867D01*
X117044552Y-62244552D01*
X117088867Y-62178231D01*
X117088867Y-62178229D01*
X117088868Y-62178229D01*
X117100499Y-62119752D01*
X117100500Y-62119750D01*
X117100500Y-61666477D01*
X117109143Y-61637040D01*
X117115667Y-61607051D01*
X117119140Y-61602993D01*
X117120185Y-61599438D01*
X117136818Y-61578796D01*
X117144068Y-61571545D01*
X117145912Y-61570481D01*
X117220479Y-61495914D01*
X117221544Y-61494068D01*
X117228794Y-61486819D01*
X117252614Y-61473812D01*
X117274528Y-61457811D01*
X117285382Y-61455919D01*
X117290117Y-61453334D01*
X117297277Y-61453846D01*
X117316476Y-61450500D01*
X117769750Y-61450500D01*
X117769751Y-61450499D01*
X117784568Y-61447552D01*
X117828229Y-61438868D01*
X117828229Y-61438867D01*
X117828231Y-61438867D01*
X117894552Y-61394552D01*
X117938867Y-61328231D01*
X117938867Y-61328229D01*
X117938868Y-61328229D01*
X117950499Y-61269752D01*
X117950500Y-61269750D01*
X117950500Y-60780249D01*
X117950499Y-60780247D01*
X117938868Y-60721770D01*
X117938867Y-60721769D01*
X117894552Y-60655447D01*
X117828230Y-60611132D01*
X117828229Y-60611131D01*
X117769752Y-60599500D01*
X117769748Y-60599500D01*
X117621833Y-60599500D01*
X117554794Y-60579815D01*
X117534152Y-60563181D01*
X117011819Y-60040848D01*
X116997115Y-60013920D01*
X116980523Y-59988102D01*
X116979631Y-59981901D01*
X116978334Y-59979525D01*
X116975500Y-59953167D01*
X116975500Y-59856970D01*
X116995185Y-59789931D01*
X117030610Y-59753867D01*
X117044552Y-59744552D01*
X117088867Y-59678231D01*
X117088867Y-59678229D01*
X117088868Y-59678229D01*
X117100499Y-59619752D01*
X117100500Y-59619750D01*
X117100500Y-59166473D01*
X117109144Y-59137033D01*
X117115668Y-59107046D01*
X117119140Y-59102989D01*
X117120185Y-59099434D01*
X117136819Y-59078791D01*
X117144066Y-59071543D01*
X117145912Y-59070478D01*
X117220479Y-58995911D01*
X117221543Y-58994067D01*
X117228793Y-58986818D01*
X117252612Y-58973811D01*
X117274532Y-58957809D01*
X117285385Y-58955917D01*
X117290117Y-58953334D01*
X117297274Y-58953845D01*
X117316474Y-58950500D01*
X117769750Y-58950500D01*
X117769751Y-58950499D01*
X117784568Y-58947552D01*
X117828229Y-58938868D01*
X117828229Y-58938867D01*
X117828231Y-58938867D01*
X117894552Y-58894552D01*
X117938867Y-58828231D01*
X117938867Y-58828229D01*
X117938868Y-58828229D01*
X117950499Y-58769752D01*
X117950500Y-58769750D01*
X117950500Y-58280249D01*
X117950499Y-58280247D01*
X117938868Y-58221770D01*
X117938867Y-58221769D01*
X117894552Y-58155447D01*
X117828230Y-58111132D01*
X117828229Y-58111131D01*
X117769752Y-58099500D01*
X117769748Y-58099500D01*
X117611033Y-58099500D01*
X117543994Y-58079815D01*
X117523352Y-58063181D01*
X117011819Y-57551648D01*
X116997115Y-57524720D01*
X116980523Y-57498902D01*
X116979631Y-57492701D01*
X116978334Y-57490325D01*
X116975500Y-57463967D01*
X116975500Y-57356970D01*
X116995185Y-57289931D01*
X117030610Y-57253867D01*
X117044552Y-57244552D01*
X117088867Y-57178231D01*
X117088867Y-57178229D01*
X117088868Y-57178229D01*
X117100499Y-57119752D01*
X117100500Y-57119750D01*
X117100500Y-56666473D01*
X117109144Y-56637033D01*
X117115668Y-56607046D01*
X117119140Y-56602990D01*
X117120185Y-56599434D01*
X117136819Y-56578791D01*
X117144065Y-56571544D01*
X117145911Y-56570479D01*
X117220478Y-56495912D01*
X117221542Y-56494068D01*
X117228793Y-56486818D01*
X117252618Y-56473808D01*
X117274538Y-56457807D01*
X117285387Y-56455916D01*
X117290117Y-56453334D01*
X117297272Y-56453845D01*
X117316474Y-56450500D01*
X117769750Y-56450500D01*
X117769751Y-56450499D01*
X117784568Y-56447552D01*
X117828229Y-56438868D01*
X117828229Y-56438867D01*
X117828231Y-56438867D01*
X117894552Y-56394552D01*
X117938867Y-56328231D01*
X117938867Y-56328229D01*
X117938868Y-56328229D01*
X117950499Y-56269752D01*
X117950500Y-56269750D01*
X117950500Y-55780249D01*
X117950499Y-55780247D01*
X117938868Y-55721770D01*
X117938867Y-55721769D01*
X117894552Y-55655447D01*
X117828230Y-55611132D01*
X117828229Y-55611131D01*
X117769752Y-55599500D01*
X117769748Y-55599500D01*
X117600233Y-55599500D01*
X117533194Y-55579815D01*
X117512552Y-55563181D01*
X117011819Y-55062448D01*
X116997115Y-55035520D01*
X116980523Y-55009702D01*
X116979631Y-55003501D01*
X116978334Y-55001125D01*
X116975500Y-54974767D01*
X116975500Y-54856970D01*
X116995185Y-54789931D01*
X117030610Y-54753867D01*
X117044552Y-54744552D01*
X117088867Y-54678231D01*
X117088867Y-54678229D01*
X117088868Y-54678229D01*
X117100499Y-54619752D01*
X117100500Y-54619750D01*
X117100500Y-54166473D01*
X117109144Y-54137033D01*
X117115668Y-54107046D01*
X117119140Y-54102989D01*
X117120185Y-54099434D01*
X117136819Y-54078791D01*
X117144066Y-54071543D01*
X117145912Y-54070478D01*
X117220479Y-53995911D01*
X117221543Y-53994067D01*
X117228793Y-53986818D01*
X117252612Y-53973811D01*
X117274532Y-53957809D01*
X117285385Y-53955917D01*
X117290117Y-53953334D01*
X117297274Y-53953845D01*
X117316474Y-53950500D01*
X117769750Y-53950500D01*
X117769751Y-53950499D01*
X117784568Y-53947552D01*
X117828229Y-53938868D01*
X117828229Y-53938867D01*
X117828231Y-53938867D01*
X117894552Y-53894552D01*
X117938867Y-53828231D01*
X117938867Y-53828229D01*
X117938868Y-53828229D01*
X117950499Y-53769752D01*
X117950500Y-53769750D01*
X117950500Y-53280249D01*
X117950499Y-53280247D01*
X117938868Y-53221770D01*
X117938867Y-53221769D01*
X117894552Y-53155447D01*
X117880609Y-53146131D01*
X117835804Y-53092518D01*
X117825500Y-53043029D01*
X117825500Y-52356970D01*
X117845185Y-52289931D01*
X117880610Y-52253867D01*
X117894552Y-52244552D01*
X117938867Y-52178231D01*
X117938867Y-52178229D01*
X117938868Y-52178229D01*
X117950499Y-52119752D01*
X117950500Y-52119750D01*
X117950500Y-51630249D01*
X117950499Y-51630247D01*
X117938868Y-51571770D01*
X117938867Y-51571769D01*
X117894552Y-51505447D01*
X117828230Y-51461132D01*
X117828229Y-51461131D01*
X117769752Y-51449500D01*
X117769748Y-51449500D01*
X117280252Y-51449500D01*
X117237879Y-51457928D01*
X117168287Y-51451699D01*
X117113110Y-51408836D01*
X117089867Y-51342945D01*
X117092072Y-51312117D01*
X117100500Y-51269749D01*
X117100500Y-50780249D01*
X117100499Y-50780247D01*
X117088868Y-50721770D01*
X117088867Y-50721769D01*
X117037767Y-50645293D01*
X117040915Y-50643189D01*
X117017801Y-50600858D01*
X117022785Y-50531166D01*
X117064657Y-50475233D01*
X117130121Y-50450816D01*
X117138967Y-50450500D01*
X117646100Y-50450500D01*
X117713139Y-50470185D01*
G37*
G04 #@! TD.AperFunction*
G04 #@! TA.AperFunction,Conductor*
G36*
X124737881Y-66442072D02*
G01*
X124780249Y-66450500D01*
X125225500Y-66450500D01*
X125292539Y-66470185D01*
X125338294Y-66522989D01*
X125349500Y-66574500D01*
X125349500Y-67015656D01*
X125332887Y-67077656D01*
X125276794Y-67174810D01*
X125276793Y-67174813D01*
X125249500Y-67276673D01*
X125249500Y-67382127D01*
X125276793Y-67483987D01*
X125329520Y-67575313D01*
X125404087Y-67649880D01*
X125495413Y-67702607D01*
X125597273Y-67729900D01*
X125597275Y-67729900D01*
X125702725Y-67729900D01*
X125702727Y-67729900D01*
X125702728Y-67729899D01*
X125709308Y-67729033D01*
X125778344Y-67739795D01*
X125830602Y-67786172D01*
X125849500Y-67851971D01*
X125849500Y-68942967D01*
X125840855Y-68972407D01*
X125834332Y-69002394D01*
X125830577Y-69007409D01*
X125829815Y-69010006D01*
X125813181Y-69030648D01*
X125805648Y-69038181D01*
X125744325Y-69071666D01*
X125717967Y-69074500D01*
X125506971Y-69074500D01*
X125439932Y-69054815D01*
X125403869Y-69019391D01*
X125394552Y-69005447D01*
X125328230Y-68961132D01*
X125328229Y-68961131D01*
X125269752Y-68949500D01*
X125269748Y-68949500D01*
X124816474Y-68949500D01*
X124787033Y-68940855D01*
X124757047Y-68934332D01*
X124752989Y-68930858D01*
X124749435Y-68929815D01*
X124728793Y-68913181D01*
X124721540Y-68905928D01*
X124720478Y-68904088D01*
X124645911Y-68829521D01*
X124644070Y-68828458D01*
X124636819Y-68821207D01*
X124623813Y-68797389D01*
X124607809Y-68775468D01*
X124605917Y-68764616D01*
X124603334Y-68759884D01*
X124603845Y-68752726D01*
X124600500Y-68733526D01*
X124600500Y-68280249D01*
X124600499Y-68280247D01*
X124588868Y-68221770D01*
X124588867Y-68221769D01*
X124544552Y-68155447D01*
X124530609Y-68146131D01*
X124485804Y-68092518D01*
X124475500Y-68043029D01*
X124475500Y-67356970D01*
X124495185Y-67289931D01*
X124530610Y-67253867D01*
X124544552Y-67244552D01*
X124588867Y-67178231D01*
X124588867Y-67178229D01*
X124588868Y-67178229D01*
X124600499Y-67119752D01*
X124600500Y-67119750D01*
X124600500Y-66630249D01*
X124592072Y-66587881D01*
X124598299Y-66518289D01*
X124641161Y-66463112D01*
X124707051Y-66439867D01*
X124737881Y-66442072D01*
G37*
G04 #@! TD.AperFunction*
G04 #@! TA.AperFunction,Conductor*
G36*
X128018834Y-66372785D02*
G01*
X128074767Y-66414657D01*
X128099184Y-66480121D01*
X128099500Y-66488967D01*
X128099500Y-68911033D01*
X128079815Y-68978072D01*
X128027011Y-69023827D01*
X127957853Y-69033771D01*
X127906106Y-69010139D01*
X127904707Y-69012233D01*
X127828230Y-68961132D01*
X127828229Y-68961131D01*
X127769752Y-68949500D01*
X127769748Y-68949500D01*
X127316474Y-68949500D01*
X127287033Y-68940855D01*
X127257047Y-68934332D01*
X127252989Y-68930858D01*
X127249435Y-68929815D01*
X127228793Y-68913181D01*
X127221540Y-68905928D01*
X127220478Y-68904088D01*
X127145911Y-68829521D01*
X127144070Y-68828458D01*
X127136819Y-68821207D01*
X127123813Y-68797389D01*
X127107809Y-68775468D01*
X127105917Y-68764616D01*
X127103334Y-68759884D01*
X127103845Y-68752726D01*
X127100500Y-68733526D01*
X127100500Y-68280249D01*
X127100499Y-68280247D01*
X127088868Y-68221770D01*
X127088867Y-68221769D01*
X127044552Y-68155447D01*
X127030609Y-68146131D01*
X126985804Y-68092518D01*
X126975500Y-68043029D01*
X126975500Y-67356970D01*
X126995185Y-67289931D01*
X127030610Y-67253867D01*
X127044552Y-67244552D01*
X127088867Y-67178231D01*
X127088867Y-67178229D01*
X127088868Y-67178229D01*
X127100499Y-67119752D01*
X127100500Y-67119750D01*
X127100500Y-66630249D01*
X127092072Y-66587881D01*
X127098299Y-66518289D01*
X127141161Y-66463112D01*
X127207051Y-66439867D01*
X127237881Y-66442072D01*
X127280249Y-66450500D01*
X127280252Y-66450500D01*
X127769750Y-66450500D01*
X127769751Y-66450499D01*
X127784568Y-66447552D01*
X127828229Y-66438868D01*
X127828229Y-66438867D01*
X127828231Y-66438867D01*
X127894552Y-66394552D01*
X127894551Y-66394552D01*
X127904707Y-66387767D01*
X127906810Y-66390915D01*
X127949142Y-66367801D01*
X128018834Y-66372785D01*
G37*
G04 #@! TD.AperFunction*
G04 #@! TA.AperFunction,Conductor*
G36*
X110748485Y-60707077D02*
G01*
X110768834Y-60708533D01*
X110781037Y-60717668D01*
X110795531Y-60722384D01*
X110808437Y-60738180D01*
X110824767Y-60750405D01*
X110830093Y-60764685D01*
X110839738Y-60776490D01*
X110842055Y-60796757D01*
X110849184Y-60815869D01*
X110849500Y-60824715D01*
X110849500Y-68499166D01*
X110829815Y-68566205D01*
X110813181Y-68586847D01*
X110465069Y-68934958D01*
X110403746Y-68968443D01*
X110334054Y-68963459D01*
X110329938Y-68961839D01*
X110328232Y-68961132D01*
X110269752Y-68949500D01*
X110269748Y-68949500D01*
X109816474Y-68949500D01*
X109787033Y-68940855D01*
X109757047Y-68934332D01*
X109752989Y-68930858D01*
X109749435Y-68929815D01*
X109728793Y-68913181D01*
X109721540Y-68905928D01*
X109720478Y-68904088D01*
X109645911Y-68829521D01*
X109644070Y-68828458D01*
X109636819Y-68821207D01*
X109623813Y-68797389D01*
X109607809Y-68775468D01*
X109605917Y-68764616D01*
X109603334Y-68759884D01*
X109603845Y-68752726D01*
X109600500Y-68733526D01*
X109600500Y-68280249D01*
X109600499Y-68280247D01*
X109588868Y-68221770D01*
X109588867Y-68221769D01*
X109544552Y-68155447D01*
X109530609Y-68146131D01*
X109485804Y-68092518D01*
X109475500Y-68043029D01*
X109475500Y-67356970D01*
X109495185Y-67289931D01*
X109530610Y-67253867D01*
X109544552Y-67244552D01*
X109588867Y-67178231D01*
X109588867Y-67178229D01*
X109588868Y-67178229D01*
X109600499Y-67119752D01*
X109600500Y-67119750D01*
X109600500Y-66666474D01*
X109609144Y-66637033D01*
X109615668Y-66607047D01*
X109619140Y-66602991D01*
X109620185Y-66599435D01*
X109636819Y-66578793D01*
X109644067Y-66571544D01*
X109645911Y-66570480D01*
X109720478Y-66495913D01*
X109721542Y-66494069D01*
X109728793Y-66486819D01*
X109752607Y-66473815D01*
X109774521Y-66457813D01*
X109785379Y-66455920D01*
X109790116Y-66453334D01*
X109797277Y-66453846D01*
X109816474Y-66450500D01*
X110269750Y-66450500D01*
X110269751Y-66450499D01*
X110284568Y-66447552D01*
X110328229Y-66438868D01*
X110328229Y-66438867D01*
X110328231Y-66438867D01*
X110394552Y-66394552D01*
X110438867Y-66328231D01*
X110438867Y-66328229D01*
X110438868Y-66328229D01*
X110450499Y-66269752D01*
X110450500Y-66269750D01*
X110450500Y-65780249D01*
X110450499Y-65780247D01*
X110438868Y-65721770D01*
X110438867Y-65721769D01*
X110394552Y-65655447D01*
X110366707Y-65636842D01*
X110321902Y-65583230D01*
X110315825Y-65565840D01*
X110305022Y-65525519D01*
X110265460Y-65456996D01*
X109617528Y-64809064D01*
X109584043Y-64747741D01*
X109588133Y-64690537D01*
X109586485Y-64690210D01*
X109600499Y-64619752D01*
X109600500Y-64619750D01*
X109600500Y-64166473D01*
X109609144Y-64137033D01*
X109615668Y-64107046D01*
X109619140Y-64102989D01*
X109620185Y-64099434D01*
X109636819Y-64078791D01*
X109644066Y-64071543D01*
X109645912Y-64070478D01*
X109720479Y-63995911D01*
X109721543Y-63994067D01*
X109728793Y-63986818D01*
X109752612Y-63973811D01*
X109774532Y-63957809D01*
X109785385Y-63955917D01*
X109790117Y-63953334D01*
X109797274Y-63953845D01*
X109816474Y-63950500D01*
X110269750Y-63950500D01*
X110269751Y-63950499D01*
X110284568Y-63947552D01*
X110328229Y-63938868D01*
X110328229Y-63938867D01*
X110328231Y-63938867D01*
X110394552Y-63894552D01*
X110438867Y-63828231D01*
X110438867Y-63828229D01*
X110438868Y-63828229D01*
X110450499Y-63769752D01*
X110450500Y-63769750D01*
X110450500Y-63280249D01*
X110450499Y-63280247D01*
X110438868Y-63221770D01*
X110438867Y-63221769D01*
X110394552Y-63155447D01*
X110328230Y-63111132D01*
X110328229Y-63111131D01*
X110269752Y-63099500D01*
X110263688Y-63098903D01*
X110263972Y-63096017D01*
X110208794Y-63079815D01*
X110188152Y-63063181D01*
X109544719Y-62419748D01*
X109511234Y-62358425D01*
X109516218Y-62288733D01*
X109537990Y-62254856D01*
X109537767Y-62254707D01*
X109577845Y-62194726D01*
X109588867Y-62178231D01*
X109588867Y-62178229D01*
X109588868Y-62178229D01*
X109600499Y-62119752D01*
X109600500Y-62119750D01*
X109600500Y-61666473D01*
X109609144Y-61637033D01*
X109615668Y-61607046D01*
X109619140Y-61602989D01*
X109620185Y-61599434D01*
X109636819Y-61578791D01*
X109644066Y-61571543D01*
X109645912Y-61570478D01*
X109720479Y-61495911D01*
X109721543Y-61494067D01*
X109728793Y-61486818D01*
X109752612Y-61473811D01*
X109774532Y-61457809D01*
X109785385Y-61455917D01*
X109790117Y-61453334D01*
X109797274Y-61453845D01*
X109816474Y-61450500D01*
X110269750Y-61450500D01*
X110269751Y-61450499D01*
X110284568Y-61447552D01*
X110328229Y-61438868D01*
X110328229Y-61438867D01*
X110328231Y-61438867D01*
X110394552Y-61394552D01*
X110438867Y-61328231D01*
X110438867Y-61328229D01*
X110438868Y-61328229D01*
X110450499Y-61269752D01*
X110450500Y-61269750D01*
X110450500Y-60915691D01*
X110470185Y-60848652D01*
X110510508Y-60809479D01*
X110525501Y-60800445D01*
X110539581Y-60796673D01*
X110630907Y-60743946D01*
X110648532Y-60726320D01*
X110661508Y-60718503D01*
X110681239Y-60713324D01*
X110699142Y-60703549D01*
X110714345Y-60704636D01*
X110729089Y-60700767D01*
X110748485Y-60707077D01*
G37*
G04 #@! TD.AperFunction*
G04 #@! TA.AperFunction,Conductor*
G36*
X113778072Y-50470185D02*
G01*
X113823827Y-50522989D01*
X113833771Y-50592147D01*
X113810139Y-50643893D01*
X113812233Y-50645293D01*
X113761132Y-50721769D01*
X113761131Y-50721770D01*
X113749500Y-50780247D01*
X113749500Y-50827767D01*
X113729815Y-50894806D01*
X113713181Y-50915448D01*
X113409541Y-51219087D01*
X113409535Y-51219095D01*
X113369982Y-51287604D01*
X113369979Y-51287609D01*
X113349500Y-51364039D01*
X113349500Y-68499166D01*
X113329815Y-68566205D01*
X113313181Y-68586847D01*
X112965069Y-68934958D01*
X112903746Y-68968443D01*
X112834054Y-68963459D01*
X112829938Y-68961839D01*
X112828232Y-68961132D01*
X112769752Y-68949500D01*
X112769748Y-68949500D01*
X112316474Y-68949500D01*
X112287033Y-68940855D01*
X112257047Y-68934332D01*
X112252989Y-68930858D01*
X112249435Y-68929815D01*
X112228793Y-68913181D01*
X112221540Y-68905928D01*
X112220478Y-68904088D01*
X112145911Y-68829521D01*
X112144070Y-68828458D01*
X112136819Y-68821207D01*
X112123813Y-68797389D01*
X112107809Y-68775468D01*
X112105917Y-68764616D01*
X112103334Y-68759884D01*
X112103845Y-68752726D01*
X112100500Y-68733526D01*
X112100500Y-68280249D01*
X112100499Y-68280247D01*
X112088868Y-68221770D01*
X112088867Y-68221769D01*
X112044552Y-68155447D01*
X112030609Y-68146131D01*
X111985804Y-68092518D01*
X111975500Y-68043029D01*
X111975500Y-67356970D01*
X111995185Y-67289931D01*
X112030610Y-67253867D01*
X112044552Y-67244552D01*
X112088867Y-67178231D01*
X112088867Y-67178229D01*
X112088868Y-67178229D01*
X112100499Y-67119752D01*
X112100500Y-67119750D01*
X112100500Y-66666473D01*
X112109144Y-66637033D01*
X112115668Y-66607046D01*
X112119140Y-66602989D01*
X112120185Y-66599434D01*
X112136819Y-66578791D01*
X112144066Y-66571543D01*
X112145912Y-66570478D01*
X112220479Y-66495911D01*
X112221543Y-66494067D01*
X112228793Y-66486818D01*
X112252612Y-66473811D01*
X112274532Y-66457809D01*
X112285385Y-66455917D01*
X112290117Y-66453334D01*
X112297274Y-66453845D01*
X112316474Y-66450500D01*
X112769750Y-66450500D01*
X112769751Y-66450499D01*
X112784568Y-66447552D01*
X112828229Y-66438868D01*
X112828229Y-66438867D01*
X112828231Y-66438867D01*
X112894552Y-66394552D01*
X112938867Y-66328231D01*
X112938867Y-66328229D01*
X112938868Y-66328229D01*
X112950499Y-66269752D01*
X112950500Y-66269750D01*
X112950500Y-65780249D01*
X112950499Y-65780247D01*
X112938868Y-65721770D01*
X112938867Y-65721769D01*
X112894552Y-65655448D01*
X112880608Y-65646131D01*
X112854891Y-65628947D01*
X112810087Y-65575336D01*
X112806990Y-65566470D01*
X112805022Y-65561719D01*
X112792694Y-65540367D01*
X112765460Y-65493196D01*
X112105401Y-64833137D01*
X112071916Y-64771814D01*
X112076900Y-64702122D01*
X112087760Y-64680903D01*
X112088868Y-64678229D01*
X112100499Y-64619752D01*
X112100500Y-64619750D01*
X112100500Y-64166473D01*
X112109144Y-64137033D01*
X112115668Y-64107046D01*
X112119140Y-64102989D01*
X112120185Y-64099434D01*
X112136819Y-64078791D01*
X112144066Y-64071543D01*
X112145912Y-64070478D01*
X112220479Y-63995911D01*
X112221543Y-63994067D01*
X112228793Y-63986818D01*
X112252612Y-63973811D01*
X112274532Y-63957809D01*
X112285385Y-63955917D01*
X112290117Y-63953334D01*
X112297274Y-63953845D01*
X112316474Y-63950500D01*
X112769750Y-63950500D01*
X112769751Y-63950499D01*
X112784568Y-63947552D01*
X112828229Y-63938868D01*
X112828229Y-63938867D01*
X112828231Y-63938867D01*
X112894552Y-63894552D01*
X112938867Y-63828231D01*
X112938867Y-63828229D01*
X112938868Y-63828229D01*
X112950499Y-63769752D01*
X112950500Y-63769750D01*
X112950500Y-63280249D01*
X112950499Y-63280247D01*
X112938868Y-63221770D01*
X112938867Y-63221769D01*
X112894552Y-63155447D01*
X112828230Y-63111132D01*
X112828229Y-63111131D01*
X112769752Y-63099500D01*
X112763688Y-63098903D01*
X112763972Y-63096017D01*
X112708794Y-63079815D01*
X112688152Y-63063181D01*
X112044719Y-62419748D01*
X112011234Y-62358425D01*
X112016218Y-62288733D01*
X112037990Y-62254856D01*
X112037767Y-62254707D01*
X112077845Y-62194726D01*
X112088867Y-62178231D01*
X112088867Y-62178229D01*
X112088868Y-62178229D01*
X112100499Y-62119752D01*
X112100500Y-62119750D01*
X112100500Y-61666473D01*
X112109144Y-61637033D01*
X112115668Y-61607046D01*
X112119140Y-61602989D01*
X112120185Y-61599434D01*
X112136819Y-61578791D01*
X112144066Y-61571543D01*
X112145912Y-61570478D01*
X112220479Y-61495911D01*
X112221543Y-61494067D01*
X112228793Y-61486818D01*
X112252612Y-61473811D01*
X112274532Y-61457809D01*
X112285385Y-61455917D01*
X112290117Y-61453334D01*
X112297274Y-61453845D01*
X112316474Y-61450500D01*
X112769750Y-61450500D01*
X112769751Y-61450499D01*
X112784568Y-61447552D01*
X112828229Y-61438868D01*
X112828229Y-61438867D01*
X112828231Y-61438867D01*
X112894552Y-61394552D01*
X112938867Y-61328231D01*
X112938867Y-61328229D01*
X112938868Y-61328229D01*
X112950499Y-61269752D01*
X112950500Y-61269750D01*
X112950500Y-60780249D01*
X112950499Y-60780247D01*
X112938868Y-60721770D01*
X112938867Y-60721769D01*
X112894552Y-60655447D01*
X112828230Y-60611132D01*
X112828229Y-60611131D01*
X112769752Y-60599500D01*
X112763688Y-60598903D01*
X112763972Y-60596017D01*
X112708794Y-60579815D01*
X112688152Y-60563181D01*
X112044719Y-59919748D01*
X112011234Y-59858425D01*
X112016218Y-59788733D01*
X112037990Y-59754856D01*
X112037767Y-59754707D01*
X112077845Y-59694726D01*
X112088867Y-59678231D01*
X112088867Y-59678229D01*
X112088868Y-59678229D01*
X112100499Y-59619752D01*
X112100500Y-59619750D01*
X112100500Y-59166473D01*
X112109144Y-59137033D01*
X112115668Y-59107046D01*
X112119140Y-59102989D01*
X112120185Y-59099434D01*
X112136819Y-59078791D01*
X112144066Y-59071543D01*
X112145912Y-59070478D01*
X112220479Y-58995911D01*
X112221543Y-58994067D01*
X112228793Y-58986818D01*
X112252612Y-58973811D01*
X112274532Y-58957809D01*
X112285385Y-58955917D01*
X112290117Y-58953334D01*
X112297274Y-58953845D01*
X112316474Y-58950500D01*
X112769750Y-58950500D01*
X112769751Y-58950499D01*
X112784568Y-58947552D01*
X112828229Y-58938868D01*
X112828229Y-58938867D01*
X112828231Y-58938867D01*
X112894552Y-58894552D01*
X112938867Y-58828231D01*
X112938867Y-58828229D01*
X112938868Y-58828229D01*
X112950499Y-58769752D01*
X112950500Y-58769750D01*
X112950500Y-58280249D01*
X112950499Y-58280247D01*
X112938868Y-58221770D01*
X112938867Y-58221769D01*
X112894552Y-58155447D01*
X112828230Y-58111132D01*
X112828229Y-58111131D01*
X112769752Y-58099500D01*
X112769748Y-58099500D01*
X112615333Y-58099500D01*
X112548294Y-58079815D01*
X112527652Y-58063181D01*
X112011819Y-57547348D01*
X111997115Y-57520420D01*
X111980523Y-57494602D01*
X111979631Y-57488401D01*
X111978334Y-57486025D01*
X111975500Y-57459667D01*
X111975500Y-57356970D01*
X111995185Y-57289931D01*
X112030610Y-57253867D01*
X112044552Y-57244552D01*
X112088867Y-57178231D01*
X112088867Y-57178229D01*
X112088868Y-57178229D01*
X112100499Y-57119752D01*
X112100500Y-57119750D01*
X112100500Y-56666473D01*
X112109144Y-56637033D01*
X112115668Y-56607046D01*
X112119140Y-56602990D01*
X112120185Y-56599434D01*
X112136819Y-56578791D01*
X112144065Y-56571544D01*
X112145911Y-56570479D01*
X112220478Y-56495912D01*
X112221542Y-56494068D01*
X112228793Y-56486818D01*
X112252618Y-56473808D01*
X112274538Y-56457807D01*
X112285387Y-56455916D01*
X112290117Y-56453334D01*
X112297272Y-56453845D01*
X112316474Y-56450500D01*
X112769750Y-56450500D01*
X112769751Y-56450499D01*
X112784568Y-56447552D01*
X112828229Y-56438868D01*
X112828229Y-56438867D01*
X112828231Y-56438867D01*
X112894552Y-56394552D01*
X112938867Y-56328231D01*
X112938867Y-56328229D01*
X112938868Y-56328229D01*
X112950499Y-56269752D01*
X112950500Y-56269750D01*
X112950500Y-55780249D01*
X112950499Y-55780247D01*
X112938868Y-55721770D01*
X112938867Y-55721769D01*
X112894552Y-55655447D01*
X112828230Y-55611132D01*
X112828229Y-55611131D01*
X112769752Y-55599500D01*
X112769748Y-55599500D01*
X112621833Y-55599500D01*
X112554794Y-55579815D01*
X112534152Y-55563181D01*
X112011819Y-55040848D01*
X111997115Y-55013920D01*
X111980523Y-54988102D01*
X111979631Y-54981901D01*
X111978334Y-54979525D01*
X111975500Y-54953167D01*
X111975500Y-54856970D01*
X111995185Y-54789931D01*
X112030610Y-54753867D01*
X112044552Y-54744552D01*
X112088867Y-54678231D01*
X112088867Y-54678229D01*
X112088868Y-54678229D01*
X112100499Y-54619752D01*
X112100500Y-54619750D01*
X112100500Y-54166474D01*
X112109144Y-54137033D01*
X112115668Y-54107047D01*
X112119140Y-54102991D01*
X112120185Y-54099435D01*
X112136819Y-54078793D01*
X112144067Y-54071544D01*
X112145911Y-54070480D01*
X112220478Y-53995913D01*
X112221542Y-53994069D01*
X112228793Y-53986819D01*
X112252607Y-53973815D01*
X112274521Y-53957813D01*
X112285379Y-53955920D01*
X112290116Y-53953334D01*
X112297277Y-53953846D01*
X112316474Y-53950500D01*
X112769750Y-53950500D01*
X112769751Y-53950499D01*
X112784568Y-53947552D01*
X112828229Y-53938868D01*
X112828229Y-53938867D01*
X112828231Y-53938867D01*
X112894552Y-53894552D01*
X112938867Y-53828231D01*
X112938867Y-53828229D01*
X112938868Y-53828229D01*
X112950499Y-53769752D01*
X112950500Y-53769750D01*
X112950500Y-53280249D01*
X112950499Y-53280247D01*
X112938868Y-53221770D01*
X112938867Y-53221769D01*
X112894552Y-53155447D01*
X112880609Y-53146131D01*
X112835804Y-53092518D01*
X112825500Y-53043029D01*
X112825500Y-52356970D01*
X112845185Y-52289931D01*
X112880610Y-52253867D01*
X112894552Y-52244552D01*
X112938867Y-52178231D01*
X112938867Y-52178229D01*
X112938868Y-52178229D01*
X112950499Y-52119752D01*
X112950500Y-52119750D01*
X112950500Y-51630249D01*
X112950499Y-51630247D01*
X112938868Y-51571770D01*
X112938867Y-51571769D01*
X112894552Y-51505447D01*
X112828230Y-51461132D01*
X112828229Y-51461131D01*
X112769752Y-51449500D01*
X112769748Y-51449500D01*
X112280252Y-51449500D01*
X112237879Y-51457928D01*
X112168287Y-51451699D01*
X112113110Y-51408836D01*
X112089867Y-51342945D01*
X112092072Y-51312117D01*
X112100500Y-51269749D01*
X112100500Y-50780249D01*
X112100499Y-50780247D01*
X112088868Y-50721770D01*
X112088867Y-50721769D01*
X112037767Y-50645293D01*
X112040915Y-50643189D01*
X112017801Y-50600858D01*
X112022785Y-50531166D01*
X112064657Y-50475233D01*
X112130121Y-50450816D01*
X112138967Y-50450500D01*
X113711033Y-50450500D01*
X113778072Y-50470185D01*
G37*
G04 #@! TD.AperFunction*
G04 #@! TA.AperFunction,Conductor*
G36*
X115739004Y-53518280D02*
G01*
X115763256Y-53518858D01*
X115772614Y-53525191D01*
X115783683Y-53527468D01*
X115801028Y-53544422D01*
X115821119Y-53558020D01*
X115825567Y-53568408D01*
X115833648Y-53576307D01*
X115839073Y-53599949D01*
X115848623Y-53622249D01*
X115849500Y-53636970D01*
X115849500Y-68499166D01*
X115829815Y-68566205D01*
X115813181Y-68586847D01*
X115465069Y-68934958D01*
X115403746Y-68968443D01*
X115334054Y-68963459D01*
X115329938Y-68961839D01*
X115328232Y-68961132D01*
X115269752Y-68949500D01*
X115269748Y-68949500D01*
X114816473Y-68949500D01*
X114787032Y-68940855D01*
X114757046Y-68934332D01*
X114752988Y-68930858D01*
X114749434Y-68929815D01*
X114728792Y-68913181D01*
X114721540Y-68905929D01*
X114720478Y-68904089D01*
X114645911Y-68829522D01*
X114644070Y-68828459D01*
X114636819Y-68821208D01*
X114623813Y-68797390D01*
X114607809Y-68775469D01*
X114605917Y-68764617D01*
X114603334Y-68759885D01*
X114603845Y-68752727D01*
X114600500Y-68733527D01*
X114600500Y-68280249D01*
X114600499Y-68280247D01*
X114588868Y-68221770D01*
X114588867Y-68221769D01*
X114544552Y-68155447D01*
X114530609Y-68146131D01*
X114485804Y-68092518D01*
X114475500Y-68043029D01*
X114475500Y-67356970D01*
X114495185Y-67289931D01*
X114530610Y-67253867D01*
X114544552Y-67244552D01*
X114588867Y-67178231D01*
X114588867Y-67178229D01*
X114588868Y-67178229D01*
X114600499Y-67119752D01*
X114600500Y-67119750D01*
X114600500Y-66630249D01*
X114592072Y-66587881D01*
X114598299Y-66518289D01*
X114641161Y-66463112D01*
X114707051Y-66439867D01*
X114737881Y-66442072D01*
X114780249Y-66450500D01*
X114780252Y-66450500D01*
X115269750Y-66450500D01*
X115269751Y-66450499D01*
X115284568Y-66447552D01*
X115328229Y-66438868D01*
X115328229Y-66438867D01*
X115328231Y-66438867D01*
X115394552Y-66394552D01*
X115438867Y-66328231D01*
X115438867Y-66328229D01*
X115438868Y-66328229D01*
X115450499Y-66269752D01*
X115450500Y-66269750D01*
X115450500Y-65780249D01*
X115450499Y-65780247D01*
X115438868Y-65721770D01*
X115438867Y-65721769D01*
X115394552Y-65655447D01*
X115349531Y-65625365D01*
X115310545Y-65578715D01*
X115309086Y-65579558D01*
X115301716Y-65566793D01*
X115265460Y-65503996D01*
X114601075Y-64839611D01*
X114567590Y-64778288D01*
X114572574Y-64708596D01*
X114585656Y-64683036D01*
X114587082Y-64680903D01*
X114588867Y-64678231D01*
X114588867Y-64678230D01*
X114588868Y-64678229D01*
X114600499Y-64619752D01*
X114600500Y-64619750D01*
X114600500Y-64166473D01*
X114609144Y-64137033D01*
X114615668Y-64107046D01*
X114619140Y-64102989D01*
X114620185Y-64099434D01*
X114636819Y-64078791D01*
X114644066Y-64071543D01*
X114645912Y-64070478D01*
X114720479Y-63995911D01*
X114721543Y-63994067D01*
X114728793Y-63986818D01*
X114752612Y-63973811D01*
X114774532Y-63957809D01*
X114785385Y-63955917D01*
X114790117Y-63953334D01*
X114797274Y-63953845D01*
X114816474Y-63950500D01*
X115269750Y-63950500D01*
X115269751Y-63950499D01*
X115284568Y-63947552D01*
X115328229Y-63938868D01*
X115328229Y-63938867D01*
X115328231Y-63938867D01*
X115394552Y-63894552D01*
X115438867Y-63828231D01*
X115438867Y-63828229D01*
X115438868Y-63828229D01*
X115450499Y-63769752D01*
X115450500Y-63769750D01*
X115450500Y-63280249D01*
X115450499Y-63280247D01*
X115438868Y-63221770D01*
X115438867Y-63221769D01*
X115394552Y-63155447D01*
X115328230Y-63111132D01*
X115328229Y-63111131D01*
X115269752Y-63099500D01*
X115269748Y-63099500D01*
X115118033Y-63099500D01*
X115050994Y-63079815D01*
X115030352Y-63063181D01*
X114511819Y-62544648D01*
X114497115Y-62517720D01*
X114480523Y-62491902D01*
X114479631Y-62485701D01*
X114478334Y-62483325D01*
X114475500Y-62456967D01*
X114475500Y-62356970D01*
X114495185Y-62289931D01*
X114530610Y-62253867D01*
X114544552Y-62244552D01*
X114588867Y-62178231D01*
X114588867Y-62178229D01*
X114588868Y-62178229D01*
X114600499Y-62119752D01*
X114600500Y-62119750D01*
X114600500Y-61666473D01*
X114609144Y-61637033D01*
X114615668Y-61607046D01*
X114619140Y-61602989D01*
X114620185Y-61599434D01*
X114636819Y-61578791D01*
X114644066Y-61571543D01*
X114645912Y-61570478D01*
X114720479Y-61495911D01*
X114721543Y-61494067D01*
X114728793Y-61486818D01*
X114752612Y-61473811D01*
X114774532Y-61457809D01*
X114785385Y-61455917D01*
X114790117Y-61453334D01*
X114797274Y-61453845D01*
X114816474Y-61450500D01*
X115269750Y-61450500D01*
X115269751Y-61450499D01*
X115284568Y-61447552D01*
X115328229Y-61438868D01*
X115328229Y-61438867D01*
X115328231Y-61438867D01*
X115394552Y-61394552D01*
X115438867Y-61328231D01*
X115438867Y-61328229D01*
X115438868Y-61328229D01*
X115450499Y-61269752D01*
X115450500Y-61269750D01*
X115450500Y-60780249D01*
X115450499Y-60780247D01*
X115438868Y-60721770D01*
X115438867Y-60721769D01*
X115394552Y-60655447D01*
X115328230Y-60611132D01*
X115328229Y-60611131D01*
X115269752Y-60599500D01*
X115269748Y-60599500D01*
X115107233Y-60599500D01*
X115040194Y-60579815D01*
X115019552Y-60563181D01*
X114511819Y-60055448D01*
X114497115Y-60028520D01*
X114480523Y-60002702D01*
X114479631Y-59996501D01*
X114478334Y-59994125D01*
X114475500Y-59967767D01*
X114475500Y-59856970D01*
X114495185Y-59789931D01*
X114530610Y-59753867D01*
X114544552Y-59744552D01*
X114588867Y-59678231D01*
X114588867Y-59678229D01*
X114588868Y-59678229D01*
X114600499Y-59619752D01*
X114600500Y-59619750D01*
X114600500Y-59166473D01*
X114609144Y-59137033D01*
X114615668Y-59107046D01*
X114619140Y-59102990D01*
X114620185Y-59099434D01*
X114636819Y-59078791D01*
X114644065Y-59071544D01*
X114645911Y-59070479D01*
X114720478Y-58995912D01*
X114721542Y-58994068D01*
X114728793Y-58986818D01*
X114752618Y-58973808D01*
X114774538Y-58957807D01*
X114785387Y-58955916D01*
X114790117Y-58953334D01*
X114797272Y-58953845D01*
X114816474Y-58950500D01*
X115269750Y-58950500D01*
X115269751Y-58950499D01*
X115284568Y-58947552D01*
X115328229Y-58938868D01*
X115328229Y-58938867D01*
X115328231Y-58938867D01*
X115394552Y-58894552D01*
X115438867Y-58828231D01*
X115438867Y-58828229D01*
X115438868Y-58828229D01*
X115450499Y-58769752D01*
X115450500Y-58769750D01*
X115450500Y-58280249D01*
X115450499Y-58280247D01*
X115438868Y-58221770D01*
X115438867Y-58221769D01*
X115394552Y-58155447D01*
X115328230Y-58111132D01*
X115328229Y-58111131D01*
X115269752Y-58099500D01*
X115269748Y-58099500D01*
X115121833Y-58099500D01*
X115054794Y-58079815D01*
X115034152Y-58063181D01*
X114511819Y-57540848D01*
X114497115Y-57513920D01*
X114480523Y-57488102D01*
X114479631Y-57481901D01*
X114478334Y-57479525D01*
X114475500Y-57453167D01*
X114475500Y-57356970D01*
X114495185Y-57289931D01*
X114530610Y-57253867D01*
X114544552Y-57244552D01*
X114588867Y-57178231D01*
X114588867Y-57178229D01*
X114588868Y-57178229D01*
X114600499Y-57119752D01*
X114600500Y-57119750D01*
X114600500Y-56666473D01*
X114609144Y-56637033D01*
X114615668Y-56607046D01*
X114619140Y-56602989D01*
X114620185Y-56599434D01*
X114636819Y-56578791D01*
X114644066Y-56571543D01*
X114645912Y-56570478D01*
X114720479Y-56495911D01*
X114721543Y-56494067D01*
X114728793Y-56486818D01*
X114752612Y-56473811D01*
X114774532Y-56457809D01*
X114785385Y-56455917D01*
X114790117Y-56453334D01*
X114797274Y-56453845D01*
X114816474Y-56450500D01*
X115269750Y-56450500D01*
X115269751Y-56450499D01*
X115284568Y-56447552D01*
X115328229Y-56438868D01*
X115328229Y-56438867D01*
X115328231Y-56438867D01*
X115394552Y-56394552D01*
X115438867Y-56328231D01*
X115438867Y-56328229D01*
X115438868Y-56328229D01*
X115450499Y-56269752D01*
X115450500Y-56269750D01*
X115450500Y-55780249D01*
X115450499Y-55780247D01*
X115438868Y-55721770D01*
X115438867Y-55721769D01*
X115394552Y-55655447D01*
X115328230Y-55611132D01*
X115328229Y-55611131D01*
X115269752Y-55599500D01*
X115269748Y-55599500D01*
X115136433Y-55599500D01*
X115069394Y-55579815D01*
X115048752Y-55563181D01*
X114511819Y-55026248D01*
X114497115Y-54999320D01*
X114480523Y-54973502D01*
X114479631Y-54967301D01*
X114478334Y-54964925D01*
X114475500Y-54938567D01*
X114475500Y-54856970D01*
X114495185Y-54789931D01*
X114530610Y-54753867D01*
X114544552Y-54744552D01*
X114588867Y-54678231D01*
X114588867Y-54678229D01*
X114588868Y-54678229D01*
X114600499Y-54619752D01*
X114600500Y-54619750D01*
X114600500Y-54166473D01*
X114609144Y-54137033D01*
X114615668Y-54107046D01*
X114619140Y-54102990D01*
X114620185Y-54099434D01*
X114636819Y-54078791D01*
X114644065Y-54071544D01*
X114645911Y-54070479D01*
X114720478Y-53995912D01*
X114721542Y-53994068D01*
X114728793Y-53986818D01*
X114752618Y-53973808D01*
X114774538Y-53957807D01*
X114785387Y-53955916D01*
X114790117Y-53953334D01*
X114797272Y-53953845D01*
X114816474Y-53950500D01*
X115269750Y-53950500D01*
X115269751Y-53950499D01*
X115284568Y-53947552D01*
X115328229Y-53938868D01*
X115328229Y-53938867D01*
X115328231Y-53938867D01*
X115394552Y-53894552D01*
X115438867Y-53828231D01*
X115438867Y-53828229D01*
X115438868Y-53828229D01*
X115450499Y-53769752D01*
X115450500Y-53769750D01*
X115450500Y-53649500D01*
X115451583Y-53645811D01*
X115450723Y-53642063D01*
X115461350Y-53612547D01*
X115470185Y-53582461D01*
X115473089Y-53579943D01*
X115474393Y-53576325D01*
X115499294Y-53557237D01*
X115522989Y-53536706D01*
X115527678Y-53535480D01*
X115529846Y-53533819D01*
X115544445Y-53531099D01*
X115564246Y-53525925D01*
X115569368Y-53525500D01*
X115662414Y-53525500D01*
X115704157Y-53514315D01*
X115715246Y-53513395D01*
X115739004Y-53518280D01*
G37*
G04 #@! TD.AperFunction*
G04 #@! TA.AperFunction,Conductor*
G36*
X119737881Y-66442072D02*
G01*
X119780249Y-66450500D01*
X119780252Y-66450500D01*
X120125500Y-66450500D01*
X120192539Y-66470185D01*
X120238294Y-66522989D01*
X120249500Y-66574500D01*
X120249500Y-68237273D01*
X120249500Y-68342727D01*
X120276793Y-68444587D01*
X120329520Y-68535913D01*
X120404087Y-68610480D01*
X120495413Y-68663207D01*
X120502452Y-68667271D01*
X120501701Y-68668571D01*
X120520210Y-68683483D01*
X120546476Y-68703146D01*
X120547275Y-68705288D01*
X120549058Y-68706725D01*
X120559430Y-68737877D01*
X120570893Y-68768610D01*
X120570406Y-68770844D01*
X120571130Y-68773017D01*
X120563016Y-68804818D01*
X120556041Y-68836883D01*
X120554212Y-68839326D01*
X120553857Y-68840718D01*
X120534890Y-68865137D01*
X120465069Y-68934958D01*
X120403746Y-68968443D01*
X120334054Y-68963459D01*
X120329938Y-68961839D01*
X120328232Y-68961132D01*
X120269752Y-68949500D01*
X120269748Y-68949500D01*
X119816474Y-68949500D01*
X119787033Y-68940855D01*
X119757047Y-68934332D01*
X119752989Y-68930858D01*
X119749435Y-68929815D01*
X119728793Y-68913181D01*
X119721540Y-68905928D01*
X119720478Y-68904088D01*
X119645911Y-68829521D01*
X119644070Y-68828458D01*
X119636819Y-68821207D01*
X119623813Y-68797389D01*
X119607809Y-68775468D01*
X119605917Y-68764616D01*
X119603334Y-68759884D01*
X119603845Y-68752726D01*
X119600500Y-68733526D01*
X119600500Y-68280249D01*
X119600499Y-68280247D01*
X119588868Y-68221770D01*
X119588867Y-68221769D01*
X119544552Y-68155447D01*
X119530609Y-68146131D01*
X119485804Y-68092518D01*
X119475500Y-68043029D01*
X119475500Y-67356970D01*
X119495185Y-67289931D01*
X119530610Y-67253867D01*
X119544552Y-67244552D01*
X119588867Y-67178231D01*
X119588867Y-67178229D01*
X119588868Y-67178229D01*
X119600499Y-67119752D01*
X119600500Y-67119750D01*
X119600500Y-66630249D01*
X119592072Y-66587881D01*
X119598299Y-66518289D01*
X119641161Y-66463112D01*
X119707051Y-66439867D01*
X119737881Y-66442072D01*
G37*
G04 #@! TD.AperFunction*
G04 #@! TA.AperFunction,Conductor*
G36*
X122237881Y-66442072D02*
G01*
X122280249Y-66450500D01*
X122280252Y-66450500D01*
X122625500Y-66450500D01*
X122692539Y-66470185D01*
X122738294Y-66522989D01*
X122749500Y-66574500D01*
X122749500Y-68167273D01*
X122749500Y-68272727D01*
X122776793Y-68374587D01*
X122829520Y-68465913D01*
X122904087Y-68540480D01*
X122910245Y-68544035D01*
X122927495Y-68562127D01*
X122947511Y-68577110D01*
X122951191Y-68586978D01*
X122958459Y-68594600D01*
X122963190Y-68619148D01*
X122971928Y-68642574D01*
X122969689Y-68652864D01*
X122971683Y-68663207D01*
X122962391Y-68686417D01*
X122957077Y-68710847D01*
X122947476Y-68723672D01*
X122945715Y-68728072D01*
X122935926Y-68739102D01*
X122761846Y-68913182D01*
X122700526Y-68946666D01*
X122674167Y-68949500D01*
X122316475Y-68949500D01*
X122249436Y-68929815D01*
X122226940Y-68909122D01*
X122226227Y-68909836D01*
X122140166Y-68823775D01*
X122141848Y-68822092D01*
X122107805Y-68775456D01*
X122100500Y-68733525D01*
X122100500Y-68280249D01*
X122100499Y-68280247D01*
X122088868Y-68221770D01*
X122088867Y-68221769D01*
X122044552Y-68155447D01*
X122030609Y-68146131D01*
X121985804Y-68092518D01*
X121975500Y-68043029D01*
X121975500Y-67356970D01*
X121995185Y-67289931D01*
X122030610Y-67253867D01*
X122044552Y-67244552D01*
X122088867Y-67178231D01*
X122088867Y-67178229D01*
X122088868Y-67178229D01*
X122100499Y-67119752D01*
X122100500Y-67119750D01*
X122100500Y-66630249D01*
X122092072Y-66587881D01*
X122094996Y-66555202D01*
X122096753Y-66522435D01*
X122098094Y-66520574D01*
X122098299Y-66518289D01*
X122118428Y-66492376D01*
X122137619Y-66465763D01*
X122139754Y-66464922D01*
X122141161Y-66463112D01*
X122172091Y-66452200D01*
X122202638Y-66440182D01*
X122205693Y-66440345D01*
X122207051Y-66439867D01*
X122237881Y-66442072D01*
G37*
G04 #@! TD.AperFunction*
G04 #@! TA.AperFunction,Conductor*
G36*
X108793890Y-67239859D02*
G01*
X108795290Y-67237765D01*
X108805448Y-67244552D01*
X108819389Y-67253867D01*
X108864195Y-67307478D01*
X108874500Y-67356970D01*
X108874500Y-68043029D01*
X108872556Y-68049647D01*
X108873773Y-68056438D01*
X108862838Y-68082742D01*
X108854815Y-68110068D01*
X108848961Y-68116127D01*
X108846954Y-68120956D01*
X108824350Y-68141600D01*
X108821093Y-68144973D01*
X108820220Y-68145577D01*
X108805448Y-68155448D01*
X108805002Y-68156115D01*
X108795093Y-68162977D01*
X108772109Y-68170594D01*
X108750858Y-68182199D01*
X108739540Y-68181389D01*
X108728771Y-68184959D01*
X108705318Y-68178942D01*
X108681166Y-68177215D01*
X108672083Y-68170415D01*
X108661093Y-68167596D01*
X108644614Y-68149852D01*
X108625233Y-68135343D01*
X108621268Y-68124713D01*
X108613547Y-68116399D01*
X108609277Y-68092564D01*
X108600816Y-68069879D01*
X108600500Y-68061033D01*
X108600500Y-67338967D01*
X108620185Y-67271928D01*
X108672989Y-67226173D01*
X108742147Y-67216229D01*
X108793890Y-67239859D01*
G37*
G04 #@! TD.AperFunction*
G04 #@! TA.AperFunction,Conductor*
G36*
X128018834Y-63872785D02*
G01*
X128074767Y-63914657D01*
X128099184Y-63980121D01*
X128099500Y-63988967D01*
X128099500Y-65561033D01*
X128079815Y-65628072D01*
X128027011Y-65673827D01*
X127957853Y-65683771D01*
X127906106Y-65660139D01*
X127904707Y-65662233D01*
X127880609Y-65646131D01*
X127835804Y-65592518D01*
X127825500Y-65543029D01*
X127825500Y-65224438D01*
X127821881Y-65210934D01*
X127821880Y-65210929D01*
X127805022Y-65148013D01*
X127805022Y-65148012D01*
X127765460Y-65079489D01*
X127136819Y-64450848D01*
X127103334Y-64389525D01*
X127100500Y-64363167D01*
X127100500Y-64130249D01*
X127092072Y-64087881D01*
X127098299Y-64018289D01*
X127141161Y-63963112D01*
X127207051Y-63939867D01*
X127237881Y-63942072D01*
X127280249Y-63950500D01*
X127280252Y-63950500D01*
X127769750Y-63950500D01*
X127769751Y-63950499D01*
X127784568Y-63947552D01*
X127828229Y-63938868D01*
X127828229Y-63938867D01*
X127828231Y-63938867D01*
X127894552Y-63894552D01*
X127894551Y-63894552D01*
X127904707Y-63887767D01*
X127906810Y-63890915D01*
X127949142Y-63867801D01*
X128018834Y-63872785D01*
G37*
G04 #@! TD.AperFunction*
G04 #@! TA.AperFunction,Conductor*
G36*
X108752228Y-64720832D02*
G01*
X108763304Y-64721195D01*
X108794913Y-64736898D01*
X108804969Y-64743835D01*
X108805448Y-64744552D01*
X108823283Y-64756469D01*
X108824038Y-64756990D01*
X108845494Y-64783453D01*
X108867321Y-64809570D01*
X108867440Y-64810518D01*
X108868042Y-64811261D01*
X108873399Y-64826964D01*
X108894977Y-64907492D01*
X108894978Y-64907495D01*
X108894979Y-64907496D01*
X108927313Y-64963500D01*
X108934540Y-64976018D01*
X108934543Y-64976022D01*
X109346341Y-65387819D01*
X109379826Y-65449142D01*
X109374842Y-65518833D01*
X109332971Y-65574767D01*
X109267506Y-65599184D01*
X109258660Y-65599500D01*
X108930247Y-65599500D01*
X108871770Y-65611131D01*
X108871769Y-65611132D01*
X108795293Y-65662233D01*
X108793189Y-65659084D01*
X108750858Y-65682199D01*
X108681166Y-65677215D01*
X108625233Y-65635343D01*
X108600816Y-65569879D01*
X108600500Y-65561033D01*
X108600500Y-64838967D01*
X108603622Y-64828334D01*
X108602404Y-64817318D01*
X108613292Y-64795401D01*
X108620185Y-64771928D01*
X108628559Y-64764671D01*
X108633491Y-64754745D01*
X108654499Y-64742194D01*
X108672989Y-64726173D01*
X108683957Y-64724595D01*
X108693472Y-64718912D01*
X108717927Y-64719711D01*
X108742147Y-64716229D01*
X108752228Y-64720832D01*
G37*
G04 #@! TD.AperFunction*
G04 #@! TA.AperFunction,Conductor*
G36*
X120213139Y-50470185D02*
G01*
X120258894Y-50522989D01*
X120260661Y-50527047D01*
X120273533Y-50558123D01*
X120273538Y-50558133D01*
X120344723Y-50664668D01*
X120344726Y-50664672D01*
X120435327Y-50755273D01*
X120435331Y-50755276D01*
X120541866Y-50826461D01*
X120541872Y-50826464D01*
X120541873Y-50826465D01*
X120660256Y-50875501D01*
X120660260Y-50875501D01*
X120660261Y-50875502D01*
X120785928Y-50900500D01*
X120785931Y-50900500D01*
X120914063Y-50900500D01*
X120914069Y-50900500D01*
X120914074Y-50900498D01*
X120917543Y-50900157D01*
X120919352Y-50900500D01*
X120920161Y-50900500D01*
X120920161Y-50900653D01*
X120945083Y-50905377D01*
X120973039Y-50907377D01*
X120978942Y-50911796D01*
X120986190Y-50913170D01*
X121006538Y-50932454D01*
X121028973Y-50949248D01*
X121031550Y-50956157D01*
X121036904Y-50961231D01*
X121043595Y-50988451D01*
X121053391Y-51014712D01*
X121051823Y-51021918D01*
X121053584Y-51029080D01*
X121044498Y-51055594D01*
X121038540Y-51082985D01*
X121032217Y-51091430D01*
X121030934Y-51095177D01*
X121017389Y-51111239D01*
X120965490Y-51163139D01*
X120965489Y-51163140D01*
X120909541Y-51219087D01*
X120909535Y-51219095D01*
X120869982Y-51287604D01*
X120869979Y-51287609D01*
X120849500Y-51364039D01*
X120849500Y-65477428D01*
X120829815Y-65544467D01*
X120777011Y-65590222D01*
X120709316Y-65600367D01*
X120702730Y-65599500D01*
X120702727Y-65599500D01*
X120597273Y-65599500D01*
X120495413Y-65626793D01*
X120495408Y-65626795D01*
X120485071Y-65632763D01*
X120469502Y-65636538D01*
X120455873Y-65644957D01*
X120436245Y-65644605D01*
X120417170Y-65649232D01*
X120401228Y-65643977D01*
X120386015Y-65643705D01*
X120354178Y-65628470D01*
X120351700Y-65626814D01*
X120306899Y-65573199D01*
X120306036Y-65571168D01*
X120305023Y-65568724D01*
X120305022Y-65568719D01*
X120265460Y-65500196D01*
X119602597Y-64837333D01*
X119569112Y-64776010D01*
X119574096Y-64706318D01*
X119587179Y-64680757D01*
X119588867Y-64678231D01*
X119588867Y-64678230D01*
X119588868Y-64678229D01*
X119600499Y-64619752D01*
X119600500Y-64619750D01*
X119600500Y-64166473D01*
X119609144Y-64137033D01*
X119615668Y-64107046D01*
X119619140Y-64102989D01*
X119620185Y-64099434D01*
X119636819Y-64078791D01*
X119644066Y-64071543D01*
X119645912Y-64070478D01*
X119720479Y-63995911D01*
X119721543Y-63994067D01*
X119728793Y-63986818D01*
X119752612Y-63973811D01*
X119774532Y-63957809D01*
X119785385Y-63955917D01*
X119790117Y-63953334D01*
X119797274Y-63953845D01*
X119816474Y-63950500D01*
X120269750Y-63950500D01*
X120269751Y-63950499D01*
X120284568Y-63947552D01*
X120328229Y-63938868D01*
X120328229Y-63938867D01*
X120328231Y-63938867D01*
X120394552Y-63894552D01*
X120438867Y-63828231D01*
X120438867Y-63828229D01*
X120438868Y-63828229D01*
X120450499Y-63769752D01*
X120450500Y-63769750D01*
X120450500Y-63280249D01*
X120450499Y-63280247D01*
X120438868Y-63221770D01*
X120438867Y-63221769D01*
X120394552Y-63155447D01*
X120328230Y-63111132D01*
X120328229Y-63111131D01*
X120269752Y-63099500D01*
X120269748Y-63099500D01*
X120121833Y-63099500D01*
X120054794Y-63079815D01*
X120034152Y-63063181D01*
X119511819Y-62540848D01*
X119497115Y-62513920D01*
X119480523Y-62488102D01*
X119479631Y-62481901D01*
X119478334Y-62479525D01*
X119475500Y-62453167D01*
X119475500Y-62356970D01*
X119495185Y-62289931D01*
X119530610Y-62253867D01*
X119544552Y-62244552D01*
X119588867Y-62178231D01*
X119588867Y-62178229D01*
X119588868Y-62178229D01*
X119600499Y-62119752D01*
X119600500Y-62119750D01*
X119600500Y-61666473D01*
X119609144Y-61637033D01*
X119615668Y-61607046D01*
X119619140Y-61602989D01*
X119620185Y-61599434D01*
X119636819Y-61578791D01*
X119644066Y-61571543D01*
X119645912Y-61570478D01*
X119720479Y-61495911D01*
X119721543Y-61494067D01*
X119728793Y-61486818D01*
X119752612Y-61473811D01*
X119774532Y-61457809D01*
X119785385Y-61455917D01*
X119790117Y-61453334D01*
X119797274Y-61453845D01*
X119816474Y-61450500D01*
X120269750Y-61450500D01*
X120269751Y-61450499D01*
X120284568Y-61447552D01*
X120328229Y-61438868D01*
X120328229Y-61438867D01*
X120328231Y-61438867D01*
X120394552Y-61394552D01*
X120438867Y-61328231D01*
X120438867Y-61328229D01*
X120438868Y-61328229D01*
X120450499Y-61269752D01*
X120450500Y-61269750D01*
X120450500Y-60780249D01*
X120450499Y-60780247D01*
X120438868Y-60721770D01*
X120438867Y-60721769D01*
X120394552Y-60655447D01*
X120328230Y-60611132D01*
X120328229Y-60611131D01*
X120269752Y-60599500D01*
X120269748Y-60599500D01*
X120111033Y-60599500D01*
X120043994Y-60579815D01*
X120023352Y-60563181D01*
X119511819Y-60051648D01*
X119497115Y-60024720D01*
X119480523Y-59998902D01*
X119479631Y-59992701D01*
X119478334Y-59990325D01*
X119475500Y-59963967D01*
X119475500Y-59856970D01*
X119495185Y-59789931D01*
X119530610Y-59753867D01*
X119544552Y-59744552D01*
X119588867Y-59678231D01*
X119588867Y-59678229D01*
X119588868Y-59678229D01*
X119600499Y-59619752D01*
X119600500Y-59619750D01*
X119600500Y-59166473D01*
X119609144Y-59137033D01*
X119615668Y-59107046D01*
X119619140Y-59102989D01*
X119620185Y-59099434D01*
X119636819Y-59078791D01*
X119644066Y-59071543D01*
X119645912Y-59070478D01*
X119720479Y-58995911D01*
X119721543Y-58994067D01*
X119728793Y-58986818D01*
X119752612Y-58973811D01*
X119774532Y-58957809D01*
X119785385Y-58955917D01*
X119790117Y-58953334D01*
X119797274Y-58953845D01*
X119816474Y-58950500D01*
X120269750Y-58950500D01*
X120269751Y-58950499D01*
X120284568Y-58947552D01*
X120328229Y-58938868D01*
X120328229Y-58938867D01*
X120328231Y-58938867D01*
X120394552Y-58894552D01*
X120438867Y-58828231D01*
X120438867Y-58828229D01*
X120438868Y-58828229D01*
X120450499Y-58769752D01*
X120450500Y-58769750D01*
X120450500Y-58280249D01*
X120450499Y-58280247D01*
X120438868Y-58221770D01*
X120438867Y-58221769D01*
X120394552Y-58155447D01*
X120328230Y-58111132D01*
X120328229Y-58111131D01*
X120269752Y-58099500D01*
X120269748Y-58099500D01*
X120100233Y-58099500D01*
X120033194Y-58079815D01*
X120012552Y-58063181D01*
X119511819Y-57562448D01*
X119497115Y-57535520D01*
X119480523Y-57509702D01*
X119479631Y-57503501D01*
X119478334Y-57501125D01*
X119475500Y-57474767D01*
X119475500Y-57356970D01*
X119495185Y-57289931D01*
X119530610Y-57253867D01*
X119544552Y-57244552D01*
X119588867Y-57178231D01*
X119588867Y-57178229D01*
X119588868Y-57178229D01*
X119600499Y-57119752D01*
X119600500Y-57119750D01*
X119600500Y-56666474D01*
X119609144Y-56637033D01*
X119615668Y-56607047D01*
X119619140Y-56602991D01*
X119620185Y-56599435D01*
X119636819Y-56578793D01*
X119644067Y-56571544D01*
X119645911Y-56570480D01*
X119720478Y-56495913D01*
X119721542Y-56494069D01*
X119728793Y-56486819D01*
X119752607Y-56473815D01*
X119774521Y-56457813D01*
X119785379Y-56455920D01*
X119790116Y-56453334D01*
X119797277Y-56453846D01*
X119816474Y-56450500D01*
X120269750Y-56450500D01*
X120269751Y-56450499D01*
X120284568Y-56447552D01*
X120328229Y-56438868D01*
X120328229Y-56438867D01*
X120328231Y-56438867D01*
X120394552Y-56394552D01*
X120438867Y-56328231D01*
X120438867Y-56328229D01*
X120438868Y-56328229D01*
X120450499Y-56269752D01*
X120450500Y-56269750D01*
X120450500Y-55780249D01*
X120450499Y-55780247D01*
X120438868Y-55721770D01*
X120438867Y-55721769D01*
X120394552Y-55655447D01*
X120328230Y-55611132D01*
X120328229Y-55611131D01*
X120269752Y-55599500D01*
X120269748Y-55599500D01*
X120114833Y-55599500D01*
X120047794Y-55579815D01*
X120027152Y-55563181D01*
X119511819Y-55047848D01*
X119497115Y-55020920D01*
X119480523Y-54995102D01*
X119479631Y-54988901D01*
X119478334Y-54986525D01*
X119475500Y-54960167D01*
X119475500Y-54856970D01*
X119495185Y-54789931D01*
X119530610Y-54753867D01*
X119544552Y-54744552D01*
X119588867Y-54678231D01*
X119588867Y-54678229D01*
X119588868Y-54678229D01*
X119600499Y-54619752D01*
X119600500Y-54619750D01*
X119600500Y-54166474D01*
X119609144Y-54137033D01*
X119615668Y-54107047D01*
X119619140Y-54102991D01*
X119620185Y-54099435D01*
X119636819Y-54078793D01*
X119644067Y-54071544D01*
X119645911Y-54070480D01*
X119720478Y-53995913D01*
X119721542Y-53994069D01*
X119728793Y-53986819D01*
X119752607Y-53973815D01*
X119774521Y-53957813D01*
X119785379Y-53955920D01*
X119790116Y-53953334D01*
X119797277Y-53953846D01*
X119816474Y-53950500D01*
X120269750Y-53950500D01*
X120269751Y-53950499D01*
X120284568Y-53947552D01*
X120328229Y-53938868D01*
X120328229Y-53938867D01*
X120328231Y-53938867D01*
X120394552Y-53894552D01*
X120438867Y-53828231D01*
X120438867Y-53828229D01*
X120438868Y-53828229D01*
X120450499Y-53769752D01*
X120450500Y-53769750D01*
X120450500Y-53280249D01*
X120450499Y-53280247D01*
X120438868Y-53221770D01*
X120438867Y-53221769D01*
X120394552Y-53155447D01*
X120380609Y-53146131D01*
X120335804Y-53092518D01*
X120325500Y-53043029D01*
X120325500Y-52356970D01*
X120345185Y-52289931D01*
X120380610Y-52253867D01*
X120394552Y-52244552D01*
X120438867Y-52178231D01*
X120438867Y-52178229D01*
X120438868Y-52178229D01*
X120450499Y-52119752D01*
X120450500Y-52119750D01*
X120450500Y-51630249D01*
X120450499Y-51630247D01*
X120438868Y-51571770D01*
X120438867Y-51571769D01*
X120394552Y-51505447D01*
X120328230Y-51461132D01*
X120328229Y-51461131D01*
X120269752Y-51449500D01*
X120269748Y-51449500D01*
X119780252Y-51449500D01*
X119737879Y-51457928D01*
X119668287Y-51451699D01*
X119613110Y-51408836D01*
X119589867Y-51342945D01*
X119592072Y-51312117D01*
X119600500Y-51269749D01*
X119600500Y-50780249D01*
X119600499Y-50780247D01*
X119588868Y-50721770D01*
X119588867Y-50721769D01*
X119537767Y-50645293D01*
X119540915Y-50643189D01*
X119517801Y-50600858D01*
X119522785Y-50531166D01*
X119564657Y-50475233D01*
X119630121Y-50450816D01*
X119638967Y-50450500D01*
X120146100Y-50450500D01*
X120213139Y-50470185D01*
G37*
G04 #@! TD.AperFunction*
G04 #@! TA.AperFunction,Conductor*
G36*
X123778072Y-50470185D02*
G01*
X123823827Y-50522989D01*
X123833771Y-50592147D01*
X123810139Y-50643893D01*
X123812233Y-50645293D01*
X123761132Y-50721769D01*
X123761131Y-50721770D01*
X123749500Y-50780247D01*
X123749500Y-50941167D01*
X123729815Y-51008206D01*
X123713181Y-51028848D01*
X123409541Y-51332487D01*
X123409535Y-51332495D01*
X123369982Y-51401004D01*
X123369979Y-51401009D01*
X123349500Y-51477439D01*
X123349500Y-65417428D01*
X123329815Y-65484467D01*
X123277011Y-65530222D01*
X123209316Y-65540367D01*
X123202730Y-65539500D01*
X123202727Y-65539500D01*
X123097273Y-65539500D01*
X122995413Y-65566793D01*
X122965493Y-65584067D01*
X122897592Y-65600537D01*
X122831566Y-65577684D01*
X122796109Y-65538680D01*
X122776083Y-65503996D01*
X122765460Y-65485596D01*
X122108445Y-64828581D01*
X122074960Y-64767258D01*
X122079944Y-64697566D01*
X122084735Y-64688204D01*
X122088868Y-64678229D01*
X122100499Y-64619752D01*
X122100500Y-64619750D01*
X122100500Y-64166474D01*
X122109144Y-64137034D01*
X122115668Y-64107047D01*
X122119140Y-64102990D01*
X122120185Y-64099435D01*
X122136819Y-64078792D01*
X122144067Y-64071543D01*
X122145913Y-64070478D01*
X122220480Y-63995911D01*
X122221544Y-63994067D01*
X122228794Y-63986818D01*
X122252613Y-63973811D01*
X122274533Y-63957809D01*
X122285386Y-63955917D01*
X122290118Y-63953334D01*
X122297275Y-63953845D01*
X122316475Y-63950500D01*
X122769750Y-63950500D01*
X122769751Y-63950499D01*
X122784568Y-63947552D01*
X122828229Y-63938868D01*
X122828229Y-63938867D01*
X122828231Y-63938867D01*
X122894552Y-63894552D01*
X122938867Y-63828231D01*
X122938867Y-63828229D01*
X122938868Y-63828229D01*
X122950499Y-63769752D01*
X122950500Y-63769750D01*
X122950500Y-63280249D01*
X122950499Y-63280247D01*
X122938868Y-63221770D01*
X122938867Y-63221769D01*
X122894552Y-63155447D01*
X122828230Y-63111132D01*
X122828229Y-63111131D01*
X122769752Y-63099500D01*
X122769748Y-63099500D01*
X122611033Y-63099500D01*
X122543994Y-63079815D01*
X122523352Y-63063181D01*
X122011819Y-62551648D01*
X121997115Y-62524720D01*
X121980523Y-62498902D01*
X121979631Y-62492701D01*
X121978334Y-62490325D01*
X121975500Y-62463967D01*
X121975500Y-62356970D01*
X121995185Y-62289931D01*
X122030610Y-62253867D01*
X122044552Y-62244552D01*
X122088867Y-62178231D01*
X122088867Y-62178229D01*
X122088868Y-62178229D01*
X122100499Y-62119752D01*
X122100500Y-62119750D01*
X122100500Y-61666473D01*
X122109144Y-61637033D01*
X122115668Y-61607046D01*
X122119140Y-61602990D01*
X122120185Y-61599434D01*
X122136819Y-61578791D01*
X122144065Y-61571544D01*
X122145911Y-61570479D01*
X122220478Y-61495912D01*
X122221542Y-61494068D01*
X122228793Y-61486818D01*
X122252618Y-61473808D01*
X122274538Y-61457807D01*
X122285387Y-61455916D01*
X122290117Y-61453334D01*
X122297272Y-61453845D01*
X122316474Y-61450500D01*
X122769750Y-61450500D01*
X122769751Y-61450499D01*
X122784568Y-61447552D01*
X122828229Y-61438868D01*
X122828229Y-61438867D01*
X122828231Y-61438867D01*
X122894552Y-61394552D01*
X122938867Y-61328231D01*
X122938867Y-61328229D01*
X122938868Y-61328229D01*
X122950499Y-61269752D01*
X122950500Y-61269750D01*
X122950500Y-60780249D01*
X122950499Y-60780247D01*
X122938868Y-60721770D01*
X122938867Y-60721769D01*
X122894552Y-60655447D01*
X122828230Y-60611132D01*
X122828229Y-60611131D01*
X122769752Y-60599500D01*
X122769748Y-60599500D01*
X122600233Y-60599500D01*
X122533194Y-60579815D01*
X122512552Y-60563181D01*
X122011819Y-60062448D01*
X121997115Y-60035520D01*
X121980523Y-60009702D01*
X121979631Y-60003501D01*
X121978334Y-60001125D01*
X121975500Y-59974767D01*
X121975500Y-59856970D01*
X121995185Y-59789931D01*
X122030610Y-59753867D01*
X122044552Y-59744552D01*
X122088867Y-59678231D01*
X122088867Y-59678229D01*
X122088868Y-59678229D01*
X122100499Y-59619752D01*
X122100500Y-59619750D01*
X122100500Y-59166473D01*
X122109144Y-59137033D01*
X122115668Y-59107046D01*
X122119140Y-59102990D01*
X122120185Y-59099434D01*
X122136819Y-59078791D01*
X122144065Y-59071544D01*
X122145911Y-59070479D01*
X122220478Y-58995912D01*
X122221542Y-58994068D01*
X122228793Y-58986818D01*
X122252618Y-58973808D01*
X122274538Y-58957807D01*
X122285387Y-58955916D01*
X122290117Y-58953334D01*
X122297272Y-58953845D01*
X122316474Y-58950500D01*
X122769750Y-58950500D01*
X122769751Y-58950499D01*
X122784568Y-58947552D01*
X122828229Y-58938868D01*
X122828229Y-58938867D01*
X122828231Y-58938867D01*
X122894552Y-58894552D01*
X122938867Y-58828231D01*
X122938867Y-58828229D01*
X122938868Y-58828229D01*
X122950499Y-58769752D01*
X122950500Y-58769750D01*
X122950500Y-58280249D01*
X122950499Y-58280247D01*
X122938868Y-58221770D01*
X122938867Y-58221769D01*
X122894552Y-58155447D01*
X122828230Y-58111132D01*
X122828229Y-58111131D01*
X122769752Y-58099500D01*
X122769748Y-58099500D01*
X122614833Y-58099500D01*
X122547794Y-58079815D01*
X122527152Y-58063181D01*
X122011819Y-57547848D01*
X121997115Y-57520920D01*
X121980523Y-57495102D01*
X121979631Y-57488901D01*
X121978334Y-57486525D01*
X121975500Y-57460167D01*
X121975500Y-57356970D01*
X121995185Y-57289931D01*
X122030610Y-57253867D01*
X122044552Y-57244552D01*
X122088867Y-57178231D01*
X122088867Y-57178229D01*
X122088868Y-57178229D01*
X122100499Y-57119752D01*
X122100500Y-57119750D01*
X122100500Y-56666473D01*
X122109144Y-56637033D01*
X122115668Y-56607046D01*
X122119140Y-56602989D01*
X122120185Y-56599434D01*
X122136819Y-56578791D01*
X122144066Y-56571543D01*
X122145912Y-56570478D01*
X122220479Y-56495911D01*
X122221543Y-56494067D01*
X122228793Y-56486818D01*
X122252612Y-56473811D01*
X122274532Y-56457809D01*
X122285385Y-56455917D01*
X122290117Y-56453334D01*
X122297274Y-56453845D01*
X122316474Y-56450500D01*
X122769750Y-56450500D01*
X122769751Y-56450499D01*
X122784568Y-56447552D01*
X122828229Y-56438868D01*
X122828229Y-56438867D01*
X122828231Y-56438867D01*
X122894552Y-56394552D01*
X122938867Y-56328231D01*
X122938867Y-56328229D01*
X122938868Y-56328229D01*
X122950499Y-56269752D01*
X122950500Y-56269750D01*
X122950500Y-55780249D01*
X122950499Y-55780247D01*
X122938868Y-55721770D01*
X122938867Y-55721769D01*
X122894552Y-55655447D01*
X122828230Y-55611132D01*
X122828229Y-55611131D01*
X122769752Y-55599500D01*
X122769748Y-55599500D01*
X122604033Y-55599500D01*
X122536994Y-55579815D01*
X122516352Y-55563181D01*
X122011819Y-55058648D01*
X121997115Y-55031720D01*
X121980523Y-55005902D01*
X121979631Y-54999701D01*
X121978334Y-54997325D01*
X121975500Y-54970967D01*
X121975500Y-54856970D01*
X121995185Y-54789931D01*
X122030610Y-54753867D01*
X122044552Y-54744552D01*
X122088867Y-54678231D01*
X122088867Y-54678229D01*
X122088868Y-54678229D01*
X122100499Y-54619752D01*
X122100500Y-54619750D01*
X122100500Y-54166474D01*
X122109144Y-54137033D01*
X122115668Y-54107047D01*
X122119140Y-54102991D01*
X122120185Y-54099435D01*
X122136819Y-54078793D01*
X122144067Y-54071544D01*
X122145911Y-54070480D01*
X122220478Y-53995913D01*
X122221542Y-53994069D01*
X122228793Y-53986819D01*
X122252607Y-53973815D01*
X122274521Y-53957813D01*
X122285379Y-53955920D01*
X122290116Y-53953334D01*
X122297277Y-53953846D01*
X122316474Y-53950500D01*
X122769750Y-53950500D01*
X122769751Y-53950499D01*
X122784568Y-53947552D01*
X122828229Y-53938868D01*
X122828229Y-53938867D01*
X122828231Y-53938867D01*
X122894552Y-53894552D01*
X122938867Y-53828231D01*
X122938867Y-53828229D01*
X122938868Y-53828229D01*
X122950499Y-53769752D01*
X122950500Y-53769750D01*
X122950500Y-53280249D01*
X122950499Y-53280247D01*
X122938868Y-53221770D01*
X122938867Y-53221769D01*
X122894552Y-53155447D01*
X122880609Y-53146131D01*
X122835804Y-53092518D01*
X122825500Y-53043029D01*
X122825500Y-52356970D01*
X122845185Y-52289931D01*
X122880610Y-52253867D01*
X122894552Y-52244552D01*
X122938867Y-52178231D01*
X122938867Y-52178229D01*
X122938868Y-52178229D01*
X122950499Y-52119752D01*
X122950500Y-52119750D01*
X122950500Y-51630249D01*
X122950499Y-51630247D01*
X122938868Y-51571770D01*
X122938867Y-51571769D01*
X122894552Y-51505447D01*
X122828230Y-51461132D01*
X122828229Y-51461131D01*
X122769752Y-51449500D01*
X122769748Y-51449500D01*
X122280252Y-51449500D01*
X122237879Y-51457928D01*
X122168287Y-51451699D01*
X122113110Y-51408836D01*
X122089867Y-51342945D01*
X122092072Y-51312117D01*
X122100500Y-51269749D01*
X122100500Y-50780249D01*
X122100499Y-50780247D01*
X122088868Y-50721770D01*
X122088867Y-50721769D01*
X122037767Y-50645293D01*
X122040915Y-50643189D01*
X122017801Y-50600858D01*
X122022785Y-50531166D01*
X122064657Y-50475233D01*
X122130121Y-50450816D01*
X122138967Y-50450500D01*
X123711033Y-50450500D01*
X123778072Y-50470185D01*
G37*
G04 #@! TD.AperFunction*
G04 #@! TA.AperFunction,Conductor*
G36*
X125292539Y-63970185D02*
G01*
X125338294Y-64022989D01*
X125349500Y-64074500D01*
X125349500Y-65281074D01*
X125329815Y-65348113D01*
X125277011Y-65393868D01*
X125207853Y-65403812D01*
X125144297Y-65374787D01*
X125137819Y-65368755D01*
X124604119Y-64835055D01*
X124570634Y-64773732D01*
X124575618Y-64704040D01*
X124588699Y-64678480D01*
X124588867Y-64678231D01*
X124600500Y-64619748D01*
X124600500Y-64166473D01*
X124609144Y-64137033D01*
X124615668Y-64107046D01*
X124619140Y-64102989D01*
X124620185Y-64099434D01*
X124636819Y-64078791D01*
X124644066Y-64071543D01*
X124645912Y-64070478D01*
X124720479Y-63995911D01*
X124721543Y-63994067D01*
X124728793Y-63986818D01*
X124752612Y-63973811D01*
X124774532Y-63957809D01*
X124785385Y-63955917D01*
X124790117Y-63953334D01*
X124797274Y-63953845D01*
X124816474Y-63950500D01*
X125225500Y-63950500D01*
X125292539Y-63970185D01*
G37*
G04 #@! TD.AperFunction*
G04 #@! TA.AperFunction,Conductor*
G36*
X125292539Y-61470185D02*
G01*
X125338294Y-61522989D01*
X125349500Y-61574500D01*
X125349500Y-62975500D01*
X125329815Y-63042539D01*
X125277011Y-63088294D01*
X125225500Y-63099500D01*
X125125633Y-63099500D01*
X125058594Y-63079815D01*
X125037952Y-63063181D01*
X124511819Y-62537048D01*
X124497115Y-62510120D01*
X124480523Y-62484302D01*
X124479631Y-62478101D01*
X124478334Y-62475725D01*
X124475500Y-62449367D01*
X124475500Y-62356970D01*
X124495185Y-62289931D01*
X124530610Y-62253867D01*
X124544552Y-62244552D01*
X124588867Y-62178231D01*
X124588867Y-62178229D01*
X124588868Y-62178229D01*
X124600499Y-62119752D01*
X124600500Y-62119750D01*
X124600500Y-61666473D01*
X124609144Y-61637033D01*
X124615668Y-61607046D01*
X124619140Y-61602989D01*
X124620185Y-61599434D01*
X124636819Y-61578791D01*
X124644066Y-61571543D01*
X124645912Y-61570478D01*
X124720479Y-61495911D01*
X124721543Y-61494067D01*
X124728793Y-61486818D01*
X124752612Y-61473811D01*
X124774532Y-61457809D01*
X124785385Y-61455917D01*
X124790117Y-61453334D01*
X124797274Y-61453845D01*
X124816474Y-61450500D01*
X125225500Y-61450500D01*
X125292539Y-61470185D01*
G37*
G04 #@! TD.AperFunction*
G04 #@! TA.AperFunction,Conductor*
G36*
X128018834Y-61372785D02*
G01*
X128074767Y-61414657D01*
X128099184Y-61480121D01*
X128099500Y-61488967D01*
X128099500Y-61996099D01*
X128079815Y-62063138D01*
X128027011Y-62108893D01*
X128022956Y-62110659D01*
X127991875Y-62123533D01*
X127991866Y-62123538D01*
X127885331Y-62194723D01*
X127885327Y-62194726D01*
X127794726Y-62285327D01*
X127794723Y-62285331D01*
X127754970Y-62344826D01*
X127701358Y-62389631D01*
X127632033Y-62398338D01*
X127569005Y-62368183D01*
X127564187Y-62363616D01*
X127136819Y-61936248D01*
X127103334Y-61874925D01*
X127100500Y-61848567D01*
X127100500Y-61630249D01*
X127092072Y-61587881D01*
X127098299Y-61518289D01*
X127141161Y-61463112D01*
X127207051Y-61439867D01*
X127237881Y-61442072D01*
X127280249Y-61450500D01*
X127280252Y-61450500D01*
X127769750Y-61450500D01*
X127769751Y-61450499D01*
X127784568Y-61447552D01*
X127828229Y-61438868D01*
X127828229Y-61438867D01*
X127828231Y-61438867D01*
X127894552Y-61394552D01*
X127894551Y-61394552D01*
X127904707Y-61387767D01*
X127906810Y-61390915D01*
X127949142Y-61367801D01*
X128018834Y-61372785D01*
G37*
G04 #@! TD.AperFunction*
G04 #@! TA.AperFunction,Conductor*
G36*
X126221725Y-50453639D02*
G01*
X126232803Y-50452426D01*
X126254654Y-50463308D01*
X126278072Y-50470185D01*
X126285368Y-50478605D01*
X126295345Y-50483574D01*
X126307844Y-50504544D01*
X126323827Y-50522989D01*
X126325412Y-50534017D01*
X126331119Y-50543591D01*
X126330296Y-50567986D01*
X126333771Y-50592147D01*
X126329141Y-50602284D01*
X126328766Y-50613421D01*
X126313032Y-50645014D01*
X126306137Y-50654987D01*
X126305448Y-50655448D01*
X126294737Y-50671477D01*
X126294132Y-50672353D01*
X126267696Y-50693743D01*
X126241618Y-50715537D01*
X126240608Y-50715663D01*
X126239817Y-50716304D01*
X126218213Y-50722118D01*
X126218288Y-50722397D01*
X126210439Y-50724500D01*
X126210438Y-50724500D01*
X126179956Y-50732667D01*
X126134009Y-50744979D01*
X126134008Y-50744980D01*
X126072916Y-50780252D01*
X126065492Y-50784538D01*
X126065486Y-50784542D01*
X125909541Y-50940487D01*
X125909535Y-50940495D01*
X125869982Y-51009004D01*
X125869979Y-51009009D01*
X125864601Y-51029080D01*
X125849501Y-51085437D01*
X125849500Y-51085439D01*
X125849500Y-59977428D01*
X125829815Y-60044467D01*
X125777011Y-60090222D01*
X125709316Y-60100367D01*
X125702730Y-60099500D01*
X125702727Y-60099500D01*
X125597273Y-60099500D01*
X125495413Y-60126793D01*
X125495410Y-60126794D01*
X125404085Y-60179521D01*
X125329521Y-60254085D01*
X125276794Y-60345410D01*
X125276793Y-60345413D01*
X125249500Y-60447273D01*
X125249500Y-60475500D01*
X125246949Y-60484185D01*
X125248238Y-60493147D01*
X125237259Y-60517187D01*
X125229815Y-60542539D01*
X125222974Y-60548466D01*
X125219213Y-60556703D01*
X125196978Y-60570992D01*
X125177011Y-60588294D01*
X125166496Y-60590581D01*
X125160435Y-60594477D01*
X125125500Y-60599500D01*
X125114833Y-60599500D01*
X125047794Y-60579815D01*
X125027152Y-60563181D01*
X124511819Y-60047848D01*
X124478334Y-59986525D01*
X124475500Y-59960167D01*
X124475500Y-59856970D01*
X124495185Y-59789931D01*
X124530610Y-59753867D01*
X124544552Y-59744552D01*
X124588867Y-59678231D01*
X124588867Y-59678229D01*
X124588868Y-59678229D01*
X124600499Y-59619752D01*
X124600500Y-59619750D01*
X124600500Y-59166473D01*
X124609144Y-59137033D01*
X124615668Y-59107046D01*
X124619140Y-59102989D01*
X124620185Y-59099434D01*
X124636819Y-59078791D01*
X124644066Y-59071543D01*
X124645912Y-59070478D01*
X124720479Y-58995911D01*
X124721543Y-58994067D01*
X124728793Y-58986818D01*
X124752612Y-58973811D01*
X124774532Y-58957809D01*
X124785385Y-58955917D01*
X124790117Y-58953334D01*
X124797274Y-58953845D01*
X124816474Y-58950500D01*
X125269750Y-58950500D01*
X125269751Y-58950499D01*
X125284568Y-58947552D01*
X125328229Y-58938868D01*
X125328229Y-58938867D01*
X125328231Y-58938867D01*
X125394552Y-58894552D01*
X125438867Y-58828231D01*
X125438867Y-58828229D01*
X125438868Y-58828229D01*
X125450499Y-58769752D01*
X125450500Y-58769750D01*
X125450500Y-58280249D01*
X125450499Y-58280247D01*
X125438868Y-58221770D01*
X125438867Y-58221769D01*
X125394552Y-58155447D01*
X125328230Y-58111132D01*
X125328229Y-58111131D01*
X125269752Y-58099500D01*
X125269748Y-58099500D01*
X125104033Y-58099500D01*
X125036994Y-58079815D01*
X125016352Y-58063181D01*
X124511819Y-57558648D01*
X124497115Y-57531720D01*
X124480523Y-57505902D01*
X124479631Y-57499701D01*
X124478334Y-57497325D01*
X124475500Y-57470967D01*
X124475500Y-57356970D01*
X124495185Y-57289931D01*
X124530610Y-57253867D01*
X124544552Y-57244552D01*
X124588867Y-57178231D01*
X124588867Y-57178229D01*
X124588868Y-57178229D01*
X124600499Y-57119752D01*
X124600500Y-57119750D01*
X124600500Y-56666474D01*
X124609144Y-56637033D01*
X124615668Y-56607047D01*
X124619140Y-56602991D01*
X124620185Y-56599435D01*
X124636819Y-56578793D01*
X124644067Y-56571544D01*
X124645911Y-56570480D01*
X124720478Y-56495913D01*
X124721542Y-56494069D01*
X124728793Y-56486819D01*
X124752607Y-56473815D01*
X124774521Y-56457813D01*
X124785379Y-56455920D01*
X124790116Y-56453334D01*
X124797277Y-56453846D01*
X124816474Y-56450500D01*
X125269750Y-56450500D01*
X125269751Y-56450499D01*
X125284568Y-56447552D01*
X125328229Y-56438868D01*
X125328229Y-56438867D01*
X125328231Y-56438867D01*
X125394552Y-56394552D01*
X125438867Y-56328231D01*
X125438867Y-56328229D01*
X125438868Y-56328229D01*
X125450499Y-56269752D01*
X125450500Y-56269750D01*
X125450500Y-55780249D01*
X125450499Y-55780247D01*
X125438868Y-55721770D01*
X125438867Y-55721769D01*
X125394552Y-55655447D01*
X125328230Y-55611132D01*
X125328229Y-55611131D01*
X125269752Y-55599500D01*
X125269748Y-55599500D01*
X125118633Y-55599500D01*
X125051594Y-55579815D01*
X125030952Y-55563181D01*
X124511819Y-55044048D01*
X124497115Y-55017120D01*
X124480523Y-54991302D01*
X124479631Y-54985101D01*
X124478334Y-54982725D01*
X124475500Y-54956367D01*
X124475500Y-54856970D01*
X124495185Y-54789931D01*
X124530610Y-54753867D01*
X124544552Y-54744552D01*
X124588867Y-54678231D01*
X124588867Y-54678229D01*
X124588868Y-54678229D01*
X124600499Y-54619752D01*
X124600500Y-54619750D01*
X124600500Y-54166473D01*
X124609144Y-54137033D01*
X124615668Y-54107046D01*
X124619140Y-54102990D01*
X124620185Y-54099434D01*
X124636819Y-54078791D01*
X124644065Y-54071544D01*
X124645911Y-54070479D01*
X124720478Y-53995912D01*
X124721542Y-53994068D01*
X124728793Y-53986818D01*
X124752618Y-53973808D01*
X124774538Y-53957807D01*
X124785387Y-53955916D01*
X124790117Y-53953334D01*
X124797272Y-53953845D01*
X124816474Y-53950500D01*
X125269750Y-53950500D01*
X125269751Y-53950499D01*
X125284568Y-53947552D01*
X125328229Y-53938868D01*
X125328229Y-53938867D01*
X125328231Y-53938867D01*
X125394552Y-53894552D01*
X125438867Y-53828231D01*
X125438867Y-53828229D01*
X125438868Y-53828229D01*
X125450499Y-53769752D01*
X125450500Y-53769750D01*
X125450500Y-53280249D01*
X125450499Y-53280247D01*
X125438868Y-53221770D01*
X125438867Y-53221769D01*
X125394552Y-53155447D01*
X125380609Y-53146131D01*
X125335804Y-53092518D01*
X125325500Y-53043029D01*
X125325500Y-52356970D01*
X125345185Y-52289931D01*
X125380610Y-52253867D01*
X125394552Y-52244552D01*
X125438867Y-52178231D01*
X125438867Y-52178229D01*
X125438868Y-52178229D01*
X125450499Y-52119752D01*
X125450500Y-52119750D01*
X125450500Y-51630249D01*
X125450499Y-51630247D01*
X125438868Y-51571770D01*
X125438867Y-51571769D01*
X125394552Y-51505447D01*
X125328230Y-51461132D01*
X125328229Y-51461131D01*
X125269752Y-51449500D01*
X125269748Y-51449500D01*
X124780252Y-51449500D01*
X124737879Y-51457928D01*
X124668287Y-51451699D01*
X124613110Y-51408836D01*
X124589867Y-51342945D01*
X124592072Y-51312117D01*
X124600500Y-51269749D01*
X124600500Y-50780249D01*
X124600499Y-50780247D01*
X124588868Y-50721770D01*
X124588867Y-50721769D01*
X124537767Y-50645293D01*
X124540915Y-50643189D01*
X124517801Y-50600858D01*
X124522785Y-50531166D01*
X124564657Y-50475233D01*
X124630121Y-50450816D01*
X124638967Y-50450500D01*
X126211033Y-50450500D01*
X126221725Y-50453639D01*
G37*
G04 #@! TD.AperFunction*
G04 #@! TA.AperFunction,Conductor*
G36*
X110292539Y-58970185D02*
G01*
X110338294Y-59022989D01*
X110349500Y-59074500D01*
X110349500Y-59923199D01*
X110329815Y-59990238D01*
X110277011Y-60035993D01*
X110257596Y-60042973D01*
X110230409Y-60050258D01*
X110230404Y-60050260D01*
X110139079Y-60102987D01*
X110064516Y-60177550D01*
X110064514Y-60177552D01*
X110064514Y-60177553D01*
X110049416Y-60203702D01*
X109998852Y-60251915D01*
X109930244Y-60265137D01*
X109865380Y-60239169D01*
X109854351Y-60229380D01*
X109544719Y-59919748D01*
X109511234Y-59858425D01*
X109516218Y-59788733D01*
X109537990Y-59754856D01*
X109537767Y-59754707D01*
X109577845Y-59694726D01*
X109588867Y-59678231D01*
X109588867Y-59678229D01*
X109588868Y-59678229D01*
X109600499Y-59619752D01*
X109600500Y-59619750D01*
X109600500Y-59166473D01*
X109609144Y-59137033D01*
X109615668Y-59107046D01*
X109619140Y-59102989D01*
X109620185Y-59099434D01*
X109636819Y-59078791D01*
X109644066Y-59071543D01*
X109645912Y-59070478D01*
X109720479Y-58995911D01*
X109721543Y-58994067D01*
X109728793Y-58986818D01*
X109752612Y-58973811D01*
X109774532Y-58957809D01*
X109785385Y-58955917D01*
X109790117Y-58953334D01*
X109797274Y-58953845D01*
X109816474Y-58950500D01*
X110225500Y-58950500D01*
X110292539Y-58970185D01*
G37*
G04 #@! TD.AperFunction*
G04 #@! TA.AperFunction,Conductor*
G36*
X128018834Y-58872785D02*
G01*
X128074767Y-58914657D01*
X128099184Y-58980121D01*
X128099500Y-58988967D01*
X128099500Y-59496099D01*
X128079815Y-59563138D01*
X128027011Y-59608893D01*
X128022956Y-59610659D01*
X127991875Y-59623533D01*
X127991866Y-59623538D01*
X127885331Y-59694723D01*
X127885327Y-59694726D01*
X127794726Y-59785327D01*
X127794723Y-59785331D01*
X127750644Y-59851300D01*
X127697031Y-59896105D01*
X127627706Y-59904812D01*
X127564679Y-59874657D01*
X127559861Y-59870090D01*
X127136819Y-59447048D01*
X127103334Y-59385725D01*
X127100500Y-59359367D01*
X127100500Y-59130249D01*
X127092072Y-59087881D01*
X127098299Y-59018289D01*
X127141161Y-58963112D01*
X127207051Y-58939867D01*
X127237881Y-58942072D01*
X127280249Y-58950500D01*
X127280252Y-58950500D01*
X127769750Y-58950500D01*
X127769751Y-58950499D01*
X127784568Y-58947552D01*
X127828229Y-58938868D01*
X127828229Y-58938867D01*
X127828231Y-58938867D01*
X127894552Y-58894552D01*
X127894551Y-58894552D01*
X127904707Y-58887767D01*
X127906810Y-58890915D01*
X127949142Y-58867801D01*
X128018834Y-58872785D01*
G37*
G04 #@! TD.AperFunction*
G04 #@! TA.AperFunction,Conductor*
G36*
X110292539Y-56470185D02*
G01*
X110338294Y-56522989D01*
X110349500Y-56574500D01*
X110349500Y-57975500D01*
X110346949Y-57984185D01*
X110348238Y-57993147D01*
X110337259Y-58017187D01*
X110329815Y-58042539D01*
X110322974Y-58048466D01*
X110319213Y-58056703D01*
X110296978Y-58070992D01*
X110277011Y-58088294D01*
X110266496Y-58090581D01*
X110260435Y-58094477D01*
X110225500Y-58099500D01*
X110118033Y-58099500D01*
X110050994Y-58079815D01*
X110030352Y-58063181D01*
X109511819Y-57544648D01*
X109478334Y-57483325D01*
X109475500Y-57456967D01*
X109475500Y-57356970D01*
X109495185Y-57289931D01*
X109530610Y-57253867D01*
X109544552Y-57244552D01*
X109588867Y-57178231D01*
X109588867Y-57178229D01*
X109588868Y-57178229D01*
X109600499Y-57119752D01*
X109600500Y-57119750D01*
X109600500Y-56666473D01*
X109609144Y-56637033D01*
X109615668Y-56607046D01*
X109619140Y-56602989D01*
X109620185Y-56599434D01*
X109636819Y-56578791D01*
X109644066Y-56571543D01*
X109645912Y-56570478D01*
X109720479Y-56495911D01*
X109721543Y-56494067D01*
X109728793Y-56486818D01*
X109752612Y-56473811D01*
X109774532Y-56457809D01*
X109785385Y-56455917D01*
X109790117Y-56453334D01*
X109797274Y-56453845D01*
X109816474Y-56450500D01*
X110225500Y-56450500D01*
X110292539Y-56470185D01*
G37*
G04 #@! TD.AperFunction*
G04 #@! TA.AperFunction,Conductor*
G36*
X128018834Y-56372785D02*
G01*
X128074767Y-56414657D01*
X128099184Y-56480121D01*
X128099500Y-56488967D01*
X128099500Y-56996099D01*
X128079815Y-57063138D01*
X128027011Y-57108893D01*
X128022956Y-57110659D01*
X127991875Y-57123533D01*
X127991866Y-57123538D01*
X127885331Y-57194723D01*
X127885327Y-57194726D01*
X127794726Y-57285327D01*
X127794723Y-57285331D01*
X127746318Y-57357774D01*
X127692705Y-57402579D01*
X127623380Y-57411286D01*
X127560353Y-57381131D01*
X127555535Y-57376564D01*
X127136819Y-56957848D01*
X127103334Y-56896525D01*
X127100500Y-56870167D01*
X127100500Y-56630249D01*
X127092072Y-56587881D01*
X127098299Y-56518289D01*
X127141161Y-56463112D01*
X127207051Y-56439867D01*
X127237881Y-56442072D01*
X127280249Y-56450500D01*
X127280252Y-56450500D01*
X127769750Y-56450500D01*
X127769751Y-56450499D01*
X127784568Y-56447552D01*
X127828229Y-56438868D01*
X127828229Y-56438867D01*
X127828231Y-56438867D01*
X127894552Y-56394552D01*
X127894551Y-56394552D01*
X127904707Y-56387767D01*
X127906810Y-56390915D01*
X127949142Y-56367801D01*
X128018834Y-56372785D01*
G37*
G04 #@! TD.AperFunction*
G04 #@! TA.AperFunction,Conductor*
G36*
X128018834Y-53872785D02*
G01*
X128074767Y-53914657D01*
X128099184Y-53980121D01*
X128099500Y-53988967D01*
X128099500Y-55561033D01*
X128079815Y-55628072D01*
X128027011Y-55673827D01*
X127957853Y-55683771D01*
X127906106Y-55660139D01*
X127904707Y-55662233D01*
X127880609Y-55646131D01*
X127835804Y-55592518D01*
X127825500Y-55543029D01*
X127825500Y-55216840D01*
X127825500Y-55216838D01*
X127805022Y-55140412D01*
X127765460Y-55071889D01*
X127136819Y-54443248D01*
X127103334Y-54381925D01*
X127100500Y-54355567D01*
X127100500Y-54130249D01*
X127092072Y-54087881D01*
X127098299Y-54018289D01*
X127141161Y-53963112D01*
X127207051Y-53939867D01*
X127237881Y-53942072D01*
X127280249Y-53950500D01*
X127280252Y-53950500D01*
X127769750Y-53950500D01*
X127769751Y-53950499D01*
X127784568Y-53947552D01*
X127828229Y-53938868D01*
X127828229Y-53938867D01*
X127828231Y-53938867D01*
X127894552Y-53894552D01*
X127894551Y-53894552D01*
X127904707Y-53887767D01*
X127906810Y-53890915D01*
X127949142Y-53867801D01*
X128018834Y-53872785D01*
G37*
G04 #@! TD.AperFunction*
G04 #@! TA.AperFunction,Conductor*
G36*
X108752326Y-54720877D02*
G01*
X108763509Y-54721263D01*
X108795090Y-54737021D01*
X108805001Y-54743884D01*
X108805448Y-54744552D01*
X108820257Y-54754447D01*
X108821090Y-54755024D01*
X108842421Y-54781425D01*
X108864195Y-54807478D01*
X108864328Y-54808539D01*
X108865000Y-54809371D01*
X108874500Y-54856970D01*
X108874500Y-55183162D01*
X108894979Y-55259589D01*
X108926111Y-55313511D01*
X108934540Y-55328111D01*
X108998920Y-55392491D01*
X109001521Y-55395444D01*
X109014699Y-55423693D01*
X109029635Y-55451045D01*
X109029345Y-55455087D01*
X109031060Y-55458762D01*
X109026874Y-55489648D01*
X109024651Y-55520737D01*
X109022221Y-55523982D01*
X109021677Y-55527999D01*
X109001458Y-55551718D01*
X108982779Y-55576670D01*
X108978600Y-55578533D01*
X108976351Y-55581172D01*
X108964954Y-55584618D01*
X108932661Y-55599020D01*
X108871770Y-55611132D01*
X108871769Y-55611132D01*
X108795293Y-55662233D01*
X108793189Y-55659084D01*
X108750858Y-55682199D01*
X108681166Y-55677215D01*
X108625233Y-55635343D01*
X108600816Y-55569879D01*
X108600500Y-55561033D01*
X108600500Y-54838967D01*
X108603652Y-54828230D01*
X108602442Y-54817106D01*
X108613321Y-54795301D01*
X108620185Y-54771928D01*
X108628639Y-54764601D01*
X108633637Y-54754587D01*
X108654578Y-54742125D01*
X108672989Y-54726173D01*
X108684064Y-54724580D01*
X108693681Y-54718858D01*
X108718030Y-54719696D01*
X108742147Y-54716229D01*
X108752326Y-54720877D01*
G37*
G04 #@! TD.AperFunction*
G04 #@! TA.AperFunction,Conductor*
G36*
X110292539Y-53970185D02*
G01*
X110338294Y-54022989D01*
X110349500Y-54074500D01*
X110349500Y-55475500D01*
X110346949Y-55484185D01*
X110348238Y-55493147D01*
X110337259Y-55517187D01*
X110329815Y-55542539D01*
X110322974Y-55548466D01*
X110319213Y-55556703D01*
X110296978Y-55570992D01*
X110277011Y-55588294D01*
X110266496Y-55590581D01*
X110260435Y-55594477D01*
X110225500Y-55599500D01*
X110107233Y-55599500D01*
X110040194Y-55579815D01*
X110019552Y-55563181D01*
X109511819Y-55055448D01*
X109478334Y-54994125D01*
X109475500Y-54967767D01*
X109475500Y-54856970D01*
X109495185Y-54789931D01*
X109530610Y-54753867D01*
X109544552Y-54744552D01*
X109588867Y-54678231D01*
X109588867Y-54678229D01*
X109588868Y-54678229D01*
X109600499Y-54619752D01*
X109600500Y-54619750D01*
X109600500Y-54166473D01*
X109609144Y-54137033D01*
X109615668Y-54107046D01*
X109619140Y-54102990D01*
X109620185Y-54099434D01*
X109636819Y-54078791D01*
X109644065Y-54071544D01*
X109645911Y-54070479D01*
X109720478Y-53995912D01*
X109721542Y-53994068D01*
X109728793Y-53986818D01*
X109752618Y-53973808D01*
X109774538Y-53957807D01*
X109785387Y-53955916D01*
X109790117Y-53953334D01*
X109797272Y-53953845D01*
X109816474Y-53950500D01*
X110225500Y-53950500D01*
X110292539Y-53970185D01*
G37*
G04 #@! TD.AperFunction*
G04 #@! TA.AperFunction,Conductor*
G36*
X127994684Y-52221057D02*
G01*
X128018834Y-52222785D01*
X128027918Y-52229585D01*
X128038909Y-52232406D01*
X128055384Y-52250147D01*
X128074767Y-52264657D01*
X128078732Y-52275288D01*
X128086455Y-52283604D01*
X128090723Y-52307439D01*
X128099184Y-52330121D01*
X128099500Y-52338967D01*
X128099500Y-53061033D01*
X128079815Y-53128072D01*
X128027011Y-53173827D01*
X127957853Y-53183771D01*
X127906106Y-53160139D01*
X127904707Y-53162233D01*
X127880609Y-53146131D01*
X127835804Y-53092518D01*
X127825500Y-53043029D01*
X127825500Y-52356970D01*
X127827443Y-52350350D01*
X127826227Y-52343558D01*
X127837161Y-52317254D01*
X127845185Y-52289931D01*
X127851040Y-52283870D01*
X127853048Y-52279041D01*
X127875652Y-52258395D01*
X127878910Y-52255024D01*
X127879742Y-52254447D01*
X127894552Y-52244552D01*
X127894998Y-52243884D01*
X127904910Y-52237021D01*
X127927893Y-52229403D01*
X127949142Y-52217801D01*
X127960459Y-52218610D01*
X127971232Y-52215040D01*
X127994684Y-52221057D01*
G37*
G04 #@! TD.AperFunction*
G04 #@! TA.AperFunction,Conductor*
G36*
X108752326Y-52220877D02*
G01*
X108763509Y-52221263D01*
X108795090Y-52237021D01*
X108805001Y-52243884D01*
X108805448Y-52244552D01*
X108820257Y-52254447D01*
X108821090Y-52255024D01*
X108842421Y-52281425D01*
X108864195Y-52307478D01*
X108864328Y-52308539D01*
X108865000Y-52309371D01*
X108874500Y-52356970D01*
X108874500Y-53043029D01*
X108854815Y-53110068D01*
X108819391Y-53146131D01*
X108795293Y-53162233D01*
X108793189Y-53159084D01*
X108750858Y-53182199D01*
X108681166Y-53177215D01*
X108625233Y-53135343D01*
X108600816Y-53069879D01*
X108600500Y-53061033D01*
X108600500Y-52338967D01*
X108603652Y-52328230D01*
X108602442Y-52317106D01*
X108613321Y-52295301D01*
X108620185Y-52271928D01*
X108628639Y-52264601D01*
X108633637Y-52254587D01*
X108654578Y-52242125D01*
X108672989Y-52226173D01*
X108684064Y-52224580D01*
X108693681Y-52218858D01*
X108718030Y-52219696D01*
X108742147Y-52216229D01*
X108752326Y-52220877D01*
G37*
G04 #@! TD.AperFunction*
G04 #@! TA.AperFunction,Conductor*
G36*
X111243193Y-50459943D02*
G01*
X111275585Y-50468627D01*
X111276611Y-50469756D01*
X111278072Y-50470185D01*
X111299999Y-50495490D01*
X111322577Y-50520333D01*
X111322829Y-50521838D01*
X111323827Y-50522989D01*
X111328596Y-50556161D01*
X111334154Y-50589237D01*
X111333632Y-50591182D01*
X111333771Y-50592147D01*
X111332809Y-50594252D01*
X111325015Y-50623327D01*
X111313583Y-50650011D01*
X111305448Y-50655448D01*
X111261133Y-50721769D01*
X111249500Y-50780252D01*
X111249500Y-50799608D01*
X111239482Y-50822994D01*
X111213181Y-50861848D01*
X110909541Y-51165487D01*
X110909535Y-51165495D01*
X110869982Y-51234004D01*
X110869979Y-51234009D01*
X110860403Y-51269748D01*
X110855619Y-51287604D01*
X110849500Y-51310439D01*
X110849500Y-52627427D01*
X110829815Y-52694466D01*
X110777011Y-52740221D01*
X110709316Y-52750366D01*
X110702730Y-52749499D01*
X110702727Y-52749499D01*
X110597273Y-52749499D01*
X110495413Y-52776792D01*
X110495411Y-52776792D01*
X110487562Y-52778896D01*
X110487111Y-52777213D01*
X110427476Y-52783621D01*
X110364998Y-52752343D01*
X110329350Y-52692251D01*
X110325500Y-52661593D01*
X110325500Y-52356970D01*
X110345185Y-52289931D01*
X110380610Y-52253867D01*
X110394552Y-52244552D01*
X110438867Y-52178231D01*
X110438867Y-52178229D01*
X110438868Y-52178229D01*
X110450499Y-52119752D01*
X110450500Y-52119750D01*
X110450500Y-51630249D01*
X110450499Y-51630247D01*
X110438868Y-51571770D01*
X110438867Y-51571769D01*
X110394552Y-51505447D01*
X110328230Y-51461132D01*
X110328229Y-51461131D01*
X110269752Y-51449500D01*
X110269748Y-51449500D01*
X109780252Y-51449500D01*
X109737879Y-51457928D01*
X109668287Y-51451699D01*
X109613110Y-51408836D01*
X109589867Y-51342945D01*
X109592072Y-51312117D01*
X109600500Y-51269749D01*
X109600500Y-50780249D01*
X109600499Y-50780247D01*
X109588868Y-50721770D01*
X109588867Y-50721769D01*
X109537767Y-50645293D01*
X109540915Y-50643189D01*
X109517801Y-50600858D01*
X109522785Y-50531166D01*
X109564657Y-50475233D01*
X109630121Y-50450816D01*
X109638967Y-50450500D01*
X111211033Y-50450500D01*
X111243193Y-50459943D01*
G37*
G04 #@! TD.AperFunction*
G04 #@! TA.AperFunction,Conductor*
G36*
X115213139Y-50470185D02*
G01*
X115258894Y-50522989D01*
X115260661Y-50527047D01*
X115273533Y-50558123D01*
X115273538Y-50558133D01*
X115344723Y-50664668D01*
X115344726Y-50664672D01*
X115435327Y-50755273D01*
X115435331Y-50755276D01*
X115541866Y-50826461D01*
X115541872Y-50826464D01*
X115541873Y-50826465D01*
X115660256Y-50875501D01*
X115660260Y-50875501D01*
X115660261Y-50875502D01*
X115785928Y-50900500D01*
X115875167Y-50900500D01*
X115942206Y-50920185D01*
X115987961Y-50972989D01*
X115997905Y-51042147D01*
X115968880Y-51105703D01*
X115962848Y-51112181D01*
X115909541Y-51165487D01*
X115909535Y-51165495D01*
X115869982Y-51234004D01*
X115869979Y-51234009D01*
X115860403Y-51269748D01*
X115855619Y-51287604D01*
X115849500Y-51310439D01*
X115849500Y-51452428D01*
X115829815Y-51519467D01*
X115777011Y-51565222D01*
X115734380Y-51576110D01*
X115714155Y-51577562D01*
X115702727Y-51574500D01*
X115597273Y-51574500D01*
X115538875Y-51590147D01*
X115527084Y-51590994D01*
X115504029Y-51585985D01*
X115480447Y-51585424D01*
X115470520Y-51578705D01*
X115458807Y-51576161D01*
X115442120Y-51559484D01*
X115422584Y-51546261D01*
X115415102Y-51536202D01*
X115394553Y-51505448D01*
X115328230Y-51461132D01*
X115328229Y-51461131D01*
X115269752Y-51449500D01*
X115269748Y-51449500D01*
X114780252Y-51449500D01*
X114737879Y-51457928D01*
X114668287Y-51451699D01*
X114613110Y-51408836D01*
X114589867Y-51342945D01*
X114592072Y-51312117D01*
X114600500Y-51269749D01*
X114600500Y-50780249D01*
X114600499Y-50780247D01*
X114588868Y-50721770D01*
X114588867Y-50721769D01*
X114537767Y-50645293D01*
X114540915Y-50643189D01*
X114517801Y-50600858D01*
X114522785Y-50531166D01*
X114564657Y-50475233D01*
X114630121Y-50450816D01*
X114638967Y-50450500D01*
X115146100Y-50450500D01*
X115213139Y-50470185D01*
G37*
G04 #@! TD.AperFunction*
G04 #@! TA.AperFunction,Conductor*
G36*
X128042539Y-50470185D02*
G01*
X128088294Y-50522989D01*
X128099500Y-50574500D01*
X128099500Y-51411033D01*
X128079815Y-51478072D01*
X128027011Y-51523827D01*
X127957853Y-51533771D01*
X127906106Y-51510139D01*
X127904707Y-51512233D01*
X127828230Y-51461132D01*
X127828229Y-51461131D01*
X127769752Y-51449500D01*
X127769748Y-51449500D01*
X127280252Y-51449500D01*
X127237879Y-51457928D01*
X127168287Y-51451699D01*
X127113110Y-51408836D01*
X127089867Y-51342945D01*
X127092072Y-51312117D01*
X127100500Y-51269749D01*
X127100500Y-50780249D01*
X127100499Y-50780247D01*
X127088868Y-50721770D01*
X127088867Y-50721769D01*
X127037767Y-50645293D01*
X127040915Y-50643189D01*
X127017801Y-50600858D01*
X127022785Y-50531166D01*
X127064657Y-50475233D01*
X127130121Y-50450816D01*
X127138967Y-50450500D01*
X127975500Y-50450500D01*
X128042539Y-50470185D01*
G37*
G04 #@! TD.AperFunction*
M02*
