G04 #@! TF.GenerationSoftware,KiCad,Pcbnew,9.0.0*
G04 #@! TF.CreationDate,2025-03-15T13:02:57+01:00*
G04 #@! TF.ProjectId,snowpixel,736e6f77-7069-4786-956c-2e6b69636164,rev?*
G04 #@! TF.SameCoordinates,Original*
G04 #@! TF.FileFunction,Legend,Top*
G04 #@! TF.FilePolarity,Positive*
%FSLAX46Y46*%
G04 Gerber Fmt 4.6, Leading zero omitted, Abs format (unit mm)*
G04 Created by KiCad (PCBNEW 9.0.0) date 2025-03-15 13:02:57*
%MOMM*%
%LPD*%
G01*
G04 APERTURE LIST*
%ADD10C,0.010000*%
%ADD11C,0.001000*%
%ADD12R,0.450000X0.450000*%
G04 APERTURE END LIST*
D10*
X128600000Y-52700000D02*
G75*
G02*
X128000000Y-52700000I-300000J0D01*
G01*
X128000000Y-52700000D02*
G75*
G02*
X128600000Y-52700000I300000J0D01*
G01*
D11*
X119750000Y-68800000D02*
X120100000Y-68800000D01*
X119950000Y-68900000D01*
X119650000Y-68900000D01*
X119650000Y-68600000D01*
X119750000Y-68450000D01*
X119750000Y-68800000D01*
G36*
X119750000Y-68800000D02*
G01*
X120100000Y-68800000D01*
X119950000Y-68900000D01*
X119650000Y-68900000D01*
X119650000Y-68600000D01*
X119750000Y-68450000D01*
X119750000Y-68800000D01*
G37*
X120350000Y-68750000D02*
X120550000Y-68950000D01*
X120350000Y-69150000D01*
X120350000Y-69700000D01*
X119800000Y-69700000D01*
X119600000Y-69890000D01*
X119400000Y-69700000D01*
X118850000Y-69700000D01*
X118950000Y-69600000D01*
X119400000Y-69600000D01*
X119600000Y-69800000D01*
X119800000Y-69600000D01*
X120250000Y-69600000D01*
X120250000Y-69150000D01*
X120450000Y-68950000D01*
X120250000Y-68750000D01*
X120250000Y-68300000D01*
X120350000Y-68200000D01*
X120350000Y-68750000D01*
G36*
X120350000Y-68750000D02*
G01*
X120550000Y-68950000D01*
X120350000Y-69150000D01*
X120350000Y-69700000D01*
X119800000Y-69700000D01*
X119600000Y-69890000D01*
X119400000Y-69700000D01*
X118850000Y-69700000D01*
X118950000Y-69600000D01*
X119400000Y-69600000D01*
X119600000Y-69800000D01*
X119800000Y-69600000D01*
X120250000Y-69600000D01*
X120250000Y-69150000D01*
X120450000Y-68950000D01*
X120250000Y-68750000D01*
X120250000Y-68300000D01*
X120350000Y-68200000D01*
X120350000Y-68750000D01*
G37*
X119800000Y-68200000D02*
X120350000Y-68200000D01*
X120250000Y-68300000D01*
X119800000Y-68300000D01*
X119600000Y-68100000D01*
X119400000Y-68300000D01*
X118950000Y-68300000D01*
X118950000Y-68750000D01*
X118750000Y-68950000D01*
X118950000Y-69150000D01*
X118950000Y-69600000D01*
X118850000Y-69700000D01*
X118850000Y-69150000D01*
X118650000Y-68950000D01*
X118850000Y-68750000D01*
X118850000Y-68200000D01*
X119400000Y-68200000D01*
X119600000Y-68000000D01*
X119800000Y-68200000D01*
G36*
X119800000Y-68200000D02*
G01*
X120350000Y-68200000D01*
X120250000Y-68300000D01*
X119800000Y-68300000D01*
X119600000Y-68100000D01*
X119400000Y-68300000D01*
X118950000Y-68300000D01*
X118950000Y-68750000D01*
X118750000Y-68950000D01*
X118950000Y-69150000D01*
X118950000Y-69600000D01*
X118850000Y-69700000D01*
X118850000Y-69150000D01*
X118650000Y-68950000D01*
X118850000Y-68750000D01*
X118850000Y-68200000D01*
X119400000Y-68200000D01*
X119600000Y-68000000D01*
X119800000Y-68200000D01*
G37*
X112600000Y-64100000D02*
X112250000Y-64100000D01*
X112250000Y-64450000D01*
X112150000Y-64300000D01*
X112150000Y-64000000D01*
X112450000Y-64000000D01*
X112600000Y-64100000D01*
G36*
X112600000Y-64100000D02*
G01*
X112250000Y-64100000D01*
X112250000Y-64450000D01*
X112150000Y-64300000D01*
X112150000Y-64000000D01*
X112450000Y-64000000D01*
X112600000Y-64100000D01*
G37*
X111450000Y-63300000D02*
X111450000Y-63750000D01*
X111250000Y-63950000D01*
X111450000Y-64150000D01*
X111450000Y-64600000D01*
X111900000Y-64600000D01*
X112100000Y-64800000D01*
X112300000Y-64600000D01*
X112750000Y-64600000D01*
X112850000Y-64700000D01*
X112300000Y-64700000D01*
X112100000Y-64900000D01*
X111900000Y-64700000D01*
X111350000Y-64700000D01*
X111350000Y-64150000D01*
X111160000Y-63950000D01*
X111350000Y-63750000D01*
X111350000Y-63200000D01*
X111450000Y-63300000D01*
G36*
X111450000Y-63300000D02*
G01*
X111450000Y-63750000D01*
X111250000Y-63950000D01*
X111450000Y-64150000D01*
X111450000Y-64600000D01*
X111900000Y-64600000D01*
X112100000Y-64800000D01*
X112300000Y-64600000D01*
X112750000Y-64600000D01*
X112850000Y-64700000D01*
X112300000Y-64700000D01*
X112100000Y-64900000D01*
X111900000Y-64700000D01*
X111350000Y-64700000D01*
X111350000Y-64150000D01*
X111160000Y-63950000D01*
X111350000Y-63750000D01*
X111350000Y-63200000D01*
X111450000Y-63300000D01*
G37*
X112300000Y-63200000D02*
X112850000Y-63200000D01*
X112850000Y-63750000D01*
X113050000Y-63950000D01*
X112850000Y-64150000D01*
X112850000Y-64700000D01*
X112750000Y-64600000D01*
X112750000Y-64150000D01*
X112950000Y-63950000D01*
X112750000Y-63750000D01*
X112750000Y-63300000D01*
X112300000Y-63300000D01*
X112100000Y-63100000D01*
X111900000Y-63300000D01*
X111450000Y-63300000D01*
X111350000Y-63200000D01*
X111900000Y-63200000D01*
X112100000Y-63000000D01*
X112300000Y-63200000D01*
G36*
X112300000Y-63200000D02*
G01*
X112850000Y-63200000D01*
X112850000Y-63750000D01*
X113050000Y-63950000D01*
X112850000Y-64150000D01*
X112850000Y-64700000D01*
X112750000Y-64600000D01*
X112750000Y-64150000D01*
X112950000Y-63950000D01*
X112750000Y-63750000D01*
X112750000Y-63300000D01*
X112300000Y-63300000D01*
X112100000Y-63100000D01*
X111900000Y-63300000D01*
X111450000Y-63300000D01*
X111350000Y-63200000D01*
X111900000Y-63200000D01*
X112100000Y-63000000D01*
X112300000Y-63200000D01*
G37*
X117250000Y-68800000D02*
X117600000Y-68800000D01*
X117450000Y-68900000D01*
X117150000Y-68900000D01*
X117150000Y-68600000D01*
X117250000Y-68450000D01*
X117250000Y-68800000D01*
G36*
X117250000Y-68800000D02*
G01*
X117600000Y-68800000D01*
X117450000Y-68900000D01*
X117150000Y-68900000D01*
X117150000Y-68600000D01*
X117250000Y-68450000D01*
X117250000Y-68800000D01*
G37*
X117850000Y-68750000D02*
X118050000Y-68950000D01*
X117850000Y-69150000D01*
X117850000Y-69700000D01*
X117300000Y-69700000D01*
X117100000Y-69890000D01*
X116900000Y-69700000D01*
X116350000Y-69700000D01*
X116450000Y-69600000D01*
X116900000Y-69600000D01*
X117100000Y-69800000D01*
X117300000Y-69600000D01*
X117750000Y-69600000D01*
X117750000Y-69150000D01*
X117950000Y-68950000D01*
X117750000Y-68750000D01*
X117750000Y-68300000D01*
X117850000Y-68200000D01*
X117850000Y-68750000D01*
G36*
X117850000Y-68750000D02*
G01*
X118050000Y-68950000D01*
X117850000Y-69150000D01*
X117850000Y-69700000D01*
X117300000Y-69700000D01*
X117100000Y-69890000D01*
X116900000Y-69700000D01*
X116350000Y-69700000D01*
X116450000Y-69600000D01*
X116900000Y-69600000D01*
X117100000Y-69800000D01*
X117300000Y-69600000D01*
X117750000Y-69600000D01*
X117750000Y-69150000D01*
X117950000Y-68950000D01*
X117750000Y-68750000D01*
X117750000Y-68300000D01*
X117850000Y-68200000D01*
X117850000Y-68750000D01*
G37*
X117300000Y-68200000D02*
X117850000Y-68200000D01*
X117750000Y-68300000D01*
X117300000Y-68300000D01*
X117100000Y-68100000D01*
X116900000Y-68300000D01*
X116450000Y-68300000D01*
X116450000Y-68750000D01*
X116250000Y-68950000D01*
X116450000Y-69150000D01*
X116450000Y-69600000D01*
X116350000Y-69700000D01*
X116350000Y-69150000D01*
X116150000Y-68950000D01*
X116350000Y-68750000D01*
X116350000Y-68200000D01*
X116900000Y-68200000D01*
X117100000Y-68000000D01*
X117300000Y-68200000D01*
G36*
X117300000Y-68200000D02*
G01*
X117850000Y-68200000D01*
X117750000Y-68300000D01*
X117300000Y-68300000D01*
X117100000Y-68100000D01*
X116900000Y-68300000D01*
X116450000Y-68300000D01*
X116450000Y-68750000D01*
X116250000Y-68950000D01*
X116450000Y-69150000D01*
X116450000Y-69600000D01*
X116350000Y-69700000D01*
X116350000Y-69150000D01*
X116150000Y-68950000D01*
X116350000Y-68750000D01*
X116350000Y-68200000D01*
X116900000Y-68200000D01*
X117100000Y-68000000D01*
X117300000Y-68200000D01*
G37*
X122600000Y-56600000D02*
X122250000Y-56600000D01*
X122250000Y-56950000D01*
X122150000Y-56800000D01*
X122150000Y-56500000D01*
X122450000Y-56500000D01*
X122600000Y-56600000D01*
G36*
X122600000Y-56600000D02*
G01*
X122250000Y-56600000D01*
X122250000Y-56950000D01*
X122150000Y-56800000D01*
X122150000Y-56500000D01*
X122450000Y-56500000D01*
X122600000Y-56600000D01*
G37*
X121450000Y-55800000D02*
X121450000Y-56250000D01*
X121250000Y-56450000D01*
X121450000Y-56650000D01*
X121450000Y-57100000D01*
X121900000Y-57100000D01*
X122100000Y-57300000D01*
X122300000Y-57100000D01*
X122750000Y-57100000D01*
X122850000Y-57200000D01*
X122300000Y-57200000D01*
X122100000Y-57400000D01*
X121900000Y-57200000D01*
X121350000Y-57200000D01*
X121350000Y-56650000D01*
X121160000Y-56450000D01*
X121350000Y-56250000D01*
X121350000Y-55700000D01*
X121450000Y-55800000D01*
G36*
X121450000Y-55800000D02*
G01*
X121450000Y-56250000D01*
X121250000Y-56450000D01*
X121450000Y-56650000D01*
X121450000Y-57100000D01*
X121900000Y-57100000D01*
X122100000Y-57300000D01*
X122300000Y-57100000D01*
X122750000Y-57100000D01*
X122850000Y-57200000D01*
X122300000Y-57200000D01*
X122100000Y-57400000D01*
X121900000Y-57200000D01*
X121350000Y-57200000D01*
X121350000Y-56650000D01*
X121160000Y-56450000D01*
X121350000Y-56250000D01*
X121350000Y-55700000D01*
X121450000Y-55800000D01*
G37*
X122300000Y-55700000D02*
X122850000Y-55700000D01*
X122850000Y-56250000D01*
X123050000Y-56450000D01*
X122850000Y-56650000D01*
X122850000Y-57200000D01*
X122750000Y-57100000D01*
X122750000Y-56650000D01*
X122950000Y-56450000D01*
X122750000Y-56250000D01*
X122750000Y-55800000D01*
X122300000Y-55800000D01*
X122100000Y-55600000D01*
X121900000Y-55800000D01*
X121450000Y-55800000D01*
X121350000Y-55700000D01*
X121900000Y-55700000D01*
X122100000Y-55500000D01*
X122300000Y-55700000D01*
G36*
X122300000Y-55700000D02*
G01*
X122850000Y-55700000D01*
X122850000Y-56250000D01*
X123050000Y-56450000D01*
X122850000Y-56650000D01*
X122850000Y-57200000D01*
X122750000Y-57100000D01*
X122750000Y-56650000D01*
X122950000Y-56450000D01*
X122750000Y-56250000D01*
X122750000Y-55800000D01*
X122300000Y-55800000D01*
X122100000Y-55600000D01*
X121900000Y-55800000D01*
X121450000Y-55800000D01*
X121350000Y-55700000D01*
X121900000Y-55700000D01*
X122100000Y-55500000D01*
X122300000Y-55700000D01*
G37*
X112600000Y-54100000D02*
X112250000Y-54100000D01*
X112250000Y-54450000D01*
X112150000Y-54300000D01*
X112150000Y-54000000D01*
X112450000Y-54000000D01*
X112600000Y-54100000D01*
G36*
X112600000Y-54100000D02*
G01*
X112250000Y-54100000D01*
X112250000Y-54450000D01*
X112150000Y-54300000D01*
X112150000Y-54000000D01*
X112450000Y-54000000D01*
X112600000Y-54100000D01*
G37*
X111450000Y-53300000D02*
X111450000Y-53750000D01*
X111250000Y-53950000D01*
X111450000Y-54150000D01*
X111450000Y-54600000D01*
X111900000Y-54600000D01*
X112100000Y-54800000D01*
X112300000Y-54600000D01*
X112750000Y-54600000D01*
X112850000Y-54700000D01*
X112300000Y-54700000D01*
X112100000Y-54900000D01*
X111900000Y-54700000D01*
X111350000Y-54700000D01*
X111350000Y-54150000D01*
X111160000Y-53950000D01*
X111350000Y-53750000D01*
X111350000Y-53200000D01*
X111450000Y-53300000D01*
G36*
X111450000Y-53300000D02*
G01*
X111450000Y-53750000D01*
X111250000Y-53950000D01*
X111450000Y-54150000D01*
X111450000Y-54600000D01*
X111900000Y-54600000D01*
X112100000Y-54800000D01*
X112300000Y-54600000D01*
X112750000Y-54600000D01*
X112850000Y-54700000D01*
X112300000Y-54700000D01*
X112100000Y-54900000D01*
X111900000Y-54700000D01*
X111350000Y-54700000D01*
X111350000Y-54150000D01*
X111160000Y-53950000D01*
X111350000Y-53750000D01*
X111350000Y-53200000D01*
X111450000Y-53300000D01*
G37*
X112300000Y-53200000D02*
X112850000Y-53200000D01*
X112850000Y-53750000D01*
X113050000Y-53950000D01*
X112850000Y-54150000D01*
X112850000Y-54700000D01*
X112750000Y-54600000D01*
X112750000Y-54150000D01*
X112950000Y-53950000D01*
X112750000Y-53750000D01*
X112750000Y-53300000D01*
X112300000Y-53300000D01*
X112100000Y-53100000D01*
X111900000Y-53300000D01*
X111450000Y-53300000D01*
X111350000Y-53200000D01*
X111900000Y-53200000D01*
X112100000Y-53000000D01*
X112300000Y-53200000D01*
G36*
X112300000Y-53200000D02*
G01*
X112850000Y-53200000D01*
X112850000Y-53750000D01*
X113050000Y-53950000D01*
X112850000Y-54150000D01*
X112850000Y-54700000D01*
X112750000Y-54600000D01*
X112750000Y-54150000D01*
X112950000Y-53950000D01*
X112750000Y-53750000D01*
X112750000Y-53300000D01*
X112300000Y-53300000D01*
X112100000Y-53100000D01*
X111900000Y-53300000D01*
X111450000Y-53300000D01*
X111350000Y-53200000D01*
X111900000Y-53200000D01*
X112100000Y-53000000D01*
X112300000Y-53200000D01*
G37*
X109750000Y-68800000D02*
X110100000Y-68800000D01*
X109950000Y-68900000D01*
X109650000Y-68900000D01*
X109650000Y-68600000D01*
X109750000Y-68450000D01*
X109750000Y-68800000D01*
G36*
X109750000Y-68800000D02*
G01*
X110100000Y-68800000D01*
X109950000Y-68900000D01*
X109650000Y-68900000D01*
X109650000Y-68600000D01*
X109750000Y-68450000D01*
X109750000Y-68800000D01*
G37*
X110350000Y-68750000D02*
X110550000Y-68950000D01*
X110350000Y-69150000D01*
X110350000Y-69700000D01*
X109800000Y-69700000D01*
X109600000Y-69890000D01*
X109400000Y-69700000D01*
X108850000Y-69700000D01*
X108950000Y-69600000D01*
X109400000Y-69600000D01*
X109600000Y-69800000D01*
X109800000Y-69600000D01*
X110250000Y-69600000D01*
X110250000Y-69150000D01*
X110450000Y-68950000D01*
X110250000Y-68750000D01*
X110250000Y-68300000D01*
X110350000Y-68200000D01*
X110350000Y-68750000D01*
G36*
X110350000Y-68750000D02*
G01*
X110550000Y-68950000D01*
X110350000Y-69150000D01*
X110350000Y-69700000D01*
X109800000Y-69700000D01*
X109600000Y-69890000D01*
X109400000Y-69700000D01*
X108850000Y-69700000D01*
X108950000Y-69600000D01*
X109400000Y-69600000D01*
X109600000Y-69800000D01*
X109800000Y-69600000D01*
X110250000Y-69600000D01*
X110250000Y-69150000D01*
X110450000Y-68950000D01*
X110250000Y-68750000D01*
X110250000Y-68300000D01*
X110350000Y-68200000D01*
X110350000Y-68750000D01*
G37*
X109800000Y-68200000D02*
X110350000Y-68200000D01*
X110250000Y-68300000D01*
X109800000Y-68300000D01*
X109600000Y-68100000D01*
X109400000Y-68300000D01*
X108950000Y-68300000D01*
X108950000Y-68750000D01*
X108750000Y-68950000D01*
X108950000Y-69150000D01*
X108950000Y-69600000D01*
X108850000Y-69700000D01*
X108850000Y-69150000D01*
X108650000Y-68950000D01*
X108850000Y-68750000D01*
X108850000Y-68200000D01*
X109400000Y-68200000D01*
X109600000Y-68000000D01*
X109800000Y-68200000D01*
G36*
X109800000Y-68200000D02*
G01*
X110350000Y-68200000D01*
X110250000Y-68300000D01*
X109800000Y-68300000D01*
X109600000Y-68100000D01*
X109400000Y-68300000D01*
X108950000Y-68300000D01*
X108950000Y-68750000D01*
X108750000Y-68950000D01*
X108950000Y-69150000D01*
X108950000Y-69600000D01*
X108850000Y-69700000D01*
X108850000Y-69150000D01*
X108650000Y-68950000D01*
X108850000Y-68750000D01*
X108850000Y-68200000D01*
X109400000Y-68200000D01*
X109600000Y-68000000D01*
X109800000Y-68200000D01*
G37*
X120100000Y-54100000D02*
X119750000Y-54100000D01*
X119750000Y-54450000D01*
X119650000Y-54300000D01*
X119650000Y-54000000D01*
X119950000Y-54000000D01*
X120100000Y-54100000D01*
G36*
X120100000Y-54100000D02*
G01*
X119750000Y-54100000D01*
X119750000Y-54450000D01*
X119650000Y-54300000D01*
X119650000Y-54000000D01*
X119950000Y-54000000D01*
X120100000Y-54100000D01*
G37*
X118950000Y-53300000D02*
X118950000Y-53750000D01*
X118750000Y-53950000D01*
X118950000Y-54150000D01*
X118950000Y-54600000D01*
X119400000Y-54600000D01*
X119600000Y-54800000D01*
X119800000Y-54600000D01*
X120250000Y-54600000D01*
X120350000Y-54700000D01*
X119800000Y-54700000D01*
X119600000Y-54900000D01*
X119400000Y-54700000D01*
X118850000Y-54700000D01*
X118850000Y-54150000D01*
X118660000Y-53950000D01*
X118850000Y-53750000D01*
X118850000Y-53200000D01*
X118950000Y-53300000D01*
G36*
X118950000Y-53300000D02*
G01*
X118950000Y-53750000D01*
X118750000Y-53950000D01*
X118950000Y-54150000D01*
X118950000Y-54600000D01*
X119400000Y-54600000D01*
X119600000Y-54800000D01*
X119800000Y-54600000D01*
X120250000Y-54600000D01*
X120350000Y-54700000D01*
X119800000Y-54700000D01*
X119600000Y-54900000D01*
X119400000Y-54700000D01*
X118850000Y-54700000D01*
X118850000Y-54150000D01*
X118660000Y-53950000D01*
X118850000Y-53750000D01*
X118850000Y-53200000D01*
X118950000Y-53300000D01*
G37*
X119800000Y-53200000D02*
X120350000Y-53200000D01*
X120350000Y-53750000D01*
X120550000Y-53950000D01*
X120350000Y-54150000D01*
X120350000Y-54700000D01*
X120250000Y-54600000D01*
X120250000Y-54150000D01*
X120450000Y-53950000D01*
X120250000Y-53750000D01*
X120250000Y-53300000D01*
X119800000Y-53300000D01*
X119600000Y-53100000D01*
X119400000Y-53300000D01*
X118950000Y-53300000D01*
X118850000Y-53200000D01*
X119400000Y-53200000D01*
X119600000Y-53000000D01*
X119800000Y-53200000D01*
G36*
X119800000Y-53200000D02*
G01*
X120350000Y-53200000D01*
X120350000Y-53750000D01*
X120550000Y-53950000D01*
X120350000Y-54150000D01*
X120350000Y-54700000D01*
X120250000Y-54600000D01*
X120250000Y-54150000D01*
X120450000Y-53950000D01*
X120250000Y-53750000D01*
X120250000Y-53300000D01*
X119800000Y-53300000D01*
X119600000Y-53100000D01*
X119400000Y-53300000D01*
X118950000Y-53300000D01*
X118850000Y-53200000D01*
X119400000Y-53200000D01*
X119600000Y-53000000D01*
X119800000Y-53200000D01*
G37*
X110100000Y-66600000D02*
X109750000Y-66600000D01*
X109750000Y-66950000D01*
X109650000Y-66800000D01*
X109650000Y-66500000D01*
X109950000Y-66500000D01*
X110100000Y-66600000D01*
G36*
X110100000Y-66600000D02*
G01*
X109750000Y-66600000D01*
X109750000Y-66950000D01*
X109650000Y-66800000D01*
X109650000Y-66500000D01*
X109950000Y-66500000D01*
X110100000Y-66600000D01*
G37*
X108950000Y-65800000D02*
X108950000Y-66250000D01*
X108750000Y-66450000D01*
X108950000Y-66650000D01*
X108950000Y-67100000D01*
X109400000Y-67100000D01*
X109600000Y-67300000D01*
X109800000Y-67100000D01*
X110250000Y-67100000D01*
X110350000Y-67200000D01*
X109800000Y-67200000D01*
X109600000Y-67400000D01*
X109400000Y-67200000D01*
X108850000Y-67200000D01*
X108850000Y-66650000D01*
X108660000Y-66450000D01*
X108850000Y-66250000D01*
X108850000Y-65700000D01*
X108950000Y-65800000D01*
G36*
X108950000Y-65800000D02*
G01*
X108950000Y-66250000D01*
X108750000Y-66450000D01*
X108950000Y-66650000D01*
X108950000Y-67100000D01*
X109400000Y-67100000D01*
X109600000Y-67300000D01*
X109800000Y-67100000D01*
X110250000Y-67100000D01*
X110350000Y-67200000D01*
X109800000Y-67200000D01*
X109600000Y-67400000D01*
X109400000Y-67200000D01*
X108850000Y-67200000D01*
X108850000Y-66650000D01*
X108660000Y-66450000D01*
X108850000Y-66250000D01*
X108850000Y-65700000D01*
X108950000Y-65800000D01*
G37*
X109800000Y-65700000D02*
X110350000Y-65700000D01*
X110350000Y-66250000D01*
X110550000Y-66450000D01*
X110350000Y-66650000D01*
X110350000Y-67200000D01*
X110250000Y-67100000D01*
X110250000Y-66650000D01*
X110450000Y-66450000D01*
X110250000Y-66250000D01*
X110250000Y-65800000D01*
X109800000Y-65800000D01*
X109600000Y-65600000D01*
X109400000Y-65800000D01*
X108950000Y-65800000D01*
X108850000Y-65700000D01*
X109400000Y-65700000D01*
X109600000Y-65500000D01*
X109800000Y-65700000D01*
G36*
X109800000Y-65700000D02*
G01*
X110350000Y-65700000D01*
X110350000Y-66250000D01*
X110550000Y-66450000D01*
X110350000Y-66650000D01*
X110350000Y-67200000D01*
X110250000Y-67100000D01*
X110250000Y-66650000D01*
X110450000Y-66450000D01*
X110250000Y-66250000D01*
X110250000Y-65800000D01*
X109800000Y-65800000D01*
X109600000Y-65600000D01*
X109400000Y-65800000D01*
X108950000Y-65800000D01*
X108850000Y-65700000D01*
X109400000Y-65700000D01*
X109600000Y-65500000D01*
X109800000Y-65700000D01*
G37*
X112600000Y-59100000D02*
X112250000Y-59100000D01*
X112250000Y-59450000D01*
X112150000Y-59300000D01*
X112150000Y-59000000D01*
X112450000Y-59000000D01*
X112600000Y-59100000D01*
G36*
X112600000Y-59100000D02*
G01*
X112250000Y-59100000D01*
X112250000Y-59450000D01*
X112150000Y-59300000D01*
X112150000Y-59000000D01*
X112450000Y-59000000D01*
X112600000Y-59100000D01*
G37*
X111450000Y-58300000D02*
X111450000Y-58750000D01*
X111250000Y-58950000D01*
X111450000Y-59150000D01*
X111450000Y-59600000D01*
X111900000Y-59600000D01*
X112100000Y-59800000D01*
X112300000Y-59600000D01*
X112750000Y-59600000D01*
X112850000Y-59700000D01*
X112300000Y-59700000D01*
X112100000Y-59900000D01*
X111900000Y-59700000D01*
X111350000Y-59700000D01*
X111350000Y-59150000D01*
X111160000Y-58950000D01*
X111350000Y-58750000D01*
X111350000Y-58200000D01*
X111450000Y-58300000D01*
G36*
X111450000Y-58300000D02*
G01*
X111450000Y-58750000D01*
X111250000Y-58950000D01*
X111450000Y-59150000D01*
X111450000Y-59600000D01*
X111900000Y-59600000D01*
X112100000Y-59800000D01*
X112300000Y-59600000D01*
X112750000Y-59600000D01*
X112850000Y-59700000D01*
X112300000Y-59700000D01*
X112100000Y-59900000D01*
X111900000Y-59700000D01*
X111350000Y-59700000D01*
X111350000Y-59150000D01*
X111160000Y-58950000D01*
X111350000Y-58750000D01*
X111350000Y-58200000D01*
X111450000Y-58300000D01*
G37*
X112300000Y-58200000D02*
X112850000Y-58200000D01*
X112850000Y-58750000D01*
X113050000Y-58950000D01*
X112850000Y-59150000D01*
X112850000Y-59700000D01*
X112750000Y-59600000D01*
X112750000Y-59150000D01*
X112950000Y-58950000D01*
X112750000Y-58750000D01*
X112750000Y-58300000D01*
X112300000Y-58300000D01*
X112100000Y-58100000D01*
X111900000Y-58300000D01*
X111450000Y-58300000D01*
X111350000Y-58200000D01*
X111900000Y-58200000D01*
X112100000Y-58000000D01*
X112300000Y-58200000D01*
G36*
X112300000Y-58200000D02*
G01*
X112850000Y-58200000D01*
X112850000Y-58750000D01*
X113050000Y-58950000D01*
X112850000Y-59150000D01*
X112850000Y-59700000D01*
X112750000Y-59600000D01*
X112750000Y-59150000D01*
X112950000Y-58950000D01*
X112750000Y-58750000D01*
X112750000Y-58300000D01*
X112300000Y-58300000D01*
X112100000Y-58100000D01*
X111900000Y-58300000D01*
X111450000Y-58300000D01*
X111350000Y-58200000D01*
X111900000Y-58200000D01*
X112100000Y-58000000D01*
X112300000Y-58200000D01*
G37*
X115100000Y-59100000D02*
X114750000Y-59100000D01*
X114750000Y-59450000D01*
X114650000Y-59300000D01*
X114650000Y-59000000D01*
X114950000Y-59000000D01*
X115100000Y-59100000D01*
G36*
X115100000Y-59100000D02*
G01*
X114750000Y-59100000D01*
X114750000Y-59450000D01*
X114650000Y-59300000D01*
X114650000Y-59000000D01*
X114950000Y-59000000D01*
X115100000Y-59100000D01*
G37*
X113950000Y-58300000D02*
X113950000Y-58750000D01*
X113750000Y-58950000D01*
X113950000Y-59150000D01*
X113950000Y-59600000D01*
X114400000Y-59600000D01*
X114600000Y-59800000D01*
X114800000Y-59600000D01*
X115250000Y-59600000D01*
X115350000Y-59700000D01*
X114800000Y-59700000D01*
X114600000Y-59900000D01*
X114400000Y-59700000D01*
X113850000Y-59700000D01*
X113850000Y-59150000D01*
X113660000Y-58950000D01*
X113850000Y-58750000D01*
X113850000Y-58200000D01*
X113950000Y-58300000D01*
G36*
X113950000Y-58300000D02*
G01*
X113950000Y-58750000D01*
X113750000Y-58950000D01*
X113950000Y-59150000D01*
X113950000Y-59600000D01*
X114400000Y-59600000D01*
X114600000Y-59800000D01*
X114800000Y-59600000D01*
X115250000Y-59600000D01*
X115350000Y-59700000D01*
X114800000Y-59700000D01*
X114600000Y-59900000D01*
X114400000Y-59700000D01*
X113850000Y-59700000D01*
X113850000Y-59150000D01*
X113660000Y-58950000D01*
X113850000Y-58750000D01*
X113850000Y-58200000D01*
X113950000Y-58300000D01*
G37*
X114800000Y-58200000D02*
X115350000Y-58200000D01*
X115350000Y-58750000D01*
X115550000Y-58950000D01*
X115350000Y-59150000D01*
X115350000Y-59700000D01*
X115250000Y-59600000D01*
X115250000Y-59150000D01*
X115450000Y-58950000D01*
X115250000Y-58750000D01*
X115250000Y-58300000D01*
X114800000Y-58300000D01*
X114600000Y-58100000D01*
X114400000Y-58300000D01*
X113950000Y-58300000D01*
X113850000Y-58200000D01*
X114400000Y-58200000D01*
X114600000Y-58000000D01*
X114800000Y-58200000D01*
G36*
X114800000Y-58200000D02*
G01*
X115350000Y-58200000D01*
X115350000Y-58750000D01*
X115550000Y-58950000D01*
X115350000Y-59150000D01*
X115350000Y-59700000D01*
X115250000Y-59600000D01*
X115250000Y-59150000D01*
X115450000Y-58950000D01*
X115250000Y-58750000D01*
X115250000Y-58300000D01*
X114800000Y-58300000D01*
X114600000Y-58100000D01*
X114400000Y-58300000D01*
X113950000Y-58300000D01*
X113850000Y-58200000D01*
X114400000Y-58200000D01*
X114600000Y-58000000D01*
X114800000Y-58200000D01*
G37*
X117600000Y-66600000D02*
X117250000Y-66600000D01*
X117250000Y-66950000D01*
X117150000Y-66800000D01*
X117150000Y-66500000D01*
X117450000Y-66500000D01*
X117600000Y-66600000D01*
G36*
X117600000Y-66600000D02*
G01*
X117250000Y-66600000D01*
X117250000Y-66950000D01*
X117150000Y-66800000D01*
X117150000Y-66500000D01*
X117450000Y-66500000D01*
X117600000Y-66600000D01*
G37*
X116450000Y-65800000D02*
X116450000Y-66250000D01*
X116250000Y-66450000D01*
X116450000Y-66650000D01*
X116450000Y-67100000D01*
X116900000Y-67100000D01*
X117100000Y-67300000D01*
X117300000Y-67100000D01*
X117750000Y-67100000D01*
X117850000Y-67200000D01*
X117300000Y-67200000D01*
X117100000Y-67400000D01*
X116900000Y-67200000D01*
X116350000Y-67200000D01*
X116350000Y-66650000D01*
X116160000Y-66450000D01*
X116350000Y-66250000D01*
X116350000Y-65700000D01*
X116450000Y-65800000D01*
G36*
X116450000Y-65800000D02*
G01*
X116450000Y-66250000D01*
X116250000Y-66450000D01*
X116450000Y-66650000D01*
X116450000Y-67100000D01*
X116900000Y-67100000D01*
X117100000Y-67300000D01*
X117300000Y-67100000D01*
X117750000Y-67100000D01*
X117850000Y-67200000D01*
X117300000Y-67200000D01*
X117100000Y-67400000D01*
X116900000Y-67200000D01*
X116350000Y-67200000D01*
X116350000Y-66650000D01*
X116160000Y-66450000D01*
X116350000Y-66250000D01*
X116350000Y-65700000D01*
X116450000Y-65800000D01*
G37*
X117300000Y-65700000D02*
X117850000Y-65700000D01*
X117850000Y-66250000D01*
X118050000Y-66450000D01*
X117850000Y-66650000D01*
X117850000Y-67200000D01*
X117750000Y-67100000D01*
X117750000Y-66650000D01*
X117950000Y-66450000D01*
X117750000Y-66250000D01*
X117750000Y-65800000D01*
X117300000Y-65800000D01*
X117100000Y-65600000D01*
X116900000Y-65800000D01*
X116450000Y-65800000D01*
X116350000Y-65700000D01*
X116900000Y-65700000D01*
X117100000Y-65500000D01*
X117300000Y-65700000D01*
G36*
X117300000Y-65700000D02*
G01*
X117850000Y-65700000D01*
X117850000Y-66250000D01*
X118050000Y-66450000D01*
X117850000Y-66650000D01*
X117850000Y-67200000D01*
X117750000Y-67100000D01*
X117750000Y-66650000D01*
X117950000Y-66450000D01*
X117750000Y-66250000D01*
X117750000Y-65800000D01*
X117300000Y-65800000D01*
X117100000Y-65600000D01*
X116900000Y-65800000D01*
X116450000Y-65800000D01*
X116350000Y-65700000D01*
X116900000Y-65700000D01*
X117100000Y-65500000D01*
X117300000Y-65700000D01*
G37*
X125100000Y-54100000D02*
X124750000Y-54100000D01*
X124750000Y-54450000D01*
X124650000Y-54300000D01*
X124650000Y-54000000D01*
X124950000Y-54000000D01*
X125100000Y-54100000D01*
G36*
X125100000Y-54100000D02*
G01*
X124750000Y-54100000D01*
X124750000Y-54450000D01*
X124650000Y-54300000D01*
X124650000Y-54000000D01*
X124950000Y-54000000D01*
X125100000Y-54100000D01*
G37*
X123950000Y-53300000D02*
X123950000Y-53750000D01*
X123750000Y-53950000D01*
X123950000Y-54150000D01*
X123950000Y-54600000D01*
X124400000Y-54600000D01*
X124600000Y-54800000D01*
X124800000Y-54600000D01*
X125250000Y-54600000D01*
X125350000Y-54700000D01*
X124800000Y-54700000D01*
X124600000Y-54900000D01*
X124400000Y-54700000D01*
X123850000Y-54700000D01*
X123850000Y-54150000D01*
X123660000Y-53950000D01*
X123850000Y-53750000D01*
X123850000Y-53200000D01*
X123950000Y-53300000D01*
G36*
X123950000Y-53300000D02*
G01*
X123950000Y-53750000D01*
X123750000Y-53950000D01*
X123950000Y-54150000D01*
X123950000Y-54600000D01*
X124400000Y-54600000D01*
X124600000Y-54800000D01*
X124800000Y-54600000D01*
X125250000Y-54600000D01*
X125350000Y-54700000D01*
X124800000Y-54700000D01*
X124600000Y-54900000D01*
X124400000Y-54700000D01*
X123850000Y-54700000D01*
X123850000Y-54150000D01*
X123660000Y-53950000D01*
X123850000Y-53750000D01*
X123850000Y-53200000D01*
X123950000Y-53300000D01*
G37*
X124800000Y-53200000D02*
X125350000Y-53200000D01*
X125350000Y-53750000D01*
X125550000Y-53950000D01*
X125350000Y-54150000D01*
X125350000Y-54700000D01*
X125250000Y-54600000D01*
X125250000Y-54150000D01*
X125450000Y-53950000D01*
X125250000Y-53750000D01*
X125250000Y-53300000D01*
X124800000Y-53300000D01*
X124600000Y-53100000D01*
X124400000Y-53300000D01*
X123950000Y-53300000D01*
X123850000Y-53200000D01*
X124400000Y-53200000D01*
X124600000Y-53000000D01*
X124800000Y-53200000D01*
G36*
X124800000Y-53200000D02*
G01*
X125350000Y-53200000D01*
X125350000Y-53750000D01*
X125550000Y-53950000D01*
X125350000Y-54150000D01*
X125350000Y-54700000D01*
X125250000Y-54600000D01*
X125250000Y-54150000D01*
X125450000Y-53950000D01*
X125250000Y-53750000D01*
X125250000Y-53300000D01*
X124800000Y-53300000D01*
X124600000Y-53100000D01*
X124400000Y-53300000D01*
X123950000Y-53300000D01*
X123850000Y-53200000D01*
X124400000Y-53200000D01*
X124600000Y-53000000D01*
X124800000Y-53200000D01*
G37*
X124750000Y-68800000D02*
X125100000Y-68800000D01*
X124950000Y-68900000D01*
X124650000Y-68900000D01*
X124650000Y-68600000D01*
X124750000Y-68450000D01*
X124750000Y-68800000D01*
G36*
X124750000Y-68800000D02*
G01*
X125100000Y-68800000D01*
X124950000Y-68900000D01*
X124650000Y-68900000D01*
X124650000Y-68600000D01*
X124750000Y-68450000D01*
X124750000Y-68800000D01*
G37*
X125350000Y-68750000D02*
X125550000Y-68950000D01*
X125350000Y-69150000D01*
X125350000Y-69700000D01*
X124800000Y-69700000D01*
X124600000Y-69890000D01*
X124400000Y-69700000D01*
X123850000Y-69700000D01*
X123950000Y-69600000D01*
X124400000Y-69600000D01*
X124600000Y-69800000D01*
X124800000Y-69600000D01*
X125250000Y-69600000D01*
X125250000Y-69150000D01*
X125450000Y-68950000D01*
X125250000Y-68750000D01*
X125250000Y-68300000D01*
X125350000Y-68200000D01*
X125350000Y-68750000D01*
G36*
X125350000Y-68750000D02*
G01*
X125550000Y-68950000D01*
X125350000Y-69150000D01*
X125350000Y-69700000D01*
X124800000Y-69700000D01*
X124600000Y-69890000D01*
X124400000Y-69700000D01*
X123850000Y-69700000D01*
X123950000Y-69600000D01*
X124400000Y-69600000D01*
X124600000Y-69800000D01*
X124800000Y-69600000D01*
X125250000Y-69600000D01*
X125250000Y-69150000D01*
X125450000Y-68950000D01*
X125250000Y-68750000D01*
X125250000Y-68300000D01*
X125350000Y-68200000D01*
X125350000Y-68750000D01*
G37*
X124800000Y-68200000D02*
X125350000Y-68200000D01*
X125250000Y-68300000D01*
X124800000Y-68300000D01*
X124600000Y-68100000D01*
X124400000Y-68300000D01*
X123950000Y-68300000D01*
X123950000Y-68750000D01*
X123750000Y-68950000D01*
X123950000Y-69150000D01*
X123950000Y-69600000D01*
X123850000Y-69700000D01*
X123850000Y-69150000D01*
X123650000Y-68950000D01*
X123850000Y-68750000D01*
X123850000Y-68200000D01*
X124400000Y-68200000D01*
X124600000Y-68000000D01*
X124800000Y-68200000D01*
G36*
X124800000Y-68200000D02*
G01*
X125350000Y-68200000D01*
X125250000Y-68300000D01*
X124800000Y-68300000D01*
X124600000Y-68100000D01*
X124400000Y-68300000D01*
X123950000Y-68300000D01*
X123950000Y-68750000D01*
X123750000Y-68950000D01*
X123950000Y-69150000D01*
X123950000Y-69600000D01*
X123850000Y-69700000D01*
X123850000Y-69150000D01*
X123650000Y-68950000D01*
X123850000Y-68750000D01*
X123850000Y-68200000D01*
X124400000Y-68200000D01*
X124600000Y-68000000D01*
X124800000Y-68200000D01*
G37*
X117600000Y-56600000D02*
X117250000Y-56600000D01*
X117250000Y-56950000D01*
X117150000Y-56800000D01*
X117150000Y-56500000D01*
X117450000Y-56500000D01*
X117600000Y-56600000D01*
G36*
X117600000Y-56600000D02*
G01*
X117250000Y-56600000D01*
X117250000Y-56950000D01*
X117150000Y-56800000D01*
X117150000Y-56500000D01*
X117450000Y-56500000D01*
X117600000Y-56600000D01*
G37*
X116450000Y-55800000D02*
X116450000Y-56250000D01*
X116250000Y-56450000D01*
X116450000Y-56650000D01*
X116450000Y-57100000D01*
X116900000Y-57100000D01*
X117100000Y-57300000D01*
X117300000Y-57100000D01*
X117750000Y-57100000D01*
X117850000Y-57200000D01*
X117300000Y-57200000D01*
X117100000Y-57400000D01*
X116900000Y-57200000D01*
X116350000Y-57200000D01*
X116350000Y-56650000D01*
X116160000Y-56450000D01*
X116350000Y-56250000D01*
X116350000Y-55700000D01*
X116450000Y-55800000D01*
G36*
X116450000Y-55800000D02*
G01*
X116450000Y-56250000D01*
X116250000Y-56450000D01*
X116450000Y-56650000D01*
X116450000Y-57100000D01*
X116900000Y-57100000D01*
X117100000Y-57300000D01*
X117300000Y-57100000D01*
X117750000Y-57100000D01*
X117850000Y-57200000D01*
X117300000Y-57200000D01*
X117100000Y-57400000D01*
X116900000Y-57200000D01*
X116350000Y-57200000D01*
X116350000Y-56650000D01*
X116160000Y-56450000D01*
X116350000Y-56250000D01*
X116350000Y-55700000D01*
X116450000Y-55800000D01*
G37*
X117300000Y-55700000D02*
X117850000Y-55700000D01*
X117850000Y-56250000D01*
X118050000Y-56450000D01*
X117850000Y-56650000D01*
X117850000Y-57200000D01*
X117750000Y-57100000D01*
X117750000Y-56650000D01*
X117950000Y-56450000D01*
X117750000Y-56250000D01*
X117750000Y-55800000D01*
X117300000Y-55800000D01*
X117100000Y-55600000D01*
X116900000Y-55800000D01*
X116450000Y-55800000D01*
X116350000Y-55700000D01*
X116900000Y-55700000D01*
X117100000Y-55500000D01*
X117300000Y-55700000D01*
G36*
X117300000Y-55700000D02*
G01*
X117850000Y-55700000D01*
X117850000Y-56250000D01*
X118050000Y-56450000D01*
X117850000Y-56650000D01*
X117850000Y-57200000D01*
X117750000Y-57100000D01*
X117750000Y-56650000D01*
X117950000Y-56450000D01*
X117750000Y-56250000D01*
X117750000Y-55800000D01*
X117300000Y-55800000D01*
X117100000Y-55600000D01*
X116900000Y-55800000D01*
X116450000Y-55800000D01*
X116350000Y-55700000D01*
X116900000Y-55700000D01*
X117100000Y-55500000D01*
X117300000Y-55700000D01*
G37*
X122600000Y-59100000D02*
X122250000Y-59100000D01*
X122250000Y-59450000D01*
X122150000Y-59300000D01*
X122150000Y-59000000D01*
X122450000Y-59000000D01*
X122600000Y-59100000D01*
G36*
X122600000Y-59100000D02*
G01*
X122250000Y-59100000D01*
X122250000Y-59450000D01*
X122150000Y-59300000D01*
X122150000Y-59000000D01*
X122450000Y-59000000D01*
X122600000Y-59100000D01*
G37*
X121450000Y-58300000D02*
X121450000Y-58750000D01*
X121250000Y-58950000D01*
X121450000Y-59150000D01*
X121450000Y-59600000D01*
X121900000Y-59600000D01*
X122100000Y-59800000D01*
X122300000Y-59600000D01*
X122750000Y-59600000D01*
X122850000Y-59700000D01*
X122300000Y-59700000D01*
X122100000Y-59900000D01*
X121900000Y-59700000D01*
X121350000Y-59700000D01*
X121350000Y-59150000D01*
X121160000Y-58950000D01*
X121350000Y-58750000D01*
X121350000Y-58200000D01*
X121450000Y-58300000D01*
G36*
X121450000Y-58300000D02*
G01*
X121450000Y-58750000D01*
X121250000Y-58950000D01*
X121450000Y-59150000D01*
X121450000Y-59600000D01*
X121900000Y-59600000D01*
X122100000Y-59800000D01*
X122300000Y-59600000D01*
X122750000Y-59600000D01*
X122850000Y-59700000D01*
X122300000Y-59700000D01*
X122100000Y-59900000D01*
X121900000Y-59700000D01*
X121350000Y-59700000D01*
X121350000Y-59150000D01*
X121160000Y-58950000D01*
X121350000Y-58750000D01*
X121350000Y-58200000D01*
X121450000Y-58300000D01*
G37*
X122300000Y-58200000D02*
X122850000Y-58200000D01*
X122850000Y-58750000D01*
X123050000Y-58950000D01*
X122850000Y-59150000D01*
X122850000Y-59700000D01*
X122750000Y-59600000D01*
X122750000Y-59150000D01*
X122950000Y-58950000D01*
X122750000Y-58750000D01*
X122750000Y-58300000D01*
X122300000Y-58300000D01*
X122100000Y-58100000D01*
X121900000Y-58300000D01*
X121450000Y-58300000D01*
X121350000Y-58200000D01*
X121900000Y-58200000D01*
X122100000Y-58000000D01*
X122300000Y-58200000D01*
G36*
X122300000Y-58200000D02*
G01*
X122850000Y-58200000D01*
X122850000Y-58750000D01*
X123050000Y-58950000D01*
X122850000Y-59150000D01*
X122850000Y-59700000D01*
X122750000Y-59600000D01*
X122750000Y-59150000D01*
X122950000Y-58950000D01*
X122750000Y-58750000D01*
X122750000Y-58300000D01*
X122300000Y-58300000D01*
X122100000Y-58100000D01*
X121900000Y-58300000D01*
X121450000Y-58300000D01*
X121350000Y-58200000D01*
X121900000Y-58200000D01*
X122100000Y-58000000D01*
X122300000Y-58200000D01*
G37*
X120100000Y-66600000D02*
X119750000Y-66600000D01*
X119750000Y-66950000D01*
X119650000Y-66800000D01*
X119650000Y-66500000D01*
X119950000Y-66500000D01*
X120100000Y-66600000D01*
G36*
X120100000Y-66600000D02*
G01*
X119750000Y-66600000D01*
X119750000Y-66950000D01*
X119650000Y-66800000D01*
X119650000Y-66500000D01*
X119950000Y-66500000D01*
X120100000Y-66600000D01*
G37*
X118950000Y-65800000D02*
X118950000Y-66250000D01*
X118750000Y-66450000D01*
X118950000Y-66650000D01*
X118950000Y-67100000D01*
X119400000Y-67100000D01*
X119600000Y-67300000D01*
X119800000Y-67100000D01*
X120250000Y-67100000D01*
X120350000Y-67200000D01*
X119800000Y-67200000D01*
X119600000Y-67400000D01*
X119400000Y-67200000D01*
X118850000Y-67200000D01*
X118850000Y-66650000D01*
X118660000Y-66450000D01*
X118850000Y-66250000D01*
X118850000Y-65700000D01*
X118950000Y-65800000D01*
G36*
X118950000Y-65800000D02*
G01*
X118950000Y-66250000D01*
X118750000Y-66450000D01*
X118950000Y-66650000D01*
X118950000Y-67100000D01*
X119400000Y-67100000D01*
X119600000Y-67300000D01*
X119800000Y-67100000D01*
X120250000Y-67100000D01*
X120350000Y-67200000D01*
X119800000Y-67200000D01*
X119600000Y-67400000D01*
X119400000Y-67200000D01*
X118850000Y-67200000D01*
X118850000Y-66650000D01*
X118660000Y-66450000D01*
X118850000Y-66250000D01*
X118850000Y-65700000D01*
X118950000Y-65800000D01*
G37*
X119800000Y-65700000D02*
X120350000Y-65700000D01*
X120350000Y-66250000D01*
X120550000Y-66450000D01*
X120350000Y-66650000D01*
X120350000Y-67200000D01*
X120250000Y-67100000D01*
X120250000Y-66650000D01*
X120450000Y-66450000D01*
X120250000Y-66250000D01*
X120250000Y-65800000D01*
X119800000Y-65800000D01*
X119600000Y-65600000D01*
X119400000Y-65800000D01*
X118950000Y-65800000D01*
X118850000Y-65700000D01*
X119400000Y-65700000D01*
X119600000Y-65500000D01*
X119800000Y-65700000D01*
G36*
X119800000Y-65700000D02*
G01*
X120350000Y-65700000D01*
X120350000Y-66250000D01*
X120550000Y-66450000D01*
X120350000Y-66650000D01*
X120350000Y-67200000D01*
X120250000Y-67100000D01*
X120250000Y-66650000D01*
X120450000Y-66450000D01*
X120250000Y-66250000D01*
X120250000Y-65800000D01*
X119800000Y-65800000D01*
X119600000Y-65600000D01*
X119400000Y-65800000D01*
X118950000Y-65800000D01*
X118850000Y-65700000D01*
X119400000Y-65700000D01*
X119600000Y-65500000D01*
X119800000Y-65700000D01*
G37*
X117250000Y-51300000D02*
X117600000Y-51300000D01*
X117450000Y-51400000D01*
X117150000Y-51400000D01*
X117150000Y-51100000D01*
X117250000Y-50950000D01*
X117250000Y-51300000D01*
G36*
X117250000Y-51300000D02*
G01*
X117600000Y-51300000D01*
X117450000Y-51400000D01*
X117150000Y-51400000D01*
X117150000Y-51100000D01*
X117250000Y-50950000D01*
X117250000Y-51300000D01*
G37*
X117850000Y-51250000D02*
X118050000Y-51450000D01*
X117850000Y-51650000D01*
X117850000Y-52200000D01*
X117300000Y-52200000D01*
X117100000Y-52390000D01*
X116900000Y-52200000D01*
X116350000Y-52200000D01*
X116450000Y-52100000D01*
X116900000Y-52100000D01*
X117100000Y-52300000D01*
X117300000Y-52100000D01*
X117750000Y-52100000D01*
X117750000Y-51650000D01*
X117950000Y-51450000D01*
X117750000Y-51250000D01*
X117750000Y-50800000D01*
X117850000Y-50700000D01*
X117850000Y-51250000D01*
G36*
X117850000Y-51250000D02*
G01*
X118050000Y-51450000D01*
X117850000Y-51650000D01*
X117850000Y-52200000D01*
X117300000Y-52200000D01*
X117100000Y-52390000D01*
X116900000Y-52200000D01*
X116350000Y-52200000D01*
X116450000Y-52100000D01*
X116900000Y-52100000D01*
X117100000Y-52300000D01*
X117300000Y-52100000D01*
X117750000Y-52100000D01*
X117750000Y-51650000D01*
X117950000Y-51450000D01*
X117750000Y-51250000D01*
X117750000Y-50800000D01*
X117850000Y-50700000D01*
X117850000Y-51250000D01*
G37*
X117300000Y-50700000D02*
X117850000Y-50700000D01*
X117750000Y-50800000D01*
X117300000Y-50800000D01*
X117100000Y-50600000D01*
X116900000Y-50800000D01*
X116450000Y-50800000D01*
X116450000Y-51250000D01*
X116250000Y-51450000D01*
X116450000Y-51650000D01*
X116450000Y-52100000D01*
X116350000Y-52200000D01*
X116350000Y-51650000D01*
X116150000Y-51450000D01*
X116350000Y-51250000D01*
X116350000Y-50700000D01*
X116900000Y-50700000D01*
X117100000Y-50500000D01*
X117300000Y-50700000D01*
G36*
X117300000Y-50700000D02*
G01*
X117850000Y-50700000D01*
X117750000Y-50800000D01*
X117300000Y-50800000D01*
X117100000Y-50600000D01*
X116900000Y-50800000D01*
X116450000Y-50800000D01*
X116450000Y-51250000D01*
X116250000Y-51450000D01*
X116450000Y-51650000D01*
X116450000Y-52100000D01*
X116350000Y-52200000D01*
X116350000Y-51650000D01*
X116150000Y-51450000D01*
X116350000Y-51250000D01*
X116350000Y-50700000D01*
X116900000Y-50700000D01*
X117100000Y-50500000D01*
X117300000Y-50700000D01*
G37*
X112250000Y-51300000D02*
X112600000Y-51300000D01*
X112450000Y-51400000D01*
X112150000Y-51400000D01*
X112150000Y-51100000D01*
X112250000Y-50950000D01*
X112250000Y-51300000D01*
G36*
X112250000Y-51300000D02*
G01*
X112600000Y-51300000D01*
X112450000Y-51400000D01*
X112150000Y-51400000D01*
X112150000Y-51100000D01*
X112250000Y-50950000D01*
X112250000Y-51300000D01*
G37*
X112850000Y-51250000D02*
X113050000Y-51450000D01*
X112850000Y-51650000D01*
X112850000Y-52200000D01*
X112300000Y-52200000D01*
X112100000Y-52390000D01*
X111900000Y-52200000D01*
X111350000Y-52200000D01*
X111450000Y-52100000D01*
X111900000Y-52100000D01*
X112100000Y-52300000D01*
X112300000Y-52100000D01*
X112750000Y-52100000D01*
X112750000Y-51650000D01*
X112950000Y-51450000D01*
X112750000Y-51250000D01*
X112750000Y-50800000D01*
X112850000Y-50700000D01*
X112850000Y-51250000D01*
G36*
X112850000Y-51250000D02*
G01*
X113050000Y-51450000D01*
X112850000Y-51650000D01*
X112850000Y-52200000D01*
X112300000Y-52200000D01*
X112100000Y-52390000D01*
X111900000Y-52200000D01*
X111350000Y-52200000D01*
X111450000Y-52100000D01*
X111900000Y-52100000D01*
X112100000Y-52300000D01*
X112300000Y-52100000D01*
X112750000Y-52100000D01*
X112750000Y-51650000D01*
X112950000Y-51450000D01*
X112750000Y-51250000D01*
X112750000Y-50800000D01*
X112850000Y-50700000D01*
X112850000Y-51250000D01*
G37*
X112300000Y-50700000D02*
X112850000Y-50700000D01*
X112750000Y-50800000D01*
X112300000Y-50800000D01*
X112100000Y-50600000D01*
X111900000Y-50800000D01*
X111450000Y-50800000D01*
X111450000Y-51250000D01*
X111250000Y-51450000D01*
X111450000Y-51650000D01*
X111450000Y-52100000D01*
X111350000Y-52200000D01*
X111350000Y-51650000D01*
X111150000Y-51450000D01*
X111350000Y-51250000D01*
X111350000Y-50700000D01*
X111900000Y-50700000D01*
X112100000Y-50500000D01*
X112300000Y-50700000D01*
G36*
X112300000Y-50700000D02*
G01*
X112850000Y-50700000D01*
X112750000Y-50800000D01*
X112300000Y-50800000D01*
X112100000Y-50600000D01*
X111900000Y-50800000D01*
X111450000Y-50800000D01*
X111450000Y-51250000D01*
X111250000Y-51450000D01*
X111450000Y-51650000D01*
X111450000Y-52100000D01*
X111350000Y-52200000D01*
X111350000Y-51650000D01*
X111150000Y-51450000D01*
X111350000Y-51250000D01*
X111350000Y-50700000D01*
X111900000Y-50700000D01*
X112100000Y-50500000D01*
X112300000Y-50700000D01*
G37*
X112600000Y-66600000D02*
X112250000Y-66600000D01*
X112250000Y-66950000D01*
X112150000Y-66800000D01*
X112150000Y-66500000D01*
X112450000Y-66500000D01*
X112600000Y-66600000D01*
G36*
X112600000Y-66600000D02*
G01*
X112250000Y-66600000D01*
X112250000Y-66950000D01*
X112150000Y-66800000D01*
X112150000Y-66500000D01*
X112450000Y-66500000D01*
X112600000Y-66600000D01*
G37*
X111450000Y-65800000D02*
X111450000Y-66250000D01*
X111250000Y-66450000D01*
X111450000Y-66650000D01*
X111450000Y-67100000D01*
X111900000Y-67100000D01*
X112100000Y-67300000D01*
X112300000Y-67100000D01*
X112750000Y-67100000D01*
X112850000Y-67200000D01*
X112300000Y-67200000D01*
X112100000Y-67400000D01*
X111900000Y-67200000D01*
X111350000Y-67200000D01*
X111350000Y-66650000D01*
X111160000Y-66450000D01*
X111350000Y-66250000D01*
X111350000Y-65700000D01*
X111450000Y-65800000D01*
G36*
X111450000Y-65800000D02*
G01*
X111450000Y-66250000D01*
X111250000Y-66450000D01*
X111450000Y-66650000D01*
X111450000Y-67100000D01*
X111900000Y-67100000D01*
X112100000Y-67300000D01*
X112300000Y-67100000D01*
X112750000Y-67100000D01*
X112850000Y-67200000D01*
X112300000Y-67200000D01*
X112100000Y-67400000D01*
X111900000Y-67200000D01*
X111350000Y-67200000D01*
X111350000Y-66650000D01*
X111160000Y-66450000D01*
X111350000Y-66250000D01*
X111350000Y-65700000D01*
X111450000Y-65800000D01*
G37*
X112300000Y-65700000D02*
X112850000Y-65700000D01*
X112850000Y-66250000D01*
X113050000Y-66450000D01*
X112850000Y-66650000D01*
X112850000Y-67200000D01*
X112750000Y-67100000D01*
X112750000Y-66650000D01*
X112950000Y-66450000D01*
X112750000Y-66250000D01*
X112750000Y-65800000D01*
X112300000Y-65800000D01*
X112100000Y-65600000D01*
X111900000Y-65800000D01*
X111450000Y-65800000D01*
X111350000Y-65700000D01*
X111900000Y-65700000D01*
X112100000Y-65500000D01*
X112300000Y-65700000D01*
G36*
X112300000Y-65700000D02*
G01*
X112850000Y-65700000D01*
X112850000Y-66250000D01*
X113050000Y-66450000D01*
X112850000Y-66650000D01*
X112850000Y-67200000D01*
X112750000Y-67100000D01*
X112750000Y-66650000D01*
X112950000Y-66450000D01*
X112750000Y-66250000D01*
X112750000Y-65800000D01*
X112300000Y-65800000D01*
X112100000Y-65600000D01*
X111900000Y-65800000D01*
X111450000Y-65800000D01*
X111350000Y-65700000D01*
X111900000Y-65700000D01*
X112100000Y-65500000D01*
X112300000Y-65700000D01*
G37*
X119750000Y-51300000D02*
X120100000Y-51300000D01*
X119950000Y-51400000D01*
X119650000Y-51400000D01*
X119650000Y-51100000D01*
X119750000Y-50950000D01*
X119750000Y-51300000D01*
G36*
X119750000Y-51300000D02*
G01*
X120100000Y-51300000D01*
X119950000Y-51400000D01*
X119650000Y-51400000D01*
X119650000Y-51100000D01*
X119750000Y-50950000D01*
X119750000Y-51300000D01*
G37*
X120350000Y-51250000D02*
X120550000Y-51450000D01*
X120350000Y-51650000D01*
X120350000Y-52200000D01*
X119800000Y-52200000D01*
X119600000Y-52390000D01*
X119400000Y-52200000D01*
X118850000Y-52200000D01*
X118950000Y-52100000D01*
X119400000Y-52100000D01*
X119600000Y-52300000D01*
X119800000Y-52100000D01*
X120250000Y-52100000D01*
X120250000Y-51650000D01*
X120450000Y-51450000D01*
X120250000Y-51250000D01*
X120250000Y-50800000D01*
X120350000Y-50700000D01*
X120350000Y-51250000D01*
G36*
X120350000Y-51250000D02*
G01*
X120550000Y-51450000D01*
X120350000Y-51650000D01*
X120350000Y-52200000D01*
X119800000Y-52200000D01*
X119600000Y-52390000D01*
X119400000Y-52200000D01*
X118850000Y-52200000D01*
X118950000Y-52100000D01*
X119400000Y-52100000D01*
X119600000Y-52300000D01*
X119800000Y-52100000D01*
X120250000Y-52100000D01*
X120250000Y-51650000D01*
X120450000Y-51450000D01*
X120250000Y-51250000D01*
X120250000Y-50800000D01*
X120350000Y-50700000D01*
X120350000Y-51250000D01*
G37*
X119800000Y-50700000D02*
X120350000Y-50700000D01*
X120250000Y-50800000D01*
X119800000Y-50800000D01*
X119600000Y-50600000D01*
X119400000Y-50800000D01*
X118950000Y-50800000D01*
X118950000Y-51250000D01*
X118750000Y-51450000D01*
X118950000Y-51650000D01*
X118950000Y-52100000D01*
X118850000Y-52200000D01*
X118850000Y-51650000D01*
X118650000Y-51450000D01*
X118850000Y-51250000D01*
X118850000Y-50700000D01*
X119400000Y-50700000D01*
X119600000Y-50500000D01*
X119800000Y-50700000D01*
G36*
X119800000Y-50700000D02*
G01*
X120350000Y-50700000D01*
X120250000Y-50800000D01*
X119800000Y-50800000D01*
X119600000Y-50600000D01*
X119400000Y-50800000D01*
X118950000Y-50800000D01*
X118950000Y-51250000D01*
X118750000Y-51450000D01*
X118950000Y-51650000D01*
X118950000Y-52100000D01*
X118850000Y-52200000D01*
X118850000Y-51650000D01*
X118650000Y-51450000D01*
X118850000Y-51250000D01*
X118850000Y-50700000D01*
X119400000Y-50700000D01*
X119600000Y-50500000D01*
X119800000Y-50700000D01*
G37*
X115100000Y-56600000D02*
X114750000Y-56600000D01*
X114750000Y-56950000D01*
X114650000Y-56800000D01*
X114650000Y-56500000D01*
X114950000Y-56500000D01*
X115100000Y-56600000D01*
G36*
X115100000Y-56600000D02*
G01*
X114750000Y-56600000D01*
X114750000Y-56950000D01*
X114650000Y-56800000D01*
X114650000Y-56500000D01*
X114950000Y-56500000D01*
X115100000Y-56600000D01*
G37*
X113950000Y-55800000D02*
X113950000Y-56250000D01*
X113750000Y-56450000D01*
X113950000Y-56650000D01*
X113950000Y-57100000D01*
X114400000Y-57100000D01*
X114600000Y-57300000D01*
X114800000Y-57100000D01*
X115250000Y-57100000D01*
X115350000Y-57200000D01*
X114800000Y-57200000D01*
X114600000Y-57400000D01*
X114400000Y-57200000D01*
X113850000Y-57200000D01*
X113850000Y-56650000D01*
X113660000Y-56450000D01*
X113850000Y-56250000D01*
X113850000Y-55700000D01*
X113950000Y-55800000D01*
G36*
X113950000Y-55800000D02*
G01*
X113950000Y-56250000D01*
X113750000Y-56450000D01*
X113950000Y-56650000D01*
X113950000Y-57100000D01*
X114400000Y-57100000D01*
X114600000Y-57300000D01*
X114800000Y-57100000D01*
X115250000Y-57100000D01*
X115350000Y-57200000D01*
X114800000Y-57200000D01*
X114600000Y-57400000D01*
X114400000Y-57200000D01*
X113850000Y-57200000D01*
X113850000Y-56650000D01*
X113660000Y-56450000D01*
X113850000Y-56250000D01*
X113850000Y-55700000D01*
X113950000Y-55800000D01*
G37*
X114800000Y-55700000D02*
X115350000Y-55700000D01*
X115350000Y-56250000D01*
X115550000Y-56450000D01*
X115350000Y-56650000D01*
X115350000Y-57200000D01*
X115250000Y-57100000D01*
X115250000Y-56650000D01*
X115450000Y-56450000D01*
X115250000Y-56250000D01*
X115250000Y-55800000D01*
X114800000Y-55800000D01*
X114600000Y-55600000D01*
X114400000Y-55800000D01*
X113950000Y-55800000D01*
X113850000Y-55700000D01*
X114400000Y-55700000D01*
X114600000Y-55500000D01*
X114800000Y-55700000D01*
G36*
X114800000Y-55700000D02*
G01*
X115350000Y-55700000D01*
X115350000Y-56250000D01*
X115550000Y-56450000D01*
X115350000Y-56650000D01*
X115350000Y-57200000D01*
X115250000Y-57100000D01*
X115250000Y-56650000D01*
X115450000Y-56450000D01*
X115250000Y-56250000D01*
X115250000Y-55800000D01*
X114800000Y-55800000D01*
X114600000Y-55600000D01*
X114400000Y-55800000D01*
X113950000Y-55800000D01*
X113850000Y-55700000D01*
X114400000Y-55700000D01*
X114600000Y-55500000D01*
X114800000Y-55700000D01*
G37*
X120100000Y-56600000D02*
X119750000Y-56600000D01*
X119750000Y-56950000D01*
X119650000Y-56800000D01*
X119650000Y-56500000D01*
X119950000Y-56500000D01*
X120100000Y-56600000D01*
G36*
X120100000Y-56600000D02*
G01*
X119750000Y-56600000D01*
X119750000Y-56950000D01*
X119650000Y-56800000D01*
X119650000Y-56500000D01*
X119950000Y-56500000D01*
X120100000Y-56600000D01*
G37*
X118950000Y-55800000D02*
X118950000Y-56250000D01*
X118750000Y-56450000D01*
X118950000Y-56650000D01*
X118950000Y-57100000D01*
X119400000Y-57100000D01*
X119600000Y-57300000D01*
X119800000Y-57100000D01*
X120250000Y-57100000D01*
X120350000Y-57200000D01*
X119800000Y-57200000D01*
X119600000Y-57400000D01*
X119400000Y-57200000D01*
X118850000Y-57200000D01*
X118850000Y-56650000D01*
X118660000Y-56450000D01*
X118850000Y-56250000D01*
X118850000Y-55700000D01*
X118950000Y-55800000D01*
G36*
X118950000Y-55800000D02*
G01*
X118950000Y-56250000D01*
X118750000Y-56450000D01*
X118950000Y-56650000D01*
X118950000Y-57100000D01*
X119400000Y-57100000D01*
X119600000Y-57300000D01*
X119800000Y-57100000D01*
X120250000Y-57100000D01*
X120350000Y-57200000D01*
X119800000Y-57200000D01*
X119600000Y-57400000D01*
X119400000Y-57200000D01*
X118850000Y-57200000D01*
X118850000Y-56650000D01*
X118660000Y-56450000D01*
X118850000Y-56250000D01*
X118850000Y-55700000D01*
X118950000Y-55800000D01*
G37*
X119800000Y-55700000D02*
X120350000Y-55700000D01*
X120350000Y-56250000D01*
X120550000Y-56450000D01*
X120350000Y-56650000D01*
X120350000Y-57200000D01*
X120250000Y-57100000D01*
X120250000Y-56650000D01*
X120450000Y-56450000D01*
X120250000Y-56250000D01*
X120250000Y-55800000D01*
X119800000Y-55800000D01*
X119600000Y-55600000D01*
X119400000Y-55800000D01*
X118950000Y-55800000D01*
X118850000Y-55700000D01*
X119400000Y-55700000D01*
X119600000Y-55500000D01*
X119800000Y-55700000D01*
G36*
X119800000Y-55700000D02*
G01*
X120350000Y-55700000D01*
X120350000Y-56250000D01*
X120550000Y-56450000D01*
X120350000Y-56650000D01*
X120350000Y-57200000D01*
X120250000Y-57100000D01*
X120250000Y-56650000D01*
X120450000Y-56450000D01*
X120250000Y-56250000D01*
X120250000Y-55800000D01*
X119800000Y-55800000D01*
X119600000Y-55600000D01*
X119400000Y-55800000D01*
X118950000Y-55800000D01*
X118850000Y-55700000D01*
X119400000Y-55700000D01*
X119600000Y-55500000D01*
X119800000Y-55700000D01*
G37*
X120100000Y-61600000D02*
X119750000Y-61600000D01*
X119750000Y-61950000D01*
X119650000Y-61800000D01*
X119650000Y-61500000D01*
X119950000Y-61500000D01*
X120100000Y-61600000D01*
G36*
X120100000Y-61600000D02*
G01*
X119750000Y-61600000D01*
X119750000Y-61950000D01*
X119650000Y-61800000D01*
X119650000Y-61500000D01*
X119950000Y-61500000D01*
X120100000Y-61600000D01*
G37*
X118950000Y-60800000D02*
X118950000Y-61250000D01*
X118750000Y-61450000D01*
X118950000Y-61650000D01*
X118950000Y-62100000D01*
X119400000Y-62100000D01*
X119600000Y-62300000D01*
X119800000Y-62100000D01*
X120250000Y-62100000D01*
X120350000Y-62200000D01*
X119800000Y-62200000D01*
X119600000Y-62400000D01*
X119400000Y-62200000D01*
X118850000Y-62200000D01*
X118850000Y-61650000D01*
X118660000Y-61450000D01*
X118850000Y-61250000D01*
X118850000Y-60700000D01*
X118950000Y-60800000D01*
G36*
X118950000Y-60800000D02*
G01*
X118950000Y-61250000D01*
X118750000Y-61450000D01*
X118950000Y-61650000D01*
X118950000Y-62100000D01*
X119400000Y-62100000D01*
X119600000Y-62300000D01*
X119800000Y-62100000D01*
X120250000Y-62100000D01*
X120350000Y-62200000D01*
X119800000Y-62200000D01*
X119600000Y-62400000D01*
X119400000Y-62200000D01*
X118850000Y-62200000D01*
X118850000Y-61650000D01*
X118660000Y-61450000D01*
X118850000Y-61250000D01*
X118850000Y-60700000D01*
X118950000Y-60800000D01*
G37*
X119800000Y-60700000D02*
X120350000Y-60700000D01*
X120350000Y-61250000D01*
X120550000Y-61450000D01*
X120350000Y-61650000D01*
X120350000Y-62200000D01*
X120250000Y-62100000D01*
X120250000Y-61650000D01*
X120450000Y-61450000D01*
X120250000Y-61250000D01*
X120250000Y-60800000D01*
X119800000Y-60800000D01*
X119600000Y-60600000D01*
X119400000Y-60800000D01*
X118950000Y-60800000D01*
X118850000Y-60700000D01*
X119400000Y-60700000D01*
X119600000Y-60500000D01*
X119800000Y-60700000D01*
G36*
X119800000Y-60700000D02*
G01*
X120350000Y-60700000D01*
X120350000Y-61250000D01*
X120550000Y-61450000D01*
X120350000Y-61650000D01*
X120350000Y-62200000D01*
X120250000Y-62100000D01*
X120250000Y-61650000D01*
X120450000Y-61450000D01*
X120250000Y-61250000D01*
X120250000Y-60800000D01*
X119800000Y-60800000D01*
X119600000Y-60600000D01*
X119400000Y-60800000D01*
X118950000Y-60800000D01*
X118850000Y-60700000D01*
X119400000Y-60700000D01*
X119600000Y-60500000D01*
X119800000Y-60700000D01*
G37*
X125100000Y-61600000D02*
X124750000Y-61600000D01*
X124750000Y-61950000D01*
X124650000Y-61800000D01*
X124650000Y-61500000D01*
X124950000Y-61500000D01*
X125100000Y-61600000D01*
G36*
X125100000Y-61600000D02*
G01*
X124750000Y-61600000D01*
X124750000Y-61950000D01*
X124650000Y-61800000D01*
X124650000Y-61500000D01*
X124950000Y-61500000D01*
X125100000Y-61600000D01*
G37*
X123950000Y-60800000D02*
X123950000Y-61250000D01*
X123750000Y-61450000D01*
X123950000Y-61650000D01*
X123950000Y-62100000D01*
X124400000Y-62100000D01*
X124600000Y-62300000D01*
X124800000Y-62100000D01*
X125250000Y-62100000D01*
X125350000Y-62200000D01*
X124800000Y-62200000D01*
X124600000Y-62400000D01*
X124400000Y-62200000D01*
X123850000Y-62200000D01*
X123850000Y-61650000D01*
X123660000Y-61450000D01*
X123850000Y-61250000D01*
X123850000Y-60700000D01*
X123950000Y-60800000D01*
G36*
X123950000Y-60800000D02*
G01*
X123950000Y-61250000D01*
X123750000Y-61450000D01*
X123950000Y-61650000D01*
X123950000Y-62100000D01*
X124400000Y-62100000D01*
X124600000Y-62300000D01*
X124800000Y-62100000D01*
X125250000Y-62100000D01*
X125350000Y-62200000D01*
X124800000Y-62200000D01*
X124600000Y-62400000D01*
X124400000Y-62200000D01*
X123850000Y-62200000D01*
X123850000Y-61650000D01*
X123660000Y-61450000D01*
X123850000Y-61250000D01*
X123850000Y-60700000D01*
X123950000Y-60800000D01*
G37*
X124800000Y-60700000D02*
X125350000Y-60700000D01*
X125350000Y-61250000D01*
X125550000Y-61450000D01*
X125350000Y-61650000D01*
X125350000Y-62200000D01*
X125250000Y-62100000D01*
X125250000Y-61650000D01*
X125450000Y-61450000D01*
X125250000Y-61250000D01*
X125250000Y-60800000D01*
X124800000Y-60800000D01*
X124600000Y-60600000D01*
X124400000Y-60800000D01*
X123950000Y-60800000D01*
X123850000Y-60700000D01*
X124400000Y-60700000D01*
X124600000Y-60500000D01*
X124800000Y-60700000D01*
G36*
X124800000Y-60700000D02*
G01*
X125350000Y-60700000D01*
X125350000Y-61250000D01*
X125550000Y-61450000D01*
X125350000Y-61650000D01*
X125350000Y-62200000D01*
X125250000Y-62100000D01*
X125250000Y-61650000D01*
X125450000Y-61450000D01*
X125250000Y-61250000D01*
X125250000Y-60800000D01*
X124800000Y-60800000D01*
X124600000Y-60600000D01*
X124400000Y-60800000D01*
X123950000Y-60800000D01*
X123850000Y-60700000D01*
X124400000Y-60700000D01*
X124600000Y-60500000D01*
X124800000Y-60700000D01*
G37*
X109750000Y-51300000D02*
X110100000Y-51300000D01*
X109950000Y-51400000D01*
X109650000Y-51400000D01*
X109650000Y-51100000D01*
X109750000Y-50950000D01*
X109750000Y-51300000D01*
G36*
X109750000Y-51300000D02*
G01*
X110100000Y-51300000D01*
X109950000Y-51400000D01*
X109650000Y-51400000D01*
X109650000Y-51100000D01*
X109750000Y-50950000D01*
X109750000Y-51300000D01*
G37*
X110350000Y-51250000D02*
X110550000Y-51450000D01*
X110350000Y-51650000D01*
X110350000Y-52200000D01*
X109800000Y-52200000D01*
X109600000Y-52390000D01*
X109400000Y-52200000D01*
X108850000Y-52200000D01*
X108950000Y-52100000D01*
X109400000Y-52100000D01*
X109600000Y-52300000D01*
X109800000Y-52100000D01*
X110250000Y-52100000D01*
X110250000Y-51650000D01*
X110450000Y-51450000D01*
X110250000Y-51250000D01*
X110250000Y-50800000D01*
X110350000Y-50700000D01*
X110350000Y-51250000D01*
G36*
X110350000Y-51250000D02*
G01*
X110550000Y-51450000D01*
X110350000Y-51650000D01*
X110350000Y-52200000D01*
X109800000Y-52200000D01*
X109600000Y-52390000D01*
X109400000Y-52200000D01*
X108850000Y-52200000D01*
X108950000Y-52100000D01*
X109400000Y-52100000D01*
X109600000Y-52300000D01*
X109800000Y-52100000D01*
X110250000Y-52100000D01*
X110250000Y-51650000D01*
X110450000Y-51450000D01*
X110250000Y-51250000D01*
X110250000Y-50800000D01*
X110350000Y-50700000D01*
X110350000Y-51250000D01*
G37*
X109800000Y-50700000D02*
X110350000Y-50700000D01*
X110250000Y-50800000D01*
X109800000Y-50800000D01*
X109600000Y-50600000D01*
X109400000Y-50800000D01*
X108950000Y-50800000D01*
X108950000Y-51250000D01*
X108750000Y-51450000D01*
X108950000Y-51650000D01*
X108950000Y-52100000D01*
X108850000Y-52200000D01*
X108850000Y-51650000D01*
X108650000Y-51450000D01*
X108850000Y-51250000D01*
X108850000Y-50700000D01*
X109400000Y-50700000D01*
X109600000Y-50500000D01*
X109800000Y-50700000D01*
G36*
X109800000Y-50700000D02*
G01*
X110350000Y-50700000D01*
X110250000Y-50800000D01*
X109800000Y-50800000D01*
X109600000Y-50600000D01*
X109400000Y-50800000D01*
X108950000Y-50800000D01*
X108950000Y-51250000D01*
X108750000Y-51450000D01*
X108950000Y-51650000D01*
X108950000Y-52100000D01*
X108850000Y-52200000D01*
X108850000Y-51650000D01*
X108650000Y-51450000D01*
X108850000Y-51250000D01*
X108850000Y-50700000D01*
X109400000Y-50700000D01*
X109600000Y-50500000D01*
X109800000Y-50700000D01*
G37*
X127600000Y-56600000D02*
X127250000Y-56600000D01*
X127250000Y-56950000D01*
X127150000Y-56800000D01*
X127150000Y-56500000D01*
X127450000Y-56500000D01*
X127600000Y-56600000D01*
G36*
X127600000Y-56600000D02*
G01*
X127250000Y-56600000D01*
X127250000Y-56950000D01*
X127150000Y-56800000D01*
X127150000Y-56500000D01*
X127450000Y-56500000D01*
X127600000Y-56600000D01*
G37*
X126450000Y-55800000D02*
X126450000Y-56250000D01*
X126250000Y-56450000D01*
X126450000Y-56650000D01*
X126450000Y-57100000D01*
X126900000Y-57100000D01*
X127100000Y-57300000D01*
X127300000Y-57100000D01*
X127750000Y-57100000D01*
X127850000Y-57200000D01*
X127300000Y-57200000D01*
X127100000Y-57400000D01*
X126900000Y-57200000D01*
X126350000Y-57200000D01*
X126350000Y-56650000D01*
X126160000Y-56450000D01*
X126350000Y-56250000D01*
X126350000Y-55700000D01*
X126450000Y-55800000D01*
G36*
X126450000Y-55800000D02*
G01*
X126450000Y-56250000D01*
X126250000Y-56450000D01*
X126450000Y-56650000D01*
X126450000Y-57100000D01*
X126900000Y-57100000D01*
X127100000Y-57300000D01*
X127300000Y-57100000D01*
X127750000Y-57100000D01*
X127850000Y-57200000D01*
X127300000Y-57200000D01*
X127100000Y-57400000D01*
X126900000Y-57200000D01*
X126350000Y-57200000D01*
X126350000Y-56650000D01*
X126160000Y-56450000D01*
X126350000Y-56250000D01*
X126350000Y-55700000D01*
X126450000Y-55800000D01*
G37*
X127300000Y-55700000D02*
X127850000Y-55700000D01*
X127850000Y-56250000D01*
X128050000Y-56450000D01*
X127850000Y-56650000D01*
X127850000Y-57200000D01*
X127750000Y-57100000D01*
X127750000Y-56650000D01*
X127950000Y-56450000D01*
X127750000Y-56250000D01*
X127750000Y-55800000D01*
X127300000Y-55800000D01*
X127100000Y-55600000D01*
X126900000Y-55800000D01*
X126450000Y-55800000D01*
X126350000Y-55700000D01*
X126900000Y-55700000D01*
X127100000Y-55500000D01*
X127300000Y-55700000D01*
G36*
X127300000Y-55700000D02*
G01*
X127850000Y-55700000D01*
X127850000Y-56250000D01*
X128050000Y-56450000D01*
X127850000Y-56650000D01*
X127850000Y-57200000D01*
X127750000Y-57100000D01*
X127750000Y-56650000D01*
X127950000Y-56450000D01*
X127750000Y-56250000D01*
X127750000Y-55800000D01*
X127300000Y-55800000D01*
X127100000Y-55600000D01*
X126900000Y-55800000D01*
X126450000Y-55800000D01*
X126350000Y-55700000D01*
X126900000Y-55700000D01*
X127100000Y-55500000D01*
X127300000Y-55700000D01*
G37*
X120100000Y-59100000D02*
X119750000Y-59100000D01*
X119750000Y-59450000D01*
X119650000Y-59300000D01*
X119650000Y-59000000D01*
X119950000Y-59000000D01*
X120100000Y-59100000D01*
G36*
X120100000Y-59100000D02*
G01*
X119750000Y-59100000D01*
X119750000Y-59450000D01*
X119650000Y-59300000D01*
X119650000Y-59000000D01*
X119950000Y-59000000D01*
X120100000Y-59100000D01*
G37*
X118950000Y-58300000D02*
X118950000Y-58750000D01*
X118750000Y-58950000D01*
X118950000Y-59150000D01*
X118950000Y-59600000D01*
X119400000Y-59600000D01*
X119600000Y-59800000D01*
X119800000Y-59600000D01*
X120250000Y-59600000D01*
X120350000Y-59700000D01*
X119800000Y-59700000D01*
X119600000Y-59900000D01*
X119400000Y-59700000D01*
X118850000Y-59700000D01*
X118850000Y-59150000D01*
X118660000Y-58950000D01*
X118850000Y-58750000D01*
X118850000Y-58200000D01*
X118950000Y-58300000D01*
G36*
X118950000Y-58300000D02*
G01*
X118950000Y-58750000D01*
X118750000Y-58950000D01*
X118950000Y-59150000D01*
X118950000Y-59600000D01*
X119400000Y-59600000D01*
X119600000Y-59800000D01*
X119800000Y-59600000D01*
X120250000Y-59600000D01*
X120350000Y-59700000D01*
X119800000Y-59700000D01*
X119600000Y-59900000D01*
X119400000Y-59700000D01*
X118850000Y-59700000D01*
X118850000Y-59150000D01*
X118660000Y-58950000D01*
X118850000Y-58750000D01*
X118850000Y-58200000D01*
X118950000Y-58300000D01*
G37*
X119800000Y-58200000D02*
X120350000Y-58200000D01*
X120350000Y-58750000D01*
X120550000Y-58950000D01*
X120350000Y-59150000D01*
X120350000Y-59700000D01*
X120250000Y-59600000D01*
X120250000Y-59150000D01*
X120450000Y-58950000D01*
X120250000Y-58750000D01*
X120250000Y-58300000D01*
X119800000Y-58300000D01*
X119600000Y-58100000D01*
X119400000Y-58300000D01*
X118950000Y-58300000D01*
X118850000Y-58200000D01*
X119400000Y-58200000D01*
X119600000Y-58000000D01*
X119800000Y-58200000D01*
G36*
X119800000Y-58200000D02*
G01*
X120350000Y-58200000D01*
X120350000Y-58750000D01*
X120550000Y-58950000D01*
X120350000Y-59150000D01*
X120350000Y-59700000D01*
X120250000Y-59600000D01*
X120250000Y-59150000D01*
X120450000Y-58950000D01*
X120250000Y-58750000D01*
X120250000Y-58300000D01*
X119800000Y-58300000D01*
X119600000Y-58100000D01*
X119400000Y-58300000D01*
X118950000Y-58300000D01*
X118850000Y-58200000D01*
X119400000Y-58200000D01*
X119600000Y-58000000D01*
X119800000Y-58200000D01*
G37*
X127250000Y-68800000D02*
X127600000Y-68800000D01*
X127450000Y-68900000D01*
X127150000Y-68900000D01*
X127150000Y-68600000D01*
X127250000Y-68450000D01*
X127250000Y-68800000D01*
G36*
X127250000Y-68800000D02*
G01*
X127600000Y-68800000D01*
X127450000Y-68900000D01*
X127150000Y-68900000D01*
X127150000Y-68600000D01*
X127250000Y-68450000D01*
X127250000Y-68800000D01*
G37*
X127850000Y-68750000D02*
X128050000Y-68950000D01*
X127850000Y-69150000D01*
X127850000Y-69700000D01*
X127300000Y-69700000D01*
X127100000Y-69890000D01*
X126900000Y-69700000D01*
X126350000Y-69700000D01*
X126450000Y-69600000D01*
X126900000Y-69600000D01*
X127100000Y-69800000D01*
X127300000Y-69600000D01*
X127750000Y-69600000D01*
X127750000Y-69150000D01*
X127950000Y-68950000D01*
X127750000Y-68750000D01*
X127750000Y-68300000D01*
X127850000Y-68200000D01*
X127850000Y-68750000D01*
G36*
X127850000Y-68750000D02*
G01*
X128050000Y-68950000D01*
X127850000Y-69150000D01*
X127850000Y-69700000D01*
X127300000Y-69700000D01*
X127100000Y-69890000D01*
X126900000Y-69700000D01*
X126350000Y-69700000D01*
X126450000Y-69600000D01*
X126900000Y-69600000D01*
X127100000Y-69800000D01*
X127300000Y-69600000D01*
X127750000Y-69600000D01*
X127750000Y-69150000D01*
X127950000Y-68950000D01*
X127750000Y-68750000D01*
X127750000Y-68300000D01*
X127850000Y-68200000D01*
X127850000Y-68750000D01*
G37*
X127300000Y-68200000D02*
X127850000Y-68200000D01*
X127750000Y-68300000D01*
X127300000Y-68300000D01*
X127100000Y-68100000D01*
X126900000Y-68300000D01*
X126450000Y-68300000D01*
X126450000Y-68750000D01*
X126250000Y-68950000D01*
X126450000Y-69150000D01*
X126450000Y-69600000D01*
X126350000Y-69700000D01*
X126350000Y-69150000D01*
X126150000Y-68950000D01*
X126350000Y-68750000D01*
X126350000Y-68200000D01*
X126900000Y-68200000D01*
X127100000Y-68000000D01*
X127300000Y-68200000D01*
G36*
X127300000Y-68200000D02*
G01*
X127850000Y-68200000D01*
X127750000Y-68300000D01*
X127300000Y-68300000D01*
X127100000Y-68100000D01*
X126900000Y-68300000D01*
X126450000Y-68300000D01*
X126450000Y-68750000D01*
X126250000Y-68950000D01*
X126450000Y-69150000D01*
X126450000Y-69600000D01*
X126350000Y-69700000D01*
X126350000Y-69150000D01*
X126150000Y-68950000D01*
X126350000Y-68750000D01*
X126350000Y-68200000D01*
X126900000Y-68200000D01*
X127100000Y-68000000D01*
X127300000Y-68200000D01*
G37*
X112600000Y-61600000D02*
X112250000Y-61600000D01*
X112250000Y-61950000D01*
X112150000Y-61800000D01*
X112150000Y-61500000D01*
X112450000Y-61500000D01*
X112600000Y-61600000D01*
G36*
X112600000Y-61600000D02*
G01*
X112250000Y-61600000D01*
X112250000Y-61950000D01*
X112150000Y-61800000D01*
X112150000Y-61500000D01*
X112450000Y-61500000D01*
X112600000Y-61600000D01*
G37*
X111450000Y-60800000D02*
X111450000Y-61250000D01*
X111250000Y-61450000D01*
X111450000Y-61650000D01*
X111450000Y-62100000D01*
X111900000Y-62100000D01*
X112100000Y-62300000D01*
X112300000Y-62100000D01*
X112750000Y-62100000D01*
X112850000Y-62200000D01*
X112300000Y-62200000D01*
X112100000Y-62400000D01*
X111900000Y-62200000D01*
X111350000Y-62200000D01*
X111350000Y-61650000D01*
X111160000Y-61450000D01*
X111350000Y-61250000D01*
X111350000Y-60700000D01*
X111450000Y-60800000D01*
G36*
X111450000Y-60800000D02*
G01*
X111450000Y-61250000D01*
X111250000Y-61450000D01*
X111450000Y-61650000D01*
X111450000Y-62100000D01*
X111900000Y-62100000D01*
X112100000Y-62300000D01*
X112300000Y-62100000D01*
X112750000Y-62100000D01*
X112850000Y-62200000D01*
X112300000Y-62200000D01*
X112100000Y-62400000D01*
X111900000Y-62200000D01*
X111350000Y-62200000D01*
X111350000Y-61650000D01*
X111160000Y-61450000D01*
X111350000Y-61250000D01*
X111350000Y-60700000D01*
X111450000Y-60800000D01*
G37*
X112300000Y-60700000D02*
X112850000Y-60700000D01*
X112850000Y-61250000D01*
X113050000Y-61450000D01*
X112850000Y-61650000D01*
X112850000Y-62200000D01*
X112750000Y-62100000D01*
X112750000Y-61650000D01*
X112950000Y-61450000D01*
X112750000Y-61250000D01*
X112750000Y-60800000D01*
X112300000Y-60800000D01*
X112100000Y-60600000D01*
X111900000Y-60800000D01*
X111450000Y-60800000D01*
X111350000Y-60700000D01*
X111900000Y-60700000D01*
X112100000Y-60500000D01*
X112300000Y-60700000D01*
G36*
X112300000Y-60700000D02*
G01*
X112850000Y-60700000D01*
X112850000Y-61250000D01*
X113050000Y-61450000D01*
X112850000Y-61650000D01*
X112850000Y-62200000D01*
X112750000Y-62100000D01*
X112750000Y-61650000D01*
X112950000Y-61450000D01*
X112750000Y-61250000D01*
X112750000Y-60800000D01*
X112300000Y-60800000D01*
X112100000Y-60600000D01*
X111900000Y-60800000D01*
X111450000Y-60800000D01*
X111350000Y-60700000D01*
X111900000Y-60700000D01*
X112100000Y-60500000D01*
X112300000Y-60700000D01*
G37*
X122250000Y-51300000D02*
X122600000Y-51300000D01*
X122450000Y-51400000D01*
X122150000Y-51400000D01*
X122150000Y-51100000D01*
X122250000Y-50950000D01*
X122250000Y-51300000D01*
G36*
X122250000Y-51300000D02*
G01*
X122600000Y-51300000D01*
X122450000Y-51400000D01*
X122150000Y-51400000D01*
X122150000Y-51100000D01*
X122250000Y-50950000D01*
X122250000Y-51300000D01*
G37*
X122850000Y-51250000D02*
X123050000Y-51450000D01*
X122850000Y-51650000D01*
X122850000Y-52200000D01*
X122300000Y-52200000D01*
X122100000Y-52390000D01*
X121900000Y-52200000D01*
X121350000Y-52200000D01*
X121450000Y-52100000D01*
X121900000Y-52100000D01*
X122100000Y-52300000D01*
X122300000Y-52100000D01*
X122750000Y-52100000D01*
X122750000Y-51650000D01*
X122950000Y-51450000D01*
X122750000Y-51250000D01*
X122750000Y-50800000D01*
X122850000Y-50700000D01*
X122850000Y-51250000D01*
G36*
X122850000Y-51250000D02*
G01*
X123050000Y-51450000D01*
X122850000Y-51650000D01*
X122850000Y-52200000D01*
X122300000Y-52200000D01*
X122100000Y-52390000D01*
X121900000Y-52200000D01*
X121350000Y-52200000D01*
X121450000Y-52100000D01*
X121900000Y-52100000D01*
X122100000Y-52300000D01*
X122300000Y-52100000D01*
X122750000Y-52100000D01*
X122750000Y-51650000D01*
X122950000Y-51450000D01*
X122750000Y-51250000D01*
X122750000Y-50800000D01*
X122850000Y-50700000D01*
X122850000Y-51250000D01*
G37*
X122300000Y-50700000D02*
X122850000Y-50700000D01*
X122750000Y-50800000D01*
X122300000Y-50800000D01*
X122100000Y-50600000D01*
X121900000Y-50800000D01*
X121450000Y-50800000D01*
X121450000Y-51250000D01*
X121250000Y-51450000D01*
X121450000Y-51650000D01*
X121450000Y-52100000D01*
X121350000Y-52200000D01*
X121350000Y-51650000D01*
X121150000Y-51450000D01*
X121350000Y-51250000D01*
X121350000Y-50700000D01*
X121900000Y-50700000D01*
X122100000Y-50500000D01*
X122300000Y-50700000D01*
G36*
X122300000Y-50700000D02*
G01*
X122850000Y-50700000D01*
X122750000Y-50800000D01*
X122300000Y-50800000D01*
X122100000Y-50600000D01*
X121900000Y-50800000D01*
X121450000Y-50800000D01*
X121450000Y-51250000D01*
X121250000Y-51450000D01*
X121450000Y-51650000D01*
X121450000Y-52100000D01*
X121350000Y-52200000D01*
X121350000Y-51650000D01*
X121150000Y-51450000D01*
X121350000Y-51250000D01*
X121350000Y-50700000D01*
X121900000Y-50700000D01*
X122100000Y-50500000D01*
X122300000Y-50700000D01*
G37*
X122600000Y-66600000D02*
X122250000Y-66600000D01*
X122250000Y-66950000D01*
X122150000Y-66800000D01*
X122150000Y-66500000D01*
X122450000Y-66500000D01*
X122600000Y-66600000D01*
G36*
X122600000Y-66600000D02*
G01*
X122250000Y-66600000D01*
X122250000Y-66950000D01*
X122150000Y-66800000D01*
X122150000Y-66500000D01*
X122450000Y-66500000D01*
X122600000Y-66600000D01*
G37*
X121450000Y-65800000D02*
X121450000Y-66250000D01*
X121250000Y-66450000D01*
X121450000Y-66650000D01*
X121450000Y-67100000D01*
X121900000Y-67100000D01*
X122100000Y-67300000D01*
X122300000Y-67100000D01*
X122750000Y-67100000D01*
X122850000Y-67200000D01*
X122300000Y-67200000D01*
X122100000Y-67400000D01*
X121900000Y-67200000D01*
X121350000Y-67200000D01*
X121350000Y-66650000D01*
X121160000Y-66450000D01*
X121350000Y-66250000D01*
X121350000Y-65700000D01*
X121450000Y-65800000D01*
G36*
X121450000Y-65800000D02*
G01*
X121450000Y-66250000D01*
X121250000Y-66450000D01*
X121450000Y-66650000D01*
X121450000Y-67100000D01*
X121900000Y-67100000D01*
X122100000Y-67300000D01*
X122300000Y-67100000D01*
X122750000Y-67100000D01*
X122850000Y-67200000D01*
X122300000Y-67200000D01*
X122100000Y-67400000D01*
X121900000Y-67200000D01*
X121350000Y-67200000D01*
X121350000Y-66650000D01*
X121160000Y-66450000D01*
X121350000Y-66250000D01*
X121350000Y-65700000D01*
X121450000Y-65800000D01*
G37*
X122300000Y-65700000D02*
X122850000Y-65700000D01*
X122850000Y-66250000D01*
X123050000Y-66450000D01*
X122850000Y-66650000D01*
X122850000Y-67200000D01*
X122750000Y-67100000D01*
X122750000Y-66650000D01*
X122950000Y-66450000D01*
X122750000Y-66250000D01*
X122750000Y-65800000D01*
X122300000Y-65800000D01*
X122100000Y-65600000D01*
X121900000Y-65800000D01*
X121450000Y-65800000D01*
X121350000Y-65700000D01*
X121900000Y-65700000D01*
X122100000Y-65500000D01*
X122300000Y-65700000D01*
G36*
X122300000Y-65700000D02*
G01*
X122850000Y-65700000D01*
X122850000Y-66250000D01*
X123050000Y-66450000D01*
X122850000Y-66650000D01*
X122850000Y-67200000D01*
X122750000Y-67100000D01*
X122750000Y-66650000D01*
X122950000Y-66450000D01*
X122750000Y-66250000D01*
X122750000Y-65800000D01*
X122300000Y-65800000D01*
X122100000Y-65600000D01*
X121900000Y-65800000D01*
X121450000Y-65800000D01*
X121350000Y-65700000D01*
X121900000Y-65700000D01*
X122100000Y-65500000D01*
X122300000Y-65700000D01*
G37*
X120100000Y-64100000D02*
X119750000Y-64100000D01*
X119750000Y-64450000D01*
X119650000Y-64300000D01*
X119650000Y-64000000D01*
X119950000Y-64000000D01*
X120100000Y-64100000D01*
G36*
X120100000Y-64100000D02*
G01*
X119750000Y-64100000D01*
X119750000Y-64450000D01*
X119650000Y-64300000D01*
X119650000Y-64000000D01*
X119950000Y-64000000D01*
X120100000Y-64100000D01*
G37*
X118950000Y-63300000D02*
X118950000Y-63750000D01*
X118750000Y-63950000D01*
X118950000Y-64150000D01*
X118950000Y-64600000D01*
X119400000Y-64600000D01*
X119600000Y-64800000D01*
X119800000Y-64600000D01*
X120250000Y-64600000D01*
X120350000Y-64700000D01*
X119800000Y-64700000D01*
X119600000Y-64900000D01*
X119400000Y-64700000D01*
X118850000Y-64700000D01*
X118850000Y-64150000D01*
X118660000Y-63950000D01*
X118850000Y-63750000D01*
X118850000Y-63200000D01*
X118950000Y-63300000D01*
G36*
X118950000Y-63300000D02*
G01*
X118950000Y-63750000D01*
X118750000Y-63950000D01*
X118950000Y-64150000D01*
X118950000Y-64600000D01*
X119400000Y-64600000D01*
X119600000Y-64800000D01*
X119800000Y-64600000D01*
X120250000Y-64600000D01*
X120350000Y-64700000D01*
X119800000Y-64700000D01*
X119600000Y-64900000D01*
X119400000Y-64700000D01*
X118850000Y-64700000D01*
X118850000Y-64150000D01*
X118660000Y-63950000D01*
X118850000Y-63750000D01*
X118850000Y-63200000D01*
X118950000Y-63300000D01*
G37*
X119800000Y-63200000D02*
X120350000Y-63200000D01*
X120350000Y-63750000D01*
X120550000Y-63950000D01*
X120350000Y-64150000D01*
X120350000Y-64700000D01*
X120250000Y-64600000D01*
X120250000Y-64150000D01*
X120450000Y-63950000D01*
X120250000Y-63750000D01*
X120250000Y-63300000D01*
X119800000Y-63300000D01*
X119600000Y-63100000D01*
X119400000Y-63300000D01*
X118950000Y-63300000D01*
X118850000Y-63200000D01*
X119400000Y-63200000D01*
X119600000Y-63000000D01*
X119800000Y-63200000D01*
G36*
X119800000Y-63200000D02*
G01*
X120350000Y-63200000D01*
X120350000Y-63750000D01*
X120550000Y-63950000D01*
X120350000Y-64150000D01*
X120350000Y-64700000D01*
X120250000Y-64600000D01*
X120250000Y-64150000D01*
X120450000Y-63950000D01*
X120250000Y-63750000D01*
X120250000Y-63300000D01*
X119800000Y-63300000D01*
X119600000Y-63100000D01*
X119400000Y-63300000D01*
X118950000Y-63300000D01*
X118850000Y-63200000D01*
X119400000Y-63200000D01*
X119600000Y-63000000D01*
X119800000Y-63200000D01*
G37*
X117600000Y-64100000D02*
X117250000Y-64100000D01*
X117250000Y-64450000D01*
X117150000Y-64300000D01*
X117150000Y-64000000D01*
X117450000Y-64000000D01*
X117600000Y-64100000D01*
G36*
X117600000Y-64100000D02*
G01*
X117250000Y-64100000D01*
X117250000Y-64450000D01*
X117150000Y-64300000D01*
X117150000Y-64000000D01*
X117450000Y-64000000D01*
X117600000Y-64100000D01*
G37*
X116450000Y-63300000D02*
X116450000Y-63750000D01*
X116250000Y-63950000D01*
X116450000Y-64150000D01*
X116450000Y-64600000D01*
X116900000Y-64600000D01*
X117100000Y-64800000D01*
X117300000Y-64600000D01*
X117750000Y-64600000D01*
X117850000Y-64700000D01*
X117300000Y-64700000D01*
X117100000Y-64900000D01*
X116900000Y-64700000D01*
X116350000Y-64700000D01*
X116350000Y-64150000D01*
X116160000Y-63950000D01*
X116350000Y-63750000D01*
X116350000Y-63200000D01*
X116450000Y-63300000D01*
G36*
X116450000Y-63300000D02*
G01*
X116450000Y-63750000D01*
X116250000Y-63950000D01*
X116450000Y-64150000D01*
X116450000Y-64600000D01*
X116900000Y-64600000D01*
X117100000Y-64800000D01*
X117300000Y-64600000D01*
X117750000Y-64600000D01*
X117850000Y-64700000D01*
X117300000Y-64700000D01*
X117100000Y-64900000D01*
X116900000Y-64700000D01*
X116350000Y-64700000D01*
X116350000Y-64150000D01*
X116160000Y-63950000D01*
X116350000Y-63750000D01*
X116350000Y-63200000D01*
X116450000Y-63300000D01*
G37*
X117300000Y-63200000D02*
X117850000Y-63200000D01*
X117850000Y-63750000D01*
X118050000Y-63950000D01*
X117850000Y-64150000D01*
X117850000Y-64700000D01*
X117750000Y-64600000D01*
X117750000Y-64150000D01*
X117950000Y-63950000D01*
X117750000Y-63750000D01*
X117750000Y-63300000D01*
X117300000Y-63300000D01*
X117100000Y-63100000D01*
X116900000Y-63300000D01*
X116450000Y-63300000D01*
X116350000Y-63200000D01*
X116900000Y-63200000D01*
X117100000Y-63000000D01*
X117300000Y-63200000D01*
G36*
X117300000Y-63200000D02*
G01*
X117850000Y-63200000D01*
X117850000Y-63750000D01*
X118050000Y-63950000D01*
X117850000Y-64150000D01*
X117850000Y-64700000D01*
X117750000Y-64600000D01*
X117750000Y-64150000D01*
X117950000Y-63950000D01*
X117750000Y-63750000D01*
X117750000Y-63300000D01*
X117300000Y-63300000D01*
X117100000Y-63100000D01*
X116900000Y-63300000D01*
X116450000Y-63300000D01*
X116350000Y-63200000D01*
X116900000Y-63200000D01*
X117100000Y-63000000D01*
X117300000Y-63200000D01*
G37*
X112600000Y-56600000D02*
X112250000Y-56600000D01*
X112250000Y-56950000D01*
X112150000Y-56800000D01*
X112150000Y-56500000D01*
X112450000Y-56500000D01*
X112600000Y-56600000D01*
G36*
X112600000Y-56600000D02*
G01*
X112250000Y-56600000D01*
X112250000Y-56950000D01*
X112150000Y-56800000D01*
X112150000Y-56500000D01*
X112450000Y-56500000D01*
X112600000Y-56600000D01*
G37*
X111450000Y-55800000D02*
X111450000Y-56250000D01*
X111250000Y-56450000D01*
X111450000Y-56650000D01*
X111450000Y-57100000D01*
X111900000Y-57100000D01*
X112100000Y-57300000D01*
X112300000Y-57100000D01*
X112750000Y-57100000D01*
X112850000Y-57200000D01*
X112300000Y-57200000D01*
X112100000Y-57400000D01*
X111900000Y-57200000D01*
X111350000Y-57200000D01*
X111350000Y-56650000D01*
X111160000Y-56450000D01*
X111350000Y-56250000D01*
X111350000Y-55700000D01*
X111450000Y-55800000D01*
G36*
X111450000Y-55800000D02*
G01*
X111450000Y-56250000D01*
X111250000Y-56450000D01*
X111450000Y-56650000D01*
X111450000Y-57100000D01*
X111900000Y-57100000D01*
X112100000Y-57300000D01*
X112300000Y-57100000D01*
X112750000Y-57100000D01*
X112850000Y-57200000D01*
X112300000Y-57200000D01*
X112100000Y-57400000D01*
X111900000Y-57200000D01*
X111350000Y-57200000D01*
X111350000Y-56650000D01*
X111160000Y-56450000D01*
X111350000Y-56250000D01*
X111350000Y-55700000D01*
X111450000Y-55800000D01*
G37*
X112300000Y-55700000D02*
X112850000Y-55700000D01*
X112850000Y-56250000D01*
X113050000Y-56450000D01*
X112850000Y-56650000D01*
X112850000Y-57200000D01*
X112750000Y-57100000D01*
X112750000Y-56650000D01*
X112950000Y-56450000D01*
X112750000Y-56250000D01*
X112750000Y-55800000D01*
X112300000Y-55800000D01*
X112100000Y-55600000D01*
X111900000Y-55800000D01*
X111450000Y-55800000D01*
X111350000Y-55700000D01*
X111900000Y-55700000D01*
X112100000Y-55500000D01*
X112300000Y-55700000D01*
G36*
X112300000Y-55700000D02*
G01*
X112850000Y-55700000D01*
X112850000Y-56250000D01*
X113050000Y-56450000D01*
X112850000Y-56650000D01*
X112850000Y-57200000D01*
X112750000Y-57100000D01*
X112750000Y-56650000D01*
X112950000Y-56450000D01*
X112750000Y-56250000D01*
X112750000Y-55800000D01*
X112300000Y-55800000D01*
X112100000Y-55600000D01*
X111900000Y-55800000D01*
X111450000Y-55800000D01*
X111350000Y-55700000D01*
X111900000Y-55700000D01*
X112100000Y-55500000D01*
X112300000Y-55700000D01*
G37*
X127600000Y-66600000D02*
X127250000Y-66600000D01*
X127250000Y-66950000D01*
X127150000Y-66800000D01*
X127150000Y-66500000D01*
X127450000Y-66500000D01*
X127600000Y-66600000D01*
G36*
X127600000Y-66600000D02*
G01*
X127250000Y-66600000D01*
X127250000Y-66950000D01*
X127150000Y-66800000D01*
X127150000Y-66500000D01*
X127450000Y-66500000D01*
X127600000Y-66600000D01*
G37*
X126450000Y-65800000D02*
X126450000Y-66250000D01*
X126250000Y-66450000D01*
X126450000Y-66650000D01*
X126450000Y-67100000D01*
X126900000Y-67100000D01*
X127100000Y-67300000D01*
X127300000Y-67100000D01*
X127750000Y-67100000D01*
X127850000Y-67200000D01*
X127300000Y-67200000D01*
X127100000Y-67400000D01*
X126900000Y-67200000D01*
X126350000Y-67200000D01*
X126350000Y-66650000D01*
X126160000Y-66450000D01*
X126350000Y-66250000D01*
X126350000Y-65700000D01*
X126450000Y-65800000D01*
G36*
X126450000Y-65800000D02*
G01*
X126450000Y-66250000D01*
X126250000Y-66450000D01*
X126450000Y-66650000D01*
X126450000Y-67100000D01*
X126900000Y-67100000D01*
X127100000Y-67300000D01*
X127300000Y-67100000D01*
X127750000Y-67100000D01*
X127850000Y-67200000D01*
X127300000Y-67200000D01*
X127100000Y-67400000D01*
X126900000Y-67200000D01*
X126350000Y-67200000D01*
X126350000Y-66650000D01*
X126160000Y-66450000D01*
X126350000Y-66250000D01*
X126350000Y-65700000D01*
X126450000Y-65800000D01*
G37*
X127300000Y-65700000D02*
X127850000Y-65700000D01*
X127850000Y-66250000D01*
X128050000Y-66450000D01*
X127850000Y-66650000D01*
X127850000Y-67200000D01*
X127750000Y-67100000D01*
X127750000Y-66650000D01*
X127950000Y-66450000D01*
X127750000Y-66250000D01*
X127750000Y-65800000D01*
X127300000Y-65800000D01*
X127100000Y-65600000D01*
X126900000Y-65800000D01*
X126450000Y-65800000D01*
X126350000Y-65700000D01*
X126900000Y-65700000D01*
X127100000Y-65500000D01*
X127300000Y-65700000D01*
G36*
X127300000Y-65700000D02*
G01*
X127850000Y-65700000D01*
X127850000Y-66250000D01*
X128050000Y-66450000D01*
X127850000Y-66650000D01*
X127850000Y-67200000D01*
X127750000Y-67100000D01*
X127750000Y-66650000D01*
X127950000Y-66450000D01*
X127750000Y-66250000D01*
X127750000Y-65800000D01*
X127300000Y-65800000D01*
X127100000Y-65600000D01*
X126900000Y-65800000D01*
X126450000Y-65800000D01*
X126350000Y-65700000D01*
X126900000Y-65700000D01*
X127100000Y-65500000D01*
X127300000Y-65700000D01*
G37*
X110100000Y-61600000D02*
X109750000Y-61600000D01*
X109750000Y-61950000D01*
X109650000Y-61800000D01*
X109650000Y-61500000D01*
X109950000Y-61500000D01*
X110100000Y-61600000D01*
G36*
X110100000Y-61600000D02*
G01*
X109750000Y-61600000D01*
X109750000Y-61950000D01*
X109650000Y-61800000D01*
X109650000Y-61500000D01*
X109950000Y-61500000D01*
X110100000Y-61600000D01*
G37*
X108950000Y-60800000D02*
X108950000Y-61250000D01*
X108750000Y-61450000D01*
X108950000Y-61650000D01*
X108950000Y-62100000D01*
X109400000Y-62100000D01*
X109600000Y-62300000D01*
X109800000Y-62100000D01*
X110250000Y-62100000D01*
X110350000Y-62200000D01*
X109800000Y-62200000D01*
X109600000Y-62400000D01*
X109400000Y-62200000D01*
X108850000Y-62200000D01*
X108850000Y-61650000D01*
X108660000Y-61450000D01*
X108850000Y-61250000D01*
X108850000Y-60700000D01*
X108950000Y-60800000D01*
G36*
X108950000Y-60800000D02*
G01*
X108950000Y-61250000D01*
X108750000Y-61450000D01*
X108950000Y-61650000D01*
X108950000Y-62100000D01*
X109400000Y-62100000D01*
X109600000Y-62300000D01*
X109800000Y-62100000D01*
X110250000Y-62100000D01*
X110350000Y-62200000D01*
X109800000Y-62200000D01*
X109600000Y-62400000D01*
X109400000Y-62200000D01*
X108850000Y-62200000D01*
X108850000Y-61650000D01*
X108660000Y-61450000D01*
X108850000Y-61250000D01*
X108850000Y-60700000D01*
X108950000Y-60800000D01*
G37*
X109800000Y-60700000D02*
X110350000Y-60700000D01*
X110350000Y-61250000D01*
X110550000Y-61450000D01*
X110350000Y-61650000D01*
X110350000Y-62200000D01*
X110250000Y-62100000D01*
X110250000Y-61650000D01*
X110450000Y-61450000D01*
X110250000Y-61250000D01*
X110250000Y-60800000D01*
X109800000Y-60800000D01*
X109600000Y-60600000D01*
X109400000Y-60800000D01*
X108950000Y-60800000D01*
X108850000Y-60700000D01*
X109400000Y-60700000D01*
X109600000Y-60500000D01*
X109800000Y-60700000D01*
G36*
X109800000Y-60700000D02*
G01*
X110350000Y-60700000D01*
X110350000Y-61250000D01*
X110550000Y-61450000D01*
X110350000Y-61650000D01*
X110350000Y-62200000D01*
X110250000Y-62100000D01*
X110250000Y-61650000D01*
X110450000Y-61450000D01*
X110250000Y-61250000D01*
X110250000Y-60800000D01*
X109800000Y-60800000D01*
X109600000Y-60600000D01*
X109400000Y-60800000D01*
X108950000Y-60800000D01*
X108850000Y-60700000D01*
X109400000Y-60700000D01*
X109600000Y-60500000D01*
X109800000Y-60700000D01*
G37*
X115100000Y-64100000D02*
X114750000Y-64100000D01*
X114750000Y-64450000D01*
X114650000Y-64300000D01*
X114650000Y-64000000D01*
X114950000Y-64000000D01*
X115100000Y-64100000D01*
G36*
X115100000Y-64100000D02*
G01*
X114750000Y-64100000D01*
X114750000Y-64450000D01*
X114650000Y-64300000D01*
X114650000Y-64000000D01*
X114950000Y-64000000D01*
X115100000Y-64100000D01*
G37*
X113950000Y-63300000D02*
X113950000Y-63750000D01*
X113750000Y-63950000D01*
X113950000Y-64150000D01*
X113950000Y-64600000D01*
X114400000Y-64600000D01*
X114600000Y-64800000D01*
X114800000Y-64600000D01*
X115250000Y-64600000D01*
X115350000Y-64700000D01*
X114800000Y-64700000D01*
X114600000Y-64900000D01*
X114400000Y-64700000D01*
X113850000Y-64700000D01*
X113850000Y-64150000D01*
X113660000Y-63950000D01*
X113850000Y-63750000D01*
X113850000Y-63200000D01*
X113950000Y-63300000D01*
G36*
X113950000Y-63300000D02*
G01*
X113950000Y-63750000D01*
X113750000Y-63950000D01*
X113950000Y-64150000D01*
X113950000Y-64600000D01*
X114400000Y-64600000D01*
X114600000Y-64800000D01*
X114800000Y-64600000D01*
X115250000Y-64600000D01*
X115350000Y-64700000D01*
X114800000Y-64700000D01*
X114600000Y-64900000D01*
X114400000Y-64700000D01*
X113850000Y-64700000D01*
X113850000Y-64150000D01*
X113660000Y-63950000D01*
X113850000Y-63750000D01*
X113850000Y-63200000D01*
X113950000Y-63300000D01*
G37*
X114800000Y-63200000D02*
X115350000Y-63200000D01*
X115350000Y-63750000D01*
X115550000Y-63950000D01*
X115350000Y-64150000D01*
X115350000Y-64700000D01*
X115250000Y-64600000D01*
X115250000Y-64150000D01*
X115450000Y-63950000D01*
X115250000Y-63750000D01*
X115250000Y-63300000D01*
X114800000Y-63300000D01*
X114600000Y-63100000D01*
X114400000Y-63300000D01*
X113950000Y-63300000D01*
X113850000Y-63200000D01*
X114400000Y-63200000D01*
X114600000Y-63000000D01*
X114800000Y-63200000D01*
G36*
X114800000Y-63200000D02*
G01*
X115350000Y-63200000D01*
X115350000Y-63750000D01*
X115550000Y-63950000D01*
X115350000Y-64150000D01*
X115350000Y-64700000D01*
X115250000Y-64600000D01*
X115250000Y-64150000D01*
X115450000Y-63950000D01*
X115250000Y-63750000D01*
X115250000Y-63300000D01*
X114800000Y-63300000D01*
X114600000Y-63100000D01*
X114400000Y-63300000D01*
X113950000Y-63300000D01*
X113850000Y-63200000D01*
X114400000Y-63200000D01*
X114600000Y-63000000D01*
X114800000Y-63200000D01*
G37*
X125100000Y-56600000D02*
X124750000Y-56600000D01*
X124750000Y-56950000D01*
X124650000Y-56800000D01*
X124650000Y-56500000D01*
X124950000Y-56500000D01*
X125100000Y-56600000D01*
G36*
X125100000Y-56600000D02*
G01*
X124750000Y-56600000D01*
X124750000Y-56950000D01*
X124650000Y-56800000D01*
X124650000Y-56500000D01*
X124950000Y-56500000D01*
X125100000Y-56600000D01*
G37*
X123950000Y-55800000D02*
X123950000Y-56250000D01*
X123750000Y-56450000D01*
X123950000Y-56650000D01*
X123950000Y-57100000D01*
X124400000Y-57100000D01*
X124600000Y-57300000D01*
X124800000Y-57100000D01*
X125250000Y-57100000D01*
X125350000Y-57200000D01*
X124800000Y-57200000D01*
X124600000Y-57400000D01*
X124400000Y-57200000D01*
X123850000Y-57200000D01*
X123850000Y-56650000D01*
X123660000Y-56450000D01*
X123850000Y-56250000D01*
X123850000Y-55700000D01*
X123950000Y-55800000D01*
G36*
X123950000Y-55800000D02*
G01*
X123950000Y-56250000D01*
X123750000Y-56450000D01*
X123950000Y-56650000D01*
X123950000Y-57100000D01*
X124400000Y-57100000D01*
X124600000Y-57300000D01*
X124800000Y-57100000D01*
X125250000Y-57100000D01*
X125350000Y-57200000D01*
X124800000Y-57200000D01*
X124600000Y-57400000D01*
X124400000Y-57200000D01*
X123850000Y-57200000D01*
X123850000Y-56650000D01*
X123660000Y-56450000D01*
X123850000Y-56250000D01*
X123850000Y-55700000D01*
X123950000Y-55800000D01*
G37*
X124800000Y-55700000D02*
X125350000Y-55700000D01*
X125350000Y-56250000D01*
X125550000Y-56450000D01*
X125350000Y-56650000D01*
X125350000Y-57200000D01*
X125250000Y-57100000D01*
X125250000Y-56650000D01*
X125450000Y-56450000D01*
X125250000Y-56250000D01*
X125250000Y-55800000D01*
X124800000Y-55800000D01*
X124600000Y-55600000D01*
X124400000Y-55800000D01*
X123950000Y-55800000D01*
X123850000Y-55700000D01*
X124400000Y-55700000D01*
X124600000Y-55500000D01*
X124800000Y-55700000D01*
G36*
X124800000Y-55700000D02*
G01*
X125350000Y-55700000D01*
X125350000Y-56250000D01*
X125550000Y-56450000D01*
X125350000Y-56650000D01*
X125350000Y-57200000D01*
X125250000Y-57100000D01*
X125250000Y-56650000D01*
X125450000Y-56450000D01*
X125250000Y-56250000D01*
X125250000Y-55800000D01*
X124800000Y-55800000D01*
X124600000Y-55600000D01*
X124400000Y-55800000D01*
X123950000Y-55800000D01*
X123850000Y-55700000D01*
X124400000Y-55700000D01*
X124600000Y-55500000D01*
X124800000Y-55700000D01*
G37*
X127600000Y-61600000D02*
X127250000Y-61600000D01*
X127250000Y-61950000D01*
X127150000Y-61800000D01*
X127150000Y-61500000D01*
X127450000Y-61500000D01*
X127600000Y-61600000D01*
G36*
X127600000Y-61600000D02*
G01*
X127250000Y-61600000D01*
X127250000Y-61950000D01*
X127150000Y-61800000D01*
X127150000Y-61500000D01*
X127450000Y-61500000D01*
X127600000Y-61600000D01*
G37*
X126450000Y-60800000D02*
X126450000Y-61250000D01*
X126250000Y-61450000D01*
X126450000Y-61650000D01*
X126450000Y-62100000D01*
X126900000Y-62100000D01*
X127100000Y-62300000D01*
X127300000Y-62100000D01*
X127750000Y-62100000D01*
X127850000Y-62200000D01*
X127300000Y-62200000D01*
X127100000Y-62400000D01*
X126900000Y-62200000D01*
X126350000Y-62200000D01*
X126350000Y-61650000D01*
X126160000Y-61450000D01*
X126350000Y-61250000D01*
X126350000Y-60700000D01*
X126450000Y-60800000D01*
G36*
X126450000Y-60800000D02*
G01*
X126450000Y-61250000D01*
X126250000Y-61450000D01*
X126450000Y-61650000D01*
X126450000Y-62100000D01*
X126900000Y-62100000D01*
X127100000Y-62300000D01*
X127300000Y-62100000D01*
X127750000Y-62100000D01*
X127850000Y-62200000D01*
X127300000Y-62200000D01*
X127100000Y-62400000D01*
X126900000Y-62200000D01*
X126350000Y-62200000D01*
X126350000Y-61650000D01*
X126160000Y-61450000D01*
X126350000Y-61250000D01*
X126350000Y-60700000D01*
X126450000Y-60800000D01*
G37*
X127300000Y-60700000D02*
X127850000Y-60700000D01*
X127850000Y-61250000D01*
X128050000Y-61450000D01*
X127850000Y-61650000D01*
X127850000Y-62200000D01*
X127750000Y-62100000D01*
X127750000Y-61650000D01*
X127950000Y-61450000D01*
X127750000Y-61250000D01*
X127750000Y-60800000D01*
X127300000Y-60800000D01*
X127100000Y-60600000D01*
X126900000Y-60800000D01*
X126450000Y-60800000D01*
X126350000Y-60700000D01*
X126900000Y-60700000D01*
X127100000Y-60500000D01*
X127300000Y-60700000D01*
G36*
X127300000Y-60700000D02*
G01*
X127850000Y-60700000D01*
X127850000Y-61250000D01*
X128050000Y-61450000D01*
X127850000Y-61650000D01*
X127850000Y-62200000D01*
X127750000Y-62100000D01*
X127750000Y-61650000D01*
X127950000Y-61450000D01*
X127750000Y-61250000D01*
X127750000Y-60800000D01*
X127300000Y-60800000D01*
X127100000Y-60600000D01*
X126900000Y-60800000D01*
X126450000Y-60800000D01*
X126350000Y-60700000D01*
X126900000Y-60700000D01*
X127100000Y-60500000D01*
X127300000Y-60700000D01*
G37*
X117600000Y-61600000D02*
X117250000Y-61600000D01*
X117250000Y-61950000D01*
X117150000Y-61800000D01*
X117150000Y-61500000D01*
X117450000Y-61500000D01*
X117600000Y-61600000D01*
G36*
X117600000Y-61600000D02*
G01*
X117250000Y-61600000D01*
X117250000Y-61950000D01*
X117150000Y-61800000D01*
X117150000Y-61500000D01*
X117450000Y-61500000D01*
X117600000Y-61600000D01*
G37*
X116450000Y-60800000D02*
X116450000Y-61250000D01*
X116250000Y-61450000D01*
X116450000Y-61650000D01*
X116450000Y-62100000D01*
X116900000Y-62100000D01*
X117100000Y-62300000D01*
X117300000Y-62100000D01*
X117750000Y-62100000D01*
X117850000Y-62200000D01*
X117300000Y-62200000D01*
X117100000Y-62400000D01*
X116900000Y-62200000D01*
X116350000Y-62200000D01*
X116350000Y-61650000D01*
X116160000Y-61450000D01*
X116350000Y-61250000D01*
X116350000Y-60700000D01*
X116450000Y-60800000D01*
G36*
X116450000Y-60800000D02*
G01*
X116450000Y-61250000D01*
X116250000Y-61450000D01*
X116450000Y-61650000D01*
X116450000Y-62100000D01*
X116900000Y-62100000D01*
X117100000Y-62300000D01*
X117300000Y-62100000D01*
X117750000Y-62100000D01*
X117850000Y-62200000D01*
X117300000Y-62200000D01*
X117100000Y-62400000D01*
X116900000Y-62200000D01*
X116350000Y-62200000D01*
X116350000Y-61650000D01*
X116160000Y-61450000D01*
X116350000Y-61250000D01*
X116350000Y-60700000D01*
X116450000Y-60800000D01*
G37*
X117300000Y-60700000D02*
X117850000Y-60700000D01*
X117850000Y-61250000D01*
X118050000Y-61450000D01*
X117850000Y-61650000D01*
X117850000Y-62200000D01*
X117750000Y-62100000D01*
X117750000Y-61650000D01*
X117950000Y-61450000D01*
X117750000Y-61250000D01*
X117750000Y-60800000D01*
X117300000Y-60800000D01*
X117100000Y-60600000D01*
X116900000Y-60800000D01*
X116450000Y-60800000D01*
X116350000Y-60700000D01*
X116900000Y-60700000D01*
X117100000Y-60500000D01*
X117300000Y-60700000D01*
G36*
X117300000Y-60700000D02*
G01*
X117850000Y-60700000D01*
X117850000Y-61250000D01*
X118050000Y-61450000D01*
X117850000Y-61650000D01*
X117850000Y-62200000D01*
X117750000Y-62100000D01*
X117750000Y-61650000D01*
X117950000Y-61450000D01*
X117750000Y-61250000D01*
X117750000Y-60800000D01*
X117300000Y-60800000D01*
X117100000Y-60600000D01*
X116900000Y-60800000D01*
X116450000Y-60800000D01*
X116350000Y-60700000D01*
X116900000Y-60700000D01*
X117100000Y-60500000D01*
X117300000Y-60700000D01*
G37*
X125100000Y-59100000D02*
X124750000Y-59100000D01*
X124750000Y-59450000D01*
X124650000Y-59300000D01*
X124650000Y-59000000D01*
X124950000Y-59000000D01*
X125100000Y-59100000D01*
G36*
X125100000Y-59100000D02*
G01*
X124750000Y-59100000D01*
X124750000Y-59450000D01*
X124650000Y-59300000D01*
X124650000Y-59000000D01*
X124950000Y-59000000D01*
X125100000Y-59100000D01*
G37*
X123950000Y-58300000D02*
X123950000Y-58750000D01*
X123750000Y-58950000D01*
X123950000Y-59150000D01*
X123950000Y-59600000D01*
X124400000Y-59600000D01*
X124600000Y-59800000D01*
X124800000Y-59600000D01*
X125250000Y-59600000D01*
X125350000Y-59700000D01*
X124800000Y-59700000D01*
X124600000Y-59900000D01*
X124400000Y-59700000D01*
X123850000Y-59700000D01*
X123850000Y-59150000D01*
X123660000Y-58950000D01*
X123850000Y-58750000D01*
X123850000Y-58200000D01*
X123950000Y-58300000D01*
G36*
X123950000Y-58300000D02*
G01*
X123950000Y-58750000D01*
X123750000Y-58950000D01*
X123950000Y-59150000D01*
X123950000Y-59600000D01*
X124400000Y-59600000D01*
X124600000Y-59800000D01*
X124800000Y-59600000D01*
X125250000Y-59600000D01*
X125350000Y-59700000D01*
X124800000Y-59700000D01*
X124600000Y-59900000D01*
X124400000Y-59700000D01*
X123850000Y-59700000D01*
X123850000Y-59150000D01*
X123660000Y-58950000D01*
X123850000Y-58750000D01*
X123850000Y-58200000D01*
X123950000Y-58300000D01*
G37*
X124800000Y-58200000D02*
X125350000Y-58200000D01*
X125350000Y-58750000D01*
X125550000Y-58950000D01*
X125350000Y-59150000D01*
X125350000Y-59700000D01*
X125250000Y-59600000D01*
X125250000Y-59150000D01*
X125450000Y-58950000D01*
X125250000Y-58750000D01*
X125250000Y-58300000D01*
X124800000Y-58300000D01*
X124600000Y-58100000D01*
X124400000Y-58300000D01*
X123950000Y-58300000D01*
X123850000Y-58200000D01*
X124400000Y-58200000D01*
X124600000Y-58000000D01*
X124800000Y-58200000D01*
G36*
X124800000Y-58200000D02*
G01*
X125350000Y-58200000D01*
X125350000Y-58750000D01*
X125550000Y-58950000D01*
X125350000Y-59150000D01*
X125350000Y-59700000D01*
X125250000Y-59600000D01*
X125250000Y-59150000D01*
X125450000Y-58950000D01*
X125250000Y-58750000D01*
X125250000Y-58300000D01*
X124800000Y-58300000D01*
X124600000Y-58100000D01*
X124400000Y-58300000D01*
X123950000Y-58300000D01*
X123850000Y-58200000D01*
X124400000Y-58200000D01*
X124600000Y-58000000D01*
X124800000Y-58200000D01*
G37*
X115100000Y-61600000D02*
X114750000Y-61600000D01*
X114750000Y-61950000D01*
X114650000Y-61800000D01*
X114650000Y-61500000D01*
X114950000Y-61500000D01*
X115100000Y-61600000D01*
G36*
X115100000Y-61600000D02*
G01*
X114750000Y-61600000D01*
X114750000Y-61950000D01*
X114650000Y-61800000D01*
X114650000Y-61500000D01*
X114950000Y-61500000D01*
X115100000Y-61600000D01*
G37*
X113950000Y-60800000D02*
X113950000Y-61250000D01*
X113750000Y-61450000D01*
X113950000Y-61650000D01*
X113950000Y-62100000D01*
X114400000Y-62100000D01*
X114600000Y-62300000D01*
X114800000Y-62100000D01*
X115250000Y-62100000D01*
X115350000Y-62200000D01*
X114800000Y-62200000D01*
X114600000Y-62400000D01*
X114400000Y-62200000D01*
X113850000Y-62200000D01*
X113850000Y-61650000D01*
X113660000Y-61450000D01*
X113850000Y-61250000D01*
X113850000Y-60700000D01*
X113950000Y-60800000D01*
G36*
X113950000Y-60800000D02*
G01*
X113950000Y-61250000D01*
X113750000Y-61450000D01*
X113950000Y-61650000D01*
X113950000Y-62100000D01*
X114400000Y-62100000D01*
X114600000Y-62300000D01*
X114800000Y-62100000D01*
X115250000Y-62100000D01*
X115350000Y-62200000D01*
X114800000Y-62200000D01*
X114600000Y-62400000D01*
X114400000Y-62200000D01*
X113850000Y-62200000D01*
X113850000Y-61650000D01*
X113660000Y-61450000D01*
X113850000Y-61250000D01*
X113850000Y-60700000D01*
X113950000Y-60800000D01*
G37*
X114800000Y-60700000D02*
X115350000Y-60700000D01*
X115350000Y-61250000D01*
X115550000Y-61450000D01*
X115350000Y-61650000D01*
X115350000Y-62200000D01*
X115250000Y-62100000D01*
X115250000Y-61650000D01*
X115450000Y-61450000D01*
X115250000Y-61250000D01*
X115250000Y-60800000D01*
X114800000Y-60800000D01*
X114600000Y-60600000D01*
X114400000Y-60800000D01*
X113950000Y-60800000D01*
X113850000Y-60700000D01*
X114400000Y-60700000D01*
X114600000Y-60500000D01*
X114800000Y-60700000D01*
G36*
X114800000Y-60700000D02*
G01*
X115350000Y-60700000D01*
X115350000Y-61250000D01*
X115550000Y-61450000D01*
X115350000Y-61650000D01*
X115350000Y-62200000D01*
X115250000Y-62100000D01*
X115250000Y-61650000D01*
X115450000Y-61450000D01*
X115250000Y-61250000D01*
X115250000Y-60800000D01*
X114800000Y-60800000D01*
X114600000Y-60600000D01*
X114400000Y-60800000D01*
X113950000Y-60800000D01*
X113850000Y-60700000D01*
X114400000Y-60700000D01*
X114600000Y-60500000D01*
X114800000Y-60700000D01*
G37*
X125100000Y-66600000D02*
X124750000Y-66600000D01*
X124750000Y-66950000D01*
X124650000Y-66800000D01*
X124650000Y-66500000D01*
X124950000Y-66500000D01*
X125100000Y-66600000D01*
G36*
X125100000Y-66600000D02*
G01*
X124750000Y-66600000D01*
X124750000Y-66950000D01*
X124650000Y-66800000D01*
X124650000Y-66500000D01*
X124950000Y-66500000D01*
X125100000Y-66600000D01*
G37*
X123950000Y-65800000D02*
X123950000Y-66250000D01*
X123750000Y-66450000D01*
X123950000Y-66650000D01*
X123950000Y-67100000D01*
X124400000Y-67100000D01*
X124600000Y-67300000D01*
X124800000Y-67100000D01*
X125250000Y-67100000D01*
X125350000Y-67200000D01*
X124800000Y-67200000D01*
X124600000Y-67400000D01*
X124400000Y-67200000D01*
X123850000Y-67200000D01*
X123850000Y-66650000D01*
X123660000Y-66450000D01*
X123850000Y-66250000D01*
X123850000Y-65700000D01*
X123950000Y-65800000D01*
G36*
X123950000Y-65800000D02*
G01*
X123950000Y-66250000D01*
X123750000Y-66450000D01*
X123950000Y-66650000D01*
X123950000Y-67100000D01*
X124400000Y-67100000D01*
X124600000Y-67300000D01*
X124800000Y-67100000D01*
X125250000Y-67100000D01*
X125350000Y-67200000D01*
X124800000Y-67200000D01*
X124600000Y-67400000D01*
X124400000Y-67200000D01*
X123850000Y-67200000D01*
X123850000Y-66650000D01*
X123660000Y-66450000D01*
X123850000Y-66250000D01*
X123850000Y-65700000D01*
X123950000Y-65800000D01*
G37*
X124800000Y-65700000D02*
X125350000Y-65700000D01*
X125350000Y-66250000D01*
X125550000Y-66450000D01*
X125350000Y-66650000D01*
X125350000Y-67200000D01*
X125250000Y-67100000D01*
X125250000Y-66650000D01*
X125450000Y-66450000D01*
X125250000Y-66250000D01*
X125250000Y-65800000D01*
X124800000Y-65800000D01*
X124600000Y-65600000D01*
X124400000Y-65800000D01*
X123950000Y-65800000D01*
X123850000Y-65700000D01*
X124400000Y-65700000D01*
X124600000Y-65500000D01*
X124800000Y-65700000D01*
G36*
X124800000Y-65700000D02*
G01*
X125350000Y-65700000D01*
X125350000Y-66250000D01*
X125550000Y-66450000D01*
X125350000Y-66650000D01*
X125350000Y-67200000D01*
X125250000Y-67100000D01*
X125250000Y-66650000D01*
X125450000Y-66450000D01*
X125250000Y-66250000D01*
X125250000Y-65800000D01*
X124800000Y-65800000D01*
X124600000Y-65600000D01*
X124400000Y-65800000D01*
X123950000Y-65800000D01*
X123850000Y-65700000D01*
X124400000Y-65700000D01*
X124600000Y-65500000D01*
X124800000Y-65700000D01*
G37*
X125100000Y-64100000D02*
X124750000Y-64100000D01*
X124750000Y-64450000D01*
X124650000Y-64300000D01*
X124650000Y-64000000D01*
X124950000Y-64000000D01*
X125100000Y-64100000D01*
G36*
X125100000Y-64100000D02*
G01*
X124750000Y-64100000D01*
X124750000Y-64450000D01*
X124650000Y-64300000D01*
X124650000Y-64000000D01*
X124950000Y-64000000D01*
X125100000Y-64100000D01*
G37*
X123950000Y-63300000D02*
X123950000Y-63750000D01*
X123750000Y-63950000D01*
X123950000Y-64150000D01*
X123950000Y-64600000D01*
X124400000Y-64600000D01*
X124600000Y-64800000D01*
X124800000Y-64600000D01*
X125250000Y-64600000D01*
X125350000Y-64700000D01*
X124800000Y-64700000D01*
X124600000Y-64900000D01*
X124400000Y-64700000D01*
X123850000Y-64700000D01*
X123850000Y-64150000D01*
X123660000Y-63950000D01*
X123850000Y-63750000D01*
X123850000Y-63200000D01*
X123950000Y-63300000D01*
G36*
X123950000Y-63300000D02*
G01*
X123950000Y-63750000D01*
X123750000Y-63950000D01*
X123950000Y-64150000D01*
X123950000Y-64600000D01*
X124400000Y-64600000D01*
X124600000Y-64800000D01*
X124800000Y-64600000D01*
X125250000Y-64600000D01*
X125350000Y-64700000D01*
X124800000Y-64700000D01*
X124600000Y-64900000D01*
X124400000Y-64700000D01*
X123850000Y-64700000D01*
X123850000Y-64150000D01*
X123660000Y-63950000D01*
X123850000Y-63750000D01*
X123850000Y-63200000D01*
X123950000Y-63300000D01*
G37*
X124800000Y-63200000D02*
X125350000Y-63200000D01*
X125350000Y-63750000D01*
X125550000Y-63950000D01*
X125350000Y-64150000D01*
X125350000Y-64700000D01*
X125250000Y-64600000D01*
X125250000Y-64150000D01*
X125450000Y-63950000D01*
X125250000Y-63750000D01*
X125250000Y-63300000D01*
X124800000Y-63300000D01*
X124600000Y-63100000D01*
X124400000Y-63300000D01*
X123950000Y-63300000D01*
X123850000Y-63200000D01*
X124400000Y-63200000D01*
X124600000Y-63000000D01*
X124800000Y-63200000D01*
G36*
X124800000Y-63200000D02*
G01*
X125350000Y-63200000D01*
X125350000Y-63750000D01*
X125550000Y-63950000D01*
X125350000Y-64150000D01*
X125350000Y-64700000D01*
X125250000Y-64600000D01*
X125250000Y-64150000D01*
X125450000Y-63950000D01*
X125250000Y-63750000D01*
X125250000Y-63300000D01*
X124800000Y-63300000D01*
X124600000Y-63100000D01*
X124400000Y-63300000D01*
X123950000Y-63300000D01*
X123850000Y-63200000D01*
X124400000Y-63200000D01*
X124600000Y-63000000D01*
X124800000Y-63200000D01*
G37*
X110100000Y-54100000D02*
X109750000Y-54100000D01*
X109750000Y-54450000D01*
X109650000Y-54300000D01*
X109650000Y-54000000D01*
X109950000Y-54000000D01*
X110100000Y-54100000D01*
G36*
X110100000Y-54100000D02*
G01*
X109750000Y-54100000D01*
X109750000Y-54450000D01*
X109650000Y-54300000D01*
X109650000Y-54000000D01*
X109950000Y-54000000D01*
X110100000Y-54100000D01*
G37*
X108950000Y-53300000D02*
X108950000Y-53750000D01*
X108750000Y-53950000D01*
X108950000Y-54150000D01*
X108950000Y-54600000D01*
X109400000Y-54600000D01*
X109600000Y-54800000D01*
X109800000Y-54600000D01*
X110250000Y-54600000D01*
X110350000Y-54700000D01*
X109800000Y-54700000D01*
X109600000Y-54900000D01*
X109400000Y-54700000D01*
X108850000Y-54700000D01*
X108850000Y-54150000D01*
X108660000Y-53950000D01*
X108850000Y-53750000D01*
X108850000Y-53200000D01*
X108950000Y-53300000D01*
G36*
X108950000Y-53300000D02*
G01*
X108950000Y-53750000D01*
X108750000Y-53950000D01*
X108950000Y-54150000D01*
X108950000Y-54600000D01*
X109400000Y-54600000D01*
X109600000Y-54800000D01*
X109800000Y-54600000D01*
X110250000Y-54600000D01*
X110350000Y-54700000D01*
X109800000Y-54700000D01*
X109600000Y-54900000D01*
X109400000Y-54700000D01*
X108850000Y-54700000D01*
X108850000Y-54150000D01*
X108660000Y-53950000D01*
X108850000Y-53750000D01*
X108850000Y-53200000D01*
X108950000Y-53300000D01*
G37*
X109800000Y-53200000D02*
X110350000Y-53200000D01*
X110350000Y-53750000D01*
X110550000Y-53950000D01*
X110350000Y-54150000D01*
X110350000Y-54700000D01*
X110250000Y-54600000D01*
X110250000Y-54150000D01*
X110450000Y-53950000D01*
X110250000Y-53750000D01*
X110250000Y-53300000D01*
X109800000Y-53300000D01*
X109600000Y-53100000D01*
X109400000Y-53300000D01*
X108950000Y-53300000D01*
X108850000Y-53200000D01*
X109400000Y-53200000D01*
X109600000Y-53000000D01*
X109800000Y-53200000D01*
G36*
X109800000Y-53200000D02*
G01*
X110350000Y-53200000D01*
X110350000Y-53750000D01*
X110550000Y-53950000D01*
X110350000Y-54150000D01*
X110350000Y-54700000D01*
X110250000Y-54600000D01*
X110250000Y-54150000D01*
X110450000Y-53950000D01*
X110250000Y-53750000D01*
X110250000Y-53300000D01*
X109800000Y-53300000D01*
X109600000Y-53100000D01*
X109400000Y-53300000D01*
X108950000Y-53300000D01*
X108850000Y-53200000D01*
X109400000Y-53200000D01*
X109600000Y-53000000D01*
X109800000Y-53200000D01*
G37*
X117600000Y-54100000D02*
X117250000Y-54100000D01*
X117250000Y-54450000D01*
X117150000Y-54300000D01*
X117150000Y-54000000D01*
X117450000Y-54000000D01*
X117600000Y-54100000D01*
G36*
X117600000Y-54100000D02*
G01*
X117250000Y-54100000D01*
X117250000Y-54450000D01*
X117150000Y-54300000D01*
X117150000Y-54000000D01*
X117450000Y-54000000D01*
X117600000Y-54100000D01*
G37*
X116450000Y-53300000D02*
X116450000Y-53750000D01*
X116250000Y-53950000D01*
X116450000Y-54150000D01*
X116450000Y-54600000D01*
X116900000Y-54600000D01*
X117100000Y-54800000D01*
X117300000Y-54600000D01*
X117750000Y-54600000D01*
X117850000Y-54700000D01*
X117300000Y-54700000D01*
X117100000Y-54900000D01*
X116900000Y-54700000D01*
X116350000Y-54700000D01*
X116350000Y-54150000D01*
X116160000Y-53950000D01*
X116350000Y-53750000D01*
X116350000Y-53200000D01*
X116450000Y-53300000D01*
G36*
X116450000Y-53300000D02*
G01*
X116450000Y-53750000D01*
X116250000Y-53950000D01*
X116450000Y-54150000D01*
X116450000Y-54600000D01*
X116900000Y-54600000D01*
X117100000Y-54800000D01*
X117300000Y-54600000D01*
X117750000Y-54600000D01*
X117850000Y-54700000D01*
X117300000Y-54700000D01*
X117100000Y-54900000D01*
X116900000Y-54700000D01*
X116350000Y-54700000D01*
X116350000Y-54150000D01*
X116160000Y-53950000D01*
X116350000Y-53750000D01*
X116350000Y-53200000D01*
X116450000Y-53300000D01*
G37*
X117300000Y-53200000D02*
X117850000Y-53200000D01*
X117850000Y-53750000D01*
X118050000Y-53950000D01*
X117850000Y-54150000D01*
X117850000Y-54700000D01*
X117750000Y-54600000D01*
X117750000Y-54150000D01*
X117950000Y-53950000D01*
X117750000Y-53750000D01*
X117750000Y-53300000D01*
X117300000Y-53300000D01*
X117100000Y-53100000D01*
X116900000Y-53300000D01*
X116450000Y-53300000D01*
X116350000Y-53200000D01*
X116900000Y-53200000D01*
X117100000Y-53000000D01*
X117300000Y-53200000D01*
G36*
X117300000Y-53200000D02*
G01*
X117850000Y-53200000D01*
X117850000Y-53750000D01*
X118050000Y-53950000D01*
X117850000Y-54150000D01*
X117850000Y-54700000D01*
X117750000Y-54600000D01*
X117750000Y-54150000D01*
X117950000Y-53950000D01*
X117750000Y-53750000D01*
X117750000Y-53300000D01*
X117300000Y-53300000D01*
X117100000Y-53100000D01*
X116900000Y-53300000D01*
X116450000Y-53300000D01*
X116350000Y-53200000D01*
X116900000Y-53200000D01*
X117100000Y-53000000D01*
X117300000Y-53200000D01*
G37*
X124750000Y-51300000D02*
X125100000Y-51300000D01*
X124950000Y-51400000D01*
X124650000Y-51400000D01*
X124650000Y-51100000D01*
X124750000Y-50950000D01*
X124750000Y-51300000D01*
G36*
X124750000Y-51300000D02*
G01*
X125100000Y-51300000D01*
X124950000Y-51400000D01*
X124650000Y-51400000D01*
X124650000Y-51100000D01*
X124750000Y-50950000D01*
X124750000Y-51300000D01*
G37*
X125350000Y-51250000D02*
X125550000Y-51450000D01*
X125350000Y-51650000D01*
X125350000Y-52200000D01*
X124800000Y-52200000D01*
X124600000Y-52390000D01*
X124400000Y-52200000D01*
X123850000Y-52200000D01*
X123950000Y-52100000D01*
X124400000Y-52100000D01*
X124600000Y-52300000D01*
X124800000Y-52100000D01*
X125250000Y-52100000D01*
X125250000Y-51650000D01*
X125450000Y-51450000D01*
X125250000Y-51250000D01*
X125250000Y-50800000D01*
X125350000Y-50700000D01*
X125350000Y-51250000D01*
G36*
X125350000Y-51250000D02*
G01*
X125550000Y-51450000D01*
X125350000Y-51650000D01*
X125350000Y-52200000D01*
X124800000Y-52200000D01*
X124600000Y-52390000D01*
X124400000Y-52200000D01*
X123850000Y-52200000D01*
X123950000Y-52100000D01*
X124400000Y-52100000D01*
X124600000Y-52300000D01*
X124800000Y-52100000D01*
X125250000Y-52100000D01*
X125250000Y-51650000D01*
X125450000Y-51450000D01*
X125250000Y-51250000D01*
X125250000Y-50800000D01*
X125350000Y-50700000D01*
X125350000Y-51250000D01*
G37*
X124800000Y-50700000D02*
X125350000Y-50700000D01*
X125250000Y-50800000D01*
X124800000Y-50800000D01*
X124600000Y-50600000D01*
X124400000Y-50800000D01*
X123950000Y-50800000D01*
X123950000Y-51250000D01*
X123750000Y-51450000D01*
X123950000Y-51650000D01*
X123950000Y-52100000D01*
X123850000Y-52200000D01*
X123850000Y-51650000D01*
X123650000Y-51450000D01*
X123850000Y-51250000D01*
X123850000Y-50700000D01*
X124400000Y-50700000D01*
X124600000Y-50500000D01*
X124800000Y-50700000D01*
G36*
X124800000Y-50700000D02*
G01*
X125350000Y-50700000D01*
X125250000Y-50800000D01*
X124800000Y-50800000D01*
X124600000Y-50600000D01*
X124400000Y-50800000D01*
X123950000Y-50800000D01*
X123950000Y-51250000D01*
X123750000Y-51450000D01*
X123950000Y-51650000D01*
X123950000Y-52100000D01*
X123850000Y-52200000D01*
X123850000Y-51650000D01*
X123650000Y-51450000D01*
X123850000Y-51250000D01*
X123850000Y-50700000D01*
X124400000Y-50700000D01*
X124600000Y-50500000D01*
X124800000Y-50700000D01*
G37*
X110100000Y-59100000D02*
X109750000Y-59100000D01*
X109750000Y-59450000D01*
X109650000Y-59300000D01*
X109650000Y-59000000D01*
X109950000Y-59000000D01*
X110100000Y-59100000D01*
G36*
X110100000Y-59100000D02*
G01*
X109750000Y-59100000D01*
X109750000Y-59450000D01*
X109650000Y-59300000D01*
X109650000Y-59000000D01*
X109950000Y-59000000D01*
X110100000Y-59100000D01*
G37*
X108950000Y-58300000D02*
X108950000Y-58750000D01*
X108750000Y-58950000D01*
X108950000Y-59150000D01*
X108950000Y-59600000D01*
X109400000Y-59600000D01*
X109600000Y-59800000D01*
X109800000Y-59600000D01*
X110250000Y-59600000D01*
X110350000Y-59700000D01*
X109800000Y-59700000D01*
X109600000Y-59900000D01*
X109400000Y-59700000D01*
X108850000Y-59700000D01*
X108850000Y-59150000D01*
X108660000Y-58950000D01*
X108850000Y-58750000D01*
X108850000Y-58200000D01*
X108950000Y-58300000D01*
G36*
X108950000Y-58300000D02*
G01*
X108950000Y-58750000D01*
X108750000Y-58950000D01*
X108950000Y-59150000D01*
X108950000Y-59600000D01*
X109400000Y-59600000D01*
X109600000Y-59800000D01*
X109800000Y-59600000D01*
X110250000Y-59600000D01*
X110350000Y-59700000D01*
X109800000Y-59700000D01*
X109600000Y-59900000D01*
X109400000Y-59700000D01*
X108850000Y-59700000D01*
X108850000Y-59150000D01*
X108660000Y-58950000D01*
X108850000Y-58750000D01*
X108850000Y-58200000D01*
X108950000Y-58300000D01*
G37*
X109800000Y-58200000D02*
X110350000Y-58200000D01*
X110350000Y-58750000D01*
X110550000Y-58950000D01*
X110350000Y-59150000D01*
X110350000Y-59700000D01*
X110250000Y-59600000D01*
X110250000Y-59150000D01*
X110450000Y-58950000D01*
X110250000Y-58750000D01*
X110250000Y-58300000D01*
X109800000Y-58300000D01*
X109600000Y-58100000D01*
X109400000Y-58300000D01*
X108950000Y-58300000D01*
X108850000Y-58200000D01*
X109400000Y-58200000D01*
X109600000Y-58000000D01*
X109800000Y-58200000D01*
G36*
X109800000Y-58200000D02*
G01*
X110350000Y-58200000D01*
X110350000Y-58750000D01*
X110550000Y-58950000D01*
X110350000Y-59150000D01*
X110350000Y-59700000D01*
X110250000Y-59600000D01*
X110250000Y-59150000D01*
X110450000Y-58950000D01*
X110250000Y-58750000D01*
X110250000Y-58300000D01*
X109800000Y-58300000D01*
X109600000Y-58100000D01*
X109400000Y-58300000D01*
X108950000Y-58300000D01*
X108850000Y-58200000D01*
X109400000Y-58200000D01*
X109600000Y-58000000D01*
X109800000Y-58200000D01*
G37*
X127600000Y-64100000D02*
X127250000Y-64100000D01*
X127250000Y-64450000D01*
X127150000Y-64300000D01*
X127150000Y-64000000D01*
X127450000Y-64000000D01*
X127600000Y-64100000D01*
G36*
X127600000Y-64100000D02*
G01*
X127250000Y-64100000D01*
X127250000Y-64450000D01*
X127150000Y-64300000D01*
X127150000Y-64000000D01*
X127450000Y-64000000D01*
X127600000Y-64100000D01*
G37*
X126450000Y-63300000D02*
X126450000Y-63750000D01*
X126250000Y-63950000D01*
X126450000Y-64150000D01*
X126450000Y-64600000D01*
X126900000Y-64600000D01*
X127100000Y-64800000D01*
X127300000Y-64600000D01*
X127750000Y-64600000D01*
X127850000Y-64700000D01*
X127300000Y-64700000D01*
X127100000Y-64900000D01*
X126900000Y-64700000D01*
X126350000Y-64700000D01*
X126350000Y-64150000D01*
X126160000Y-63950000D01*
X126350000Y-63750000D01*
X126350000Y-63200000D01*
X126450000Y-63300000D01*
G36*
X126450000Y-63300000D02*
G01*
X126450000Y-63750000D01*
X126250000Y-63950000D01*
X126450000Y-64150000D01*
X126450000Y-64600000D01*
X126900000Y-64600000D01*
X127100000Y-64800000D01*
X127300000Y-64600000D01*
X127750000Y-64600000D01*
X127850000Y-64700000D01*
X127300000Y-64700000D01*
X127100000Y-64900000D01*
X126900000Y-64700000D01*
X126350000Y-64700000D01*
X126350000Y-64150000D01*
X126160000Y-63950000D01*
X126350000Y-63750000D01*
X126350000Y-63200000D01*
X126450000Y-63300000D01*
G37*
X127300000Y-63200000D02*
X127850000Y-63200000D01*
X127850000Y-63750000D01*
X128050000Y-63950000D01*
X127850000Y-64150000D01*
X127850000Y-64700000D01*
X127750000Y-64600000D01*
X127750000Y-64150000D01*
X127950000Y-63950000D01*
X127750000Y-63750000D01*
X127750000Y-63300000D01*
X127300000Y-63300000D01*
X127100000Y-63100000D01*
X126900000Y-63300000D01*
X126450000Y-63300000D01*
X126350000Y-63200000D01*
X126900000Y-63200000D01*
X127100000Y-63000000D01*
X127300000Y-63200000D01*
G36*
X127300000Y-63200000D02*
G01*
X127850000Y-63200000D01*
X127850000Y-63750000D01*
X128050000Y-63950000D01*
X127850000Y-64150000D01*
X127850000Y-64700000D01*
X127750000Y-64600000D01*
X127750000Y-64150000D01*
X127950000Y-63950000D01*
X127750000Y-63750000D01*
X127750000Y-63300000D01*
X127300000Y-63300000D01*
X127100000Y-63100000D01*
X126900000Y-63300000D01*
X126450000Y-63300000D01*
X126350000Y-63200000D01*
X126900000Y-63200000D01*
X127100000Y-63000000D01*
X127300000Y-63200000D01*
G37*
X110100000Y-56600000D02*
X109750000Y-56600000D01*
X109750000Y-56950000D01*
X109650000Y-56800000D01*
X109650000Y-56500000D01*
X109950000Y-56500000D01*
X110100000Y-56600000D01*
G36*
X110100000Y-56600000D02*
G01*
X109750000Y-56600000D01*
X109750000Y-56950000D01*
X109650000Y-56800000D01*
X109650000Y-56500000D01*
X109950000Y-56500000D01*
X110100000Y-56600000D01*
G37*
X108950000Y-55800000D02*
X108950000Y-56250000D01*
X108750000Y-56450000D01*
X108950000Y-56650000D01*
X108950000Y-57100000D01*
X109400000Y-57100000D01*
X109600000Y-57300000D01*
X109800000Y-57100000D01*
X110250000Y-57100000D01*
X110350000Y-57200000D01*
X109800000Y-57200000D01*
X109600000Y-57400000D01*
X109400000Y-57200000D01*
X108850000Y-57200000D01*
X108850000Y-56650000D01*
X108660000Y-56450000D01*
X108850000Y-56250000D01*
X108850000Y-55700000D01*
X108950000Y-55800000D01*
G36*
X108950000Y-55800000D02*
G01*
X108950000Y-56250000D01*
X108750000Y-56450000D01*
X108950000Y-56650000D01*
X108950000Y-57100000D01*
X109400000Y-57100000D01*
X109600000Y-57300000D01*
X109800000Y-57100000D01*
X110250000Y-57100000D01*
X110350000Y-57200000D01*
X109800000Y-57200000D01*
X109600000Y-57400000D01*
X109400000Y-57200000D01*
X108850000Y-57200000D01*
X108850000Y-56650000D01*
X108660000Y-56450000D01*
X108850000Y-56250000D01*
X108850000Y-55700000D01*
X108950000Y-55800000D01*
G37*
X109800000Y-55700000D02*
X110350000Y-55700000D01*
X110350000Y-56250000D01*
X110550000Y-56450000D01*
X110350000Y-56650000D01*
X110350000Y-57200000D01*
X110250000Y-57100000D01*
X110250000Y-56650000D01*
X110450000Y-56450000D01*
X110250000Y-56250000D01*
X110250000Y-55800000D01*
X109800000Y-55800000D01*
X109600000Y-55600000D01*
X109400000Y-55800000D01*
X108950000Y-55800000D01*
X108850000Y-55700000D01*
X109400000Y-55700000D01*
X109600000Y-55500000D01*
X109800000Y-55700000D01*
G36*
X109800000Y-55700000D02*
G01*
X110350000Y-55700000D01*
X110350000Y-56250000D01*
X110550000Y-56450000D01*
X110350000Y-56650000D01*
X110350000Y-57200000D01*
X110250000Y-57100000D01*
X110250000Y-56650000D01*
X110450000Y-56450000D01*
X110250000Y-56250000D01*
X110250000Y-55800000D01*
X109800000Y-55800000D01*
X109600000Y-55600000D01*
X109400000Y-55800000D01*
X108950000Y-55800000D01*
X108850000Y-55700000D01*
X109400000Y-55700000D01*
X109600000Y-55500000D01*
X109800000Y-55700000D01*
G37*
X122600000Y-54100000D02*
X122250000Y-54100000D01*
X122250000Y-54450000D01*
X122150000Y-54300000D01*
X122150000Y-54000000D01*
X122450000Y-54000000D01*
X122600000Y-54100000D01*
G36*
X122600000Y-54100000D02*
G01*
X122250000Y-54100000D01*
X122250000Y-54450000D01*
X122150000Y-54300000D01*
X122150000Y-54000000D01*
X122450000Y-54000000D01*
X122600000Y-54100000D01*
G37*
X121450000Y-53300000D02*
X121450000Y-53750000D01*
X121250000Y-53950000D01*
X121450000Y-54150000D01*
X121450000Y-54600000D01*
X121900000Y-54600000D01*
X122100000Y-54800000D01*
X122300000Y-54600000D01*
X122750000Y-54600000D01*
X122850000Y-54700000D01*
X122300000Y-54700000D01*
X122100000Y-54900000D01*
X121900000Y-54700000D01*
X121350000Y-54700000D01*
X121350000Y-54150000D01*
X121160000Y-53950000D01*
X121350000Y-53750000D01*
X121350000Y-53200000D01*
X121450000Y-53300000D01*
G36*
X121450000Y-53300000D02*
G01*
X121450000Y-53750000D01*
X121250000Y-53950000D01*
X121450000Y-54150000D01*
X121450000Y-54600000D01*
X121900000Y-54600000D01*
X122100000Y-54800000D01*
X122300000Y-54600000D01*
X122750000Y-54600000D01*
X122850000Y-54700000D01*
X122300000Y-54700000D01*
X122100000Y-54900000D01*
X121900000Y-54700000D01*
X121350000Y-54700000D01*
X121350000Y-54150000D01*
X121160000Y-53950000D01*
X121350000Y-53750000D01*
X121350000Y-53200000D01*
X121450000Y-53300000D01*
G37*
X122300000Y-53200000D02*
X122850000Y-53200000D01*
X122850000Y-53750000D01*
X123050000Y-53950000D01*
X122850000Y-54150000D01*
X122850000Y-54700000D01*
X122750000Y-54600000D01*
X122750000Y-54150000D01*
X122950000Y-53950000D01*
X122750000Y-53750000D01*
X122750000Y-53300000D01*
X122300000Y-53300000D01*
X122100000Y-53100000D01*
X121900000Y-53300000D01*
X121450000Y-53300000D01*
X121350000Y-53200000D01*
X121900000Y-53200000D01*
X122100000Y-53000000D01*
X122300000Y-53200000D01*
G36*
X122300000Y-53200000D02*
G01*
X122850000Y-53200000D01*
X122850000Y-53750000D01*
X123050000Y-53950000D01*
X122850000Y-54150000D01*
X122850000Y-54700000D01*
X122750000Y-54600000D01*
X122750000Y-54150000D01*
X122950000Y-53950000D01*
X122750000Y-53750000D01*
X122750000Y-53300000D01*
X122300000Y-53300000D01*
X122100000Y-53100000D01*
X121900000Y-53300000D01*
X121450000Y-53300000D01*
X121350000Y-53200000D01*
X121900000Y-53200000D01*
X122100000Y-53000000D01*
X122300000Y-53200000D01*
G37*
X127250000Y-51300000D02*
X127600000Y-51300000D01*
X127450000Y-51400000D01*
X127150000Y-51400000D01*
X127150000Y-51100000D01*
X127250000Y-50950000D01*
X127250000Y-51300000D01*
G36*
X127250000Y-51300000D02*
G01*
X127600000Y-51300000D01*
X127450000Y-51400000D01*
X127150000Y-51400000D01*
X127150000Y-51100000D01*
X127250000Y-50950000D01*
X127250000Y-51300000D01*
G37*
X127850000Y-51250000D02*
X128050000Y-51450000D01*
X127850000Y-51650000D01*
X127850000Y-52200000D01*
X127300000Y-52200000D01*
X127100000Y-52390000D01*
X126900000Y-52200000D01*
X126350000Y-52200000D01*
X126450000Y-52100000D01*
X126900000Y-52100000D01*
X127100000Y-52300000D01*
X127300000Y-52100000D01*
X127750000Y-52100000D01*
X127750000Y-51650000D01*
X127950000Y-51450000D01*
X127750000Y-51250000D01*
X127750000Y-50800000D01*
X127850000Y-50700000D01*
X127850000Y-51250000D01*
G36*
X127850000Y-51250000D02*
G01*
X128050000Y-51450000D01*
X127850000Y-51650000D01*
X127850000Y-52200000D01*
X127300000Y-52200000D01*
X127100000Y-52390000D01*
X126900000Y-52200000D01*
X126350000Y-52200000D01*
X126450000Y-52100000D01*
X126900000Y-52100000D01*
X127100000Y-52300000D01*
X127300000Y-52100000D01*
X127750000Y-52100000D01*
X127750000Y-51650000D01*
X127950000Y-51450000D01*
X127750000Y-51250000D01*
X127750000Y-50800000D01*
X127850000Y-50700000D01*
X127850000Y-51250000D01*
G37*
X127300000Y-50700000D02*
X127850000Y-50700000D01*
X127750000Y-50800000D01*
X127300000Y-50800000D01*
X127100000Y-50600000D01*
X126900000Y-50800000D01*
X126450000Y-50800000D01*
X126450000Y-51250000D01*
X126250000Y-51450000D01*
X126450000Y-51650000D01*
X126450000Y-52100000D01*
X126350000Y-52200000D01*
X126350000Y-51650000D01*
X126150000Y-51450000D01*
X126350000Y-51250000D01*
X126350000Y-50700000D01*
X126900000Y-50700000D01*
X127100000Y-50500000D01*
X127300000Y-50700000D01*
G36*
X127300000Y-50700000D02*
G01*
X127850000Y-50700000D01*
X127750000Y-50800000D01*
X127300000Y-50800000D01*
X127100000Y-50600000D01*
X126900000Y-50800000D01*
X126450000Y-50800000D01*
X126450000Y-51250000D01*
X126250000Y-51450000D01*
X126450000Y-51650000D01*
X126450000Y-52100000D01*
X126350000Y-52200000D01*
X126350000Y-51650000D01*
X126150000Y-51450000D01*
X126350000Y-51250000D01*
X126350000Y-50700000D01*
X126900000Y-50700000D01*
X127100000Y-50500000D01*
X127300000Y-50700000D01*
G37*
X112250000Y-68800000D02*
X112600000Y-68800000D01*
X112450000Y-68900000D01*
X112150000Y-68900000D01*
X112150000Y-68600000D01*
X112250000Y-68450000D01*
X112250000Y-68800000D01*
G36*
X112250000Y-68800000D02*
G01*
X112600000Y-68800000D01*
X112450000Y-68900000D01*
X112150000Y-68900000D01*
X112150000Y-68600000D01*
X112250000Y-68450000D01*
X112250000Y-68800000D01*
G37*
X112850000Y-68750000D02*
X113050000Y-68950000D01*
X112850000Y-69150000D01*
X112850000Y-69700000D01*
X112300000Y-69700000D01*
X112100000Y-69890000D01*
X111900000Y-69700000D01*
X111350000Y-69700000D01*
X111450000Y-69600000D01*
X111900000Y-69600000D01*
X112100000Y-69800000D01*
X112300000Y-69600000D01*
X112750000Y-69600000D01*
X112750000Y-69150000D01*
X112950000Y-68950000D01*
X112750000Y-68750000D01*
X112750000Y-68300000D01*
X112850000Y-68200000D01*
X112850000Y-68750000D01*
G36*
X112850000Y-68750000D02*
G01*
X113050000Y-68950000D01*
X112850000Y-69150000D01*
X112850000Y-69700000D01*
X112300000Y-69700000D01*
X112100000Y-69890000D01*
X111900000Y-69700000D01*
X111350000Y-69700000D01*
X111450000Y-69600000D01*
X111900000Y-69600000D01*
X112100000Y-69800000D01*
X112300000Y-69600000D01*
X112750000Y-69600000D01*
X112750000Y-69150000D01*
X112950000Y-68950000D01*
X112750000Y-68750000D01*
X112750000Y-68300000D01*
X112850000Y-68200000D01*
X112850000Y-68750000D01*
G37*
X112300000Y-68200000D02*
X112850000Y-68200000D01*
X112750000Y-68300000D01*
X112300000Y-68300000D01*
X112100000Y-68100000D01*
X111900000Y-68300000D01*
X111450000Y-68300000D01*
X111450000Y-68750000D01*
X111250000Y-68950000D01*
X111450000Y-69150000D01*
X111450000Y-69600000D01*
X111350000Y-69700000D01*
X111350000Y-69150000D01*
X111150000Y-68950000D01*
X111350000Y-68750000D01*
X111350000Y-68200000D01*
X111900000Y-68200000D01*
X112100000Y-68000000D01*
X112300000Y-68200000D01*
G36*
X112300000Y-68200000D02*
G01*
X112850000Y-68200000D01*
X112750000Y-68300000D01*
X112300000Y-68300000D01*
X112100000Y-68100000D01*
X111900000Y-68300000D01*
X111450000Y-68300000D01*
X111450000Y-68750000D01*
X111250000Y-68950000D01*
X111450000Y-69150000D01*
X111450000Y-69600000D01*
X111350000Y-69700000D01*
X111350000Y-69150000D01*
X111150000Y-68950000D01*
X111350000Y-68750000D01*
X111350000Y-68200000D01*
X111900000Y-68200000D01*
X112100000Y-68000000D01*
X112300000Y-68200000D01*
G37*
X122250000Y-68800000D02*
X122600000Y-68800000D01*
X122450000Y-68900000D01*
X122150000Y-68900000D01*
X122150000Y-68600000D01*
X122250000Y-68450000D01*
X122250000Y-68800000D01*
G36*
X122250000Y-68800000D02*
G01*
X122600000Y-68800000D01*
X122450000Y-68900000D01*
X122150000Y-68900000D01*
X122150000Y-68600000D01*
X122250000Y-68450000D01*
X122250000Y-68800000D01*
G37*
X122850000Y-68750000D02*
X123050000Y-68950000D01*
X122850000Y-69150000D01*
X122850000Y-69700000D01*
X122300000Y-69700000D01*
X122100000Y-69890000D01*
X121900000Y-69700000D01*
X121350000Y-69700000D01*
X121450000Y-69600000D01*
X121900000Y-69600000D01*
X122100000Y-69800000D01*
X122300000Y-69600000D01*
X122750000Y-69600000D01*
X122750000Y-69150000D01*
X122950000Y-68950000D01*
X122750000Y-68750000D01*
X122750000Y-68300000D01*
X122850000Y-68200000D01*
X122850000Y-68750000D01*
G36*
X122850000Y-68750000D02*
G01*
X123050000Y-68950000D01*
X122850000Y-69150000D01*
X122850000Y-69700000D01*
X122300000Y-69700000D01*
X122100000Y-69890000D01*
X121900000Y-69700000D01*
X121350000Y-69700000D01*
X121450000Y-69600000D01*
X121900000Y-69600000D01*
X122100000Y-69800000D01*
X122300000Y-69600000D01*
X122750000Y-69600000D01*
X122750000Y-69150000D01*
X122950000Y-68950000D01*
X122750000Y-68750000D01*
X122750000Y-68300000D01*
X122850000Y-68200000D01*
X122850000Y-68750000D01*
G37*
X122300000Y-68200000D02*
X122850000Y-68200000D01*
X122750000Y-68300000D01*
X122300000Y-68300000D01*
X122100000Y-68100000D01*
X121900000Y-68300000D01*
X121450000Y-68300000D01*
X121450000Y-68750000D01*
X121250000Y-68950000D01*
X121450000Y-69150000D01*
X121450000Y-69600000D01*
X121350000Y-69700000D01*
X121350000Y-69150000D01*
X121150000Y-68950000D01*
X121350000Y-68750000D01*
X121350000Y-68200000D01*
X121900000Y-68200000D01*
X122100000Y-68000000D01*
X122300000Y-68200000D01*
G36*
X122300000Y-68200000D02*
G01*
X122850000Y-68200000D01*
X122750000Y-68300000D01*
X122300000Y-68300000D01*
X122100000Y-68100000D01*
X121900000Y-68300000D01*
X121450000Y-68300000D01*
X121450000Y-68750000D01*
X121250000Y-68950000D01*
X121450000Y-69150000D01*
X121450000Y-69600000D01*
X121350000Y-69700000D01*
X121350000Y-69150000D01*
X121150000Y-68950000D01*
X121350000Y-68750000D01*
X121350000Y-68200000D01*
X121900000Y-68200000D01*
X122100000Y-68000000D01*
X122300000Y-68200000D01*
G37*
X114750000Y-68800000D02*
X115100000Y-68800000D01*
X114950000Y-68900000D01*
X114650000Y-68900000D01*
X114650000Y-68600000D01*
X114750000Y-68450000D01*
X114750000Y-68800000D01*
G36*
X114750000Y-68800000D02*
G01*
X115100000Y-68800000D01*
X114950000Y-68900000D01*
X114650000Y-68900000D01*
X114650000Y-68600000D01*
X114750000Y-68450000D01*
X114750000Y-68800000D01*
G37*
X115350000Y-68750000D02*
X115550000Y-68950000D01*
X115350000Y-69150000D01*
X115350000Y-69700000D01*
X114800000Y-69700000D01*
X114600000Y-69890000D01*
X114400000Y-69700000D01*
X113850000Y-69700000D01*
X113950000Y-69600000D01*
X114400000Y-69600000D01*
X114600000Y-69800000D01*
X114800000Y-69600000D01*
X115250000Y-69600000D01*
X115250000Y-69150000D01*
X115450000Y-68950000D01*
X115250000Y-68750000D01*
X115250000Y-68300000D01*
X115350000Y-68200000D01*
X115350000Y-68750000D01*
G36*
X115350000Y-68750000D02*
G01*
X115550000Y-68950000D01*
X115350000Y-69150000D01*
X115350000Y-69700000D01*
X114800000Y-69700000D01*
X114600000Y-69890000D01*
X114400000Y-69700000D01*
X113850000Y-69700000D01*
X113950000Y-69600000D01*
X114400000Y-69600000D01*
X114600000Y-69800000D01*
X114800000Y-69600000D01*
X115250000Y-69600000D01*
X115250000Y-69150000D01*
X115450000Y-68950000D01*
X115250000Y-68750000D01*
X115250000Y-68300000D01*
X115350000Y-68200000D01*
X115350000Y-68750000D01*
G37*
X114800000Y-68200000D02*
X115350000Y-68200000D01*
X115250000Y-68300000D01*
X114800000Y-68300000D01*
X114600000Y-68100000D01*
X114400000Y-68300000D01*
X113950000Y-68300000D01*
X113950000Y-68750000D01*
X113750000Y-68950000D01*
X113950000Y-69150000D01*
X113950000Y-69600000D01*
X113850000Y-69700000D01*
X113850000Y-69150000D01*
X113650000Y-68950000D01*
X113850000Y-68750000D01*
X113850000Y-68200000D01*
X114400000Y-68200000D01*
X114600000Y-68000000D01*
X114800000Y-68200000D01*
G36*
X114800000Y-68200000D02*
G01*
X115350000Y-68200000D01*
X115250000Y-68300000D01*
X114800000Y-68300000D01*
X114600000Y-68100000D01*
X114400000Y-68300000D01*
X113950000Y-68300000D01*
X113950000Y-68750000D01*
X113750000Y-68950000D01*
X113950000Y-69150000D01*
X113950000Y-69600000D01*
X113850000Y-69700000D01*
X113850000Y-69150000D01*
X113650000Y-68950000D01*
X113850000Y-68750000D01*
X113850000Y-68200000D01*
X114400000Y-68200000D01*
X114600000Y-68000000D01*
X114800000Y-68200000D01*
G37*
X117600000Y-59100000D02*
X117250000Y-59100000D01*
X117250000Y-59450000D01*
X117150000Y-59300000D01*
X117150000Y-59000000D01*
X117450000Y-59000000D01*
X117600000Y-59100000D01*
G36*
X117600000Y-59100000D02*
G01*
X117250000Y-59100000D01*
X117250000Y-59450000D01*
X117150000Y-59300000D01*
X117150000Y-59000000D01*
X117450000Y-59000000D01*
X117600000Y-59100000D01*
G37*
X116450000Y-58300000D02*
X116450000Y-58750000D01*
X116250000Y-58950000D01*
X116450000Y-59150000D01*
X116450000Y-59600000D01*
X116900000Y-59600000D01*
X117100000Y-59800000D01*
X117300000Y-59600000D01*
X117750000Y-59600000D01*
X117850000Y-59700000D01*
X117300000Y-59700000D01*
X117100000Y-59900000D01*
X116900000Y-59700000D01*
X116350000Y-59700000D01*
X116350000Y-59150000D01*
X116160000Y-58950000D01*
X116350000Y-58750000D01*
X116350000Y-58200000D01*
X116450000Y-58300000D01*
G36*
X116450000Y-58300000D02*
G01*
X116450000Y-58750000D01*
X116250000Y-58950000D01*
X116450000Y-59150000D01*
X116450000Y-59600000D01*
X116900000Y-59600000D01*
X117100000Y-59800000D01*
X117300000Y-59600000D01*
X117750000Y-59600000D01*
X117850000Y-59700000D01*
X117300000Y-59700000D01*
X117100000Y-59900000D01*
X116900000Y-59700000D01*
X116350000Y-59700000D01*
X116350000Y-59150000D01*
X116160000Y-58950000D01*
X116350000Y-58750000D01*
X116350000Y-58200000D01*
X116450000Y-58300000D01*
G37*
X117300000Y-58200000D02*
X117850000Y-58200000D01*
X117850000Y-58750000D01*
X118050000Y-58950000D01*
X117850000Y-59150000D01*
X117850000Y-59700000D01*
X117750000Y-59600000D01*
X117750000Y-59150000D01*
X117950000Y-58950000D01*
X117750000Y-58750000D01*
X117750000Y-58300000D01*
X117300000Y-58300000D01*
X117100000Y-58100000D01*
X116900000Y-58300000D01*
X116450000Y-58300000D01*
X116350000Y-58200000D01*
X116900000Y-58200000D01*
X117100000Y-58000000D01*
X117300000Y-58200000D01*
G36*
X117300000Y-58200000D02*
G01*
X117850000Y-58200000D01*
X117850000Y-58750000D01*
X118050000Y-58950000D01*
X117850000Y-59150000D01*
X117850000Y-59700000D01*
X117750000Y-59600000D01*
X117750000Y-59150000D01*
X117950000Y-58950000D01*
X117750000Y-58750000D01*
X117750000Y-58300000D01*
X117300000Y-58300000D01*
X117100000Y-58100000D01*
X116900000Y-58300000D01*
X116450000Y-58300000D01*
X116350000Y-58200000D01*
X116900000Y-58200000D01*
X117100000Y-58000000D01*
X117300000Y-58200000D01*
G37*
X122600000Y-64100000D02*
X122250000Y-64100000D01*
X122250000Y-64450000D01*
X122150000Y-64300000D01*
X122150000Y-64000000D01*
X122450000Y-64000000D01*
X122600000Y-64100000D01*
G36*
X122600000Y-64100000D02*
G01*
X122250000Y-64100000D01*
X122250000Y-64450000D01*
X122150000Y-64300000D01*
X122150000Y-64000000D01*
X122450000Y-64000000D01*
X122600000Y-64100000D01*
G37*
X121450000Y-63300000D02*
X121450000Y-63750000D01*
X121250000Y-63950000D01*
X121450000Y-64150000D01*
X121450000Y-64600000D01*
X121900000Y-64600000D01*
X122100000Y-64800000D01*
X122300000Y-64600000D01*
X122750000Y-64600000D01*
X122850000Y-64700000D01*
X122300000Y-64700000D01*
X122100000Y-64900000D01*
X121900000Y-64700000D01*
X121350000Y-64700000D01*
X121350000Y-64150000D01*
X121160000Y-63950000D01*
X121350000Y-63750000D01*
X121350000Y-63200000D01*
X121450000Y-63300000D01*
G36*
X121450000Y-63300000D02*
G01*
X121450000Y-63750000D01*
X121250000Y-63950000D01*
X121450000Y-64150000D01*
X121450000Y-64600000D01*
X121900000Y-64600000D01*
X122100000Y-64800000D01*
X122300000Y-64600000D01*
X122750000Y-64600000D01*
X122850000Y-64700000D01*
X122300000Y-64700000D01*
X122100000Y-64900000D01*
X121900000Y-64700000D01*
X121350000Y-64700000D01*
X121350000Y-64150000D01*
X121160000Y-63950000D01*
X121350000Y-63750000D01*
X121350000Y-63200000D01*
X121450000Y-63300000D01*
G37*
X122300000Y-63200000D02*
X122850000Y-63200000D01*
X122850000Y-63750000D01*
X123050000Y-63950000D01*
X122850000Y-64150000D01*
X122850000Y-64700000D01*
X122750000Y-64600000D01*
X122750000Y-64150000D01*
X122950000Y-63950000D01*
X122750000Y-63750000D01*
X122750000Y-63300000D01*
X122300000Y-63300000D01*
X122100000Y-63100000D01*
X121900000Y-63300000D01*
X121450000Y-63300000D01*
X121350000Y-63200000D01*
X121900000Y-63200000D01*
X122100000Y-63000000D01*
X122300000Y-63200000D01*
G36*
X122300000Y-63200000D02*
G01*
X122850000Y-63200000D01*
X122850000Y-63750000D01*
X123050000Y-63950000D01*
X122850000Y-64150000D01*
X122850000Y-64700000D01*
X122750000Y-64600000D01*
X122750000Y-64150000D01*
X122950000Y-63950000D01*
X122750000Y-63750000D01*
X122750000Y-63300000D01*
X122300000Y-63300000D01*
X122100000Y-63100000D01*
X121900000Y-63300000D01*
X121450000Y-63300000D01*
X121350000Y-63200000D01*
X121900000Y-63200000D01*
X122100000Y-63000000D01*
X122300000Y-63200000D01*
G37*
X114750000Y-51300000D02*
X115100000Y-51300000D01*
X114950000Y-51400000D01*
X114650000Y-51400000D01*
X114650000Y-51100000D01*
X114750000Y-50950000D01*
X114750000Y-51300000D01*
G36*
X114750000Y-51300000D02*
G01*
X115100000Y-51300000D01*
X114950000Y-51400000D01*
X114650000Y-51400000D01*
X114650000Y-51100000D01*
X114750000Y-50950000D01*
X114750000Y-51300000D01*
G37*
X115350000Y-51250000D02*
X115550000Y-51450000D01*
X115350000Y-51650000D01*
X115350000Y-52200000D01*
X114800000Y-52200000D01*
X114600000Y-52390000D01*
X114400000Y-52200000D01*
X113850000Y-52200000D01*
X113950000Y-52100000D01*
X114400000Y-52100000D01*
X114600000Y-52300000D01*
X114800000Y-52100000D01*
X115250000Y-52100000D01*
X115250000Y-51650000D01*
X115450000Y-51450000D01*
X115250000Y-51250000D01*
X115250000Y-50800000D01*
X115350000Y-50700000D01*
X115350000Y-51250000D01*
G36*
X115350000Y-51250000D02*
G01*
X115550000Y-51450000D01*
X115350000Y-51650000D01*
X115350000Y-52200000D01*
X114800000Y-52200000D01*
X114600000Y-52390000D01*
X114400000Y-52200000D01*
X113850000Y-52200000D01*
X113950000Y-52100000D01*
X114400000Y-52100000D01*
X114600000Y-52300000D01*
X114800000Y-52100000D01*
X115250000Y-52100000D01*
X115250000Y-51650000D01*
X115450000Y-51450000D01*
X115250000Y-51250000D01*
X115250000Y-50800000D01*
X115350000Y-50700000D01*
X115350000Y-51250000D01*
G37*
X114800000Y-50700000D02*
X115350000Y-50700000D01*
X115250000Y-50800000D01*
X114800000Y-50800000D01*
X114600000Y-50600000D01*
X114400000Y-50800000D01*
X113950000Y-50800000D01*
X113950000Y-51250000D01*
X113750000Y-51450000D01*
X113950000Y-51650000D01*
X113950000Y-52100000D01*
X113850000Y-52200000D01*
X113850000Y-51650000D01*
X113650000Y-51450000D01*
X113850000Y-51250000D01*
X113850000Y-50700000D01*
X114400000Y-50700000D01*
X114600000Y-50500000D01*
X114800000Y-50700000D01*
G36*
X114800000Y-50700000D02*
G01*
X115350000Y-50700000D01*
X115250000Y-50800000D01*
X114800000Y-50800000D01*
X114600000Y-50600000D01*
X114400000Y-50800000D01*
X113950000Y-50800000D01*
X113950000Y-51250000D01*
X113750000Y-51450000D01*
X113950000Y-51650000D01*
X113950000Y-52100000D01*
X113850000Y-52200000D01*
X113850000Y-51650000D01*
X113650000Y-51450000D01*
X113850000Y-51250000D01*
X113850000Y-50700000D01*
X114400000Y-50700000D01*
X114600000Y-50500000D01*
X114800000Y-50700000D01*
G37*
X122600000Y-61600000D02*
X122250000Y-61600000D01*
X122250000Y-61950000D01*
X122150000Y-61800000D01*
X122150000Y-61500000D01*
X122450000Y-61500000D01*
X122600000Y-61600000D01*
G36*
X122600000Y-61600000D02*
G01*
X122250000Y-61600000D01*
X122250000Y-61950000D01*
X122150000Y-61800000D01*
X122150000Y-61500000D01*
X122450000Y-61500000D01*
X122600000Y-61600000D01*
G37*
X121450000Y-60800000D02*
X121450000Y-61250000D01*
X121250000Y-61450000D01*
X121450000Y-61650000D01*
X121450000Y-62100000D01*
X121900000Y-62100000D01*
X122100000Y-62300000D01*
X122300000Y-62100000D01*
X122750000Y-62100000D01*
X122850000Y-62200000D01*
X122300000Y-62200000D01*
X122100000Y-62400000D01*
X121900000Y-62200000D01*
X121350000Y-62200000D01*
X121350000Y-61650000D01*
X121160000Y-61450000D01*
X121350000Y-61250000D01*
X121350000Y-60700000D01*
X121450000Y-60800000D01*
G36*
X121450000Y-60800000D02*
G01*
X121450000Y-61250000D01*
X121250000Y-61450000D01*
X121450000Y-61650000D01*
X121450000Y-62100000D01*
X121900000Y-62100000D01*
X122100000Y-62300000D01*
X122300000Y-62100000D01*
X122750000Y-62100000D01*
X122850000Y-62200000D01*
X122300000Y-62200000D01*
X122100000Y-62400000D01*
X121900000Y-62200000D01*
X121350000Y-62200000D01*
X121350000Y-61650000D01*
X121160000Y-61450000D01*
X121350000Y-61250000D01*
X121350000Y-60700000D01*
X121450000Y-60800000D01*
G37*
X122300000Y-60700000D02*
X122850000Y-60700000D01*
X122850000Y-61250000D01*
X123050000Y-61450000D01*
X122850000Y-61650000D01*
X122850000Y-62200000D01*
X122750000Y-62100000D01*
X122750000Y-61650000D01*
X122950000Y-61450000D01*
X122750000Y-61250000D01*
X122750000Y-60800000D01*
X122300000Y-60800000D01*
X122100000Y-60600000D01*
X121900000Y-60800000D01*
X121450000Y-60800000D01*
X121350000Y-60700000D01*
X121900000Y-60700000D01*
X122100000Y-60500000D01*
X122300000Y-60700000D01*
G36*
X122300000Y-60700000D02*
G01*
X122850000Y-60700000D01*
X122850000Y-61250000D01*
X123050000Y-61450000D01*
X122850000Y-61650000D01*
X122850000Y-62200000D01*
X122750000Y-62100000D01*
X122750000Y-61650000D01*
X122950000Y-61450000D01*
X122750000Y-61250000D01*
X122750000Y-60800000D01*
X122300000Y-60800000D01*
X122100000Y-60600000D01*
X121900000Y-60800000D01*
X121450000Y-60800000D01*
X121350000Y-60700000D01*
X121900000Y-60700000D01*
X122100000Y-60500000D01*
X122300000Y-60700000D01*
G37*
X115100000Y-66600000D02*
X114750000Y-66600000D01*
X114750000Y-66950000D01*
X114650000Y-66800000D01*
X114650000Y-66500000D01*
X114950000Y-66500000D01*
X115100000Y-66600000D01*
G36*
X115100000Y-66600000D02*
G01*
X114750000Y-66600000D01*
X114750000Y-66950000D01*
X114650000Y-66800000D01*
X114650000Y-66500000D01*
X114950000Y-66500000D01*
X115100000Y-66600000D01*
G37*
X113950000Y-65800000D02*
X113950000Y-66250000D01*
X113750000Y-66450000D01*
X113950000Y-66650000D01*
X113950000Y-67100000D01*
X114400000Y-67100000D01*
X114600000Y-67300000D01*
X114800000Y-67100000D01*
X115250000Y-67100000D01*
X115350000Y-67200000D01*
X114800000Y-67200000D01*
X114600000Y-67400000D01*
X114400000Y-67200000D01*
X113850000Y-67200000D01*
X113850000Y-66650000D01*
X113660000Y-66450000D01*
X113850000Y-66250000D01*
X113850000Y-65700000D01*
X113950000Y-65800000D01*
G36*
X113950000Y-65800000D02*
G01*
X113950000Y-66250000D01*
X113750000Y-66450000D01*
X113950000Y-66650000D01*
X113950000Y-67100000D01*
X114400000Y-67100000D01*
X114600000Y-67300000D01*
X114800000Y-67100000D01*
X115250000Y-67100000D01*
X115350000Y-67200000D01*
X114800000Y-67200000D01*
X114600000Y-67400000D01*
X114400000Y-67200000D01*
X113850000Y-67200000D01*
X113850000Y-66650000D01*
X113660000Y-66450000D01*
X113850000Y-66250000D01*
X113850000Y-65700000D01*
X113950000Y-65800000D01*
G37*
X114800000Y-65700000D02*
X115350000Y-65700000D01*
X115350000Y-66250000D01*
X115550000Y-66450000D01*
X115350000Y-66650000D01*
X115350000Y-67200000D01*
X115250000Y-67100000D01*
X115250000Y-66650000D01*
X115450000Y-66450000D01*
X115250000Y-66250000D01*
X115250000Y-65800000D01*
X114800000Y-65800000D01*
X114600000Y-65600000D01*
X114400000Y-65800000D01*
X113950000Y-65800000D01*
X113850000Y-65700000D01*
X114400000Y-65700000D01*
X114600000Y-65500000D01*
X114800000Y-65700000D01*
G36*
X114800000Y-65700000D02*
G01*
X115350000Y-65700000D01*
X115350000Y-66250000D01*
X115550000Y-66450000D01*
X115350000Y-66650000D01*
X115350000Y-67200000D01*
X115250000Y-67100000D01*
X115250000Y-66650000D01*
X115450000Y-66450000D01*
X115250000Y-66250000D01*
X115250000Y-65800000D01*
X114800000Y-65800000D01*
X114600000Y-65600000D01*
X114400000Y-65800000D01*
X113950000Y-65800000D01*
X113850000Y-65700000D01*
X114400000Y-65700000D01*
X114600000Y-65500000D01*
X114800000Y-65700000D01*
G37*
X115100000Y-54100000D02*
X114750000Y-54100000D01*
X114750000Y-54450000D01*
X114650000Y-54300000D01*
X114650000Y-54000000D01*
X114950000Y-54000000D01*
X115100000Y-54100000D01*
G36*
X115100000Y-54100000D02*
G01*
X114750000Y-54100000D01*
X114750000Y-54450000D01*
X114650000Y-54300000D01*
X114650000Y-54000000D01*
X114950000Y-54000000D01*
X115100000Y-54100000D01*
G37*
X113950000Y-53300000D02*
X113950000Y-53750000D01*
X113750000Y-53950000D01*
X113950000Y-54150000D01*
X113950000Y-54600000D01*
X114400000Y-54600000D01*
X114600000Y-54800000D01*
X114800000Y-54600000D01*
X115250000Y-54600000D01*
X115350000Y-54700000D01*
X114800000Y-54700000D01*
X114600000Y-54900000D01*
X114400000Y-54700000D01*
X113850000Y-54700000D01*
X113850000Y-54150000D01*
X113660000Y-53950000D01*
X113850000Y-53750000D01*
X113850000Y-53200000D01*
X113950000Y-53300000D01*
G36*
X113950000Y-53300000D02*
G01*
X113950000Y-53750000D01*
X113750000Y-53950000D01*
X113950000Y-54150000D01*
X113950000Y-54600000D01*
X114400000Y-54600000D01*
X114600000Y-54800000D01*
X114800000Y-54600000D01*
X115250000Y-54600000D01*
X115350000Y-54700000D01*
X114800000Y-54700000D01*
X114600000Y-54900000D01*
X114400000Y-54700000D01*
X113850000Y-54700000D01*
X113850000Y-54150000D01*
X113660000Y-53950000D01*
X113850000Y-53750000D01*
X113850000Y-53200000D01*
X113950000Y-53300000D01*
G37*
X114800000Y-53200000D02*
X115350000Y-53200000D01*
X115350000Y-53750000D01*
X115550000Y-53950000D01*
X115350000Y-54150000D01*
X115350000Y-54700000D01*
X115250000Y-54600000D01*
X115250000Y-54150000D01*
X115450000Y-53950000D01*
X115250000Y-53750000D01*
X115250000Y-53300000D01*
X114800000Y-53300000D01*
X114600000Y-53100000D01*
X114400000Y-53300000D01*
X113950000Y-53300000D01*
X113850000Y-53200000D01*
X114400000Y-53200000D01*
X114600000Y-53000000D01*
X114800000Y-53200000D01*
G36*
X114800000Y-53200000D02*
G01*
X115350000Y-53200000D01*
X115350000Y-53750000D01*
X115550000Y-53950000D01*
X115350000Y-54150000D01*
X115350000Y-54700000D01*
X115250000Y-54600000D01*
X115250000Y-54150000D01*
X115450000Y-53950000D01*
X115250000Y-53750000D01*
X115250000Y-53300000D01*
X114800000Y-53300000D01*
X114600000Y-53100000D01*
X114400000Y-53300000D01*
X113950000Y-53300000D01*
X113850000Y-53200000D01*
X114400000Y-53200000D01*
X114600000Y-53000000D01*
X114800000Y-53200000D01*
G37*
X127600000Y-54100000D02*
X127250000Y-54100000D01*
X127250000Y-54450000D01*
X127150000Y-54300000D01*
X127150000Y-54000000D01*
X127450000Y-54000000D01*
X127600000Y-54100000D01*
G36*
X127600000Y-54100000D02*
G01*
X127250000Y-54100000D01*
X127250000Y-54450000D01*
X127150000Y-54300000D01*
X127150000Y-54000000D01*
X127450000Y-54000000D01*
X127600000Y-54100000D01*
G37*
X126450000Y-53300000D02*
X126450000Y-53750000D01*
X126250000Y-53950000D01*
X126450000Y-54150000D01*
X126450000Y-54600000D01*
X126900000Y-54600000D01*
X127100000Y-54800000D01*
X127300000Y-54600000D01*
X127750000Y-54600000D01*
X127850000Y-54700000D01*
X127300000Y-54700000D01*
X127100000Y-54900000D01*
X126900000Y-54700000D01*
X126350000Y-54700000D01*
X126350000Y-54150000D01*
X126160000Y-53950000D01*
X126350000Y-53750000D01*
X126350000Y-53200000D01*
X126450000Y-53300000D01*
G36*
X126450000Y-53300000D02*
G01*
X126450000Y-53750000D01*
X126250000Y-53950000D01*
X126450000Y-54150000D01*
X126450000Y-54600000D01*
X126900000Y-54600000D01*
X127100000Y-54800000D01*
X127300000Y-54600000D01*
X127750000Y-54600000D01*
X127850000Y-54700000D01*
X127300000Y-54700000D01*
X127100000Y-54900000D01*
X126900000Y-54700000D01*
X126350000Y-54700000D01*
X126350000Y-54150000D01*
X126160000Y-53950000D01*
X126350000Y-53750000D01*
X126350000Y-53200000D01*
X126450000Y-53300000D01*
G37*
X127300000Y-53200000D02*
X127850000Y-53200000D01*
X127850000Y-53750000D01*
X128050000Y-53950000D01*
X127850000Y-54150000D01*
X127850000Y-54700000D01*
X127750000Y-54600000D01*
X127750000Y-54150000D01*
X127950000Y-53950000D01*
X127750000Y-53750000D01*
X127750000Y-53300000D01*
X127300000Y-53300000D01*
X127100000Y-53100000D01*
X126900000Y-53300000D01*
X126450000Y-53300000D01*
X126350000Y-53200000D01*
X126900000Y-53200000D01*
X127100000Y-53000000D01*
X127300000Y-53200000D01*
G36*
X127300000Y-53200000D02*
G01*
X127850000Y-53200000D01*
X127850000Y-53750000D01*
X128050000Y-53950000D01*
X127850000Y-54150000D01*
X127850000Y-54700000D01*
X127750000Y-54600000D01*
X127750000Y-54150000D01*
X127950000Y-53950000D01*
X127750000Y-53750000D01*
X127750000Y-53300000D01*
X127300000Y-53300000D01*
X127100000Y-53100000D01*
X126900000Y-53300000D01*
X126450000Y-53300000D01*
X126350000Y-53200000D01*
X126900000Y-53200000D01*
X127100000Y-53000000D01*
X127300000Y-53200000D01*
G37*
X110100000Y-64100000D02*
X109750000Y-64100000D01*
X109750000Y-64450000D01*
X109650000Y-64300000D01*
X109650000Y-64000000D01*
X109950000Y-64000000D01*
X110100000Y-64100000D01*
G36*
X110100000Y-64100000D02*
G01*
X109750000Y-64100000D01*
X109750000Y-64450000D01*
X109650000Y-64300000D01*
X109650000Y-64000000D01*
X109950000Y-64000000D01*
X110100000Y-64100000D01*
G37*
X108950000Y-63300000D02*
X108950000Y-63750000D01*
X108750000Y-63950000D01*
X108950000Y-64150000D01*
X108950000Y-64600000D01*
X109400000Y-64600000D01*
X109600000Y-64800000D01*
X109800000Y-64600000D01*
X110250000Y-64600000D01*
X110350000Y-64700000D01*
X109800000Y-64700000D01*
X109600000Y-64900000D01*
X109400000Y-64700000D01*
X108850000Y-64700000D01*
X108850000Y-64150000D01*
X108660000Y-63950000D01*
X108850000Y-63750000D01*
X108850000Y-63200000D01*
X108950000Y-63300000D01*
G36*
X108950000Y-63300000D02*
G01*
X108950000Y-63750000D01*
X108750000Y-63950000D01*
X108950000Y-64150000D01*
X108950000Y-64600000D01*
X109400000Y-64600000D01*
X109600000Y-64800000D01*
X109800000Y-64600000D01*
X110250000Y-64600000D01*
X110350000Y-64700000D01*
X109800000Y-64700000D01*
X109600000Y-64900000D01*
X109400000Y-64700000D01*
X108850000Y-64700000D01*
X108850000Y-64150000D01*
X108660000Y-63950000D01*
X108850000Y-63750000D01*
X108850000Y-63200000D01*
X108950000Y-63300000D01*
G37*
X109800000Y-63200000D02*
X110350000Y-63200000D01*
X110350000Y-63750000D01*
X110550000Y-63950000D01*
X110350000Y-64150000D01*
X110350000Y-64700000D01*
X110250000Y-64600000D01*
X110250000Y-64150000D01*
X110450000Y-63950000D01*
X110250000Y-63750000D01*
X110250000Y-63300000D01*
X109800000Y-63300000D01*
X109600000Y-63100000D01*
X109400000Y-63300000D01*
X108950000Y-63300000D01*
X108850000Y-63200000D01*
X109400000Y-63200000D01*
X109600000Y-63000000D01*
X109800000Y-63200000D01*
G36*
X109800000Y-63200000D02*
G01*
X110350000Y-63200000D01*
X110350000Y-63750000D01*
X110550000Y-63950000D01*
X110350000Y-64150000D01*
X110350000Y-64700000D01*
X110250000Y-64600000D01*
X110250000Y-64150000D01*
X110450000Y-63950000D01*
X110250000Y-63750000D01*
X110250000Y-63300000D01*
X109800000Y-63300000D01*
X109600000Y-63100000D01*
X109400000Y-63300000D01*
X108950000Y-63300000D01*
X108850000Y-63200000D01*
X109400000Y-63200000D01*
X109600000Y-63000000D01*
X109800000Y-63200000D01*
G37*
X127600000Y-59100000D02*
X127250000Y-59100000D01*
X127250000Y-59450000D01*
X127150000Y-59300000D01*
X127150000Y-59000000D01*
X127450000Y-59000000D01*
X127600000Y-59100000D01*
G36*
X127600000Y-59100000D02*
G01*
X127250000Y-59100000D01*
X127250000Y-59450000D01*
X127150000Y-59300000D01*
X127150000Y-59000000D01*
X127450000Y-59000000D01*
X127600000Y-59100000D01*
G37*
X126450000Y-58300000D02*
X126450000Y-58750000D01*
X126250000Y-58950000D01*
X126450000Y-59150000D01*
X126450000Y-59600000D01*
X126900000Y-59600000D01*
X127100000Y-59800000D01*
X127300000Y-59600000D01*
X127750000Y-59600000D01*
X127850000Y-59700000D01*
X127300000Y-59700000D01*
X127100000Y-59900000D01*
X126900000Y-59700000D01*
X126350000Y-59700000D01*
X126350000Y-59150000D01*
X126160000Y-58950000D01*
X126350000Y-58750000D01*
X126350000Y-58200000D01*
X126450000Y-58300000D01*
G36*
X126450000Y-58300000D02*
G01*
X126450000Y-58750000D01*
X126250000Y-58950000D01*
X126450000Y-59150000D01*
X126450000Y-59600000D01*
X126900000Y-59600000D01*
X127100000Y-59800000D01*
X127300000Y-59600000D01*
X127750000Y-59600000D01*
X127850000Y-59700000D01*
X127300000Y-59700000D01*
X127100000Y-59900000D01*
X126900000Y-59700000D01*
X126350000Y-59700000D01*
X126350000Y-59150000D01*
X126160000Y-58950000D01*
X126350000Y-58750000D01*
X126350000Y-58200000D01*
X126450000Y-58300000D01*
G37*
X127300000Y-58200000D02*
X127850000Y-58200000D01*
X127850000Y-58750000D01*
X128050000Y-58950000D01*
X127850000Y-59150000D01*
X127850000Y-59700000D01*
X127750000Y-59600000D01*
X127750000Y-59150000D01*
X127950000Y-58950000D01*
X127750000Y-58750000D01*
X127750000Y-58300000D01*
X127300000Y-58300000D01*
X127100000Y-58100000D01*
X126900000Y-58300000D01*
X126450000Y-58300000D01*
X126350000Y-58200000D01*
X126900000Y-58200000D01*
X127100000Y-58000000D01*
X127300000Y-58200000D01*
G36*
X127300000Y-58200000D02*
G01*
X127850000Y-58200000D01*
X127850000Y-58750000D01*
X128050000Y-58950000D01*
X127850000Y-59150000D01*
X127850000Y-59700000D01*
X127750000Y-59600000D01*
X127750000Y-59150000D01*
X127950000Y-58950000D01*
X127750000Y-58750000D01*
X127750000Y-58300000D01*
X127300000Y-58300000D01*
X127100000Y-58100000D01*
X126900000Y-58300000D01*
X126450000Y-58300000D01*
X126350000Y-58200000D01*
X126900000Y-58200000D01*
X127100000Y-58000000D01*
X127300000Y-58200000D01*
G37*
%LPC*%
D12*
X120025000Y-69375000D03*
X119175000Y-69375000D03*
X120025000Y-68525000D03*
X119175000Y-68525000D03*
X111675000Y-64375000D03*
X111675000Y-63525000D03*
X112525000Y-64375000D03*
X112525000Y-63525000D03*
X117525000Y-69375000D03*
X116675000Y-69375000D03*
X117525000Y-68525000D03*
X116675000Y-68525000D03*
X121675000Y-56875000D03*
X121675000Y-56025000D03*
X122525000Y-56875000D03*
X122525000Y-56025000D03*
X111675000Y-54375000D03*
X111675000Y-53525000D03*
X112525000Y-54375000D03*
X112525000Y-53525000D03*
X110025000Y-69375000D03*
X109175000Y-69375000D03*
X110025000Y-68525000D03*
X109175000Y-68525000D03*
X119175000Y-54375000D03*
X119175000Y-53525000D03*
X120025000Y-54375000D03*
X120025000Y-53525000D03*
X109175000Y-66875000D03*
X109175000Y-66025000D03*
X110025000Y-66875000D03*
X110025000Y-66025000D03*
X111675000Y-59375000D03*
X111675000Y-58525000D03*
X112525000Y-59375000D03*
X112525000Y-58525000D03*
X114175000Y-59375000D03*
X114175000Y-58525000D03*
X115025000Y-59375000D03*
X115025000Y-58525000D03*
X116675000Y-66875000D03*
X116675000Y-66025000D03*
X117525000Y-66875000D03*
X117525000Y-66025000D03*
X124175000Y-54375000D03*
X124175000Y-53525000D03*
X125025000Y-54375000D03*
X125025000Y-53525000D03*
X125025000Y-69375000D03*
X124175000Y-69375000D03*
X125025000Y-68525000D03*
X124175000Y-68525000D03*
X116675000Y-56875000D03*
X116675000Y-56025000D03*
X117525000Y-56875000D03*
X117525000Y-56025000D03*
X121675000Y-59375000D03*
X121675000Y-58525000D03*
X122525000Y-59375000D03*
X122525000Y-58525000D03*
X119175000Y-66875000D03*
X119175000Y-66025000D03*
X120025000Y-66875000D03*
X120025000Y-66025000D03*
X117525000Y-51875000D03*
X116675000Y-51875000D03*
X117525000Y-51025000D03*
X116675000Y-51025000D03*
X112525000Y-51875000D03*
X111675000Y-51875000D03*
X112525000Y-51025000D03*
X111675000Y-51025000D03*
X111675000Y-66875000D03*
X111675000Y-66025000D03*
X112525000Y-66875000D03*
X112525000Y-66025000D03*
X120025000Y-51875000D03*
X119175000Y-51875000D03*
X120025000Y-51025000D03*
X119175000Y-51025000D03*
X114175000Y-56875000D03*
X114175000Y-56025000D03*
X115025000Y-56875000D03*
X115025000Y-56025000D03*
X119175000Y-56875000D03*
X119175000Y-56025000D03*
X120025000Y-56875000D03*
X120025000Y-56025000D03*
X119175000Y-61875000D03*
X119175000Y-61025000D03*
X120025000Y-61875000D03*
X120025000Y-61025000D03*
X124175000Y-61875000D03*
X124175000Y-61025000D03*
X125025000Y-61875000D03*
X125025000Y-61025000D03*
X110025000Y-51875000D03*
X109175000Y-51875000D03*
X110025000Y-51025000D03*
X109175000Y-51025000D03*
X126675000Y-56875000D03*
X126675000Y-56025000D03*
X127525000Y-56875000D03*
X127525000Y-56025000D03*
X119175000Y-59375000D03*
X119175000Y-58525000D03*
X120025000Y-59375000D03*
X120025000Y-58525000D03*
X127525000Y-69375000D03*
X126675000Y-69375000D03*
X127525000Y-68525000D03*
X126675000Y-68525000D03*
X111675000Y-61875000D03*
X111675000Y-61025000D03*
X112525000Y-61875000D03*
X112525000Y-61025000D03*
X122525000Y-51875000D03*
X121675000Y-51875000D03*
X122525000Y-51025000D03*
X121675000Y-51025000D03*
X121675000Y-66875000D03*
X121675000Y-66025000D03*
X122525000Y-66875000D03*
X122525000Y-66025000D03*
X119175000Y-64375000D03*
X119175000Y-63525000D03*
X120025000Y-64375000D03*
X120025000Y-63525000D03*
X116675000Y-64375000D03*
X116675000Y-63525000D03*
X117525000Y-64375000D03*
X117525000Y-63525000D03*
X111675000Y-56875000D03*
X111675000Y-56025000D03*
X112525000Y-56875000D03*
X112525000Y-56025000D03*
X126675000Y-66875000D03*
X126675000Y-66025000D03*
X127525000Y-66875000D03*
X127525000Y-66025000D03*
X109175000Y-61875000D03*
X109175000Y-61025000D03*
X110025000Y-61875000D03*
X110025000Y-61025000D03*
X114175000Y-64375000D03*
X114175000Y-63525000D03*
X115025000Y-64375000D03*
X115025000Y-63525000D03*
X124175000Y-56875000D03*
X124175000Y-56025000D03*
X125025000Y-56875000D03*
X125025000Y-56025000D03*
X126675000Y-61875000D03*
X126675000Y-61025000D03*
X127525000Y-61875000D03*
X127525000Y-61025000D03*
X116675000Y-61875000D03*
X116675000Y-61025000D03*
X117525000Y-61875000D03*
X117525000Y-61025000D03*
X124175000Y-59375000D03*
X124175000Y-58525000D03*
X125025000Y-59375000D03*
X125025000Y-58525000D03*
X114175000Y-61875000D03*
X114175000Y-61025000D03*
X115025000Y-61875000D03*
X115025000Y-61025000D03*
X124175000Y-66875000D03*
X124175000Y-66025000D03*
X125025000Y-66875000D03*
X125025000Y-66025000D03*
X124175000Y-64375000D03*
X124175000Y-63525000D03*
X125025000Y-64375000D03*
X125025000Y-63525000D03*
X109175000Y-54375000D03*
X109175000Y-53525000D03*
X110025000Y-54375000D03*
X110025000Y-53525000D03*
X116675000Y-54375000D03*
X116675000Y-53525000D03*
X117525000Y-54375000D03*
X117525000Y-53525000D03*
X125025000Y-51875000D03*
X124175000Y-51875000D03*
X125025000Y-51025000D03*
X124175000Y-51025000D03*
X109175000Y-59375000D03*
X109175000Y-58525000D03*
X110025000Y-59375000D03*
X110025000Y-58525000D03*
X126675000Y-64375000D03*
X126675000Y-63525000D03*
X127525000Y-64375000D03*
X127525000Y-63525000D03*
X109175000Y-56875000D03*
X109175000Y-56025000D03*
X110025000Y-56875000D03*
X110025000Y-56025000D03*
X121675000Y-54375000D03*
X121675000Y-53525000D03*
X122525000Y-54375000D03*
X122525000Y-53525000D03*
X127525000Y-51875000D03*
X126675000Y-51875000D03*
X127525000Y-51025000D03*
X126675000Y-51025000D03*
X112525000Y-69375000D03*
X111675000Y-69375000D03*
X112525000Y-68525000D03*
X111675000Y-68525000D03*
X122525000Y-69375000D03*
X121675000Y-69375000D03*
X122525000Y-68525000D03*
X121675000Y-68525000D03*
X115025000Y-69375000D03*
X114175000Y-69375000D03*
X115025000Y-68525000D03*
X114175000Y-68525000D03*
X116675000Y-59375000D03*
X116675000Y-58525000D03*
X117525000Y-59375000D03*
X117525000Y-58525000D03*
X121675000Y-64375000D03*
X121675000Y-63525000D03*
X122525000Y-64375000D03*
X122525000Y-63525000D03*
X115025000Y-51875000D03*
X114175000Y-51875000D03*
X115025000Y-51025000D03*
X114175000Y-51025000D03*
X121675000Y-61875000D03*
X121675000Y-61025000D03*
X122525000Y-61875000D03*
X122525000Y-61025000D03*
X114175000Y-66875000D03*
X114175000Y-66025000D03*
X115025000Y-66875000D03*
X115025000Y-66025000D03*
X114175000Y-54375000D03*
X114175000Y-53525000D03*
X115025000Y-54375000D03*
X115025000Y-53525000D03*
X126675000Y-54375000D03*
X126675000Y-53525000D03*
X127525000Y-54375000D03*
X127525000Y-53525000D03*
X109175000Y-64375000D03*
X109175000Y-63525000D03*
X110025000Y-64375000D03*
X110025000Y-63525000D03*
X126675000Y-59375000D03*
X126675000Y-58525000D03*
X127525000Y-59375000D03*
X127525000Y-58525000D03*
%LPD*%
M02*
