G04 #@! TF.GenerationSoftware,KiCad,Pcbnew,9.0.0*
G04 #@! TF.CreationDate,2025-03-15T13:02:56+01:00*
G04 #@! TF.ProjectId,snowpixel,736e6f77-7069-4786-956c-2e6b69636164,rev?*
G04 #@! TF.SameCoordinates,Original*
G04 #@! TF.FileFunction,Copper,L2,Bot*
G04 #@! TF.FilePolarity,Positive*
%FSLAX46Y46*%
G04 Gerber Fmt 4.6, Leading zero omitted, Abs format (unit mm)*
G04 Created by KiCad (PCBNEW 9.0.0) date 2025-03-15 13:02:56*
%MOMM*%
%LPD*%
G01*
G04 APERTURE LIST*
G04 Aperture macros list*
%AMRoundRect*
0 Rectangle with rounded corners*
0 $1 Rounding radius*
0 $2 $3 $4 $5 $6 $7 $8 $9 X,Y pos of 4 corners*
0 Add a 4 corners polygon primitive as box body*
4,1,4,$2,$3,$4,$5,$6,$7,$8,$9,$2,$3,0*
0 Add four circle primitives for the rounded corners*
1,1,$1+$1,$2,$3*
1,1,$1+$1,$4,$5*
1,1,$1+$1,$6,$7*
1,1,$1+$1,$8,$9*
0 Add four rect primitives between the rounded corners*
20,1,$1+$1,$2,$3,$4,$5,0*
20,1,$1+$1,$4,$5,$6,$7,0*
20,1,$1+$1,$6,$7,$8,$9,0*
20,1,$1+$1,$8,$9,$2,$3,0*%
%AMFreePoly0*
4,1,21,0.530354,0.450354,0.530500,0.450000,0.530500,-0.450000,0.530354,-0.450354,0.530000,-0.450500,0.440000,-0.450500,0.439646,-0.450354,0.439500,-0.450000,0.439500,-0.050500,0.350000,-0.050500,0.350000,-0.450000,-0.350000,-0.450000,-0.350000,0.450000,0.350000,0.450000,0.350000,0.050500,0.439500,0.050500,0.439500,0.450000,0.439646,0.450354,0.440000,0.450500,0.530000,0.450500,
0.530354,0.450354,0.530354,0.450354,$1*%
%AMFreePoly1*
4,1,13,0.040354,0.250354,0.040500,0.250000,0.040500,-0.300000,0.040354,-0.300354,0.040000,-0.300500,-0.050000,-0.300500,-0.050354,-0.300354,-0.050500,-0.300000,-0.050500,0.250000,-0.050354,0.250354,-0.050000,0.250500,0.040000,0.250500,0.040354,0.250354,0.040354,0.250354,$1*%
%AMFreePoly2*
4,1,13,0.050354,0.160354,0.050500,0.160000,0.050500,-0.140000,0.050354,-0.140354,0.050000,-0.140500,-0.040000,-0.140500,-0.040354,-0.140354,-0.040500,-0.140000,-0.040500,0.160000,-0.040354,0.160354,-0.040000,0.160500,0.050000,0.160500,0.050354,0.160354,0.050354,0.160354,$1*%
%AMFreePoly3*
4,1,23,0.350000,0.100060,0.649972,0.300042,0.650010,0.300049,0.650042,0.300028,0.650050,0.300000,0.650050,0.000050,0.950000,0.000050,0.950035,0.000035,0.950050,0.000000,0.950035,-0.000035,0.950028,-0.000042,0.500028,-0.300042,0.499990,-0.300049,0.499958,-0.300028,0.499950,-0.300000,0.499950,-0.050094,0.350028,-0.150042,0.350000,-0.150047,0.350000,-0.450000,-0.350000,-0.450000,
-0.350000,0.450000,0.350000,0.450000,0.350000,0.100060,0.350000,0.100060,$1*%
%AMFreePoly4*
4,1,18,0.750354,0.450354,0.750500,0.450000,0.750354,0.449646,0.300708,0.000000,0.750354,-0.449646,0.750500,-0.450000,0.750354,-0.450354,0.750000,-0.450500,0.000000,-0.450500,-0.000354,-0.450354,-0.000500,-0.450000,-0.300000,-0.450000,-0.300000,0.450000,-0.000500,0.450000,-0.000354,0.450354,0.000000,0.450500,0.750000,0.450500,0.750354,0.450354,0.750354,0.450354,$1*%
%AMFreePoly5*
4,1,17,0.550355,0.450146,0.550708,0.449999,0.550854,0.449645,0.550708,0.449292,0.101416,0.000000,0.550708,-0.449292,0.550854,-0.449646,0.550708,-0.450000,0.550355,-0.450146,0.350001,-0.450500,0.349646,-0.450354,-0.100354,-0.000354,-0.100500,0.000000,-0.100354,0.000354,0.349646,0.450354,0.350001,0.450500,0.550355,0.450146,0.550355,0.450146,$1*%
%AMFreePoly6*
4,1,16,0.275354,0.450354,0.725354,0.000354,0.725500,0.000000,0.725354,-0.000354,0.275354,-0.450354,0.275000,-0.450500,-0.125000,-0.450500,-0.125354,-0.450354,-0.125500,-0.450000,-0.275000,-0.450000,-0.275000,0.450000,-0.125500,0.450000,-0.125354,0.450354,-0.125000,0.450500,0.275000,0.450500,0.275354,0.450354,0.275354,0.450354,$1*%
%AMFreePoly7*
4,1,17,-0.299646,0.450354,0.150354,0.000354,0.150500,0.000000,0.150354,-0.000354,-0.299646,-0.450354,-0.300000,-0.450500,-0.500000,-0.450500,-0.500354,-0.450354,-0.500500,-0.450000,-0.500354,-0.449646,-0.050708,0.000000,-0.500354,0.449646,-0.500500,0.450000,-0.500354,0.450354,-0.500000,0.450500,-0.300000,0.450500,-0.299646,0.450354,-0.299646,0.450354,$1*%
G04 Aperture macros list end*
G04 #@! TA.AperFunction,SMDPad,CuDef*
%ADD10RoundRect,0.140000X0.170000X-0.140000X0.170000X0.140000X-0.170000X0.140000X-0.170000X-0.140000X0*%
G04 #@! TD*
G04 #@! TA.AperFunction,ComponentPad*
%ADD11C,0.900000*%
G04 #@! TD*
G04 #@! TA.AperFunction,SMDPad,CuDef*
%ADD12FreePoly0,0.000000*%
G04 #@! TD*
G04 #@! TA.AperFunction,SMDPad,CuDef*
%ADD13FreePoly1,0.000000*%
G04 #@! TD*
G04 #@! TA.AperFunction,SMDPad,CuDef*
%ADD14FreePoly2,0.000000*%
G04 #@! TD*
G04 #@! TA.AperFunction,SMDPad,CuDef*
%ADD15FreePoly0,270.000000*%
G04 #@! TD*
G04 #@! TA.AperFunction,SMDPad,CuDef*
%ADD16FreePoly1,270.000000*%
G04 #@! TD*
G04 #@! TA.AperFunction,SMDPad,CuDef*
%ADD17FreePoly2,270.000000*%
G04 #@! TD*
G04 #@! TA.AperFunction,SMDPad,CuDef*
%ADD18FreePoly3,270.000000*%
G04 #@! TD*
G04 #@! TA.AperFunction,SMDPad,CuDef*
%ADD19FreePoly4,90.000000*%
G04 #@! TD*
G04 #@! TA.AperFunction,SMDPad,CuDef*
%ADD20FreePoly5,90.000000*%
G04 #@! TD*
G04 #@! TA.AperFunction,SMDPad,CuDef*
%ADD21FreePoly0,90.000000*%
G04 #@! TD*
G04 #@! TA.AperFunction,SMDPad,CuDef*
%ADD22FreePoly1,90.000000*%
G04 #@! TD*
G04 #@! TA.AperFunction,SMDPad,CuDef*
%ADD23FreePoly2,90.000000*%
G04 #@! TD*
G04 #@! TA.AperFunction,SMDPad,CuDef*
%ADD24FreePoly3,90.000000*%
G04 #@! TD*
G04 #@! TA.AperFunction,SMDPad,CuDef*
%ADD25FreePoly3,0.000000*%
G04 #@! TD*
G04 #@! TA.AperFunction,SMDPad,CuDef*
%ADD26FreePoly3,180.000000*%
G04 #@! TD*
G04 #@! TA.AperFunction,SMDPad,CuDef*
%ADD27FreePoly6,270.000000*%
G04 #@! TD*
G04 #@! TA.AperFunction,SMDPad,CuDef*
%ADD28FreePoly7,270.000000*%
G04 #@! TD*
G04 #@! TA.AperFunction,SMDPad,CuDef*
%ADD29FreePoly6,0.000000*%
G04 #@! TD*
G04 #@! TA.AperFunction,SMDPad,CuDef*
%ADD30FreePoly7,0.000000*%
G04 #@! TD*
G04 #@! TA.AperFunction,SMDPad,CuDef*
%ADD31FreePoly4,180.000000*%
G04 #@! TD*
G04 #@! TA.AperFunction,SMDPad,CuDef*
%ADD32FreePoly5,180.000000*%
G04 #@! TD*
G04 #@! TA.AperFunction,SMDPad,CuDef*
%ADD33FreePoly0,180.000000*%
G04 #@! TD*
G04 #@! TA.AperFunction,SMDPad,CuDef*
%ADD34FreePoly1,180.000000*%
G04 #@! TD*
G04 #@! TA.AperFunction,SMDPad,CuDef*
%ADD35FreePoly2,180.000000*%
G04 #@! TD*
G04 #@! TA.AperFunction,ViaPad*
%ADD36C,0.400000*%
G04 #@! TD*
G04 #@! TA.AperFunction,Conductor*
%ADD37C,0.500000*%
G04 #@! TD*
G04 #@! TA.AperFunction,Conductor*
%ADD38C,0.600000*%
G04 #@! TD*
G04 #@! TA.AperFunction,Conductor*
%ADD39C,0.400000*%
G04 #@! TD*
G04 #@! TA.AperFunction,Conductor*
%ADD40C,0.200000*%
G04 #@! TD*
G04 #@! TA.AperFunction,Conductor*
%ADD41C,0.300000*%
G04 #@! TD*
G04 APERTURE END LIST*
D10*
X123350000Y-59970000D03*
X123350000Y-60930000D03*
X123350000Y-63530000D03*
X123350000Y-62570000D03*
D11*
X108400000Y-65200000D03*
D12*
X108750000Y-65200000D03*
D13*
X109420000Y-65200000D03*
D14*
X109590000Y-65200000D03*
D11*
X123350000Y-50250000D03*
D15*
X123350000Y-50600000D03*
D16*
X123350000Y-51270000D03*
D17*
X123350000Y-51440000D03*
D11*
X120850000Y-50250000D03*
D18*
X120850000Y-50600000D03*
D11*
X118350000Y-70175000D03*
D19*
X118350000Y-69875000D03*
D20*
X118350000Y-69375000D03*
D10*
X118300000Y-63410000D03*
X118300000Y-62450000D03*
D11*
X113350000Y-70150000D03*
D21*
X113350000Y-69800000D03*
D22*
X113350000Y-69130000D03*
D23*
X113350000Y-68960000D03*
D11*
X125850000Y-50250000D03*
D15*
X125850000Y-50600000D03*
D16*
X125850000Y-51270000D03*
D17*
X125850000Y-51440000D03*
D11*
X108400000Y-55200000D03*
D12*
X108750000Y-55200000D03*
D13*
X109420000Y-55200000D03*
D14*
X109590000Y-55200000D03*
D11*
X110850000Y-50250000D03*
D15*
X110850000Y-50600000D03*
D16*
X110850000Y-51270000D03*
D17*
X110850000Y-51440000D03*
D11*
X115850000Y-50250000D03*
D18*
X115850000Y-50600000D03*
D11*
X110850000Y-70150000D03*
D21*
X110850000Y-69800000D03*
D22*
X110850000Y-69130000D03*
D23*
X110850000Y-68960000D03*
D11*
X115850000Y-70150000D03*
D24*
X115850000Y-69800000D03*
D11*
X108400000Y-67700000D03*
D12*
X108750000Y-67700000D03*
D13*
X109420000Y-67700000D03*
D14*
X109590000Y-67700000D03*
D11*
X108400000Y-62700000D03*
D25*
X108750000Y-62700000D03*
D10*
X113350000Y-61050000D03*
X113350000Y-60090000D03*
D11*
X125850000Y-70150000D03*
D21*
X125850000Y-69800000D03*
D22*
X125850000Y-69130000D03*
D23*
X125850000Y-68960000D03*
D11*
X108400000Y-52700000D03*
D12*
X108750000Y-52700000D03*
D13*
X109420000Y-52700000D03*
D14*
X109590000Y-52700000D03*
D11*
X128300000Y-62700000D03*
D26*
X127950000Y-62700000D03*
D11*
X118350000Y-50250000D03*
D27*
X118350000Y-50525000D03*
D28*
X118350000Y-51450000D03*
D11*
X113350000Y-50250000D03*
D15*
X113350000Y-50600000D03*
D16*
X113350000Y-51270000D03*
D17*
X113350000Y-51440000D03*
D11*
X108400000Y-57700000D03*
D25*
X108750000Y-57700000D03*
D11*
X108395000Y-60200000D03*
D29*
X108670000Y-60200000D03*
D30*
X109595000Y-60200000D03*
D11*
X128300000Y-60200000D03*
D31*
X128000000Y-60200000D03*
D32*
X127500000Y-60200000D03*
D11*
X120850000Y-70179775D03*
D24*
X120850000Y-69829775D03*
D10*
X118350000Y-58480000D03*
X118350000Y-57520000D03*
D11*
X128300000Y-52700000D03*
D33*
X127950000Y-52700000D03*
D34*
X127280000Y-52700000D03*
D35*
X127110000Y-52700000D03*
D11*
X128300000Y-55200000D03*
D33*
X127950000Y-55200000D03*
D34*
X127280000Y-55200000D03*
D35*
X127110000Y-55200000D03*
D11*
X128300000Y-67700000D03*
D33*
X127950000Y-67700000D03*
D34*
X127280000Y-67700000D03*
D35*
X127110000Y-67700000D03*
D10*
X123350000Y-58530000D03*
X123350000Y-57570000D03*
D11*
X128300000Y-57700000D03*
D26*
X127950000Y-57700000D03*
D10*
X113350000Y-58450000D03*
X113350000Y-57490000D03*
D11*
X123350000Y-70150000D03*
D21*
X123350000Y-69800000D03*
D22*
X123350000Y-69130000D03*
D23*
X123350000Y-68960000D03*
D10*
X118350000Y-60980000D03*
X118350000Y-60020000D03*
D11*
X128300000Y-65200000D03*
D33*
X127950000Y-65200000D03*
D34*
X127280000Y-65200000D03*
D35*
X127110000Y-65200000D03*
D10*
X113350000Y-63450000D03*
X113350000Y-62490000D03*
D36*
X123150000Y-65940000D03*
X119399998Y-69150001D03*
X119399998Y-53750000D03*
X111899999Y-66249998D03*
X109399998Y-66250000D03*
X126650000Y-60325000D03*
X119399999Y-63749998D03*
X121695093Y-65547307D03*
X114399999Y-56249998D03*
X114399998Y-69150002D03*
X109399999Y-58749998D03*
X126899998Y-69150001D03*
X124399999Y-63749998D03*
X114399999Y-61249998D03*
X109399999Y-56249998D03*
X109399999Y-63749998D03*
X114399999Y-63749998D03*
X114399998Y-58749999D03*
X111899998Y-56249999D03*
X124399998Y-56250000D03*
X111899998Y-53750000D03*
X123150000Y-68220000D03*
X124399998Y-69150001D03*
X116899999Y-58749998D03*
X121900000Y-69150002D03*
X126650000Y-52850000D03*
X126650000Y-55450000D03*
X120650000Y-68290000D03*
X126650000Y-57700000D03*
X116899998Y-56249999D03*
X111899999Y-61249998D03*
X109399998Y-53749999D03*
X124149999Y-65513013D03*
X119399998Y-56250000D03*
X115650000Y-51975000D03*
X121899999Y-56249998D03*
X116899999Y-53749998D03*
X116900000Y-69150002D03*
X116899998Y-63750000D03*
X124399998Y-53749999D03*
X121899998Y-58749999D03*
X121899998Y-61249999D03*
X109399999Y-61249998D03*
X116649999Y-65531413D03*
X126669400Y-62884400D03*
X124399999Y-58749998D03*
X114399998Y-53749999D03*
X119149999Y-65516813D03*
X121900000Y-63749998D03*
X116899999Y-61250001D03*
X120650000Y-66000000D03*
X111899998Y-69150001D03*
X114150000Y-65520613D03*
X126650000Y-65449800D03*
X119399999Y-61249998D03*
X124399999Y-61249998D03*
X119399999Y-58749998D03*
X115609687Y-53125000D03*
X111899999Y-58749998D03*
X109399998Y-69150001D03*
X121899998Y-53750000D03*
X111899999Y-63749998D03*
X108800000Y-50650000D03*
X110650000Y-53149999D03*
X110384994Y-60423466D03*
X115036200Y-54985000D03*
X117525400Y-57448800D03*
X120014600Y-57448800D03*
X125043800Y-59963400D03*
X117525400Y-59938000D03*
X119800001Y-51249998D03*
X122503800Y-62427200D03*
X127300002Y-64150001D03*
X119800002Y-66650001D03*
X122529200Y-64967200D03*
X127300002Y-66650001D03*
X117525400Y-62478000D03*
X120040000Y-62478000D03*
X115036200Y-64992600D03*
X112521600Y-57499600D03*
X127300002Y-56650001D03*
X117300001Y-51249998D03*
X109800001Y-51249998D03*
X122529200Y-59938000D03*
X125650000Y-68819200D03*
X110150000Y-57400000D03*
X127300002Y-61650001D03*
X115036200Y-57474200D03*
X125018400Y-54959600D03*
X110050000Y-62478000D03*
X110025000Y-59875000D03*
X127300001Y-51249998D03*
X120040000Y-54959600D03*
X125018400Y-62452600D03*
X110032400Y-64941800D03*
X112521600Y-59963400D03*
X124800002Y-66650001D03*
X122529200Y-54959600D03*
X125043800Y-57448800D03*
X122529200Y-57448800D03*
X117300001Y-66650002D03*
X124800001Y-51249998D03*
X122300001Y-51249998D03*
X120014600Y-59938000D03*
X110025000Y-55061200D03*
X112300001Y-51249998D03*
X112521600Y-55035800D03*
X114800002Y-66650001D03*
X115036200Y-62478000D03*
X112521600Y-62452600D03*
X122300002Y-66650001D03*
X127334600Y-54150002D03*
X112521600Y-64967200D03*
X117525400Y-54959600D03*
X117525400Y-64992600D03*
X114800001Y-51249998D03*
X120014600Y-64967200D03*
X127300002Y-59150001D03*
X115036200Y-59988800D03*
X125018400Y-64967200D03*
X127900000Y-69750000D03*
X125650000Y-60500000D03*
X125650000Y-67329400D03*
D37*
X126600000Y-52977200D02*
X126600000Y-52850000D01*
D38*
X126650000Y-57700000D02*
X127800000Y-57700000D01*
X120740000Y-65557600D02*
X120875000Y-65692600D01*
D39*
X114399998Y-69149998D02*
X114399998Y-69150002D01*
X111459878Y-68500000D02*
X111899998Y-68940120D01*
D37*
X109399999Y-63749998D02*
X125803802Y-63749998D01*
D39*
X123150000Y-68220000D02*
X123150000Y-68486600D01*
X112549999Y-68500000D02*
X113750000Y-68500000D01*
D38*
X108925000Y-62700000D02*
X108925000Y-61724997D01*
X114321987Y-65692600D02*
X115740000Y-65692600D01*
X108900000Y-56749997D02*
X108900000Y-58249999D01*
D39*
X109399998Y-69150001D02*
X110049999Y-68500000D01*
D37*
X109399999Y-61249998D02*
X125865402Y-61249998D01*
D40*
X126899998Y-69055414D02*
X126113784Y-68269200D01*
X125280799Y-68269200D02*
X124399998Y-69150001D01*
D39*
X123150000Y-68486600D02*
X123138800Y-68497800D01*
X115650000Y-51975000D02*
X115650000Y-50800000D01*
X115650000Y-50800000D02*
X115800000Y-50650000D01*
D40*
X126899998Y-69060830D02*
X126899998Y-69055414D01*
D39*
X124399998Y-68940120D02*
X124399998Y-69150001D01*
D38*
X125861600Y-56911600D02*
X125861600Y-56250000D01*
D39*
X120770225Y-69750000D02*
X121300002Y-69750000D01*
D38*
X120625000Y-50825000D02*
X120700000Y-50750000D01*
X115740000Y-65692600D02*
X120875000Y-65692600D01*
D39*
X126575000Y-57625000D02*
X126650000Y-57700000D01*
D38*
X120700000Y-50750000D02*
X120850000Y-50750000D01*
X126669400Y-62884400D02*
X126853800Y-62700000D01*
D39*
X110049999Y-68500000D02*
X111459878Y-68500000D01*
D37*
X124399998Y-56250000D02*
X125861600Y-56250000D01*
D38*
X113420613Y-66250000D02*
X114150000Y-65520613D01*
X115860000Y-65812600D02*
X115860000Y-69640000D01*
X126575000Y-57625000D02*
X125861600Y-56911600D01*
X120740000Y-53914999D02*
X120740000Y-65557600D01*
X109399999Y-56249998D02*
X108900000Y-56749997D01*
X120625000Y-53799999D02*
X120625000Y-50825000D01*
D37*
X120625000Y-53799999D02*
X125777201Y-53799999D01*
D39*
X121300002Y-69750000D02*
X121900000Y-69150002D01*
D38*
X126669400Y-62884400D02*
X125803802Y-63749998D01*
D37*
X126600000Y-57750000D02*
X126650000Y-57750000D01*
D41*
X125865402Y-61249998D02*
X125865402Y-61109598D01*
D38*
X115740000Y-65692600D02*
X115860000Y-65812600D01*
D40*
X120852800Y-58724598D02*
X120878200Y-58749998D01*
D37*
X109399999Y-56249998D02*
X124399996Y-56249998D01*
D39*
X115850000Y-53365313D02*
X115850000Y-53850000D01*
X113750000Y-68500000D02*
X114399998Y-69149998D01*
D38*
X126650000Y-57700000D02*
X126650000Y-57824998D01*
X108925000Y-61724997D02*
X109399999Y-61249998D01*
D39*
X120650000Y-66000000D02*
X120650000Y-65643000D01*
X111899998Y-66249999D02*
X111899999Y-66249998D01*
D37*
X125777201Y-53799999D02*
X126600000Y-52977200D01*
D39*
X121900000Y-69150002D02*
X122550002Y-68500000D01*
X120650000Y-69629775D02*
X120770225Y-69750000D01*
X119999997Y-69750000D02*
X120850000Y-69750000D01*
D38*
X108925000Y-63274999D02*
X109399999Y-63749998D01*
D39*
X114999996Y-69750000D02*
X114399998Y-69150002D01*
D38*
X115825000Y-50775000D02*
X115850000Y-50750000D01*
X109399998Y-66250000D02*
X113420613Y-66250000D01*
D39*
X115609687Y-53125000D02*
X115850000Y-53365313D01*
X119399998Y-69150001D02*
X119999997Y-69750000D01*
X126650000Y-57700000D02*
X127900000Y-57700000D01*
X111899998Y-69150001D02*
X112549999Y-68500000D01*
X121899999Y-69150001D02*
X121900000Y-69150002D01*
D37*
X115925000Y-53799999D02*
X120625000Y-53799999D01*
D39*
X120650000Y-65643000D02*
X120700400Y-65592600D01*
X115800000Y-50650000D02*
X115850000Y-50650000D01*
D38*
X120875000Y-65692600D02*
X126426600Y-65692600D01*
D39*
X116900000Y-69150002D02*
X116300002Y-69750000D01*
X123959878Y-68500000D02*
X124399998Y-68940120D01*
X120650000Y-68290000D02*
X120650000Y-69629775D01*
D41*
X125865402Y-61109598D02*
X126650000Y-60325000D01*
D39*
X111899998Y-68940120D02*
X111899998Y-69150001D01*
X116300002Y-69750000D02*
X114999996Y-69750000D01*
D38*
X120625000Y-53799999D02*
X120740000Y-53914999D01*
D37*
X120750000Y-50700000D02*
X120850000Y-50700000D01*
D38*
X126853800Y-62700000D02*
X127850000Y-62700000D01*
D40*
X126113784Y-68269200D02*
X125280799Y-68269200D01*
D37*
X109399999Y-58749998D02*
X124399999Y-58749998D01*
D38*
X114150000Y-65520613D02*
X114321987Y-65692600D01*
D37*
X109449998Y-53799999D02*
X115925000Y-53799999D01*
D38*
X126650000Y-57700000D02*
X125600002Y-58749998D01*
D39*
X123150000Y-65940000D02*
X123150000Y-65606800D01*
D37*
X124399996Y-56249998D02*
X124399998Y-56250000D01*
D38*
X108925000Y-62700000D02*
X108925000Y-63274999D01*
X115860000Y-69640000D02*
X115850000Y-69650000D01*
D39*
X114150000Y-65520613D02*
X114221987Y-65592600D01*
D37*
X125861600Y-56250000D02*
X126600000Y-55511600D01*
X120625000Y-50825000D02*
X120750000Y-50700000D01*
X109399998Y-53749999D02*
X109449998Y-53799999D01*
D39*
X122550002Y-68500000D02*
X123959878Y-68500000D01*
D37*
X126600000Y-55511600D02*
X126600000Y-55450000D01*
D38*
X108900000Y-58249999D02*
X109399999Y-58749998D01*
D37*
X124399999Y-58749998D02*
X125600002Y-58749998D01*
D40*
X108800000Y-50957104D02*
X110650000Y-52807104D01*
X110650000Y-52807104D02*
X110650000Y-53149999D01*
X110650000Y-53149999D02*
X110675001Y-53175000D01*
X111174999Y-52625000D02*
X117217559Y-52625000D01*
X110370460Y-60438000D02*
X109825293Y-60438000D01*
X110650000Y-53149999D02*
X111174999Y-52625000D01*
X108800000Y-50650000D02*
X108800000Y-50957104D01*
X109795174Y-60395174D02*
X109675000Y-60275000D01*
X117217559Y-52625000D02*
X117285119Y-52557440D01*
X117285119Y-52557440D02*
X118350000Y-51492559D01*
X110384994Y-60423466D02*
X110370460Y-60438000D01*
X125850000Y-69019200D02*
X125850000Y-69600000D01*
X125650000Y-68819200D02*
X125850000Y-69019200D01*
X125490600Y-67170000D02*
X120130000Y-67170000D01*
X125650000Y-60175000D02*
X126000000Y-59825000D01*
X125650000Y-60500000D02*
X125650000Y-60175000D01*
X125650000Y-67329400D02*
X125650000Y-67358200D01*
X120130000Y-67170000D02*
X118350000Y-68950000D01*
X127900000Y-69442750D02*
X125786650Y-67329400D01*
X126000000Y-59825000D02*
X127075000Y-59825000D01*
X127075000Y-59825000D02*
X127430059Y-60180059D01*
X127900000Y-69750000D02*
X127900000Y-69442750D01*
X125650000Y-67329400D02*
X125490600Y-67170000D01*
X118350000Y-68950000D02*
X118350000Y-69262500D01*
X125786650Y-67329400D02*
X125650000Y-67329400D01*
G04 #@! TA.AperFunction,Conductor*
G36*
X108805703Y-63863962D02*
G01*
X108812181Y-63869994D01*
X109092685Y-64150498D01*
X109191520Y-64207561D01*
X109201424Y-64213279D01*
X109206813Y-64216390D01*
X109334107Y-64250498D01*
X109334109Y-64250498D01*
X109465889Y-64250498D01*
X109465891Y-64250498D01*
X109593185Y-64216390D01*
X109593193Y-64216385D01*
X109600695Y-64213279D01*
X109601248Y-64214616D01*
X109653936Y-64200498D01*
X120115500Y-64200498D01*
X120182539Y-64220183D01*
X120228294Y-64272987D01*
X120239500Y-64324498D01*
X120239500Y-65068100D01*
X120219815Y-65135139D01*
X120167011Y-65180894D01*
X120115500Y-65192100D01*
X119421805Y-65192100D01*
X119359805Y-65175487D01*
X119359803Y-65175486D01*
X119304586Y-65143606D01*
X119202726Y-65116313D01*
X119097272Y-65116313D01*
X118995412Y-65143606D01*
X118995409Y-65143607D01*
X118974324Y-65155781D01*
X118940195Y-65175486D01*
X118940193Y-65175487D01*
X118878193Y-65192100D01*
X116896518Y-65192100D01*
X116834518Y-65175487D01*
X116804588Y-65158207D01*
X116804587Y-65158206D01*
X116804586Y-65158206D01*
X116702726Y-65130913D01*
X116597272Y-65130913D01*
X116495412Y-65158206D01*
X116495409Y-65158207D01*
X116465480Y-65175487D01*
X116403480Y-65192100D01*
X114580663Y-65192100D01*
X114513624Y-65172415D01*
X114492982Y-65155781D01*
X114457316Y-65120115D01*
X114457314Y-65120113D01*
X114381937Y-65076594D01*
X114343187Y-65054221D01*
X114279539Y-65037167D01*
X114215892Y-65020113D01*
X114084108Y-65020113D01*
X113956812Y-65054221D01*
X113842686Y-65120113D01*
X113842683Y-65120115D01*
X113249618Y-65713181D01*
X113188295Y-65746666D01*
X113161937Y-65749500D01*
X109334106Y-65749500D01*
X109206810Y-65783608D01*
X109092684Y-65849500D01*
X109092681Y-65849502D01*
X108999500Y-65942683D01*
X108999498Y-65942686D01*
X108933606Y-66056812D01*
X108923883Y-66093100D01*
X108899498Y-66184108D01*
X108899498Y-66315892D01*
X108906092Y-66340500D01*
X108933606Y-66443187D01*
X108966552Y-66500250D01*
X108999498Y-66557314D01*
X109092684Y-66650500D01*
X109206812Y-66716392D01*
X109334106Y-66750500D01*
X109334108Y-66750500D01*
X113486503Y-66750500D01*
X113486505Y-66750500D01*
X113613799Y-66716392D01*
X113727927Y-66650500D01*
X114150321Y-66228104D01*
X114211642Y-66194621D01*
X114247967Y-66193108D01*
X114247967Y-66193100D01*
X114248167Y-66193100D01*
X114254195Y-66192849D01*
X114256088Y-66193098D01*
X114256094Y-66193100D01*
X114256095Y-66193100D01*
X115235500Y-66193100D01*
X115302539Y-66212785D01*
X115348294Y-66265589D01*
X115359500Y-66317100D01*
X115359500Y-69041099D01*
X115358674Y-69055391D01*
X115356468Y-69074401D01*
X115346115Y-69097475D01*
X115343545Y-69185769D01*
X115342928Y-69191095D01*
X115331296Y-69218519D01*
X115322075Y-69246849D01*
X115317681Y-69250623D01*
X115315647Y-69255419D01*
X115298423Y-69267163D01*
X115282774Y-69280605D01*
X115282791Y-69280627D01*
X115282213Y-69281087D01*
X115273558Y-69288522D01*
X115271871Y-69289334D01*
X115266069Y-69293961D01*
X115201381Y-69320366D01*
X115132686Y-69307607D01*
X115101080Y-69284691D01*
X114726604Y-68910215D01*
X114726571Y-68910177D01*
X113995915Y-68179522D01*
X113995913Y-68179520D01*
X113950250Y-68153156D01*
X113904589Y-68126793D01*
X113853657Y-68113146D01*
X113802727Y-68099500D01*
X112602726Y-68099500D01*
X112497272Y-68099500D01*
X112395409Y-68126793D01*
X112304086Y-68179520D01*
X112304083Y-68179522D01*
X112092619Y-68390986D01*
X112031296Y-68424471D01*
X111961604Y-68419487D01*
X111917257Y-68390986D01*
X111705793Y-68179522D01*
X111705791Y-68179520D01*
X111660128Y-68153156D01*
X111614467Y-68126793D01*
X111563535Y-68113146D01*
X111512605Y-68099500D01*
X110102726Y-68099500D01*
X109997272Y-68099500D01*
X109895409Y-68126793D01*
X109804086Y-68179520D01*
X109804083Y-68179522D01*
X109079520Y-68904085D01*
X109079518Y-68904088D01*
X109026791Y-68995411D01*
X109010720Y-69055391D01*
X108999498Y-69097274D01*
X108999498Y-69202728D01*
X109003397Y-69217279D01*
X109026791Y-69304590D01*
X109026792Y-69304591D01*
X109079518Y-69395914D01*
X109154085Y-69470481D01*
X109233172Y-69516142D01*
X109245406Y-69523206D01*
X109245410Y-69523208D01*
X109347271Y-69550501D01*
X109347273Y-69550501D01*
X109452723Y-69550501D01*
X109452725Y-69550501D01*
X109554586Y-69523208D01*
X109645911Y-69470481D01*
X110179573Y-68936819D01*
X110240896Y-68903334D01*
X110267254Y-68900500D01*
X111242623Y-68900500D01*
X111272066Y-68909145D01*
X111302049Y-68915668D01*
X111307064Y-68919422D01*
X111309662Y-68920185D01*
X111330299Y-68936814D01*
X111463180Y-69069694D01*
X111496664Y-69131015D01*
X111499498Y-69157374D01*
X111499498Y-69202728D01*
X111503397Y-69217279D01*
X111526791Y-69304590D01*
X111526792Y-69304591D01*
X111579518Y-69395914D01*
X111654085Y-69470481D01*
X111733172Y-69516142D01*
X111745406Y-69523206D01*
X111745410Y-69523208D01*
X111847271Y-69550501D01*
X111847273Y-69550501D01*
X111952723Y-69550501D01*
X111952725Y-69550501D01*
X112054586Y-69523208D01*
X112145911Y-69470481D01*
X112679573Y-68936819D01*
X112740896Y-68903334D01*
X112767254Y-68900500D01*
X113532745Y-68900500D01*
X113599784Y-68920185D01*
X113620426Y-68936819D01*
X114074123Y-69390516D01*
X114074161Y-69390559D01*
X114421422Y-69737819D01*
X114454907Y-69799142D01*
X114449923Y-69868833D01*
X114408052Y-69924767D01*
X114342587Y-69949184D01*
X114333741Y-69949500D01*
X108724500Y-69949500D01*
X108657461Y-69929815D01*
X108611706Y-69877011D01*
X108600500Y-69825500D01*
X108600500Y-63957675D01*
X108620185Y-63890636D01*
X108672989Y-63844881D01*
X108742147Y-63834937D01*
X108805703Y-63863962D01*
G37*
G04 #@! TD.AperFunction*
G04 #@! TA.AperFunction,Conductor*
G36*
X127246392Y-63203637D02*
G01*
X127247469Y-63203884D01*
X127247473Y-63203884D01*
X127247475Y-63203885D01*
X127330412Y-63206298D01*
X127396848Y-63227923D01*
X127430600Y-63267220D01*
X127430622Y-63267203D01*
X127431091Y-63267791D01*
X127438523Y-63276444D01*
X127439333Y-63278126D01*
X127439334Y-63278127D01*
X127510837Y-63335149D01*
X127586203Y-63352351D01*
X127599995Y-63355499D01*
X127600000Y-63355500D01*
X127975500Y-63355500D01*
X128042539Y-63375185D01*
X128088294Y-63427989D01*
X128099500Y-63479500D01*
X128099500Y-68917917D01*
X128079815Y-68984956D01*
X128027011Y-69030711D01*
X127957853Y-69040655D01*
X127894297Y-69011630D01*
X127887819Y-69005598D01*
X125988542Y-67106321D01*
X125975764Y-67089669D01*
X125975424Y-67089931D01*
X125970480Y-67083487D01*
X125895913Y-67008920D01*
X125804587Y-66956193D01*
X125702727Y-66928900D01*
X125702726Y-66928900D01*
X125694667Y-66927839D01*
X125694960Y-66925612D01*
X125645227Y-66912287D01*
X125606589Y-66889979D01*
X125530162Y-66869500D01*
X120090438Y-66869500D01*
X120059867Y-66877691D01*
X120014008Y-66889979D01*
X120014007Y-66889980D01*
X119946618Y-66928888D01*
X119946597Y-66928900D01*
X119945492Y-66929537D01*
X119945488Y-66929540D01*
X118211426Y-68663602D01*
X118150103Y-68697087D01*
X118080411Y-68692103D01*
X118055365Y-68677689D01*
X118054605Y-68678826D01*
X117983062Y-68630973D01*
X117980794Y-68630031D01*
X117979184Y-68629363D01*
X117912252Y-68613990D01*
X117912250Y-68613990D01*
X117912249Y-68613990D01*
X117822066Y-68629147D01*
X117822056Y-68629150D01*
X117818168Y-68630752D01*
X117759820Y-68667267D01*
X117759817Y-68667270D01*
X117706760Y-68741757D01*
X117706758Y-68741760D01*
X117705142Y-68745640D01*
X117705142Y-68745641D01*
X117705141Y-68745646D01*
X117689354Y-68824273D01*
X117689232Y-68893629D01*
X117689000Y-69024736D01*
X117689000Y-69025004D01*
X117694133Y-69050809D01*
X117694133Y-69099191D01*
X117689000Y-69124995D01*
X117689000Y-69825500D01*
X117669315Y-69892539D01*
X117616511Y-69938294D01*
X117565000Y-69949500D01*
X116966257Y-69949500D01*
X116899218Y-69929815D01*
X116853463Y-69877011D01*
X116843519Y-69807853D01*
X116872544Y-69744297D01*
X116878576Y-69737819D01*
X117029358Y-69587037D01*
X117220480Y-69395915D01*
X117238206Y-69365213D01*
X117273207Y-69304589D01*
X117300500Y-69202729D01*
X117300500Y-69097275D01*
X117273207Y-68995415D01*
X117220480Y-68904089D01*
X117145913Y-68829522D01*
X117054587Y-68776795D01*
X116952727Y-68749502D01*
X116847273Y-68749502D01*
X116745413Y-68776795D01*
X116745412Y-68776795D01*
X116745410Y-68776796D01*
X116745409Y-68776796D01*
X116674926Y-68817489D01*
X116674920Y-68817493D01*
X116663179Y-68824273D01*
X116654087Y-68829522D01*
X116570269Y-68913339D01*
X116568249Y-68915190D01*
X116539226Y-68929421D01*
X116510858Y-68944912D01*
X116508046Y-68944710D01*
X116505516Y-68945952D01*
X116473413Y-68942234D01*
X116441166Y-68939928D01*
X116438908Y-68938238D01*
X116436110Y-68937914D01*
X116411112Y-68917429D01*
X116385233Y-68898056D01*
X116384248Y-68895415D01*
X116382068Y-68893629D01*
X116372112Y-68862878D01*
X116360816Y-68832592D01*
X116360631Y-68827415D01*
X116360547Y-68827156D01*
X116360612Y-68826906D01*
X116360500Y-68823746D01*
X116360500Y-66317100D01*
X116380185Y-66250061D01*
X116432989Y-66204306D01*
X116484500Y-66193100D01*
X120227845Y-66193100D01*
X120294884Y-66212785D01*
X120326218Y-66241610D01*
X120329520Y-66245913D01*
X120404087Y-66320480D01*
X120495413Y-66373207D01*
X120597273Y-66400500D01*
X120597275Y-66400500D01*
X120702725Y-66400500D01*
X120702727Y-66400500D01*
X120804587Y-66373207D01*
X120895913Y-66320480D01*
X120970480Y-66245913D01*
X120970483Y-66245907D01*
X120973782Y-66241610D01*
X121030211Y-66200409D01*
X121072155Y-66193100D01*
X122785345Y-66193100D01*
X122852384Y-66212785D01*
X122873026Y-66229419D01*
X122904087Y-66260480D01*
X122995413Y-66313207D01*
X123097273Y-66340500D01*
X123097275Y-66340500D01*
X123202725Y-66340500D01*
X123202727Y-66340500D01*
X123304587Y-66313207D01*
X123395913Y-66260480D01*
X123426974Y-66229419D01*
X123488297Y-66195934D01*
X123514655Y-66193100D01*
X126492490Y-66193100D01*
X126492492Y-66193100D01*
X126619786Y-66158992D01*
X126733914Y-66093100D01*
X126827100Y-65999914D01*
X126892992Y-65885786D01*
X126925602Y-65764082D01*
X126957693Y-65708499D01*
X126970480Y-65695713D01*
X127023207Y-65604387D01*
X127050500Y-65502527D01*
X127050500Y-65397073D01*
X127023207Y-65295213D01*
X126970480Y-65203887D01*
X126895913Y-65129320D01*
X126804587Y-65076593D01*
X126702727Y-65049300D01*
X126597273Y-65049300D01*
X126495413Y-65076593D01*
X126495410Y-65076594D01*
X126404085Y-65129321D01*
X126377626Y-65155781D01*
X126316303Y-65189266D01*
X126289945Y-65192100D01*
X124428387Y-65192100D01*
X124366387Y-65175487D01*
X124366385Y-65175486D01*
X124304586Y-65139806D01*
X124202726Y-65112513D01*
X124097272Y-65112513D01*
X123995412Y-65139806D01*
X123995409Y-65139807D01*
X123967742Y-65155781D01*
X123933613Y-65175486D01*
X123933611Y-65175487D01*
X123871611Y-65192100D01*
X121914082Y-65192100D01*
X121857322Y-65176890D01*
X121857190Y-65177211D01*
X121854757Y-65176203D01*
X121852081Y-65175486D01*
X121849680Y-65174100D01*
X121747820Y-65146807D01*
X121642366Y-65146807D01*
X121540506Y-65174100D01*
X121540505Y-65174100D01*
X121539032Y-65174950D01*
X121538104Y-65175486D01*
X121535428Y-65176203D01*
X121532996Y-65177211D01*
X121532863Y-65176890D01*
X121522616Y-65179636D01*
X121511039Y-65187077D01*
X121476104Y-65192100D01*
X121364500Y-65192100D01*
X121297461Y-65172415D01*
X121251706Y-65119611D01*
X121240500Y-65068100D01*
X121240500Y-64324498D01*
X121260185Y-64257459D01*
X121312989Y-64211704D01*
X121364500Y-64200498D01*
X125549865Y-64200498D01*
X125602552Y-64214616D01*
X125603106Y-64213279D01*
X125610609Y-64216386D01*
X125610616Y-64216390D01*
X125737910Y-64250498D01*
X125737912Y-64250498D01*
X125869692Y-64250498D01*
X125869694Y-64250498D01*
X125996988Y-64216390D01*
X126111116Y-64150498D01*
X127024795Y-63236819D01*
X127086118Y-63203334D01*
X127112476Y-63200500D01*
X127218678Y-63200500D01*
X127246392Y-63203637D01*
G37*
G04 #@! TD.AperFunction*
G04 #@! TA.AperFunction,Conductor*
G36*
X126004990Y-68589385D02*
G01*
X126025632Y-68606019D01*
X126463179Y-69043566D01*
X126496664Y-69104889D01*
X126499498Y-69131247D01*
X126499498Y-69202728D01*
X126526791Y-69304588D01*
X126579518Y-69395914D01*
X126654085Y-69470481D01*
X126745411Y-69523208D01*
X126847271Y-69550501D01*
X126847273Y-69550501D01*
X126952723Y-69550501D01*
X126952725Y-69550501D01*
X127054585Y-69523208D01*
X127145911Y-69470481D01*
X127220478Y-69395914D01*
X127220483Y-69395905D01*
X127224583Y-69390563D01*
X127238399Y-69380473D01*
X127248652Y-69366778D01*
X127266030Y-69360296D01*
X127281009Y-69349358D01*
X127298085Y-69348339D01*
X127314116Y-69342361D01*
X127332240Y-69346303D01*
X127350755Y-69345200D01*
X127366016Y-69353651D01*
X127382389Y-69357213D01*
X127410643Y-69378364D01*
X127497759Y-69465480D01*
X127531244Y-69526803D01*
X127526936Y-69587037D01*
X127528897Y-69587563D01*
X127526794Y-69595411D01*
X127526793Y-69595413D01*
X127499500Y-69697273D01*
X127499500Y-69802729D01*
X127500367Y-69809316D01*
X127489601Y-69878351D01*
X127443220Y-69930607D01*
X127377428Y-69949500D01*
X121966257Y-69949500D01*
X121899218Y-69929815D01*
X121853463Y-69877011D01*
X121843519Y-69807853D01*
X121872544Y-69744297D01*
X121878576Y-69737819D01*
X122029358Y-69587037D01*
X122220480Y-69395915D01*
X122220480Y-69395914D01*
X122679575Y-68936819D01*
X122740898Y-68903334D01*
X122767256Y-68900500D01*
X123742623Y-68900500D01*
X123772066Y-68909145D01*
X123802049Y-68915668D01*
X123807064Y-68919422D01*
X123809662Y-68920185D01*
X123830299Y-68936814D01*
X123963180Y-69069694D01*
X123996664Y-69131015D01*
X123999498Y-69157374D01*
X123999498Y-69202728D01*
X124026791Y-69304588D01*
X124079518Y-69395914D01*
X124154085Y-69470481D01*
X124245411Y-69523208D01*
X124347271Y-69550501D01*
X124347273Y-69550501D01*
X124452723Y-69550501D01*
X124452725Y-69550501D01*
X124554585Y-69523208D01*
X124645911Y-69470481D01*
X124720478Y-69395914D01*
X124773205Y-69304588D01*
X124800498Y-69202728D01*
X124800498Y-69202724D01*
X124802240Y-69196223D01*
X124834332Y-69140637D01*
X125368951Y-68606019D01*
X125430274Y-68572534D01*
X125456632Y-68569700D01*
X125937951Y-68569700D01*
X126004990Y-68589385D01*
G37*
G04 #@! TD.AperFunction*
G04 #@! TA.AperFunction,Conductor*
G36*
X120182539Y-61720183D02*
G01*
X120228294Y-61772987D01*
X120239500Y-61824498D01*
X120239500Y-63175498D01*
X120219815Y-63242537D01*
X120167011Y-63288292D01*
X120115500Y-63299498D01*
X118928381Y-63299498D01*
X118861342Y-63279813D01*
X118815587Y-63227009D01*
X118805442Y-63191683D01*
X118803972Y-63180513D01*
X118753224Y-63071684D01*
X118668316Y-62986776D01*
X118559487Y-62936028D01*
X118559485Y-62936027D01*
X118559486Y-62936027D01*
X118509901Y-62929500D01*
X118090105Y-62929500D01*
X118074386Y-62931569D01*
X118040513Y-62936028D01*
X118040511Y-62936029D01*
X118040509Y-62936029D01*
X117931683Y-62986776D01*
X117846776Y-63071683D01*
X117796027Y-63180514D01*
X117794557Y-63191684D01*
X117766290Y-63255580D01*
X117707965Y-63294051D01*
X117671618Y-63299498D01*
X113969800Y-63299498D01*
X113902761Y-63279813D01*
X113857418Y-63227903D01*
X113851708Y-63215657D01*
X113803224Y-63111684D01*
X113718316Y-63026776D01*
X113609487Y-62976028D01*
X113609485Y-62976027D01*
X113609486Y-62976027D01*
X113559901Y-62969500D01*
X113140105Y-62969500D01*
X113124386Y-62971569D01*
X113090513Y-62976028D01*
X113090511Y-62976029D01*
X113090509Y-62976029D01*
X112981683Y-63026776D01*
X112896776Y-63111683D01*
X112842582Y-63227903D01*
X112796409Y-63280342D01*
X112730200Y-63299498D01*
X109708675Y-63299498D01*
X109679234Y-63290853D01*
X109649248Y-63284330D01*
X109644232Y-63280575D01*
X109641636Y-63279813D01*
X109620994Y-63263179D01*
X109573472Y-63215657D01*
X109539987Y-63154334D01*
X109544971Y-63084642D01*
X109586843Y-63028709D01*
X109592362Y-63024807D01*
X109816792Y-62875188D01*
X109833055Y-62863149D01*
X109833825Y-62862518D01*
X109840511Y-62856795D01*
X109893431Y-62782205D01*
X109894910Y-62778634D01*
X109910226Y-62711530D01*
X109894910Y-62621366D01*
X109893431Y-62617795D01*
X109856795Y-62559489D01*
X109856792Y-62559486D01*
X109782209Y-62506571D01*
X109782206Y-62506569D01*
X109778632Y-62505089D01*
X109778634Y-62505089D01*
X109707161Y-62490874D01*
X109645249Y-62458490D01*
X109610674Y-62397774D01*
X109608687Y-62387418D01*
X109601734Y-62340454D01*
X109600886Y-62337653D01*
X109584170Y-62299500D01*
X109581311Y-62292974D01*
X109518547Y-62226449D01*
X109515332Y-62224296D01*
X109498735Y-62216849D01*
X109484880Y-62205003D01*
X109468297Y-62197430D01*
X109458875Y-62182769D01*
X109445630Y-62171445D01*
X109440378Y-62153987D01*
X109430523Y-62138652D01*
X109425723Y-62105268D01*
X109425503Y-62104537D01*
X109425500Y-62103717D01*
X109425500Y-61983673D01*
X109445185Y-61916634D01*
X109461819Y-61895992D01*
X109620994Y-61736817D01*
X109682317Y-61703332D01*
X109708675Y-61700498D01*
X120115500Y-61700498D01*
X120182539Y-61720183D01*
G37*
G04 #@! TD.AperFunction*
G04 #@! TA.AperFunction,Conductor*
G36*
X126747561Y-60786769D02*
G01*
X126781070Y-60788370D01*
X126782861Y-60789293D01*
X126783830Y-60789363D01*
X126812435Y-60804545D01*
X126866760Y-60843241D01*
X126870646Y-60844859D01*
X126949273Y-60860646D01*
X127149627Y-60861000D01*
X127149736Y-60861000D01*
X127149999Y-60861000D01*
X127150000Y-60861000D01*
X127175807Y-60855866D01*
X127224193Y-60855866D01*
X127250000Y-60861000D01*
X127250001Y-60861000D01*
X127975500Y-60861000D01*
X128042539Y-60880685D01*
X128088294Y-60933489D01*
X128099500Y-60985000D01*
X128099500Y-61920500D01*
X128079815Y-61987539D01*
X128027011Y-62033294D01*
X127975500Y-62044500D01*
X127599995Y-62044500D01*
X127554271Y-62049651D01*
X127471873Y-62089333D01*
X127421250Y-62152813D01*
X127364061Y-62192953D01*
X127324303Y-62199500D01*
X126787908Y-62199500D01*
X126660612Y-62233608D01*
X126546486Y-62299500D01*
X126546483Y-62299502D01*
X125582807Y-63263179D01*
X125521484Y-63296664D01*
X125495126Y-63299498D01*
X123932495Y-63299498D01*
X123865456Y-63279813D01*
X123820113Y-63227903D01*
X123816667Y-63220513D01*
X123803224Y-63191684D01*
X123718316Y-63106776D01*
X123609487Y-63056028D01*
X123609485Y-63056027D01*
X123609486Y-63056027D01*
X123559901Y-63049500D01*
X123140105Y-63049500D01*
X123124386Y-63051569D01*
X123090513Y-63056028D01*
X123090511Y-63056029D01*
X123090509Y-63056029D01*
X122981683Y-63106776D01*
X122896776Y-63191683D01*
X122879887Y-63227903D01*
X122833715Y-63280342D01*
X122767505Y-63299498D01*
X121364500Y-63299498D01*
X121297461Y-63279813D01*
X121251706Y-63227009D01*
X121240500Y-63175498D01*
X121240500Y-61824498D01*
X121260185Y-61757459D01*
X121312989Y-61711704D01*
X121364500Y-61700498D01*
X125924708Y-61700498D01*
X125924711Y-61700498D01*
X126039288Y-61669797D01*
X126142015Y-61610487D01*
X126225891Y-61526611D01*
X126285201Y-61423884D01*
X126315902Y-61309307D01*
X126315902Y-61206141D01*
X126335587Y-61139102D01*
X126352221Y-61118460D01*
X126485681Y-60985000D01*
X126652818Y-60817862D01*
X126682235Y-60801799D01*
X126711280Y-60785036D01*
X126712802Y-60785108D01*
X126714139Y-60784379D01*
X126747561Y-60786769D01*
G37*
G04 #@! TD.AperFunction*
G04 #@! TA.AperFunction,Conductor*
G36*
X108805703Y-58863962D02*
G01*
X108812181Y-58869994D01*
X109092684Y-59150497D01*
X109206813Y-59216390D01*
X109334106Y-59250498D01*
X109334108Y-59250498D01*
X109465889Y-59250498D01*
X109465891Y-59250498D01*
X109593185Y-59216390D01*
X109593191Y-59216386D01*
X109600692Y-59213280D01*
X109601245Y-59214616D01*
X109653935Y-59200498D01*
X120115500Y-59200498D01*
X120182539Y-59220183D01*
X120228294Y-59272987D01*
X120239500Y-59324498D01*
X120239500Y-60675498D01*
X120219815Y-60742537D01*
X120167011Y-60788292D01*
X120115500Y-60799498D01*
X118955811Y-60799498D01*
X118888772Y-60779813D01*
X118843429Y-60727903D01*
X118816138Y-60669379D01*
X118803224Y-60641684D01*
X118718316Y-60556776D01*
X118609487Y-60506028D01*
X118609485Y-60506027D01*
X118609486Y-60506027D01*
X118559901Y-60499500D01*
X118140105Y-60499500D01*
X118124386Y-60501569D01*
X118090513Y-60506028D01*
X118090511Y-60506029D01*
X118090509Y-60506029D01*
X117981683Y-60556776D01*
X117896775Y-60641684D01*
X117856572Y-60727902D01*
X117810400Y-60780342D01*
X117744190Y-60799498D01*
X113923169Y-60799498D01*
X113856130Y-60779813D01*
X113810787Y-60727903D01*
X113806179Y-60718021D01*
X113803224Y-60711684D01*
X113718316Y-60626776D01*
X113609487Y-60576028D01*
X113609485Y-60576027D01*
X113609486Y-60576027D01*
X113559901Y-60569500D01*
X113140105Y-60569500D01*
X113124386Y-60571569D01*
X113090513Y-60576028D01*
X113090511Y-60576029D01*
X113090509Y-60576029D01*
X112981683Y-60626776D01*
X112896776Y-60711683D01*
X112889213Y-60727903D01*
X112843040Y-60780342D01*
X112776831Y-60799498D01*
X110845124Y-60799498D01*
X110778085Y-60779813D01*
X110732330Y-60727009D01*
X110722386Y-60657851D01*
X110737737Y-60613498D01*
X110750331Y-60591684D01*
X110758201Y-60578053D01*
X110785494Y-60476193D01*
X110785494Y-60370739D01*
X110758201Y-60268879D01*
X110705474Y-60177553D01*
X110630907Y-60102986D01*
X110554740Y-60059011D01*
X110539583Y-60050260D01*
X110539582Y-60050259D01*
X110539581Y-60050259D01*
X110437721Y-60022966D01*
X110332267Y-60022966D01*
X110230407Y-60050259D01*
X110230404Y-60050260D01*
X110139077Y-60102988D01*
X110132631Y-60107935D01*
X110131416Y-60106351D01*
X110113958Y-60115884D01*
X110088140Y-60132477D01*
X110081939Y-60133368D01*
X110079563Y-60134666D01*
X110053205Y-60137500D01*
X110018410Y-60137500D01*
X109951371Y-60117815D01*
X109915309Y-60082393D01*
X109894199Y-60050801D01*
X109444199Y-59600801D01*
X109377536Y-59556256D01*
X109376239Y-59555719D01*
X109373653Y-59554647D01*
X109373649Y-59554645D01*
X109373647Y-59554645D01*
X109334323Y-59546822D01*
X109295001Y-59539000D01*
X109295000Y-59539000D01*
X109095000Y-59539000D01*
X109094998Y-59539000D01*
X109044192Y-59549106D01*
X108995808Y-59549106D01*
X108945002Y-59539000D01*
X108945000Y-59539000D01*
X108724500Y-59539000D01*
X108657461Y-59519315D01*
X108611706Y-59466511D01*
X108600500Y-59415000D01*
X108600500Y-58957675D01*
X108620185Y-58890636D01*
X108672989Y-58844881D01*
X108742147Y-58834937D01*
X108805703Y-58863962D01*
G37*
G04 #@! TD.AperFunction*
G04 #@! TA.AperFunction,Conductor*
G36*
X127246392Y-58203637D02*
G01*
X127247469Y-58203884D01*
X127247473Y-58203884D01*
X127247475Y-58203885D01*
X127330412Y-58206298D01*
X127396848Y-58227923D01*
X127430600Y-58267220D01*
X127430622Y-58267203D01*
X127431091Y-58267791D01*
X127438523Y-58276444D01*
X127439333Y-58278126D01*
X127439334Y-58278127D01*
X127510837Y-58335149D01*
X127586203Y-58352351D01*
X127599995Y-58355499D01*
X127600000Y-58355500D01*
X127975500Y-58355500D01*
X128042539Y-58375185D01*
X128088294Y-58427989D01*
X128099500Y-58479500D01*
X128099500Y-59415000D01*
X128079815Y-59482039D01*
X128027011Y-59527794D01*
X127975500Y-59539000D01*
X127250000Y-59539000D01*
X127231679Y-59542644D01*
X127175396Y-59540801D01*
X127114562Y-59524500D01*
X126039562Y-59524500D01*
X125960438Y-59524500D01*
X125884010Y-59544978D01*
X125815489Y-59584540D01*
X125815486Y-59584542D01*
X125409541Y-59990487D01*
X125409535Y-59990495D01*
X125369982Y-60059004D01*
X125369979Y-60059009D01*
X125358196Y-60102986D01*
X125350294Y-60132477D01*
X125349500Y-60135439D01*
X125349500Y-60186256D01*
X125332887Y-60248256D01*
X125276794Y-60345410D01*
X125276793Y-60345413D01*
X125249500Y-60447273D01*
X125249500Y-60552727D01*
X125273336Y-60641684D01*
X125273797Y-60643405D01*
X125272134Y-60713255D01*
X125232971Y-60771117D01*
X125168743Y-60798621D01*
X125154022Y-60799498D01*
X123975749Y-60799498D01*
X123908710Y-60779813D01*
X123862955Y-60727009D01*
X123857850Y-60709260D01*
X123856625Y-60709618D01*
X123853972Y-60700515D01*
X123853972Y-60700513D01*
X123803224Y-60591684D01*
X123718316Y-60506776D01*
X123609487Y-60456028D01*
X123609485Y-60456027D01*
X123609486Y-60456027D01*
X123559901Y-60449500D01*
X123140105Y-60449500D01*
X123124386Y-60451569D01*
X123090513Y-60456028D01*
X123090511Y-60456029D01*
X123090509Y-60456029D01*
X122981683Y-60506776D01*
X122896776Y-60591683D01*
X122846027Y-60700515D01*
X122843372Y-60709624D01*
X122839729Y-60708562D01*
X122818901Y-60755607D01*
X122760565Y-60794061D01*
X122724251Y-60799498D01*
X121364500Y-60799498D01*
X121297461Y-60779813D01*
X121251706Y-60727009D01*
X121240500Y-60675498D01*
X121240500Y-59324498D01*
X121260185Y-59257459D01*
X121312989Y-59211704D01*
X121364500Y-59200498D01*
X124340690Y-59200498D01*
X125346065Y-59200498D01*
X125398752Y-59214616D01*
X125399306Y-59213279D01*
X125406809Y-59216386D01*
X125406816Y-59216390D01*
X125534110Y-59250498D01*
X125534112Y-59250498D01*
X125665892Y-59250498D01*
X125665894Y-59250498D01*
X125793188Y-59216390D01*
X125907316Y-59150498D01*
X126714833Y-58342979D01*
X126770420Y-58310887D01*
X126843184Y-58291391D01*
X126843184Y-58291390D01*
X126843186Y-58291390D01*
X126957314Y-58225498D01*
X126957314Y-58225497D01*
X126964353Y-58221434D01*
X126965133Y-58222786D01*
X127021664Y-58200930D01*
X127031984Y-58200500D01*
X127218678Y-58200500D01*
X127246392Y-58203637D01*
G37*
G04 #@! TD.AperFunction*
G04 #@! TA.AperFunction,Conductor*
G36*
X120182539Y-56720183D02*
G01*
X120228294Y-56772987D01*
X120239500Y-56824498D01*
X120239500Y-58175498D01*
X120219815Y-58242537D01*
X120167011Y-58288292D01*
X120115500Y-58299498D01*
X118955811Y-58299498D01*
X118888772Y-58279813D01*
X118843429Y-58227903D01*
X118818992Y-58175498D01*
X118803224Y-58141684D01*
X118718316Y-58056776D01*
X118609487Y-58006028D01*
X118609485Y-58006027D01*
X118609486Y-58006027D01*
X118559901Y-57999500D01*
X118140105Y-57999500D01*
X118124386Y-58001569D01*
X118090513Y-58006028D01*
X118090511Y-58006029D01*
X118090509Y-58006029D01*
X117981683Y-58056776D01*
X117896775Y-58141684D01*
X117867771Y-58203885D01*
X117858958Y-58222786D01*
X117856572Y-58227902D01*
X117810400Y-58280342D01*
X117744190Y-58299498D01*
X113969800Y-58299498D01*
X113902761Y-58279813D01*
X113857418Y-58227903D01*
X113851708Y-58215657D01*
X113803224Y-58111684D01*
X113718316Y-58026776D01*
X113609487Y-57976028D01*
X113609485Y-57976027D01*
X113609486Y-57976027D01*
X113559901Y-57969500D01*
X113140105Y-57969500D01*
X113124386Y-57971569D01*
X113090513Y-57976028D01*
X113090511Y-57976029D01*
X113090509Y-57976029D01*
X112981683Y-58026776D01*
X112896776Y-58111683D01*
X112842582Y-58227903D01*
X112796409Y-58280342D01*
X112730200Y-58299498D01*
X109708675Y-58299498D01*
X109679234Y-58290853D01*
X109649248Y-58284330D01*
X109644232Y-58280575D01*
X109641636Y-58279813D01*
X109620994Y-58263179D01*
X109573472Y-58215657D01*
X109539987Y-58154334D01*
X109544971Y-58084642D01*
X109586843Y-58028709D01*
X109592362Y-58024807D01*
X109816792Y-57875188D01*
X109833055Y-57863149D01*
X109833825Y-57862518D01*
X109840511Y-57856795D01*
X109893431Y-57782205D01*
X109894910Y-57778634D01*
X109910226Y-57711530D01*
X109894910Y-57621366D01*
X109893431Y-57617795D01*
X109856795Y-57559489D01*
X109856792Y-57559486D01*
X109782209Y-57506571D01*
X109782206Y-57506569D01*
X109778632Y-57505089D01*
X109778634Y-57505089D01*
X109707161Y-57490874D01*
X109645249Y-57458490D01*
X109610674Y-57397774D01*
X109608687Y-57387418D01*
X109601734Y-57340454D01*
X109600886Y-57337653D01*
X109596123Y-57326782D01*
X109581311Y-57292974D01*
X109518547Y-57226449D01*
X109515332Y-57224296D01*
X109473735Y-57205631D01*
X109459880Y-57193785D01*
X109443297Y-57186212D01*
X109433875Y-57171551D01*
X109420630Y-57160227D01*
X109415378Y-57142769D01*
X109405523Y-57127434D01*
X109400723Y-57094050D01*
X109400503Y-57093319D01*
X109400500Y-57092499D01*
X109400500Y-57008673D01*
X109420185Y-56941634D01*
X109436819Y-56920992D01*
X109620994Y-56736817D01*
X109682317Y-56703332D01*
X109708675Y-56700498D01*
X120115500Y-56700498D01*
X120182539Y-56720183D01*
G37*
G04 #@! TD.AperFunction*
G04 #@! TA.AperFunction,Conductor*
G36*
X124332062Y-56700500D02*
G01*
X124340689Y-56700500D01*
X125237100Y-56700500D01*
X125304139Y-56720185D01*
X125349894Y-56772989D01*
X125361100Y-56824500D01*
X125361100Y-56977491D01*
X125395208Y-57104787D01*
X125422936Y-57152813D01*
X125461100Y-57218914D01*
X125461102Y-57218916D01*
X125854505Y-57612319D01*
X125887990Y-57673642D01*
X125883006Y-57743334D01*
X125854505Y-57787681D01*
X125379007Y-58263179D01*
X125317684Y-58296664D01*
X125291326Y-58299498D01*
X123932495Y-58299498D01*
X123865456Y-58279813D01*
X123820113Y-58227903D01*
X123817727Y-58222786D01*
X123803224Y-58191684D01*
X123718316Y-58106776D01*
X123609487Y-58056028D01*
X123609485Y-58056027D01*
X123609486Y-58056027D01*
X123559901Y-58049500D01*
X123140105Y-58049500D01*
X123124386Y-58051569D01*
X123090513Y-58056028D01*
X123090511Y-58056029D01*
X123090509Y-58056029D01*
X122981683Y-58106776D01*
X122896776Y-58191683D01*
X122879887Y-58227903D01*
X122833715Y-58280342D01*
X122767505Y-58299498D01*
X121364500Y-58299498D01*
X121297461Y-58279813D01*
X121251706Y-58227009D01*
X121240500Y-58175498D01*
X121240500Y-56824498D01*
X121260185Y-56757459D01*
X121312989Y-56711704D01*
X121364500Y-56700498D01*
X124332034Y-56700498D01*
X124332062Y-56700500D01*
G37*
G04 #@! TD.AperFunction*
G04 #@! TA.AperFunction,Conductor*
G36*
X128042539Y-50470185D02*
G01*
X128088294Y-50522989D01*
X128099500Y-50574500D01*
X128099500Y-56920500D01*
X128079815Y-56987539D01*
X128027011Y-57033294D01*
X127975500Y-57044500D01*
X127599995Y-57044500D01*
X127554271Y-57049651D01*
X127471873Y-57089333D01*
X127421250Y-57152813D01*
X127364061Y-57192953D01*
X127324303Y-57199500D01*
X126908676Y-57199500D01*
X126841637Y-57179815D01*
X126820995Y-57163181D01*
X126398419Y-56740605D01*
X126383715Y-56713677D01*
X126367123Y-56687859D01*
X126366231Y-56681658D01*
X126364934Y-56679282D01*
X126362100Y-56652924D01*
X126362100Y-56437965D01*
X126381785Y-56370926D01*
X126398419Y-56350284D01*
X126632072Y-56116631D01*
X126960489Y-55788214D01*
X127019798Y-55685487D01*
X127019799Y-55685486D01*
X127050500Y-55570909D01*
X127050500Y-55390691D01*
X127019799Y-55276114D01*
X126960489Y-55173387D01*
X126876613Y-55089511D01*
X126773886Y-55030201D01*
X126659309Y-54999500D01*
X126540691Y-54999500D01*
X126426114Y-55030201D01*
X126426112Y-55030201D01*
X126426112Y-55030202D01*
X126323387Y-55089511D01*
X126323384Y-55089513D01*
X126239513Y-55173384D01*
X126239511Y-55173387D01*
X126180201Y-55276113D01*
X126177092Y-55283621D01*
X126174311Y-55282469D01*
X126150052Y-55324443D01*
X125722609Y-55751886D01*
X125715678Y-55756516D01*
X125712737Y-55760754D01*
X125698545Y-55767965D01*
X125682385Y-55778764D01*
X125674864Y-55781879D01*
X125668414Y-55783608D01*
X125662628Y-55786948D01*
X125655119Y-55790059D01*
X125634698Y-55792255D01*
X125607662Y-55799500D01*
X124467960Y-55799500D01*
X124467932Y-55799498D01*
X124459305Y-55799498D01*
X121364500Y-55799498D01*
X121297461Y-55779813D01*
X121251706Y-55727009D01*
X121240500Y-55675498D01*
X121240500Y-54374499D01*
X121260185Y-54307460D01*
X121312989Y-54261705D01*
X121364500Y-54250499D01*
X125836508Y-54250499D01*
X125836510Y-54250499D01*
X125920596Y-54227968D01*
X125938366Y-54223207D01*
X125938367Y-54223206D01*
X125951088Y-54219798D01*
X126053815Y-54160488D01*
X126960490Y-53253813D01*
X127019799Y-53151086D01*
X127023493Y-53137298D01*
X127031451Y-53107603D01*
X127040918Y-53072270D01*
X127050500Y-53036509D01*
X127050500Y-52790691D01*
X127019799Y-52676114D01*
X126960489Y-52573387D01*
X126876613Y-52489511D01*
X126773886Y-52430201D01*
X126659309Y-52399500D01*
X126540691Y-52399500D01*
X126426114Y-52430201D01*
X126426112Y-52430201D01*
X126426112Y-52430202D01*
X126323387Y-52489511D01*
X126323384Y-52489513D01*
X126239513Y-52573384D01*
X126239511Y-52573387D01*
X126180200Y-52676114D01*
X126180199Y-52676117D01*
X126158132Y-52758470D01*
X126126039Y-52814056D01*
X125626917Y-53313180D01*
X125565594Y-53346665D01*
X125539236Y-53349499D01*
X121249500Y-53349499D01*
X121182461Y-53329814D01*
X121136706Y-53277010D01*
X121125500Y-53225499D01*
X121125500Y-51569195D01*
X121145185Y-51502156D01*
X121197989Y-51456401D01*
X121208924Y-51452271D01*
X121208884Y-51452163D01*
X121212327Y-51450891D01*
X121212347Y-51450886D01*
X121257027Y-51431310D01*
X121323550Y-51368548D01*
X121325701Y-51365336D01*
X121353885Y-51302525D01*
X121356298Y-51219586D01*
X121377923Y-51153151D01*
X121417220Y-51119399D01*
X121417203Y-51119378D01*
X121417804Y-51118898D01*
X121426448Y-51111474D01*
X121428127Y-51110666D01*
X121485149Y-51039163D01*
X121505500Y-50950000D01*
X121505500Y-50574500D01*
X121525185Y-50507461D01*
X121577989Y-50461706D01*
X121629500Y-50450500D01*
X127975500Y-50450500D01*
X128042539Y-50470185D01*
G37*
G04 #@! TD.AperFunction*
G04 #@! TA.AperFunction,Conductor*
G36*
X108805703Y-51388224D02*
G01*
X108812181Y-51394256D01*
X110259491Y-52841566D01*
X110292976Y-52902889D01*
X110287992Y-52972581D01*
X110279200Y-52991242D01*
X110276795Y-52995407D01*
X110276793Y-52995412D01*
X110249500Y-53097272D01*
X110249500Y-53202728D01*
X110250367Y-53209315D01*
X110239601Y-53278350D01*
X110193220Y-53330606D01*
X110127428Y-53349499D01*
X109640537Y-53349499D01*
X109578536Y-53332885D01*
X109573885Y-53330199D01*
X109573883Y-53330198D01*
X109459308Y-53299500D01*
X109459307Y-53299500D01*
X109340689Y-53299500D01*
X109340687Y-53299500D01*
X109226112Y-53330198D01*
X109123384Y-53389510D01*
X109123381Y-53389512D01*
X109039511Y-53473382D01*
X109039509Y-53473385D01*
X108980197Y-53576113D01*
X108949499Y-53690688D01*
X108949499Y-53809309D01*
X108980197Y-53923884D01*
X109015438Y-53984921D01*
X109039509Y-54026613D01*
X109173380Y-54160485D01*
X109173384Y-54160489D01*
X109173388Y-54160492D01*
X109276107Y-54219796D01*
X109276111Y-54219798D01*
X109288830Y-54223206D01*
X109288832Y-54223207D01*
X109288833Y-54223207D01*
X109310357Y-54228974D01*
X109390689Y-54250499D01*
X109390691Y-54250499D01*
X115797269Y-54250499D01*
X115797273Y-54250500D01*
X115902727Y-54250500D01*
X115902731Y-54250499D01*
X120115500Y-54250499D01*
X120182539Y-54270184D01*
X120228294Y-54322988D01*
X120239500Y-54374499D01*
X120239500Y-55675498D01*
X120219815Y-55742537D01*
X120167011Y-55788292D01*
X120115500Y-55799498D01*
X109653935Y-55799498D01*
X109601245Y-55785379D01*
X109600692Y-55786716D01*
X109593185Y-55783606D01*
X109575114Y-55778764D01*
X109465891Y-55749498D01*
X109334106Y-55749498D01*
X109206812Y-55783606D01*
X109092684Y-55849499D01*
X109092681Y-55849501D01*
X108812181Y-56130002D01*
X108750858Y-56163487D01*
X108681166Y-56158503D01*
X108625233Y-56116631D01*
X108600816Y-56051167D01*
X108600500Y-56042321D01*
X108600500Y-51481937D01*
X108620185Y-51414898D01*
X108672989Y-51369143D01*
X108742147Y-51359199D01*
X108805703Y-51388224D01*
G37*
G04 #@! TD.AperFunction*
G04 #@! TA.AperFunction,Conductor*
G36*
X120115555Y-50470185D02*
G01*
X120161310Y-50522989D01*
X120171254Y-50592147D01*
X120160321Y-50623725D01*
X120161719Y-50624304D01*
X120158608Y-50631814D01*
X120124500Y-50759108D01*
X120124500Y-53225499D01*
X120104815Y-53292538D01*
X120052011Y-53338293D01*
X120000500Y-53349499D01*
X116952730Y-53349499D01*
X116952726Y-53349498D01*
X116847272Y-53349498D01*
X116847268Y-53349499D01*
X116355539Y-53349499D01*
X116288500Y-53329814D01*
X116242745Y-53277010D01*
X116235764Y-53257591D01*
X116223207Y-53210725D01*
X116166416Y-53112361D01*
X116169256Y-53110721D01*
X116149574Y-53059847D01*
X116163596Y-52991399D01*
X116212398Y-52941397D01*
X116273142Y-52925500D01*
X117257119Y-52925500D01*
X117257121Y-52925500D01*
X117333548Y-52905021D01*
X117402070Y-52865460D01*
X117458019Y-52809511D01*
X117525579Y-52741951D01*
X118590460Y-51677070D01*
X118608431Y-51645942D01*
X118628132Y-51620264D01*
X118949199Y-51299199D01*
X118949203Y-51299192D01*
X118949205Y-51299191D01*
X118993743Y-51232537D01*
X118993744Y-51232536D01*
X118995355Y-51228647D01*
X119011000Y-51150000D01*
X119011000Y-50950000D01*
X119010999Y-50949997D01*
X119000893Y-50899194D01*
X119000893Y-50850806D01*
X119011000Y-50800000D01*
X119011000Y-50574500D01*
X119030685Y-50507461D01*
X119083489Y-50461706D01*
X119135000Y-50450500D01*
X120048516Y-50450500D01*
X120115555Y-50470185D01*
G37*
G04 #@! TD.AperFunction*
G04 #@! TA.AperFunction,Conductor*
G36*
X115137539Y-50470185D02*
G01*
X115183294Y-50522989D01*
X115194500Y-50574500D01*
X115194500Y-50950004D01*
X115199651Y-50995726D01*
X115199652Y-50995728D01*
X115237220Y-51073738D01*
X115249500Y-51127539D01*
X115249500Y-52027727D01*
X115276793Y-52129587D01*
X115281939Y-52138500D01*
X115298412Y-52206400D01*
X115275560Y-52272427D01*
X115220639Y-52315617D01*
X115174552Y-52324500D01*
X111135437Y-52324500D01*
X111059009Y-52344978D01*
X110990488Y-52384539D01*
X110909128Y-52465900D01*
X110847804Y-52499384D01*
X110778113Y-52494400D01*
X110733766Y-52465899D01*
X109202283Y-50934416D01*
X109168798Y-50873093D01*
X109173097Y-50812972D01*
X109171103Y-50812438D01*
X109175790Y-50794946D01*
X109200500Y-50702727D01*
X109200500Y-50597273D01*
X109200500Y-50597270D01*
X109199633Y-50590684D01*
X109210399Y-50521649D01*
X109256780Y-50469393D01*
X109322572Y-50450500D01*
X115070500Y-50450500D01*
X115137539Y-50470185D01*
G37*
G04 #@! TD.AperFunction*
G04 #@! TA.AperFunction,Conductor*
G36*
X117632039Y-50470185D02*
G01*
X117677794Y-50522989D01*
X117689000Y-50574500D01*
X117689000Y-50800000D01*
X117699305Y-50851806D01*
X117699501Y-50852886D01*
X117699106Y-50856588D01*
X117699106Y-50899192D01*
X117689000Y-50949997D01*
X117689000Y-50949999D01*
X117689000Y-50950000D01*
X117689000Y-51150000D01*
X117704645Y-51228647D01*
X117706256Y-51232536D01*
X117750796Y-51299191D01*
X117750800Y-51299197D01*
X117750803Y-51299201D01*
X117846914Y-51395312D01*
X117880399Y-51456635D01*
X117875415Y-51526327D01*
X117846914Y-51570674D01*
X117129407Y-52288181D01*
X117068084Y-52321666D01*
X117041726Y-52324500D01*
X116125448Y-52324500D01*
X116058409Y-52304815D01*
X116012654Y-52252011D01*
X116002710Y-52182853D01*
X116018060Y-52138501D01*
X116023207Y-52129587D01*
X116050500Y-52027727D01*
X116050500Y-51612741D01*
X116052882Y-51588554D01*
X116059125Y-51557163D01*
X116091508Y-51495251D01*
X116152222Y-51460674D01*
X116162577Y-51458687D01*
X116209546Y-51451734D01*
X116212347Y-51450886D01*
X116257027Y-51431310D01*
X116323550Y-51368548D01*
X116325701Y-51365336D01*
X116353885Y-51302525D01*
X116356298Y-51219586D01*
X116377923Y-51153151D01*
X116417220Y-51119399D01*
X116417203Y-51119378D01*
X116417804Y-51118898D01*
X116426448Y-51111474D01*
X116428127Y-51110666D01*
X116485149Y-51039163D01*
X116505500Y-50950000D01*
X116505500Y-50574500D01*
X116525185Y-50507461D01*
X116577989Y-50461706D01*
X116629500Y-50450500D01*
X117565000Y-50450500D01*
X117632039Y-50470185D01*
G37*
G04 #@! TD.AperFunction*
M02*
