%TF.GenerationSoftware,KiCad,Pcbnew,9.0.0*%
%TF.CreationDate,2025-03-15T13:03:48+01:00*%
%TF.ProjectId,snowpixel,736e6f77-7069-4786-956c-2e6b69636164,rev?*%
%TF.SameCoordinates,Original*%
%TF.FileFunction,Drillmap*%
%TF.FilePolarity,Positive*%
%FSLAX45Y45*%
G04 Gerber Fmt 4.5, Leading zero omitted, Abs format (unit mm)*
G04 Created by KiCad (PCBNEW 9.0.0) date 2025-03-15 13:03:48*
%MOMM*%
%LPD*%
G01*
G04 APERTURE LIST*
%ADD10C,0.100000*%
%ADD11C,0.200000*%
G04 APERTURE END LIST*
D10*
X10840000Y-5025000D02*
X12830000Y-5025000D01*
X12830000Y-7015000D01*
X10840000Y-7015000D01*
X10840000Y-5025000D01*
D11*
D10*
X10865000Y-5050000D02*
X10895000Y-5080000D01*
X10895000Y-5050000D02*
X10865000Y-5080000D01*
X10925000Y-5360000D02*
X10955000Y-5390000D01*
X10955000Y-5360000D02*
X10925000Y-5390000D01*
X10925000Y-6610000D02*
X10955000Y-6640000D01*
X10955000Y-6610000D02*
X10925000Y-6640000D01*
X10925000Y-6900000D02*
X10955000Y-6930000D01*
X10955000Y-6900000D02*
X10925000Y-6930000D01*
X10925000Y-5610000D02*
X10955000Y-5640000D01*
X10955000Y-5610000D02*
X10925000Y-5640000D01*
X10925000Y-5860000D02*
X10955000Y-5890000D01*
X10955000Y-5860000D02*
X10925000Y-5890000D01*
X10925000Y-6110000D02*
X10955000Y-6140000D01*
X10955000Y-6110000D02*
X10925000Y-6140000D01*
X10925000Y-6360000D02*
X10955000Y-6390000D01*
X10955000Y-6360000D02*
X10925000Y-6390000D01*
X10965000Y-5110000D02*
X10995000Y-5140000D01*
X10995000Y-5110000D02*
X10965000Y-5140000D01*
X10987500Y-5491120D02*
X11017500Y-5521120D01*
X11017500Y-5491120D02*
X10987500Y-5521120D01*
X10987500Y-5972500D02*
X11017500Y-6002500D01*
X11017500Y-5972500D02*
X10987500Y-6002500D01*
X10988240Y-6479180D02*
X11018240Y-6509180D01*
X11018240Y-6479180D02*
X10988240Y-6509180D01*
X10990000Y-6232800D02*
X11020000Y-6262800D01*
X11020000Y-6232800D02*
X10990000Y-6262800D01*
X11000000Y-5725000D02*
X11030000Y-5755000D01*
X11030000Y-5725000D02*
X11000000Y-5755000D01*
X11023499Y-6027347D02*
X11053499Y-6057347D01*
X11053499Y-6027347D02*
X11023499Y-6057347D01*
X11050000Y-5300000D02*
X11080000Y-5330000D01*
X11080000Y-5300000D02*
X11050000Y-5330000D01*
X11175000Y-5360000D02*
X11205000Y-5390000D01*
X11205000Y-5360000D02*
X11175000Y-5390000D01*
X11175000Y-5610000D02*
X11205000Y-5640000D01*
X11205000Y-5610000D02*
X11175000Y-5640000D01*
X11175000Y-6900000D02*
X11205000Y-6930000D01*
X11205000Y-6900000D02*
X11175000Y-6930000D01*
X11175000Y-5860000D02*
X11205000Y-5890000D01*
X11205000Y-5860000D02*
X11175000Y-5890000D01*
X11175000Y-6110000D02*
X11205000Y-6140000D01*
X11205000Y-6110000D02*
X11175000Y-6140000D01*
X11175000Y-6360000D02*
X11205000Y-6390000D01*
X11205000Y-6360000D02*
X11175000Y-6390000D01*
X11175000Y-6610000D02*
X11205000Y-6640000D01*
X11205000Y-6610000D02*
X11175000Y-6640000D01*
X11215000Y-5110000D02*
X11245000Y-5140000D01*
X11245000Y-5110000D02*
X11215000Y-5140000D01*
X11237160Y-5488580D02*
X11267160Y-5518580D01*
X11267160Y-5488580D02*
X11237160Y-5518580D01*
X11237160Y-5734960D02*
X11267160Y-5764960D01*
X11267160Y-5734960D02*
X11237160Y-5764960D01*
X11237160Y-5981340D02*
X11267160Y-6011340D01*
X11267160Y-5981340D02*
X11237160Y-6011340D01*
X11237160Y-6230260D02*
X11267160Y-6260260D01*
X11267160Y-6230260D02*
X11237160Y-6260260D01*
X11237160Y-6481720D02*
X11267160Y-6511720D01*
X11267160Y-6481720D02*
X11237160Y-6511720D01*
X11400000Y-6537061D02*
X11430000Y-6567061D01*
X11430000Y-6537061D02*
X11400000Y-6567061D01*
X11425000Y-5360000D02*
X11455000Y-5390000D01*
X11455000Y-5360000D02*
X11425000Y-5390000D01*
X11425000Y-5860000D02*
X11455000Y-5890000D01*
X11455000Y-5860000D02*
X11425000Y-5890000D01*
X11425000Y-6900000D02*
X11455000Y-6930000D01*
X11455000Y-6900000D02*
X11425000Y-6930000D01*
X11425000Y-5610000D02*
X11455000Y-5640000D01*
X11455000Y-5610000D02*
X11425000Y-5640000D01*
X11425000Y-6110000D02*
X11455000Y-6140000D01*
X11455000Y-6110000D02*
X11425000Y-6140000D01*
X11425000Y-6360000D02*
X11455000Y-6390000D01*
X11455000Y-6360000D02*
X11425000Y-6390000D01*
X11465000Y-5110000D02*
X11495000Y-5140000D01*
X11495000Y-5110000D02*
X11465000Y-5140000D01*
X11465000Y-6650000D02*
X11495000Y-6680000D01*
X11495000Y-6650000D02*
X11465000Y-6680000D01*
X11488620Y-5483500D02*
X11518620Y-5513500D01*
X11518620Y-5483500D02*
X11488620Y-5513500D01*
X11488620Y-5732420D02*
X11518620Y-5762420D01*
X11518620Y-5732420D02*
X11488620Y-5762420D01*
X11488620Y-5983880D02*
X11518620Y-6013880D01*
X11518620Y-5983880D02*
X11488620Y-6013880D01*
X11488620Y-6232800D02*
X11518620Y-6262800D01*
X11518620Y-6232800D02*
X11488620Y-6262800D01*
X11488620Y-6484260D02*
X11518620Y-6514260D01*
X11518620Y-6484260D02*
X11488620Y-6514260D01*
X11545969Y-5297500D02*
X11575969Y-5327500D01*
X11575969Y-5297500D02*
X11545969Y-5327500D01*
X11550000Y-5182500D02*
X11580000Y-5212500D01*
X11580000Y-5182500D02*
X11550000Y-5212500D01*
X11650000Y-6538141D02*
X11680000Y-6568141D01*
X11680000Y-6538141D02*
X11650000Y-6568141D01*
X11675000Y-5610000D02*
X11705000Y-5640000D01*
X11705000Y-5610000D02*
X11675000Y-5640000D01*
X11675000Y-6360000D02*
X11705000Y-6390000D01*
X11705000Y-6360000D02*
X11675000Y-6390000D01*
X11675000Y-5360000D02*
X11705000Y-5390000D01*
X11705000Y-5360000D02*
X11675000Y-5390000D01*
X11675000Y-5860000D02*
X11705000Y-5890000D01*
X11705000Y-5860000D02*
X11675000Y-5890000D01*
X11675000Y-6110000D02*
X11705000Y-6140000D01*
X11705000Y-6110000D02*
X11675000Y-6140000D01*
X11675000Y-6900000D02*
X11705000Y-6930000D01*
X11705000Y-6900000D02*
X11675000Y-6930000D01*
X11715000Y-5110000D02*
X11745000Y-5140000D01*
X11745000Y-5110000D02*
X11715000Y-5140000D01*
X11715000Y-6650000D02*
X11745000Y-6680000D01*
X11745000Y-6650000D02*
X11715000Y-6680000D01*
X11737540Y-5480960D02*
X11767540Y-5510960D01*
X11767540Y-5480960D02*
X11737540Y-5510960D01*
X11737540Y-5729880D02*
X11767540Y-5759880D01*
X11767540Y-5729880D02*
X11737540Y-5759880D01*
X11737540Y-5978800D02*
X11767540Y-6008800D01*
X11767540Y-5978800D02*
X11737540Y-6008800D01*
X11737540Y-6232800D02*
X11767540Y-6262800D01*
X11767540Y-6232800D02*
X11737540Y-6262800D01*
X11737540Y-6484260D02*
X11767540Y-6514260D01*
X11767540Y-6484260D02*
X11737540Y-6514260D01*
X11900000Y-6536681D02*
X11930000Y-6566681D01*
X11930000Y-6536681D02*
X11900000Y-6566681D01*
X11925000Y-5360000D02*
X11955000Y-5390000D01*
X11955000Y-5360000D02*
X11925000Y-5390000D01*
X11925000Y-5610000D02*
X11955000Y-5640000D01*
X11955000Y-5610000D02*
X11925000Y-5640000D01*
X11925000Y-6900000D02*
X11955000Y-6930000D01*
X11955000Y-6900000D02*
X11925000Y-6930000D01*
X11925000Y-5860000D02*
X11955000Y-5890000D01*
X11955000Y-5860000D02*
X11925000Y-5890000D01*
X11925000Y-6110000D02*
X11955000Y-6140000D01*
X11955000Y-6110000D02*
X11925000Y-6140000D01*
X11925000Y-6360000D02*
X11955000Y-6390000D01*
X11955000Y-6360000D02*
X11925000Y-6390000D01*
X11965000Y-5110000D02*
X11995000Y-5140000D01*
X11995000Y-5110000D02*
X11965000Y-5140000D01*
X11965000Y-6650000D02*
X11995000Y-6680000D01*
X11995000Y-6650000D02*
X11965000Y-6680000D01*
X11986460Y-5729880D02*
X12016460Y-5759880D01*
X12016460Y-5729880D02*
X11986460Y-5759880D01*
X11986460Y-5978800D02*
X12016460Y-6008800D01*
X12016460Y-5978800D02*
X11986460Y-6008800D01*
X11986460Y-6481720D02*
X12016460Y-6511720D01*
X12016460Y-6481720D02*
X11986460Y-6511720D01*
X11989000Y-5480960D02*
X12019000Y-5510960D01*
X12019000Y-5480960D02*
X11989000Y-5510960D01*
X11989000Y-6232800D02*
X12019000Y-6262800D01*
X12019000Y-6232800D02*
X11989000Y-6262800D01*
X12050000Y-6585000D02*
X12080000Y-6615000D01*
X12080000Y-6585000D02*
X12050000Y-6615000D01*
X12050000Y-6814000D02*
X12080000Y-6844000D01*
X12080000Y-6814000D02*
X12050000Y-6844000D01*
X12154509Y-6539731D02*
X12184509Y-6569731D01*
X12184509Y-6539731D02*
X12154509Y-6569731D01*
X12175000Y-5360000D02*
X12205000Y-5390000D01*
X12205000Y-5360000D02*
X12175000Y-5390000D01*
X12175000Y-5860000D02*
X12205000Y-5890000D01*
X12205000Y-5860000D02*
X12175000Y-5890000D01*
X12175000Y-6110000D02*
X12205000Y-6140000D01*
X12205000Y-6110000D02*
X12175000Y-6140000D01*
X12175000Y-5610000D02*
X12205000Y-5640000D01*
X12205000Y-5610000D02*
X12175000Y-5640000D01*
X12175000Y-6360000D02*
X12205000Y-6390000D01*
X12205000Y-6360000D02*
X12175000Y-6390000D01*
X12175000Y-6900000D02*
X12205000Y-6930000D01*
X12205000Y-6900000D02*
X12175000Y-6930000D01*
X12215000Y-5110000D02*
X12245000Y-5140000D01*
X12245000Y-5110000D02*
X12215000Y-5140000D01*
X12215000Y-6650000D02*
X12245000Y-6680000D01*
X12245000Y-6650000D02*
X12215000Y-6680000D01*
X12235380Y-6227720D02*
X12265380Y-6257720D01*
X12265380Y-6227720D02*
X12235380Y-6257720D01*
X12237920Y-5480960D02*
X12267920Y-5510960D01*
X12267920Y-5480960D02*
X12237920Y-5510960D01*
X12237920Y-5729880D02*
X12267920Y-5759880D01*
X12267920Y-5729880D02*
X12237920Y-5759880D01*
X12237920Y-5978800D02*
X12267920Y-6008800D01*
X12267920Y-5978800D02*
X12237920Y-6008800D01*
X12237920Y-6481720D02*
X12267920Y-6511720D01*
X12267920Y-6481720D02*
X12237920Y-6511720D01*
X12300000Y-6579000D02*
X12330000Y-6609000D01*
X12330000Y-6579000D02*
X12300000Y-6609000D01*
X12300000Y-6807000D02*
X12330000Y-6837000D01*
X12330000Y-6807000D02*
X12300000Y-6837000D01*
X12400000Y-6536301D02*
X12430000Y-6566301D01*
X12430000Y-6536301D02*
X12400000Y-6566301D01*
X12425000Y-5360000D02*
X12455000Y-5390000D01*
X12455000Y-5360000D02*
X12425000Y-5390000D01*
X12425000Y-5610000D02*
X12455000Y-5640000D01*
X12455000Y-5610000D02*
X12425000Y-5640000D01*
X12425000Y-6900000D02*
X12455000Y-6930000D01*
X12455000Y-6900000D02*
X12425000Y-6930000D01*
X12425000Y-5860000D02*
X12455000Y-5890000D01*
X12455000Y-5860000D02*
X12425000Y-5890000D01*
X12425000Y-6110000D02*
X12455000Y-6140000D01*
X12455000Y-6110000D02*
X12425000Y-6140000D01*
X12425000Y-6360000D02*
X12455000Y-6390000D01*
X12455000Y-6360000D02*
X12425000Y-6390000D01*
X12465000Y-5110000D02*
X12495000Y-5140000D01*
X12495000Y-5110000D02*
X12465000Y-5140000D01*
X12465000Y-6650000D02*
X12495000Y-6680000D01*
X12495000Y-6650000D02*
X12465000Y-6680000D01*
X12486840Y-5480960D02*
X12516840Y-5510960D01*
X12516840Y-5480960D02*
X12486840Y-5510960D01*
X12486840Y-6230260D02*
X12516840Y-6260260D01*
X12516840Y-6230260D02*
X12486840Y-6260260D01*
X12486840Y-6481720D02*
X12516840Y-6511720D01*
X12516840Y-6481720D02*
X12486840Y-6511720D01*
X12489380Y-5729880D02*
X12519380Y-5759880D01*
X12519380Y-5729880D02*
X12489380Y-5759880D01*
X12489380Y-5981340D02*
X12519380Y-6011340D01*
X12519380Y-5981340D02*
X12489380Y-6011340D01*
X12550000Y-6035000D02*
X12580000Y-6065000D01*
X12580000Y-6035000D02*
X12550000Y-6065000D01*
X12550000Y-6717940D02*
X12580000Y-6747940D01*
X12580000Y-6717940D02*
X12550000Y-6747940D01*
X12550000Y-6866920D02*
X12580000Y-6896920D01*
X12580000Y-6866920D02*
X12550000Y-6896920D01*
X12650000Y-5270000D02*
X12680000Y-5300000D01*
X12680000Y-5270000D02*
X12650000Y-5300000D01*
X12650000Y-5530000D02*
X12680000Y-5560000D01*
X12680000Y-5530000D02*
X12650000Y-5560000D01*
X12650000Y-5755000D02*
X12680000Y-5785000D01*
X12680000Y-5755000D02*
X12650000Y-5785000D01*
X12650000Y-6017500D02*
X12680000Y-6047500D01*
X12680000Y-6017500D02*
X12650000Y-6047500D01*
X12650000Y-6529980D02*
X12680000Y-6559980D01*
X12680000Y-6529980D02*
X12650000Y-6559980D01*
X12651940Y-6273440D02*
X12681940Y-6303440D01*
X12681940Y-6273440D02*
X12651940Y-6303440D01*
X12675000Y-6900000D02*
X12705000Y-6930000D01*
X12705000Y-6900000D02*
X12675000Y-6930000D01*
X12715000Y-5110000D02*
X12745000Y-5140000D01*
X12745000Y-5110000D02*
X12715000Y-5140000D01*
X12715000Y-5650000D02*
X12745000Y-5680000D01*
X12745000Y-5650000D02*
X12715000Y-5680000D01*
X12715000Y-5900000D02*
X12745000Y-5930000D01*
X12745000Y-5900000D02*
X12715000Y-5930000D01*
X12715000Y-6150000D02*
X12745000Y-6180000D01*
X12745000Y-6150000D02*
X12715000Y-6180000D01*
X12715000Y-6400000D02*
X12745000Y-6430000D01*
X12745000Y-6400000D02*
X12715000Y-6430000D01*
X12715000Y-6650000D02*
X12745000Y-6680000D01*
X12745000Y-6650000D02*
X12715000Y-6680000D01*
X12718460Y-5400000D02*
X12748460Y-5430000D01*
X12748460Y-5400000D02*
X12718460Y-5430000D01*
X12775000Y-6960000D02*
X12805000Y-6990000D01*
X12805000Y-6960000D02*
X12775000Y-6990000D01*
X10869500Y-6020000D02*
G75*
G02*
X10809500Y-6020000I-30000J0D01*
G01*
X10809500Y-6020000D02*
G75*
G02*
X10869500Y-6020000I30000J0D01*
G01*
X10870000Y-5270000D02*
G75*
G02*
X10810000Y-5270000I-30000J0D01*
G01*
X10810000Y-5270000D02*
G75*
G02*
X10870000Y-5270000I30000J0D01*
G01*
X10870000Y-5520000D02*
G75*
G02*
X10810000Y-5520000I-30000J0D01*
G01*
X10810000Y-5520000D02*
G75*
G02*
X10870000Y-5520000I30000J0D01*
G01*
X10870000Y-5770000D02*
G75*
G02*
X10810000Y-5770000I-30000J0D01*
G01*
X10810000Y-5770000D02*
G75*
G02*
X10870000Y-5770000I30000J0D01*
G01*
X10870000Y-6270000D02*
G75*
G02*
X10810000Y-6270000I-30000J0D01*
G01*
X10810000Y-6270000D02*
G75*
G02*
X10870000Y-6270000I30000J0D01*
G01*
X10870000Y-6520000D02*
G75*
G02*
X10810000Y-6520000I-30000J0D01*
G01*
X10810000Y-6520000D02*
G75*
G02*
X10870000Y-6520000I30000J0D01*
G01*
X10870000Y-6770000D02*
G75*
G02*
X10810000Y-6770000I-30000J0D01*
G01*
X10810000Y-6770000D02*
G75*
G02*
X10870000Y-6770000I30000J0D01*
G01*
X11115000Y-5025000D02*
G75*
G02*
X11055000Y-5025000I-30000J0D01*
G01*
X11055000Y-5025000D02*
G75*
G02*
X11115000Y-5025000I30000J0D01*
G01*
X11115000Y-7015000D02*
G75*
G02*
X11055000Y-7015000I-30000J0D01*
G01*
X11055000Y-7015000D02*
G75*
G02*
X11115000Y-7015000I30000J0D01*
G01*
X11365000Y-5025000D02*
G75*
G02*
X11305000Y-5025000I-30000J0D01*
G01*
X11305000Y-5025000D02*
G75*
G02*
X11365000Y-5025000I30000J0D01*
G01*
X11365000Y-7015000D02*
G75*
G02*
X11305000Y-7015000I-30000J0D01*
G01*
X11305000Y-7015000D02*
G75*
G02*
X11365000Y-7015000I30000J0D01*
G01*
X11615000Y-5025000D02*
G75*
G02*
X11555000Y-5025000I-30000J0D01*
G01*
X11555000Y-5025000D02*
G75*
G02*
X11615000Y-5025000I30000J0D01*
G01*
X11615000Y-7015000D02*
G75*
G02*
X11555000Y-7015000I-30000J0D01*
G01*
X11555000Y-7015000D02*
G75*
G02*
X11615000Y-7015000I30000J0D01*
G01*
X11865000Y-5025000D02*
G75*
G02*
X11805000Y-5025000I-30000J0D01*
G01*
X11805000Y-5025000D02*
G75*
G02*
X11865000Y-5025000I30000J0D01*
G01*
X11865000Y-7017500D02*
G75*
G02*
X11805000Y-7017500I-30000J0D01*
G01*
X11805000Y-7017500D02*
G75*
G02*
X11865000Y-7017500I30000J0D01*
G01*
X12115000Y-5025000D02*
G75*
G02*
X12055000Y-5025000I-30000J0D01*
G01*
X12055000Y-5025000D02*
G75*
G02*
X12115000Y-5025000I30000J0D01*
G01*
X12115000Y-7017977D02*
G75*
G02*
X12055000Y-7017977I-30000J0D01*
G01*
X12055000Y-7017977D02*
G75*
G02*
X12115000Y-7017977I30000J0D01*
G01*
X12365000Y-5025000D02*
G75*
G02*
X12305000Y-5025000I-30000J0D01*
G01*
X12305000Y-5025000D02*
G75*
G02*
X12365000Y-5025000I30000J0D01*
G01*
X12365000Y-7015000D02*
G75*
G02*
X12305000Y-7015000I-30000J0D01*
G01*
X12305000Y-7015000D02*
G75*
G02*
X12365000Y-7015000I30000J0D01*
G01*
X12615000Y-5025000D02*
G75*
G02*
X12555000Y-5025000I-30000J0D01*
G01*
X12555000Y-5025000D02*
G75*
G02*
X12615000Y-5025000I30000J0D01*
G01*
X12615000Y-7015000D02*
G75*
G02*
X12555000Y-7015000I-30000J0D01*
G01*
X12555000Y-7015000D02*
G75*
G02*
X12615000Y-7015000I30000J0D01*
G01*
X12860000Y-5270000D02*
G75*
G02*
X12800000Y-5270000I-30000J0D01*
G01*
X12800000Y-5270000D02*
G75*
G02*
X12860000Y-5270000I30000J0D01*
G01*
X12860000Y-5520000D02*
G75*
G02*
X12800000Y-5520000I-30000J0D01*
G01*
X12800000Y-5520000D02*
G75*
G02*
X12860000Y-5520000I30000J0D01*
G01*
X12860000Y-5770000D02*
G75*
G02*
X12800000Y-5770000I-30000J0D01*
G01*
X12800000Y-5770000D02*
G75*
G02*
X12860000Y-5770000I30000J0D01*
G01*
X12860000Y-6020000D02*
G75*
G02*
X12800000Y-6020000I-30000J0D01*
G01*
X12800000Y-6020000D02*
G75*
G02*
X12860000Y-6020000I30000J0D01*
G01*
X12860000Y-6270000D02*
G75*
G02*
X12800000Y-6270000I-30000J0D01*
G01*
X12800000Y-6270000D02*
G75*
G02*
X12860000Y-6270000I30000J0D01*
G01*
X12860000Y-6520000D02*
G75*
G02*
X12800000Y-6520000I-30000J0D01*
G01*
X12800000Y-6520000D02*
G75*
G02*
X12860000Y-6520000I30000J0D01*
G01*
X12860000Y-6770000D02*
G75*
G02*
X12800000Y-6770000I-30000J0D01*
G01*
X12800000Y-6770000D02*
G75*
G02*
X12860000Y-6770000I30000J0D01*
G01*
D11*
X11095777Y-7331484D02*
X11095777Y-7131484D01*
X11095777Y-7131484D02*
X11143396Y-7131484D01*
X11143396Y-7131484D02*
X11171967Y-7141008D01*
X11171967Y-7141008D02*
X11191015Y-7160055D01*
X11191015Y-7160055D02*
X11200539Y-7179103D01*
X11200539Y-7179103D02*
X11210062Y-7217198D01*
X11210062Y-7217198D02*
X11210062Y-7245769D01*
X11210062Y-7245769D02*
X11200539Y-7283865D01*
X11200539Y-7283865D02*
X11191015Y-7302912D01*
X11191015Y-7302912D02*
X11171967Y-7321960D01*
X11171967Y-7321960D02*
X11143396Y-7331484D01*
X11143396Y-7331484D02*
X11095777Y-7331484D01*
X11295777Y-7331484D02*
X11295777Y-7198150D01*
X11295777Y-7236246D02*
X11305301Y-7217198D01*
X11305301Y-7217198D02*
X11314824Y-7207674D01*
X11314824Y-7207674D02*
X11333872Y-7198150D01*
X11333872Y-7198150D02*
X11352920Y-7198150D01*
X11419586Y-7331484D02*
X11419586Y-7198150D01*
X11419586Y-7131484D02*
X11410062Y-7141008D01*
X11410062Y-7141008D02*
X11419586Y-7150531D01*
X11419586Y-7150531D02*
X11429110Y-7141008D01*
X11429110Y-7141008D02*
X11419586Y-7131484D01*
X11419586Y-7131484D02*
X11419586Y-7150531D01*
X11543396Y-7331484D02*
X11524348Y-7321960D01*
X11524348Y-7321960D02*
X11514824Y-7302912D01*
X11514824Y-7302912D02*
X11514824Y-7131484D01*
X11648158Y-7331484D02*
X11629110Y-7321960D01*
X11629110Y-7321960D02*
X11619586Y-7302912D01*
X11619586Y-7302912D02*
X11619586Y-7131484D01*
X11876729Y-7331484D02*
X11876729Y-7131484D01*
X11876729Y-7131484D02*
X11943396Y-7274341D01*
X11943396Y-7274341D02*
X12010062Y-7131484D01*
X12010062Y-7131484D02*
X12010062Y-7331484D01*
X12191015Y-7331484D02*
X12191015Y-7226722D01*
X12191015Y-7226722D02*
X12181491Y-7207674D01*
X12181491Y-7207674D02*
X12162443Y-7198150D01*
X12162443Y-7198150D02*
X12124348Y-7198150D01*
X12124348Y-7198150D02*
X12105301Y-7207674D01*
X12191015Y-7321960D02*
X12171967Y-7331484D01*
X12171967Y-7331484D02*
X12124348Y-7331484D01*
X12124348Y-7331484D02*
X12105301Y-7321960D01*
X12105301Y-7321960D02*
X12095777Y-7302912D01*
X12095777Y-7302912D02*
X12095777Y-7283865D01*
X12095777Y-7283865D02*
X12105301Y-7264817D01*
X12105301Y-7264817D02*
X12124348Y-7255293D01*
X12124348Y-7255293D02*
X12171967Y-7255293D01*
X12171967Y-7255293D02*
X12191015Y-7245769D01*
X12286253Y-7198150D02*
X12286253Y-7398150D01*
X12286253Y-7207674D02*
X12305301Y-7198150D01*
X12305301Y-7198150D02*
X12343396Y-7198150D01*
X12343396Y-7198150D02*
X12362443Y-7207674D01*
X12362443Y-7207674D02*
X12371967Y-7217198D01*
X12371967Y-7217198D02*
X12381491Y-7236246D01*
X12381491Y-7236246D02*
X12381491Y-7293388D01*
X12381491Y-7293388D02*
X12371967Y-7312436D01*
X12371967Y-7312436D02*
X12362443Y-7321960D01*
X12362443Y-7321960D02*
X12343396Y-7331484D01*
X12343396Y-7331484D02*
X12305301Y-7331484D01*
X12305301Y-7331484D02*
X12286253Y-7321960D01*
X12467205Y-7312436D02*
X12476729Y-7321960D01*
X12476729Y-7321960D02*
X12467205Y-7331484D01*
X12467205Y-7331484D02*
X12457682Y-7321960D01*
X12457682Y-7321960D02*
X12467205Y-7312436D01*
X12467205Y-7312436D02*
X12467205Y-7331484D01*
X12467205Y-7207674D02*
X12476729Y-7217198D01*
X12476729Y-7217198D02*
X12467205Y-7226722D01*
X12467205Y-7226722D02*
X12457682Y-7217198D01*
X12457682Y-7217198D02*
X12467205Y-7207674D01*
X12467205Y-7207674D02*
X12467205Y-7226722D01*
D10*
X10805000Y-7645000D02*
X10835000Y-7675000D01*
X10835000Y-7645000D02*
X10805000Y-7675000D01*
D11*
X11133872Y-7551484D02*
X11152920Y-7551484D01*
X11152920Y-7551484D02*
X11171967Y-7561008D01*
X11171967Y-7561008D02*
X11181491Y-7570531D01*
X11181491Y-7570531D02*
X11191015Y-7589579D01*
X11191015Y-7589579D02*
X11200539Y-7627674D01*
X11200539Y-7627674D02*
X11200539Y-7675293D01*
X11200539Y-7675293D02*
X11191015Y-7713388D01*
X11191015Y-7713388D02*
X11181491Y-7732436D01*
X11181491Y-7732436D02*
X11171967Y-7741960D01*
X11171967Y-7741960D02*
X11152920Y-7751484D01*
X11152920Y-7751484D02*
X11133872Y-7751484D01*
X11133872Y-7751484D02*
X11114824Y-7741960D01*
X11114824Y-7741960D02*
X11105301Y-7732436D01*
X11105301Y-7732436D02*
X11095777Y-7713388D01*
X11095777Y-7713388D02*
X11086253Y-7675293D01*
X11086253Y-7675293D02*
X11086253Y-7627674D01*
X11086253Y-7627674D02*
X11095777Y-7589579D01*
X11095777Y-7589579D02*
X11105301Y-7570531D01*
X11105301Y-7570531D02*
X11114824Y-7561008D01*
X11114824Y-7561008D02*
X11133872Y-7551484D01*
X11286253Y-7732436D02*
X11295777Y-7741960D01*
X11295777Y-7741960D02*
X11286253Y-7751484D01*
X11286253Y-7751484D02*
X11276729Y-7741960D01*
X11276729Y-7741960D02*
X11286253Y-7732436D01*
X11286253Y-7732436D02*
X11286253Y-7751484D01*
X11362443Y-7551484D02*
X11486253Y-7551484D01*
X11486253Y-7551484D02*
X11419586Y-7627674D01*
X11419586Y-7627674D02*
X11448158Y-7627674D01*
X11448158Y-7627674D02*
X11467205Y-7637198D01*
X11467205Y-7637198D02*
X11476729Y-7646722D01*
X11476729Y-7646722D02*
X11486253Y-7665769D01*
X11486253Y-7665769D02*
X11486253Y-7713388D01*
X11486253Y-7713388D02*
X11476729Y-7732436D01*
X11476729Y-7732436D02*
X11467205Y-7741960D01*
X11467205Y-7741960D02*
X11448158Y-7751484D01*
X11448158Y-7751484D02*
X11391015Y-7751484D01*
X11391015Y-7751484D02*
X11371967Y-7741960D01*
X11371967Y-7741960D02*
X11362443Y-7732436D01*
X11610062Y-7551484D02*
X11629110Y-7551484D01*
X11629110Y-7551484D02*
X11648158Y-7561008D01*
X11648158Y-7561008D02*
X11657682Y-7570531D01*
X11657682Y-7570531D02*
X11667205Y-7589579D01*
X11667205Y-7589579D02*
X11676729Y-7627674D01*
X11676729Y-7627674D02*
X11676729Y-7675293D01*
X11676729Y-7675293D02*
X11667205Y-7713388D01*
X11667205Y-7713388D02*
X11657682Y-7732436D01*
X11657682Y-7732436D02*
X11648158Y-7741960D01*
X11648158Y-7741960D02*
X11629110Y-7751484D01*
X11629110Y-7751484D02*
X11610062Y-7751484D01*
X11610062Y-7751484D02*
X11591015Y-7741960D01*
X11591015Y-7741960D02*
X11581491Y-7732436D01*
X11581491Y-7732436D02*
X11571967Y-7713388D01*
X11571967Y-7713388D02*
X11562443Y-7675293D01*
X11562443Y-7675293D02*
X11562443Y-7627674D01*
X11562443Y-7627674D02*
X11571967Y-7589579D01*
X11571967Y-7589579D02*
X11581491Y-7570531D01*
X11581491Y-7570531D02*
X11591015Y-7561008D01*
X11591015Y-7561008D02*
X11610062Y-7551484D01*
X11800539Y-7551484D02*
X11819586Y-7551484D01*
X11819586Y-7551484D02*
X11838634Y-7561008D01*
X11838634Y-7561008D02*
X11848158Y-7570531D01*
X11848158Y-7570531D02*
X11857682Y-7589579D01*
X11857682Y-7589579D02*
X11867205Y-7627674D01*
X11867205Y-7627674D02*
X11867205Y-7675293D01*
X11867205Y-7675293D02*
X11857682Y-7713388D01*
X11857682Y-7713388D02*
X11848158Y-7732436D01*
X11848158Y-7732436D02*
X11838634Y-7741960D01*
X11838634Y-7741960D02*
X11819586Y-7751484D01*
X11819586Y-7751484D02*
X11800539Y-7751484D01*
X11800539Y-7751484D02*
X11781491Y-7741960D01*
X11781491Y-7741960D02*
X11771967Y-7732436D01*
X11771967Y-7732436D02*
X11762443Y-7713388D01*
X11762443Y-7713388D02*
X11752920Y-7675293D01*
X11752920Y-7675293D02*
X11752920Y-7627674D01*
X11752920Y-7627674D02*
X11762443Y-7589579D01*
X11762443Y-7589579D02*
X11771967Y-7570531D01*
X11771967Y-7570531D02*
X11781491Y-7561008D01*
X11781491Y-7561008D02*
X11800539Y-7551484D01*
X11952920Y-7751484D02*
X11952920Y-7618150D01*
X11952920Y-7637198D02*
X11962443Y-7627674D01*
X11962443Y-7627674D02*
X11981491Y-7618150D01*
X11981491Y-7618150D02*
X12010063Y-7618150D01*
X12010063Y-7618150D02*
X12029110Y-7627674D01*
X12029110Y-7627674D02*
X12038634Y-7646722D01*
X12038634Y-7646722D02*
X12038634Y-7751484D01*
X12038634Y-7646722D02*
X12048158Y-7627674D01*
X12048158Y-7627674D02*
X12067205Y-7618150D01*
X12067205Y-7618150D02*
X12095777Y-7618150D01*
X12095777Y-7618150D02*
X12114824Y-7627674D01*
X12114824Y-7627674D02*
X12124348Y-7646722D01*
X12124348Y-7646722D02*
X12124348Y-7751484D01*
X12219586Y-7751484D02*
X12219586Y-7618150D01*
X12219586Y-7637198D02*
X12229110Y-7627674D01*
X12229110Y-7627674D02*
X12248158Y-7618150D01*
X12248158Y-7618150D02*
X12276729Y-7618150D01*
X12276729Y-7618150D02*
X12295777Y-7627674D01*
X12295777Y-7627674D02*
X12305301Y-7646722D01*
X12305301Y-7646722D02*
X12305301Y-7751484D01*
X12305301Y-7646722D02*
X12314824Y-7627674D01*
X12314824Y-7627674D02*
X12333872Y-7618150D01*
X12333872Y-7618150D02*
X12362443Y-7618150D01*
X12362443Y-7618150D02*
X12381491Y-7627674D01*
X12381491Y-7627674D02*
X12391015Y-7646722D01*
X12391015Y-7646722D02*
X12391015Y-7751484D01*
X12781491Y-7541960D02*
X12610063Y-7799103D01*
X13038634Y-7551484D02*
X13057682Y-7551484D01*
X13057682Y-7551484D02*
X13076729Y-7561008D01*
X13076729Y-7561008D02*
X13086253Y-7570531D01*
X13086253Y-7570531D02*
X13095777Y-7589579D01*
X13095777Y-7589579D02*
X13105301Y-7627674D01*
X13105301Y-7627674D02*
X13105301Y-7675293D01*
X13105301Y-7675293D02*
X13095777Y-7713388D01*
X13095777Y-7713388D02*
X13086253Y-7732436D01*
X13086253Y-7732436D02*
X13076729Y-7741960D01*
X13076729Y-7741960D02*
X13057682Y-7751484D01*
X13057682Y-7751484D02*
X13038634Y-7751484D01*
X13038634Y-7751484D02*
X13019586Y-7741960D01*
X13019586Y-7741960D02*
X13010063Y-7732436D01*
X13010063Y-7732436D02*
X13000539Y-7713388D01*
X13000539Y-7713388D02*
X12991015Y-7675293D01*
X12991015Y-7675293D02*
X12991015Y-7627674D01*
X12991015Y-7627674D02*
X13000539Y-7589579D01*
X13000539Y-7589579D02*
X13010063Y-7570531D01*
X13010063Y-7570531D02*
X13019586Y-7561008D01*
X13019586Y-7561008D02*
X13038634Y-7551484D01*
X13191015Y-7732436D02*
X13200539Y-7741960D01*
X13200539Y-7741960D02*
X13191015Y-7751484D01*
X13191015Y-7751484D02*
X13181491Y-7741960D01*
X13181491Y-7741960D02*
X13191015Y-7732436D01*
X13191015Y-7732436D02*
X13191015Y-7751484D01*
X13324348Y-7551484D02*
X13343396Y-7551484D01*
X13343396Y-7551484D02*
X13362444Y-7561008D01*
X13362444Y-7561008D02*
X13371967Y-7570531D01*
X13371967Y-7570531D02*
X13381491Y-7589579D01*
X13381491Y-7589579D02*
X13391015Y-7627674D01*
X13391015Y-7627674D02*
X13391015Y-7675293D01*
X13391015Y-7675293D02*
X13381491Y-7713388D01*
X13381491Y-7713388D02*
X13371967Y-7732436D01*
X13371967Y-7732436D02*
X13362444Y-7741960D01*
X13362444Y-7741960D02*
X13343396Y-7751484D01*
X13343396Y-7751484D02*
X13324348Y-7751484D01*
X13324348Y-7751484D02*
X13305301Y-7741960D01*
X13305301Y-7741960D02*
X13295777Y-7732436D01*
X13295777Y-7732436D02*
X13286253Y-7713388D01*
X13286253Y-7713388D02*
X13276729Y-7675293D01*
X13276729Y-7675293D02*
X13276729Y-7627674D01*
X13276729Y-7627674D02*
X13286253Y-7589579D01*
X13286253Y-7589579D02*
X13295777Y-7570531D01*
X13295777Y-7570531D02*
X13305301Y-7561008D01*
X13305301Y-7561008D02*
X13324348Y-7551484D01*
X13581491Y-7751484D02*
X13467206Y-7751484D01*
X13524348Y-7751484D02*
X13524348Y-7551484D01*
X13524348Y-7551484D02*
X13505301Y-7580055D01*
X13505301Y-7580055D02*
X13486253Y-7599103D01*
X13486253Y-7599103D02*
X13467206Y-7608627D01*
X13771967Y-7751484D02*
X13657682Y-7751484D01*
X13714825Y-7751484D02*
X13714825Y-7551484D01*
X13714825Y-7551484D02*
X13695777Y-7580055D01*
X13695777Y-7580055D02*
X13676729Y-7599103D01*
X13676729Y-7599103D02*
X13657682Y-7608627D01*
X13886253Y-7637198D02*
X13867206Y-7627674D01*
X13867206Y-7627674D02*
X13857682Y-7618150D01*
X13857682Y-7618150D02*
X13848158Y-7599103D01*
X13848158Y-7599103D02*
X13848158Y-7589579D01*
X13848158Y-7589579D02*
X13857682Y-7570531D01*
X13857682Y-7570531D02*
X13867206Y-7561008D01*
X13867206Y-7561008D02*
X13886253Y-7551484D01*
X13886253Y-7551484D02*
X13924348Y-7551484D01*
X13924348Y-7551484D02*
X13943396Y-7561008D01*
X13943396Y-7561008D02*
X13952920Y-7570531D01*
X13952920Y-7570531D02*
X13962444Y-7589579D01*
X13962444Y-7589579D02*
X13962444Y-7599103D01*
X13962444Y-7599103D02*
X13952920Y-7618150D01*
X13952920Y-7618150D02*
X13943396Y-7627674D01*
X13943396Y-7627674D02*
X13924348Y-7637198D01*
X13924348Y-7637198D02*
X13886253Y-7637198D01*
X13886253Y-7637198D02*
X13867206Y-7646722D01*
X13867206Y-7646722D02*
X13857682Y-7656246D01*
X13857682Y-7656246D02*
X13848158Y-7675293D01*
X13848158Y-7675293D02*
X13848158Y-7713388D01*
X13848158Y-7713388D02*
X13857682Y-7732436D01*
X13857682Y-7732436D02*
X13867206Y-7741960D01*
X13867206Y-7741960D02*
X13886253Y-7751484D01*
X13886253Y-7751484D02*
X13924348Y-7751484D01*
X13924348Y-7751484D02*
X13943396Y-7741960D01*
X13943396Y-7741960D02*
X13952920Y-7732436D01*
X13952920Y-7732436D02*
X13962444Y-7713388D01*
X13962444Y-7713388D02*
X13962444Y-7675293D01*
X13962444Y-7675293D02*
X13952920Y-7656246D01*
X13952920Y-7656246D02*
X13943396Y-7646722D01*
X13943396Y-7646722D02*
X13924348Y-7637198D01*
X14038634Y-7551484D02*
X14038634Y-7589579D01*
X14114825Y-7551484D02*
X14114825Y-7589579D01*
X14410063Y-7827674D02*
X14400539Y-7818150D01*
X14400539Y-7818150D02*
X14381491Y-7789579D01*
X14381491Y-7789579D02*
X14371968Y-7770531D01*
X14371968Y-7770531D02*
X14362444Y-7741960D01*
X14362444Y-7741960D02*
X14352920Y-7694341D01*
X14352920Y-7694341D02*
X14352920Y-7656246D01*
X14352920Y-7656246D02*
X14362444Y-7608627D01*
X14362444Y-7608627D02*
X14371968Y-7580055D01*
X14371968Y-7580055D02*
X14381491Y-7561008D01*
X14381491Y-7561008D02*
X14400539Y-7532436D01*
X14400539Y-7532436D02*
X14410063Y-7522912D01*
X14591015Y-7751484D02*
X14476729Y-7751484D01*
X14533872Y-7751484D02*
X14533872Y-7551484D01*
X14533872Y-7551484D02*
X14514825Y-7580055D01*
X14514825Y-7580055D02*
X14495777Y-7599103D01*
X14495777Y-7599103D02*
X14476729Y-7608627D01*
X14667206Y-7570531D02*
X14676729Y-7561008D01*
X14676729Y-7561008D02*
X14695777Y-7551484D01*
X14695777Y-7551484D02*
X14743396Y-7551484D01*
X14743396Y-7551484D02*
X14762444Y-7561008D01*
X14762444Y-7561008D02*
X14771968Y-7570531D01*
X14771968Y-7570531D02*
X14781491Y-7589579D01*
X14781491Y-7589579D02*
X14781491Y-7608627D01*
X14781491Y-7608627D02*
X14771968Y-7637198D01*
X14771968Y-7637198D02*
X14657682Y-7751484D01*
X14657682Y-7751484D02*
X14781491Y-7751484D01*
X14848158Y-7551484D02*
X14971968Y-7551484D01*
X14971968Y-7551484D02*
X14905301Y-7627674D01*
X14905301Y-7627674D02*
X14933872Y-7627674D01*
X14933872Y-7627674D02*
X14952920Y-7637198D01*
X14952920Y-7637198D02*
X14962444Y-7646722D01*
X14962444Y-7646722D02*
X14971968Y-7665769D01*
X14971968Y-7665769D02*
X14971968Y-7713388D01*
X14971968Y-7713388D02*
X14962444Y-7732436D01*
X14962444Y-7732436D02*
X14952920Y-7741960D01*
X14952920Y-7741960D02*
X14933872Y-7751484D01*
X14933872Y-7751484D02*
X14876729Y-7751484D01*
X14876729Y-7751484D02*
X14857682Y-7741960D01*
X14857682Y-7741960D02*
X14848158Y-7732436D01*
X15210063Y-7751484D02*
X15210063Y-7551484D01*
X15295777Y-7751484D02*
X15295777Y-7646722D01*
X15295777Y-7646722D02*
X15286253Y-7627674D01*
X15286253Y-7627674D02*
X15267206Y-7618150D01*
X15267206Y-7618150D02*
X15238634Y-7618150D01*
X15238634Y-7618150D02*
X15219587Y-7627674D01*
X15219587Y-7627674D02*
X15210063Y-7637198D01*
X15419587Y-7751484D02*
X15400539Y-7741960D01*
X15400539Y-7741960D02*
X15391015Y-7732436D01*
X15391015Y-7732436D02*
X15381491Y-7713388D01*
X15381491Y-7713388D02*
X15381491Y-7656246D01*
X15381491Y-7656246D02*
X15391015Y-7637198D01*
X15391015Y-7637198D02*
X15400539Y-7627674D01*
X15400539Y-7627674D02*
X15419587Y-7618150D01*
X15419587Y-7618150D02*
X15448158Y-7618150D01*
X15448158Y-7618150D02*
X15467206Y-7627674D01*
X15467206Y-7627674D02*
X15476730Y-7637198D01*
X15476730Y-7637198D02*
X15486253Y-7656246D01*
X15486253Y-7656246D02*
X15486253Y-7713388D01*
X15486253Y-7713388D02*
X15476730Y-7732436D01*
X15476730Y-7732436D02*
X15467206Y-7741960D01*
X15467206Y-7741960D02*
X15448158Y-7751484D01*
X15448158Y-7751484D02*
X15419587Y-7751484D01*
X15600539Y-7751484D02*
X15581491Y-7741960D01*
X15581491Y-7741960D02*
X15571968Y-7722912D01*
X15571968Y-7722912D02*
X15571968Y-7551484D01*
X15752920Y-7741960D02*
X15733872Y-7751484D01*
X15733872Y-7751484D02*
X15695777Y-7751484D01*
X15695777Y-7751484D02*
X15676730Y-7741960D01*
X15676730Y-7741960D02*
X15667206Y-7722912D01*
X15667206Y-7722912D02*
X15667206Y-7646722D01*
X15667206Y-7646722D02*
X15676730Y-7627674D01*
X15676730Y-7627674D02*
X15695777Y-7618150D01*
X15695777Y-7618150D02*
X15733872Y-7618150D01*
X15733872Y-7618150D02*
X15752920Y-7627674D01*
X15752920Y-7627674D02*
X15762444Y-7646722D01*
X15762444Y-7646722D02*
X15762444Y-7665769D01*
X15762444Y-7665769D02*
X15667206Y-7684817D01*
X15838634Y-7741960D02*
X15857682Y-7751484D01*
X15857682Y-7751484D02*
X15895777Y-7751484D01*
X15895777Y-7751484D02*
X15914825Y-7741960D01*
X15914825Y-7741960D02*
X15924349Y-7722912D01*
X15924349Y-7722912D02*
X15924349Y-7713388D01*
X15924349Y-7713388D02*
X15914825Y-7694341D01*
X15914825Y-7694341D02*
X15895777Y-7684817D01*
X15895777Y-7684817D02*
X15867206Y-7684817D01*
X15867206Y-7684817D02*
X15848158Y-7675293D01*
X15848158Y-7675293D02*
X15838634Y-7656246D01*
X15838634Y-7656246D02*
X15838634Y-7646722D01*
X15838634Y-7646722D02*
X15848158Y-7627674D01*
X15848158Y-7627674D02*
X15867206Y-7618150D01*
X15867206Y-7618150D02*
X15895777Y-7618150D01*
X15895777Y-7618150D02*
X15914825Y-7627674D01*
X15991015Y-7827674D02*
X16000539Y-7818150D01*
X16000539Y-7818150D02*
X16019587Y-7789579D01*
X16019587Y-7789579D02*
X16029111Y-7770531D01*
X16029111Y-7770531D02*
X16038634Y-7741960D01*
X16038634Y-7741960D02*
X16048158Y-7694341D01*
X16048158Y-7694341D02*
X16048158Y-7656246D01*
X16048158Y-7656246D02*
X16038634Y-7608627D01*
X16038634Y-7608627D02*
X16029111Y-7580055D01*
X16029111Y-7580055D02*
X16019587Y-7561008D01*
X16019587Y-7561008D02*
X16000539Y-7532436D01*
X16000539Y-7532436D02*
X15991015Y-7522912D01*
D10*
X10835000Y-7924000D02*
G75*
G02*
X10775000Y-7924000I-30000J0D01*
G01*
X10775000Y-7924000D02*
G75*
G02*
X10835000Y-7924000I30000J0D01*
G01*
D11*
X11133872Y-7815484D02*
X11152920Y-7815484D01*
X11152920Y-7815484D02*
X11171967Y-7825008D01*
X11171967Y-7825008D02*
X11181491Y-7834531D01*
X11181491Y-7834531D02*
X11191015Y-7853579D01*
X11191015Y-7853579D02*
X11200539Y-7891674D01*
X11200539Y-7891674D02*
X11200539Y-7939293D01*
X11200539Y-7939293D02*
X11191015Y-7977388D01*
X11191015Y-7977388D02*
X11181491Y-7996436D01*
X11181491Y-7996436D02*
X11171967Y-8005960D01*
X11171967Y-8005960D02*
X11152920Y-8015484D01*
X11152920Y-8015484D02*
X11133872Y-8015484D01*
X11133872Y-8015484D02*
X11114824Y-8005960D01*
X11114824Y-8005960D02*
X11105301Y-7996436D01*
X11105301Y-7996436D02*
X11095777Y-7977388D01*
X11095777Y-7977388D02*
X11086253Y-7939293D01*
X11086253Y-7939293D02*
X11086253Y-7891674D01*
X11086253Y-7891674D02*
X11095777Y-7853579D01*
X11095777Y-7853579D02*
X11105301Y-7834531D01*
X11105301Y-7834531D02*
X11114824Y-7825008D01*
X11114824Y-7825008D02*
X11133872Y-7815484D01*
X11286253Y-7996436D02*
X11295777Y-8005960D01*
X11295777Y-8005960D02*
X11286253Y-8015484D01*
X11286253Y-8015484D02*
X11276729Y-8005960D01*
X11276729Y-8005960D02*
X11286253Y-7996436D01*
X11286253Y-7996436D02*
X11286253Y-8015484D01*
X11467205Y-7815484D02*
X11429110Y-7815484D01*
X11429110Y-7815484D02*
X11410062Y-7825008D01*
X11410062Y-7825008D02*
X11400539Y-7834531D01*
X11400539Y-7834531D02*
X11381491Y-7863103D01*
X11381491Y-7863103D02*
X11371967Y-7901198D01*
X11371967Y-7901198D02*
X11371967Y-7977388D01*
X11371967Y-7977388D02*
X11381491Y-7996436D01*
X11381491Y-7996436D02*
X11391015Y-8005960D01*
X11391015Y-8005960D02*
X11410062Y-8015484D01*
X11410062Y-8015484D02*
X11448158Y-8015484D01*
X11448158Y-8015484D02*
X11467205Y-8005960D01*
X11467205Y-8005960D02*
X11476729Y-7996436D01*
X11476729Y-7996436D02*
X11486253Y-7977388D01*
X11486253Y-7977388D02*
X11486253Y-7929769D01*
X11486253Y-7929769D02*
X11476729Y-7910722D01*
X11476729Y-7910722D02*
X11467205Y-7901198D01*
X11467205Y-7901198D02*
X11448158Y-7891674D01*
X11448158Y-7891674D02*
X11410062Y-7891674D01*
X11410062Y-7891674D02*
X11391015Y-7901198D01*
X11391015Y-7901198D02*
X11381491Y-7910722D01*
X11381491Y-7910722D02*
X11371967Y-7929769D01*
X11610062Y-7815484D02*
X11629110Y-7815484D01*
X11629110Y-7815484D02*
X11648158Y-7825008D01*
X11648158Y-7825008D02*
X11657682Y-7834531D01*
X11657682Y-7834531D02*
X11667205Y-7853579D01*
X11667205Y-7853579D02*
X11676729Y-7891674D01*
X11676729Y-7891674D02*
X11676729Y-7939293D01*
X11676729Y-7939293D02*
X11667205Y-7977388D01*
X11667205Y-7977388D02*
X11657682Y-7996436D01*
X11657682Y-7996436D02*
X11648158Y-8005960D01*
X11648158Y-8005960D02*
X11629110Y-8015484D01*
X11629110Y-8015484D02*
X11610062Y-8015484D01*
X11610062Y-8015484D02*
X11591015Y-8005960D01*
X11591015Y-8005960D02*
X11581491Y-7996436D01*
X11581491Y-7996436D02*
X11571967Y-7977388D01*
X11571967Y-7977388D02*
X11562443Y-7939293D01*
X11562443Y-7939293D02*
X11562443Y-7891674D01*
X11562443Y-7891674D02*
X11571967Y-7853579D01*
X11571967Y-7853579D02*
X11581491Y-7834531D01*
X11581491Y-7834531D02*
X11591015Y-7825008D01*
X11591015Y-7825008D02*
X11610062Y-7815484D01*
X11800539Y-7815484D02*
X11819586Y-7815484D01*
X11819586Y-7815484D02*
X11838634Y-7825008D01*
X11838634Y-7825008D02*
X11848158Y-7834531D01*
X11848158Y-7834531D02*
X11857682Y-7853579D01*
X11857682Y-7853579D02*
X11867205Y-7891674D01*
X11867205Y-7891674D02*
X11867205Y-7939293D01*
X11867205Y-7939293D02*
X11857682Y-7977388D01*
X11857682Y-7977388D02*
X11848158Y-7996436D01*
X11848158Y-7996436D02*
X11838634Y-8005960D01*
X11838634Y-8005960D02*
X11819586Y-8015484D01*
X11819586Y-8015484D02*
X11800539Y-8015484D01*
X11800539Y-8015484D02*
X11781491Y-8005960D01*
X11781491Y-8005960D02*
X11771967Y-7996436D01*
X11771967Y-7996436D02*
X11762443Y-7977388D01*
X11762443Y-7977388D02*
X11752920Y-7939293D01*
X11752920Y-7939293D02*
X11752920Y-7891674D01*
X11752920Y-7891674D02*
X11762443Y-7853579D01*
X11762443Y-7853579D02*
X11771967Y-7834531D01*
X11771967Y-7834531D02*
X11781491Y-7825008D01*
X11781491Y-7825008D02*
X11800539Y-7815484D01*
X11952920Y-8015484D02*
X11952920Y-7882150D01*
X11952920Y-7901198D02*
X11962443Y-7891674D01*
X11962443Y-7891674D02*
X11981491Y-7882150D01*
X11981491Y-7882150D02*
X12010063Y-7882150D01*
X12010063Y-7882150D02*
X12029110Y-7891674D01*
X12029110Y-7891674D02*
X12038634Y-7910722D01*
X12038634Y-7910722D02*
X12038634Y-8015484D01*
X12038634Y-7910722D02*
X12048158Y-7891674D01*
X12048158Y-7891674D02*
X12067205Y-7882150D01*
X12067205Y-7882150D02*
X12095777Y-7882150D01*
X12095777Y-7882150D02*
X12114824Y-7891674D01*
X12114824Y-7891674D02*
X12124348Y-7910722D01*
X12124348Y-7910722D02*
X12124348Y-8015484D01*
X12219586Y-8015484D02*
X12219586Y-7882150D01*
X12219586Y-7901198D02*
X12229110Y-7891674D01*
X12229110Y-7891674D02*
X12248158Y-7882150D01*
X12248158Y-7882150D02*
X12276729Y-7882150D01*
X12276729Y-7882150D02*
X12295777Y-7891674D01*
X12295777Y-7891674D02*
X12305301Y-7910722D01*
X12305301Y-7910722D02*
X12305301Y-8015484D01*
X12305301Y-7910722D02*
X12314824Y-7891674D01*
X12314824Y-7891674D02*
X12333872Y-7882150D01*
X12333872Y-7882150D02*
X12362443Y-7882150D01*
X12362443Y-7882150D02*
X12381491Y-7891674D01*
X12381491Y-7891674D02*
X12391015Y-7910722D01*
X12391015Y-7910722D02*
X12391015Y-8015484D01*
X12781491Y-7805960D02*
X12610063Y-8063103D01*
X13038634Y-7815484D02*
X13057682Y-7815484D01*
X13057682Y-7815484D02*
X13076729Y-7825008D01*
X13076729Y-7825008D02*
X13086253Y-7834531D01*
X13086253Y-7834531D02*
X13095777Y-7853579D01*
X13095777Y-7853579D02*
X13105301Y-7891674D01*
X13105301Y-7891674D02*
X13105301Y-7939293D01*
X13105301Y-7939293D02*
X13095777Y-7977388D01*
X13095777Y-7977388D02*
X13086253Y-7996436D01*
X13086253Y-7996436D02*
X13076729Y-8005960D01*
X13076729Y-8005960D02*
X13057682Y-8015484D01*
X13057682Y-8015484D02*
X13038634Y-8015484D01*
X13038634Y-8015484D02*
X13019586Y-8005960D01*
X13019586Y-8005960D02*
X13010063Y-7996436D01*
X13010063Y-7996436D02*
X13000539Y-7977388D01*
X13000539Y-7977388D02*
X12991015Y-7939293D01*
X12991015Y-7939293D02*
X12991015Y-7891674D01*
X12991015Y-7891674D02*
X13000539Y-7853579D01*
X13000539Y-7853579D02*
X13010063Y-7834531D01*
X13010063Y-7834531D02*
X13019586Y-7825008D01*
X13019586Y-7825008D02*
X13038634Y-7815484D01*
X13191015Y-7996436D02*
X13200539Y-8005960D01*
X13200539Y-8005960D02*
X13191015Y-8015484D01*
X13191015Y-8015484D02*
X13181491Y-8005960D01*
X13181491Y-8005960D02*
X13191015Y-7996436D01*
X13191015Y-7996436D02*
X13191015Y-8015484D01*
X13324348Y-7815484D02*
X13343396Y-7815484D01*
X13343396Y-7815484D02*
X13362444Y-7825008D01*
X13362444Y-7825008D02*
X13371967Y-7834531D01*
X13371967Y-7834531D02*
X13381491Y-7853579D01*
X13381491Y-7853579D02*
X13391015Y-7891674D01*
X13391015Y-7891674D02*
X13391015Y-7939293D01*
X13391015Y-7939293D02*
X13381491Y-7977388D01*
X13381491Y-7977388D02*
X13371967Y-7996436D01*
X13371967Y-7996436D02*
X13362444Y-8005960D01*
X13362444Y-8005960D02*
X13343396Y-8015484D01*
X13343396Y-8015484D02*
X13324348Y-8015484D01*
X13324348Y-8015484D02*
X13305301Y-8005960D01*
X13305301Y-8005960D02*
X13295777Y-7996436D01*
X13295777Y-7996436D02*
X13286253Y-7977388D01*
X13286253Y-7977388D02*
X13276729Y-7939293D01*
X13276729Y-7939293D02*
X13276729Y-7891674D01*
X13276729Y-7891674D02*
X13286253Y-7853579D01*
X13286253Y-7853579D02*
X13295777Y-7834531D01*
X13295777Y-7834531D02*
X13305301Y-7825008D01*
X13305301Y-7825008D02*
X13324348Y-7815484D01*
X13467206Y-7834531D02*
X13476729Y-7825008D01*
X13476729Y-7825008D02*
X13495777Y-7815484D01*
X13495777Y-7815484D02*
X13543396Y-7815484D01*
X13543396Y-7815484D02*
X13562444Y-7825008D01*
X13562444Y-7825008D02*
X13571967Y-7834531D01*
X13571967Y-7834531D02*
X13581491Y-7853579D01*
X13581491Y-7853579D02*
X13581491Y-7872627D01*
X13581491Y-7872627D02*
X13571967Y-7901198D01*
X13571967Y-7901198D02*
X13457682Y-8015484D01*
X13457682Y-8015484D02*
X13581491Y-8015484D01*
X13648158Y-7815484D02*
X13771967Y-7815484D01*
X13771967Y-7815484D02*
X13705301Y-7891674D01*
X13705301Y-7891674D02*
X13733872Y-7891674D01*
X13733872Y-7891674D02*
X13752920Y-7901198D01*
X13752920Y-7901198D02*
X13762444Y-7910722D01*
X13762444Y-7910722D02*
X13771967Y-7929769D01*
X13771967Y-7929769D02*
X13771967Y-7977388D01*
X13771967Y-7977388D02*
X13762444Y-7996436D01*
X13762444Y-7996436D02*
X13752920Y-8005960D01*
X13752920Y-8005960D02*
X13733872Y-8015484D01*
X13733872Y-8015484D02*
X13676729Y-8015484D01*
X13676729Y-8015484D02*
X13657682Y-8005960D01*
X13657682Y-8005960D02*
X13648158Y-7996436D01*
X13943396Y-7815484D02*
X13905301Y-7815484D01*
X13905301Y-7815484D02*
X13886253Y-7825008D01*
X13886253Y-7825008D02*
X13876729Y-7834531D01*
X13876729Y-7834531D02*
X13857682Y-7863103D01*
X13857682Y-7863103D02*
X13848158Y-7901198D01*
X13848158Y-7901198D02*
X13848158Y-7977388D01*
X13848158Y-7977388D02*
X13857682Y-7996436D01*
X13857682Y-7996436D02*
X13867206Y-8005960D01*
X13867206Y-8005960D02*
X13886253Y-8015484D01*
X13886253Y-8015484D02*
X13924348Y-8015484D01*
X13924348Y-8015484D02*
X13943396Y-8005960D01*
X13943396Y-8005960D02*
X13952920Y-7996436D01*
X13952920Y-7996436D02*
X13962444Y-7977388D01*
X13962444Y-7977388D02*
X13962444Y-7929769D01*
X13962444Y-7929769D02*
X13952920Y-7910722D01*
X13952920Y-7910722D02*
X13943396Y-7901198D01*
X13943396Y-7901198D02*
X13924348Y-7891674D01*
X13924348Y-7891674D02*
X13886253Y-7891674D01*
X13886253Y-7891674D02*
X13867206Y-7901198D01*
X13867206Y-7901198D02*
X13857682Y-7910722D01*
X13857682Y-7910722D02*
X13848158Y-7929769D01*
X14038634Y-7815484D02*
X14038634Y-7853579D01*
X14114825Y-7815484D02*
X14114825Y-7853579D01*
X14410063Y-8091674D02*
X14400539Y-8082150D01*
X14400539Y-8082150D02*
X14381491Y-8053579D01*
X14381491Y-8053579D02*
X14371968Y-8034531D01*
X14371968Y-8034531D02*
X14362444Y-8005960D01*
X14362444Y-8005960D02*
X14352920Y-7958341D01*
X14352920Y-7958341D02*
X14352920Y-7920246D01*
X14352920Y-7920246D02*
X14362444Y-7872627D01*
X14362444Y-7872627D02*
X14371968Y-7844055D01*
X14371968Y-7844055D02*
X14381491Y-7825008D01*
X14381491Y-7825008D02*
X14400539Y-7796436D01*
X14400539Y-7796436D02*
X14410063Y-7786912D01*
X14476729Y-7834531D02*
X14486253Y-7825008D01*
X14486253Y-7825008D02*
X14505301Y-7815484D01*
X14505301Y-7815484D02*
X14552920Y-7815484D01*
X14552920Y-7815484D02*
X14571968Y-7825008D01*
X14571968Y-7825008D02*
X14581491Y-7834531D01*
X14581491Y-7834531D02*
X14591015Y-7853579D01*
X14591015Y-7853579D02*
X14591015Y-7872627D01*
X14591015Y-7872627D02*
X14581491Y-7901198D01*
X14581491Y-7901198D02*
X14467206Y-8015484D01*
X14467206Y-8015484D02*
X14591015Y-8015484D01*
X14705301Y-7901198D02*
X14686253Y-7891674D01*
X14686253Y-7891674D02*
X14676729Y-7882150D01*
X14676729Y-7882150D02*
X14667206Y-7863103D01*
X14667206Y-7863103D02*
X14667206Y-7853579D01*
X14667206Y-7853579D02*
X14676729Y-7834531D01*
X14676729Y-7834531D02*
X14686253Y-7825008D01*
X14686253Y-7825008D02*
X14705301Y-7815484D01*
X14705301Y-7815484D02*
X14743396Y-7815484D01*
X14743396Y-7815484D02*
X14762444Y-7825008D01*
X14762444Y-7825008D02*
X14771968Y-7834531D01*
X14771968Y-7834531D02*
X14781491Y-7853579D01*
X14781491Y-7853579D02*
X14781491Y-7863103D01*
X14781491Y-7863103D02*
X14771968Y-7882150D01*
X14771968Y-7882150D02*
X14762444Y-7891674D01*
X14762444Y-7891674D02*
X14743396Y-7901198D01*
X14743396Y-7901198D02*
X14705301Y-7901198D01*
X14705301Y-7901198D02*
X14686253Y-7910722D01*
X14686253Y-7910722D02*
X14676729Y-7920246D01*
X14676729Y-7920246D02*
X14667206Y-7939293D01*
X14667206Y-7939293D02*
X14667206Y-7977388D01*
X14667206Y-7977388D02*
X14676729Y-7996436D01*
X14676729Y-7996436D02*
X14686253Y-8005960D01*
X14686253Y-8005960D02*
X14705301Y-8015484D01*
X14705301Y-8015484D02*
X14743396Y-8015484D01*
X14743396Y-8015484D02*
X14762444Y-8005960D01*
X14762444Y-8005960D02*
X14771968Y-7996436D01*
X14771968Y-7996436D02*
X14781491Y-7977388D01*
X14781491Y-7977388D02*
X14781491Y-7939293D01*
X14781491Y-7939293D02*
X14771968Y-7920246D01*
X14771968Y-7920246D02*
X14762444Y-7910722D01*
X14762444Y-7910722D02*
X14743396Y-7901198D01*
X15019587Y-8015484D02*
X15019587Y-7815484D01*
X15105301Y-8015484D02*
X15105301Y-7910722D01*
X15105301Y-7910722D02*
X15095777Y-7891674D01*
X15095777Y-7891674D02*
X15076730Y-7882150D01*
X15076730Y-7882150D02*
X15048158Y-7882150D01*
X15048158Y-7882150D02*
X15029110Y-7891674D01*
X15029110Y-7891674D02*
X15019587Y-7901198D01*
X15229110Y-8015484D02*
X15210063Y-8005960D01*
X15210063Y-8005960D02*
X15200539Y-7996436D01*
X15200539Y-7996436D02*
X15191015Y-7977388D01*
X15191015Y-7977388D02*
X15191015Y-7920246D01*
X15191015Y-7920246D02*
X15200539Y-7901198D01*
X15200539Y-7901198D02*
X15210063Y-7891674D01*
X15210063Y-7891674D02*
X15229110Y-7882150D01*
X15229110Y-7882150D02*
X15257682Y-7882150D01*
X15257682Y-7882150D02*
X15276730Y-7891674D01*
X15276730Y-7891674D02*
X15286253Y-7901198D01*
X15286253Y-7901198D02*
X15295777Y-7920246D01*
X15295777Y-7920246D02*
X15295777Y-7977388D01*
X15295777Y-7977388D02*
X15286253Y-7996436D01*
X15286253Y-7996436D02*
X15276730Y-8005960D01*
X15276730Y-8005960D02*
X15257682Y-8015484D01*
X15257682Y-8015484D02*
X15229110Y-8015484D01*
X15410063Y-8015484D02*
X15391015Y-8005960D01*
X15391015Y-8005960D02*
X15381491Y-7986912D01*
X15381491Y-7986912D02*
X15381491Y-7815484D01*
X15562444Y-8005960D02*
X15543396Y-8015484D01*
X15543396Y-8015484D02*
X15505301Y-8015484D01*
X15505301Y-8015484D02*
X15486253Y-8005960D01*
X15486253Y-8005960D02*
X15476730Y-7986912D01*
X15476730Y-7986912D02*
X15476730Y-7910722D01*
X15476730Y-7910722D02*
X15486253Y-7891674D01*
X15486253Y-7891674D02*
X15505301Y-7882150D01*
X15505301Y-7882150D02*
X15543396Y-7882150D01*
X15543396Y-7882150D02*
X15562444Y-7891674D01*
X15562444Y-7891674D02*
X15571968Y-7910722D01*
X15571968Y-7910722D02*
X15571968Y-7929769D01*
X15571968Y-7929769D02*
X15476730Y-7948817D01*
X15648158Y-8005960D02*
X15667206Y-8015484D01*
X15667206Y-8015484D02*
X15705301Y-8015484D01*
X15705301Y-8015484D02*
X15724349Y-8005960D01*
X15724349Y-8005960D02*
X15733872Y-7986912D01*
X15733872Y-7986912D02*
X15733872Y-7977388D01*
X15733872Y-7977388D02*
X15724349Y-7958341D01*
X15724349Y-7958341D02*
X15705301Y-7948817D01*
X15705301Y-7948817D02*
X15676730Y-7948817D01*
X15676730Y-7948817D02*
X15657682Y-7939293D01*
X15657682Y-7939293D02*
X15648158Y-7920246D01*
X15648158Y-7920246D02*
X15648158Y-7910722D01*
X15648158Y-7910722D02*
X15657682Y-7891674D01*
X15657682Y-7891674D02*
X15676730Y-7882150D01*
X15676730Y-7882150D02*
X15705301Y-7882150D01*
X15705301Y-7882150D02*
X15724349Y-7891674D01*
X15800539Y-8091674D02*
X15810063Y-8082150D01*
X15810063Y-8082150D02*
X15829111Y-8053579D01*
X15829111Y-8053579D02*
X15838634Y-8034531D01*
X15838634Y-8034531D02*
X15848158Y-8005960D01*
X15848158Y-8005960D02*
X15857682Y-7958341D01*
X15857682Y-7958341D02*
X15857682Y-7920246D01*
X15857682Y-7920246D02*
X15848158Y-7872627D01*
X15848158Y-7872627D02*
X15838634Y-7844055D01*
X15838634Y-7844055D02*
X15829111Y-7825008D01*
X15829111Y-7825008D02*
X15810063Y-7796436D01*
X15810063Y-7796436D02*
X15800539Y-7786912D01*
M02*
