M48
; DRILL file {KiCad 9.0.0} date 2025-03-15T13:03:48+0100
; FORMAT={-:-/ absolute / metric / decimal}
; #@! TF.CreationDate,2025-03-15T13:03:48+01:00
; #@! TF.GenerationSoftware,Kicad,Pcbnew,9.0.0
; #@! TF.FileFunction,Plated,1,2,PTH
FMAT,2
METRIC
; #@! TA.AperFunction,Plated,PTH,ViaDrill
T1C0.300
; #@! TA.AperFunction,Plated,PTH,ComponentDrill
T2C0.600
%
G90
G05
T1
X108.8Y-50.65
X109.4Y-53.75
X109.4Y-66.25
X109.4Y-69.15
X109.4Y-56.25
X109.4Y-58.75
X109.4Y-61.25
X109.4Y-63.75
X109.8Y-51.25
X110.025Y-55.061
X110.025Y-59.875
X110.032Y-64.942
X110.05Y-62.478
X110.15Y-57.4
X110.385Y-60.423
X110.65Y-53.15
X111.9Y-53.75
X111.9Y-56.25
X111.9Y-69.15
X111.9Y-58.75
X111.9Y-61.25
X111.9Y-63.75
X111.9Y-66.25
X112.3Y-51.25
X112.522Y-55.036
X112.522Y-57.5
X112.522Y-59.963
X112.522Y-62.453
X112.522Y-64.967
X114.15Y-65.521
X114.4Y-53.75
X114.4Y-58.75
X114.4Y-69.15
X114.4Y-56.25
X114.4Y-61.25
X114.4Y-63.75
X114.8Y-51.25
X114.8Y-66.65
X115.036Y-54.985
X115.036Y-57.474
X115.036Y-59.989
X115.036Y-62.478
X115.036Y-64.993
X115.61Y-53.125
X115.65Y-51.975
X116.65Y-65.531
X116.9Y-56.25
X116.9Y-63.75
X116.9Y-53.75
X116.9Y-58.75
X116.9Y-61.25
X116.9Y-69.15
X117.3Y-51.25
X117.3Y-66.65
X117.525Y-54.96
X117.525Y-57.449
X117.525Y-59.938
X117.525Y-62.478
X117.525Y-64.993
X119.15Y-65.517
X119.4Y-53.75
X119.4Y-56.25
X119.4Y-69.15
X119.4Y-58.75
X119.4Y-61.25
X119.4Y-63.75
X119.8Y-51.25
X119.8Y-66.65
X120.015Y-57.449
X120.015Y-59.938
X120.015Y-64.967
X120.04Y-54.96
X120.04Y-62.478
X120.65Y-66.0
X120.65Y-68.29
X121.695Y-65.547
X121.9Y-53.75
X121.9Y-58.75
X121.9Y-61.25
X121.9Y-56.25
X121.9Y-63.75
X121.9Y-69.15
X122.3Y-51.25
X122.3Y-66.65
X122.504Y-62.427
X122.529Y-54.96
X122.529Y-57.449
X122.529Y-59.938
X122.529Y-64.967
X123.15Y-65.94
X123.15Y-68.22
X124.15Y-65.513
X124.4Y-53.75
X124.4Y-56.25
X124.4Y-69.15
X124.4Y-58.75
X124.4Y-61.25
X124.4Y-63.75
X124.8Y-51.25
X124.8Y-66.65
X125.018Y-54.96
X125.018Y-62.453
X125.018Y-64.967
X125.044Y-57.449
X125.044Y-59.963
X125.65Y-60.5
X125.65Y-67.329
X125.65Y-68.819
X126.65Y-52.85
X126.65Y-55.45
X126.65Y-57.7
X126.65Y-60.325
X126.65Y-65.45
X126.669Y-62.884
X126.9Y-69.15
X127.3Y-51.25
X127.3Y-56.65
X127.3Y-59.15
X127.3Y-61.65
X127.3Y-64.15
X127.3Y-66.65
X127.335Y-54.15
X127.9Y-69.75
T2
X108.395Y-60.2
X108.4Y-52.7
X108.4Y-55.2
X108.4Y-57.7
X108.4Y-62.7
X108.4Y-65.2
X108.4Y-67.7
X110.85Y-50.25
X110.85Y-70.15
X113.35Y-50.25
X113.35Y-70.15
X115.85Y-50.25
X115.85Y-70.15
X118.35Y-50.25
X118.35Y-70.175
X120.85Y-50.25
X120.85Y-70.18
X123.35Y-50.25
X123.35Y-70.15
X125.85Y-50.25
X125.85Y-70.15
X128.3Y-52.7
X128.3Y-55.2
X128.3Y-57.7
X128.3Y-60.2
X128.3Y-62.7
X128.3Y-65.2
X128.3Y-67.7
M30
